<?xml version="1.0" encoding="utf-8"?>
<!-- Generator: Adobe Illustrator 16.0.0, SVG Export Plug-In . SVG Version: 6.00 Build 0)  -->
<!DOCTYPE svg PUBLIC "-//W3C//DTD SVG 1.1//EN" "http://www.w3.org/Graphics/SVG/1.1/DTD/svg11.dtd">
<svg version="1.1" id="Layer_1" xmlns="http://www.w3.org/2000/svg" xmlns:xlink="http://www.w3.org/1999/xlink" x="0px" y="0px"
	 width="200px" height="200px" viewBox="0 0 200 200" enable-background="new 0 0 200 200" xml:space="preserve">
<circle fill="#FFFFFF" cx="101.5" cy="101.499" r="89.461"/>
<g>
	<rect x="86.295" y="25.222" fill="#DA866C" width="30.403" height="12.539"/>
	<path fill="#889DC8" d="M127.656,75.888c0,1.328,1.086,2.417,2.415,2.417h1.885v4.686h-1.885c-1.329,0-2.415,1.089-2.415,2.417
		c0,1.328,1.086,2.415,2.415,2.415h1.885v4.688h-1.885c-1.329,0-2.415,1.063-2.415,2.417c0,1.329,1.086,2.416,2.415,2.416h1.885
		v4.664h-1.885c-1.329,0-2.415,1.087-2.415,2.416c0,1.354,1.086,2.418,2.415,2.418h1.885v61.587c0,5.17-4.18,9.35-9.352,9.35H80.395
		c-5.169,0-9.351-4.18-9.351-9.35V106.84h2.755c1.329,0,2.417-1.064,2.417-2.418c0-1.329-1.088-2.416-2.417-2.416h-2.755v-4.664
		h2.755c1.329,0,2.417-1.086,2.417-2.416c0-1.354-1.088-2.417-2.417-2.417h-2.755v-4.688h2.755c1.329,0,2.417-1.086,2.417-2.415
		c0-1.329-1.088-2.417-2.417-2.417h-2.755v-4.686h2.755c1.329,0,2.417-1.089,2.417-2.417c0-1.329-1.088-2.417-2.417-2.417h-2.755
		V62.695c0-3.069,1.426-5.993,3.843-7.901l15.487-12.202h0.025V37.76h22.227v4.832l15.489,12.202
		c2.414,1.908,3.841,4.832,3.841,7.901v10.775h-1.885C128.742,73.471,127.656,74.559,127.656,75.888z"/>
	<rect x="71.044" y="119" fill="#5D71AC" width="60.912" height="36.72"/>
</g>
</svg>
