<?xml version="1.0" encoding="utf-8"?>
<!-- Generator: Adobe Illustrator 16.0.0, SVG Export Plug-In . SVG Version: 6.00 Build 0)  -->
<!DOCTYPE svg PUBLIC "-//W3C//DTD SVG 1.1//EN" "http://www.w3.org/Graphics/SVG/1.1/DTD/svg11.dtd">
<svg version="1.1" id="Layer_1" xmlns="http://www.w3.org/2000/svg" xmlns:xlink="http://www.w3.org/1999/xlink" x="0px" y="0px"
	 width="200px" height="200px" viewBox="0 0 200 200" enable-background="new 0 0 200 200" xml:space="preserve">
<circle fill="#FFFFFF" cx="102.379" cy="102.103" r="92.211"/>
<g>
	<g>
		<g>
			<g>
				<defs>
					<path id="SVGID_1_" d="M154.873,157.017c17.902-7.403,29.988-26.963,28.603-46.283c-1.387-19.326-3.498-35.338-13.849-51.714
						c-10.103-15.979-15.043-28.309-24.297-34.125c-7.113-4.474-25.63-5.844-39.706-4.32c-8.356,0.909-9.726-1.029-25.06,4.32
						c-6.441,2.245-12.75,5.266-18.641,8.712c-9.67,5.661-18.979,12.189-26.333,20.641c-15.448,17.736-20.833,43.694-13.713,66.109
						c2.239,7.05,5.592,13.686,9.003,20.249c4.369,8.405,9.021,16.967,16.261,23.078c8.26,6.963,19.126,10.063,29.837,11.464
						c26.767,3.504,54.7-2.777,77.389-17.401"/>
				</defs>
				<clipPath id="SVGID_2_">
					<use xlink:href="#SVGID_1_"  overflow="visible"/>
				</clipPath>
				<g clip-path="url(#SVGID_2_)">
					<g>
						<path fill="#E69C0B" d="M92.033,173.877c0,0,5.529,5.738,16.866,3.519c11.337-2.222,13.25,0.471,16.633-5.135
							c3.388-5.604,3.041-16.164-6.469-25.437c-9.518-9.269-25.556-3.257-34.689,2.972C75.24,156.024,92.033,173.877,92.033,173.877
							z"/>
						<path fill="#2E1F04" d="M106.05,166.189c0,0-0.977-11.917,4.634-24.174c0,0,3.195,9.342,7.982,14.357
							C123.453,161.385,113.491,168.611,106.05,166.189z"/>
						<g>
							<path fill="#9E6600" d="M95.177,165.159c-0.707,1.382-1.329,2.529-1.726,3.754c-0.208,0.604-0.361,1.22-0.445,1.87
								c-0.128,0.663-0.115,1.342-0.201,2.141c-0.52-0.581-0.888-1.316-1.004-2.107c-0.141-0.791-0.068-1.63,0.199-2.388
								c0.252-0.767,0.676-1.461,1.218-2.027C93.766,165.843,94.409,165.375,95.177,165.159z"/>
							<path fill="#9E6600" d="M123.912,172.43c-0.768-1.459-1.375-2.751-2.156-3.925c-0.377-0.596-0.811-1.14-1.287-1.671
								c-0.464-0.564-1.038-1.01-1.633-1.615c0.825,0.002,1.674,0.22,2.383,0.678c0.727,0.438,1.363,1.049,1.813,1.764
								c0.466,0.709,0.785,1.498,0.944,2.309C124.123,170.781,124.156,171.619,123.912,172.43z"/>
							<path fill="#9E6600" d="M126,164.476c-0.884-0.885-1.51-1.61-2.229-2.137c-0.349-0.274-0.717-0.494-1.152-0.682
								c-0.435-0.223-0.938-0.335-1.543-0.571c0.488-0.394,1.106-0.63,1.764-0.613c0.651-0.003,1.333,0.23,1.854,0.644
								c0.529,0.402,0.923,0.946,1.149,1.523C126.062,163.229,126.159,163.849,126,164.476z"/>
							<path fill="#9E6600" d="M99.038,167c-0.052,0.801-0.083,1.513-0.083,2.218c-0.002,0.702,0.013,1.384,0.062,2.064
								c0.068,0.679,0.109,1.369,0.221,2.067c0.074,0.709,0.22,1.418,0.257,2.233c-0.608-0.517-1.079-1.17-1.412-1.887
								c-0.349-0.717-0.521-1.513-0.592-2.312c-0.059-0.8,0.037-1.61,0.283-2.371C98.026,168.257,98.407,167.521,99.038,167z"/>
							<path fill="#9E6600" d="M103.952,168.267c0.497,1.377,0.685,2.636,0.893,3.891l0.299,1.871l0.368,1.977
								c-0.658-0.347-1.141-0.938-1.503-1.569c-0.345-0.641-0.557-1.332-0.675-2.035c-0.112-0.696-0.117-1.406-0.028-2.102
								C103.407,169.604,103.575,168.913,103.952,168.267z"/>
							<path fill="#9E6600" d="M109.227,167.93c0.561,0.461,0.949,1.021,1.288,1.601c0.329,0.586,0.585,1.204,0.762,1.848
								c0.182,0.646,0.28,1.321,0.285,2.005c-0.012,0.684-0.105,1.385-0.429,2.034c-0.318-0.651-0.543-1.241-0.761-1.836
								c-0.216-0.597-0.405-1.187-0.566-1.793c-0.171-0.602-0.309-1.215-0.419-1.854C109.284,169.3,109.202,168.648,109.227,167.93z
								"/>
							<path fill="#9E6600" d="M114.713,167.347c0.628,0.33,1.082,0.845,1.469,1.386c0.377,0.551,0.664,1.15,0.861,1.777
								c0.372,1.26,0.478,2.62-0.035,3.922c-0.375-0.602-0.6-1.183-0.836-1.754c-0.211-0.576-0.421-1.139-0.588-1.709
								c-0.183-0.569-0.344-1.144-0.489-1.735C114.947,168.639,114.812,168.037,114.713,167.347z"/>
							<path fill="#9E6600" d="M113.947,147.586c-0.087-0.445,0.057-0.834,0.263-1.155c0.215-0.315,0.515-0.575,0.859-0.726
								c0.688-0.301,1.54-0.282,2.156,0.342c-0.323,0.321-0.591,0.492-0.832,0.668c-0.245,0.15-0.459,0.288-0.69,0.384
								c-0.229,0.101-0.461,0.187-0.734,0.267C114.685,147.434,114.388,147.504,113.947,147.586z"/>
							<path fill="#9E6600" d="M115.46,150.293c0.009-0.527,0.297-0.964,0.632-1.3c0.345-0.333,0.775-0.563,1.221-0.693
								c0.449-0.131,0.915-0.149,1.366-0.077c0.453,0.084,0.893,0.255,1.274,0.6c-0.432,0.299-0.815,0.449-1.178,0.602
								c-0.363,0.145-0.705,0.25-1.044,0.346c-0.338,0.099-0.672,0.176-1.033,0.258L115.46,150.293z"/>
							<path fill="#9E6600" d="M117.253,153.359c0.144-0.553,0.48-0.969,0.867-1.318c0.394-0.341,0.863-0.588,1.374-0.734
								c1.004-0.293,2.231-0.12,2.971,0.728c-0.541,0.197-0.967,0.276-1.378,0.416l-1.183,0.331
								c-0.387,0.109-0.785,0.213-1.216,0.315C118.256,153.195,117.809,153.297,117.253,153.359z"/>
							<path fill="#9E6600" d="M119.702,156.49c0.082-0.494,0.405-0.846,0.748-1.11c0.353-0.258,0.765-0.414,1.179-0.478
								c0.418-0.068,0.841-0.033,1.241,0.084c0.4,0.132,0.782,0.333,1.099,0.705c-0.418,0.265-0.778,0.387-1.122,0.5
								c-0.342,0.108-0.664,0.177-0.983,0.223c-0.323,0.052-0.637,0.071-0.977,0.088
								C120.541,156.506,120.185,156.499,119.702,156.49z"/>
						</g>
					</g>
					<path fill="#FDCBBB" d="M106.05,166.189c0,0-1.168-16.621,8.977-30.917c0,0,27.06,10.033,42.069-12.659
						c0,0,7.635-9.534,3.074-27.462c0,0-5.301-25.983-9.218-31.926c-3.92-5.945-27.286-19.52-50.523,0.927
						c-23.238,20.445-18.158,85.962-16.249,90.035C84.18,154.187,103.131,171.055,106.05,166.189z"/>
					<g>
						<path fill="#0B1838" d="M48.381,213.836c0,0-21.292-4.58-31.137-19.201C7.396,180.015,49.855,42.532,98.759,28.354
							c48.897-14.183,58.431,19.835,58.431,19.835s6.879,20.156,12.438,23.083c0,0-3.491,2.623-14.388,2.791l-2.124-7.484
							l-1.265,7.913c0,0-17.21,3.73-34.801-0.904c0,0,1.468-10.568,0.426-16.38c0,0-4.228,16.914-6.897,18.461l-7.04-0.162
							c0,0-23.938,53.814-12.215,90.851c0,0,7.211,19.312,14.248,27.611C105.57,193.97,81.897,214.85,48.381,213.836z"/>
						<path fill="#1D3F81" d="M25.049,192.647c0.541-5.536,1.41-11.036,2.327-16.526c0.975-5.482,2.092-10.938,3.323-16.365
							c2.468-10.866,5.589-21.576,9.189-32.126c3.742-10.5,8.017-20.828,13.182-30.718c2.605-4.929,5.427-9.74,8.441-14.43
							c3.114-4.626,6.408-9.124,10.013-13.362c-3.336,4.456-6.497,9.021-9.378,13.763c-2.869,4.748-5.564,9.601-8.026,14.565
							c-2.412,4.992-4.781,10.005-6.891,15.135c-2.107,5.127-4.086,10.311-5.893,15.554c-1.843,5.228-3.55,10.505-5.133,15.824
							c-1.583,5.32-2.98,10.693-4.369,16.064c-1.361,5.381-2.601,10.793-3.725,16.237C26.945,181.691,25.932,187.156,25.049,192.647
							z"/>
						<path fill="#1D3F81" d="M45.896,159.63c0.513-5.956,1.508-11.871,2.807-17.711c1.298-5.847,2.959-11.61,4.908-17.278
							c2.016-5.649,4.402-11.17,7.194-16.48c2.867-5.278,6.264-10.265,10.193-14.764c-1.635,2.512-3.458,4.86-4.864,7.494
							c-1.592,2.513-2.871,5.2-4.263,7.815l-1.866,4.046c-0.304,0.677-0.639,1.335-0.916,2.025l-0.837,2.063
							c-0.542,1.384-1.181,2.722-1.663,4.131l-1.536,4.18c-1.959,5.607-3.667,11.3-5.193,17.052
							c-0.749,2.88-1.472,5.766-2.126,8.671C47.035,153.771,46.466,156.698,45.896,159.63z"/>
						<path fill="#1D3F81" d="M131.585,32.472c4.127,0.533,8.072,2.39,11.311,5.052c0.422,0.314,0.808,0.674,1.187,1.038
							c0.383,0.36,0.776,0.711,1.115,1.116l1.048,1.177l0.951,1.26c0.333,0.409,0.604,0.862,0.883,1.306
							c0.276,0.447,0.571,0.887,0.832,1.34c0.507,0.91,1.025,1.814,1.51,2.737c1.937,3.686,3.716,7.45,5.453,11.22
							c0.868,1.885,1.739,3.77,2.699,5.603c0.941,1.84,1.976,3.657,3.43,5.148c-1.58-1.369-2.704-3.184-3.76-4.963
							c-1.034-1.817-1.967-3.674-2.898-5.533c-1.853-3.723-3.617-7.473-5.596-11.118c-0.474-0.918-0.979-1.823-1.473-2.735
							c-0.253-0.453-0.531-0.876-0.794-1.316c-0.271-0.438-0.529-0.88-0.848-1.283c-1.149-1.705-2.597-3.175-4.118-4.549
							c-1.536-1.355-3.26-2.515-5.102-3.437C135.576,33.605,133.624,32.87,131.585,32.472z"/>
						<path fill="#1D3F81" d="M120.077,35.356c-1.627,0.564-3.11,1.45-4.451,2.492c-1.329,1.042-2.573,2.224-3.57,3.591
							c-2.091,2.67-3.496,5.821-4.343,9.104c-0.902,3.278-1.105,6.697-1.496,10.115l-0.602,5.118l-0.364,2.553
							c-0.064,0.423-0.13,0.85-0.21,1.271l-0.075,0.318c-0.025,0.056-0.002,0.094-0.082,0.171c-0.089-0.002-0.058-0.073-0.072-0.087
							l-0.004-0.082c-0.004-0.217,0.013-0.431,0.025-0.646c0.006,0.215,0.012,0.431,0.032,0.642l0.012,0.078
							c-0.005,0.022,0.028,0.049-0.016,0.028c-0.017-0.003,0.016-0.078,0.021-0.124l0.042-0.314c0.049-0.423,0.09-0.855,0.125-1.279
							l0.193-2.566l0.386-5.137c0.062-0.852,0.125-1.711,0.199-2.563c0.068-0.855,0.137-1.71,0.258-2.571
							c0.119-0.856,0.184-1.721,0.349-2.573l0.539-2.544c0.927-3.341,2.367-6.604,4.624-9.274
							C113.803,38.402,116.733,36.236,120.077,35.356z"/>
						<path fill="#1D3F81" d="M129.321,37.764c1.847,1.85,2.909,4.317,3.888,6.701c0.951,2.423,1.64,4.936,2.206,7.468
							c0.3,1.265,0.511,2.54,0.754,3.814c0.191,1.281,0.405,2.56,0.566,3.837l0.513,3.843c0.146,1.283,0.316,2.563,0.438,3.851
							c-0.292-1.257-0.536-2.523-0.808-3.793l-0.724-3.807l-0.697-3.802c-0.267-1.26-0.48-2.531-0.786-3.776
							c-0.546-2.516-1.206-4.999-2.017-7.434c-0.419-1.21-0.85-2.425-1.397-3.585C130.73,39.917,130.143,38.761,129.321,37.764z"/>
						<path fill="#1D3F81" d="M84.259,102.548c-1.418,4.946-2.536,9.955-3.505,14.979c-0.943,5.032-1.671,10.094-2.076,15.185
							c-0.417,5.082-0.492,10.191-0.141,15.278c0.189,2.544,0.503,5.074,0.93,7.596c0.418,2.526,1.061,5.004,1.761,7.484
							c-1.028-2.361-1.822-4.825-2.499-7.328c-0.605-2.512-1.086-5.062-1.383-7.637c-0.292-2.575-0.442-5.167-0.475-7.757
							c-0.007-2.59,0.087-5.179,0.284-7.762c0.225-2.578,0.529-5.146,0.929-7.703c0.419-2.552,0.906-5.087,1.505-7.6
							C80.766,112.257,82.278,107.303,84.259,102.548z"/>
					</g>
					<g>
						<path fill="#FDCBBB" d="M98.354,102.424c0,0-11.248-4.217-12.118-14.731c0,0,0.487-6.795,6.731-6.432
							c6.246,0.364,6.916,6.536,6.916,6.536L98.354,102.424z"/>
						<path fill="#B06356" d="M95.791,86.32c-0.755-0.345-1.529-0.605-2.183-0.544c-0.648,0.062-1.012,0.39-1.321,0.912
							c-0.304,0.529-0.503,1.218-0.674,1.908c-0.134,0.652-0.18,1.276-0.091,1.94c0.089,0.656,0.266,1.318,0.524,1.972
							c0.271,0.646,0.613,1.271,1.01,1.879c0.418,0.591,0.875,1.169,1.435,1.66c0.55,0.509,1.18,0.938,1.98,1.192
							c-0.817,0.265-1.744,0.094-2.562-0.223c-0.813-0.345-1.568-0.833-2.217-1.445c-0.637-0.615-1.181-1.341-1.615-2.135
							c-0.419-0.803-0.706-1.692-0.839-2.622c-0.112-0.934-0.007-1.935,0.288-2.826c0.307-0.832,0.668-1.678,1.354-2.425
							c0.182-0.182,0.394-0.347,0.592-0.509c0.234-0.136,0.471-0.278,0.731-0.36c0.531-0.165,1.088-0.167,1.562-0.031
							C94.703,84.978,95.359,85.596,95.791,86.32z"/>
					</g>
					<g>
						<path fill="#0B1838" d="M118.316,97.369c0.175-1.147,0.789-2.17,1.606-3.009c0.819-0.834,1.927-1.461,3.132-1.712
							c1.201-0.238,2.484-0.175,3.566,0.3c0.281,0.086,0.548,0.212,0.789,0.375c0.246,0.149,0.491,0.307,0.726,0.468
							c0.439,0.365,0.846,0.768,1.186,1.225c-0.6-0.014-1.108-0.129-1.628-0.188c-0.26-0.019-0.511-0.039-0.754-0.067l-0.362-0.054
							l-0.361-0.002c-0.951-0.093-1.828,0.032-2.676,0.189c-0.851,0.175-1.688,0.478-2.54,0.906
							C120.143,96.231,119.28,96.753,118.316,97.369z"/>
						<path fill="#0B1838" d="M149.297,92.892c0.349-0.719,0.981-1.182,1.69-1.456c0.715-0.267,1.558-0.297,2.337-0.046
							c0.768,0.249,1.475,0.737,1.889,1.383c0.241,0.3,0.356,0.677,0.478,1.021c0.083,0.369,0.13,0.742,0.087,1.136
							c-0.397-0.134-0.679-0.312-0.979-0.449c-0.309-0.115-0.538-0.289-0.808-0.375c-0.484-0.253-0.93-0.373-1.354-0.525
							c-0.429-0.14-0.88-0.26-1.419-0.36L149.297,92.892z"/>
					</g>
					<g>
						<g>
							<defs>
								<path id="SVGID_3_" d="M106.05,166.189c0,0-1.168-16.621,8.977-30.917c0,0,27.06,10.033,42.069-12.659
									c0,0,7.635-9.534,3.074-27.462c0,0-5.301-25.983-9.218-31.926c-3.92-5.945-27.286-19.52-50.523,0.927
									c-23.238,20.445-18.158,85.962-16.249,90.035C84.18,154.187,103.131,171.055,106.05,166.189z"/>
							</defs>
							<clipPath id="SVGID_4_">
								<use xlink:href="#SVGID_3_"  overflow="visible"/>
							</clipPath>
							<g clip-path="url(#SVGID_4_)">
								
									<radialGradient id="SVGID_5_" cx="-72.501" cy="27.02" r="13.9115" gradientTransform="matrix(2.5448 0 0 -0.9954 304.4181 130.3532)" gradientUnits="userSpaceOnUse">
									<stop  offset="0" style="stop-color:#B14130;stop-opacity:0.9367"/>
									<stop  offset="0.6367" style="stop-color:#FDBDAB;stop-opacity:0"/>
								</radialGradient>
								<path opacity="0.6" fill="url(#SVGID_5_)" enable-background="new    " d="M119.918,95.959
									c25.542,0,46.248,3.358,46.248,7.499c0,4.142-20.706,7.5-46.248,7.5c-25.547,0-46.253-3.358-46.253-7.5
									C73.665,99.317,94.371,95.959,119.918,95.959z"/>
								
									<radialGradient id="SVGID_6_" cx="-80.7559" cy="27.021" r="10.5278" gradientTransform="matrix(2.9972 0 0 -0.9954 397.8164 130.3532)" gradientUnits="userSpaceOnUse">
									<stop  offset="0" style="stop-color:#B14130;stop-opacity:0.9367"/>
									<stop  offset="0.6367" style="stop-color:#FDBDAB;stop-opacity:0"/>
								</radialGradient>
								
									<ellipse opacity="0.6" fill="url(#SVGID_6_)" enable-background="new    " cx="155.777" cy="103.458" rx="41.223" ry="5.674"/>
							</g>
						</g>
						<path fill="#FFFFFF" d="M108.747,81.246c0,0-4.064-15.521-2.92-23.209c0,0,18.432-12.531,43.47-3.854
							c0,0,3.644,7.914,3.242,22.206C152.539,76.389,135.287,73.352,108.747,81.246z"/>
						<g>
							<g>
								<path fill="#0B1838" d="M112.637,92.661c0,0-1.745,0.557-1.108-1.084c0.643-1.637,6.018-6.231,10.534-6.512
									c4.517-0.29-1.711,2.672-3.969,3.849C115.842,90.097,112.637,92.661,112.637,92.661z"/>
								<path fill="#0B1838" d="M156.185,87.041c0,0,1.204-0.042,0.586-1.252c-0.611-1.214-4.666-3.546-7.64-2.459
									c-2.972,1.087,1.44,1.782,3.048,2.122C153.787,85.793,156.185,87.041,156.185,87.041z"/>
							</g>
							<path fill="#0B1838" d="M131.143,117.175c0.763-1.147,1.8-2.04,2.962-2.759c1.162-0.704,2.5-1.228,3.966-1.363
								c1.444-0.154,3.104,0.218,4.285,1.213c1.197,0.977,1.781,2.386,1.872,3.732c-0.966-0.972-1.863-1.806-2.858-2.22
								c-0.979-0.438-1.997-0.536-3.098-0.438c-1.104,0.096-2.255,0.373-3.43,0.717
								C133.654,116.398,132.453,116.802,131.143,117.175z"/>
							<path fill="#FD9A83" d="M141.969,91.974c0,0,0.044-2.83-1.389-0.297c-1.433,2.536-3.76,7.574-3.681,10.047
								c0.087,2.475,2.255,8.318,5.322,5.804c3.067-2.514,1.931-5.678,1.061-8.667C142.413,95.873,141.969,91.974,141.969,91.974z"
								/>
						</g>
					</g>
				</g>
			</g>
		</g>
	</g>
</g>
</svg>
