<?xml version="1.0" encoding="utf-8"?>
<!-- Generator: Adobe Illustrator 16.0.0, SVG Export Plug-In . SVG Version: 6.00 Build 0)  -->
<!DOCTYPE svg PUBLIC "-//W3C//DTD SVG 1.1//EN" "http://www.w3.org/Graphics/SVG/1.1/DTD/svg11.dtd">
<svg version="1.1" id="Layer_1" xmlns="http://www.w3.org/2000/svg" xmlns:xlink="http://www.w3.org/1999/xlink" x="0px" y="0px"
	 width="200px" height="200px" viewBox="0 0 200 200" enable-background="new 0 0 200 200" xml:space="preserve">
<circle fill="#FFFFFF" cx="101.453" cy="101.251" r="91.71"/>
<g>
	<defs>
		<circle id="SVGID_1_" cx="101.453" cy="101.251" r="91.71"/>
	</defs>
	<clipPath id="SVGID_2_">
		<use xlink:href="#SVGID_1_"  overflow="visible"/>
	</clipPath>
	<g clip-path="url(#SVGID_2_)">
		<path fill="#A4C5D4" d="M12.795,54.258c0,0,38.409,16.004,42.582,16.058c4.175,0.054,35.179-0.437,46.023,2.676
			s48.39,24.201,58.255,33.882c9.867,9.68-24.432,43.71-40.768,45.559c-16.335,1.852-57.782-19.042-68.937-23.182
			c-11.157-4.143-19.414-18.188-19.414-18.188l-32.657-8.953C-2.12,102.109-12.093,67.599,12.795,54.258z"/>
		<path fill="#8BB2C0" d="M47.69,97.427c11.508-2.229,24.39,0.066,34.406,6.154c10.688,6.498,16.042,17.055,20.935,28.121
			c0.207,0.462-0.552,0.853-0.801,0.403c-5.643-10.227-11.665-20.612-22.057-26.647c-9.971-5.792-21.102-6.652-32.359-6.188
			C46.593,99.319,46.556,97.647,47.69,97.427z"/>
		<g>
			<path fill="#DA866C" d="M210.609,104.58c0,0,9.463-19.561-10.863-45.672c0,0-32.392,8.965-37.824,7.961
				c-9.649-1.784-38.863-9.028-49.942-8.133c-11.08,0.896-32.105,18.625-45.164,21.703c-13.058,3.08-14.62,5.97-13.616,9.365
				c1.004,3.396,21.804,5.004,41.79-2.068c0,0-41.083,30.365-43.177,37.249c-2.093,6.885,6.576,9.93,8.795,9.126
				c0,0,2.06,3.947,5.915,6.051c4.874,2.659,10.458,1.658,10.458,1.658s1.703,9.821,13.262,8.033c0,0-1.053,6.831,8.69,7.044
				c9.746,0.214,40.572-9.135,52.714-16.687c12.142-7.555,27.487-24.133,30.712-25.683
				C185.583,112.98,210.609,104.58,210.609,104.58z"/>
			<path fill="#B15E47" d="M90.376,149.236c13.168-6.402,27.152-10.705,40.053-17.835c0.451-0.248,0.821,0.402,0.4,0.685
				c-11.79,7.902-25.713,16.122-40.004,18.213C90.234,150.384,89.726,149.553,90.376,149.236z"/>
			<path fill="#B15E47" d="M77.008,141.159c13.066-9.813,27.867-16.184,41.193-25.125c0.23-0.155,0.526,0.218,0.303,0.392
				c-12.854,9.989-26.206,18.687-41.126,25.308C76.667,142.048,76.358,141.646,77.008,141.159z"/>
			<path fill="#B15E47" d="M60.299,133.28c5.138-6.188,12.873-10.907,19.267-15.781c7.14-5.441,14.433-10.65,21.799-15.776
				c0.382-0.266,0.876,0.358,0.503,0.651c-7.033,5.564-14.054,11.136-21.125,16.646c-6.316,4.921-12.761,11.311-19.94,14.914
				C60.369,134.151,59.997,133.645,60.299,133.28z"/>
		</g>
		<path fill="#A4C5D4" d="M111.027,68.474c6.679,2.746,9.69,8.777,16.332,16.531c4.949,5.78,14.848,12.042,10.547,16.426
			c-4.304,4.385-18.066-3.278-24.411-8.527c-6.344-5.247-17.265-5.591-18.506-5.167c-1.241,0.424-19.495,10.003-32.966,8.236
			c-13.473-1.766-20.059-28.146-20.059-28.146s14.997,1.047,25.128-2.003C86.49,59.989,99.14,63.586,111.027,68.474z"/>
		<path fill="#A4C5D4" d="M151.853,143.371c0.979,6.366-8.122,11.87-12.067,9.425c-3.944-2.448-16.424-21.399-15.571-25.268
			c0.85-3.866,6.008-7.077,9.65-4.475C137.506,125.653,151.085,138.368,151.853,143.371z"/>
		<path fill="#A4C5D4" d="M161.722,129.756c2.217,5.575-4.897,12.468-8.986,11.067c-4.092-1.397-19.372-15.994-19.405-19.683
			c-0.032-3.686,3.978-7.675,7.827-6.071C145.004,116.668,159.979,125.376,161.722,129.756z"/>
		<path fill="#A4C5D4" d="M135.951,152.223c-0.409,5.987-9.798,9.132-12.885,6.108c-3.086-3.028-10.568-22.792-9.008-26.131
			c1.561-3.342,6.9-5.206,9.681-2.104C126.52,133.204,136.269,147.521,135.951,152.223z"/>
		<path fill="#A4C5D4" d="M121.622,158.002c-1.453,5.338-10.511,6.479-12.752,3.184c-2.242-3.296-5.418-22.517-3.401-25.25
			c2.016-2.736,7.181-3.455,9.13-0.145C116.548,139.1,122.764,153.81,121.622,158.002z"/>
	</g>
</g>
<g>
	<circle fill="none" stroke="#5D71AC" stroke-width="5" stroke-miterlimit="10" cx="101.453" cy="101.251" r="64.793"/>
	<line fill="none" stroke="#5D71AC" stroke-width="5" stroke-miterlimit="10" x1="56.993" y1="54.132" x2="148.569" y2="145.706"/>
</g>
</svg>
