<?xml version="1.0" encoding="utf-8"?>
<!-- Generator: Adobe Illustrator 16.0.0, SVG Export Plug-In . SVG Version: 6.00 Build 0)  -->
<!DOCTYPE svg PUBLIC "-//W3C//DTD SVG 1.1//EN" "http://www.w3.org/Graphics/SVG/1.1/DTD/svg11.dtd">
<svg version="1.1" id="Layer_1" xmlns="http://www.w3.org/2000/svg" xmlns:xlink="http://www.w3.org/1999/xlink" x="0px" y="0px"
	 width="520.99px" height="490px" viewBox="0 0 520.99 490" enable-background="new 0 0 520.99 490" xml:space="preserve">
<g>
	<g>
		<path fill="none" d="M838,46.665"/>
	</g>
	<g>
		<path fill="none" d="M838,46.665"/>
		<path fill="none" d="M88,546.665"/>
		<g>
			<g>
				<path fill="#EEF8F9" d="M53.787,314.333"/>
			</g>
		</g>
	</g>
</g>
<g>
	<g>
		<defs>
			<polyline id="SVGID_1_" points="-29.424,586.701 -29.424,-26.053 889.707,-26.053 			"/>
		</defs>
		<clipPath id="SVGID_2_">
			<use xlink:href="#SVGID_1_"  overflow="visible"/>
		</clipPath>
		<g clip-path="url(#SVGID_2_)">
			<g>
				<path fill="#EEF8F9" d="M-43.277,290.973c7.083,18.088-20.993,29.067-28.077,11.004
					C-78.437,283.887-50.36,272.907-43.277,290.973z"/>
				<g opacity="0.25">
					<path fill="#D7D1E8" d="M357.22,113.408c0.024,17.61-14.241,31.9-31.852,31.912c-17.61,0.024-31.9-14.24-31.912-31.851
						c-0.023-17.611,14.229-31.9,31.851-31.913C342.918,81.532,357.208,95.784,357.22,113.408z"/>
				</g>
				<g opacity="0.25">
					<path fill="#E5F1FB" d="M236.681,359.89c-2.476,6.373-5.723,12.45-9.681,18.076c0.012,0.014,0.012,0.023,0.024,0.036
						c1.47,2.256,3.002,4.474,4.559,6.667c9.13-5.563,21.238-3.813,28.346,4.645c7.844,9.328,6.643,23.261-2.708,31.115
						c-9.314,7.846-23.248,6.644-31.104-2.708c-6.397-7.659-6.752-18.42-1.52-26.36c-1.997-1.09-4.02-2.106-6.079-3.101h-0.012
						c-7.855,8.113-17.451,14.793-28.505,19.376c0,0.012,0.012,0.012,0.012,0.024c0.429,0.747,0.809,1.557,1.14,2.413
						c4.461,11.337-1.103,24.131-12.427,28.58c-11.311,4.446-24.094-1.128-28.554-12.465c-1.605-4.08-1.912-8.369-1.079-12.378
						c-11.078-1.076-21.801-4.313-31.557-9.448c-5.11,4.914-10.085,9.987-14.926,15.185c1.508,1.644,2.733,3.604,3.603,5.821
						c3.885,9.865-0.956,21.005-10.846,24.902c-9.854,3.871-21.018-0.992-24.89-10.847c-3.873-9.865,0.981-21.017,10.846-24.901
						c5.809-2.279,12.059-1.546,16.998,1.482c3.59-5.602,6.924-11.35,9.963-17.279c-6.483-4.535-12.378-10-17.451-16.312
						l-0.024,0.012c-2.182,0.896-4.339,1.777-6.52,2.658c0.331,3.272-1.532,6.472-4.73,7.721c-3.873,1.533-8.248-0.379-9.768-4.252
						c-1.519-3.872,0.38-8.248,4.253-9.767c2.99-1.178,6.275-0.295,8.333,1.924c1.581-1.079,3.125-2.218,4.682-3.357
						c-3.627-5.271-6.716-11.029-9.155-17.23c-2.132-5.441-3.677-10.955-4.645-16.508c-3.627-0.122-7.255-0.135-10.87-0.098
						c-0.699,5.086-4.069,9.668-9.204,11.678c-7.55,2.979-16.128-0.76-19.094-8.309c-2.978-7.586,0.76-16.14,8.321-19.105
						c7.574-2.978,16.115,0.734,19.094,8.322c0.196,0.478,0.355,0.979,0.502,1.445c3.419-0.663,6.802-1.336,10.221-1.986
						c-2.28-29.093,10.625-57.635,34.167-75.099c-8.48-0.833-16.238-6.312-19.571-14.804c-4.768-12.12,1.177-25.797,13.285-30.564
						c12.12-4.767,25.809,1.201,30.576,13.321c2.66,6.752,29.388,13.971,44.032,17.06c1.201-2.133,2.451-4.254,3.689-6.349
						l0.233-0.317c-2.855-2.072-5.147-4.988-6.532-8.494c-3.921-9.976,0.993-21.25,10.969-25.171
						c9.975-3.922,21.226,1.005,25.147,10.98c3.921,9.977-0.967,21.238-10.943,25.16c-1.961,0.771-3.971,1.201-5.944,1.287
						l0.013,0.293c-0.516,2.427-1.018,4.841-1.581,7.256c12.083,4.986,23.015,12.721,31.777,22.781
						c1.716-2.314,4.044-4.142,6.924-5.281c8.296-3.26,17.635,0.833,20.883,9.105c3.26,8.284-0.797,17.623-9.093,20.883
						c-1.115,0.431-2.243,0.748-3.371,0.895c4.363,11.398,6.103,23.163,5.528,34.622c0.012,0,0.012-0.013,0.024-0.013
						c0.613-0.368,1.287-0.676,1.998-0.956c9.314-3.664,19.805,0.905,23.457,10.194c3.664,9.328-0.906,19.806-10.221,23.469
						c-7.696,3.027-16.225,0.418-20.98-5.905C236.681,359.901,236.681,359.901,236.681,359.89z"/>
				</g>
				<path fill="#EEF8F9" d="M73.576,228.114c11.801-4.631,25.147,1.177,29.792,13.002c1.949,4.964,2.047,10.222,0.625,14.989
					c-1.017,3.432-2.806,6.567-5.294,9.19c-2.255,2.401-5.037,4.351-8.284,5.625c-11.839,4.656-25.184-1.188-29.829-12.978
					C55.94,246.105,61.749,232.771,73.576,228.114z"/>
				<g opacity="0.25">
					<path fill="#E5F1FB" d="M161.262,45.288c-9-22.942,26.61-36.87,35.596-13.958C205.858,54.273,170.232,68.185,161.262,45.288z"
						/>
				</g>
				<path fill="#EEF8F9" d="M120.746,140.441c-7.096-18.088,20.98-29.057,28.063-11.005
					C155.905,147.538,127.829,158.506,120.746,140.441z"/>
				<path fill="#EEF8F9" d="M222.328,113.726c7.096,18.088-20.98,29.057-28.064,10.992
					C187.168,106.63,215.244,95.662,222.328,113.726z"/>
				<g opacity="0.25">
					<path fill="#E5F1FB" d="M392.293,112.29c0.011,8.309-6.74,15.049-15.025,15.049c-8.309,0.012-15.036-6.703-15.049-15.013
						c0-0.196,0-0.429,0.037-0.625c-2.83-0.257-5.649-0.441-8.48-0.601c-6.128,14.228-18.419,25.209-33.519,29.645
						c-0.062,3.738-0.184,7.439-0.379,11.177c4.387,0.061,7.928,3.627,7.942,8.015c0,4.448-3.604,8.051-8.016,8.051
						c-4.45,0.013-8.027-3.59-8.04-8.04c0-3.149,1.789-5.882,4.448-7.181c-0.821-3.505-1.666-7.046-2.549-10.551
						c-2.659,0.429-5.417,0.649-8.21,0.662c-10.786,0-20.785-3.236-29.143-8.775c-1.397,1.005-2.795,1.985-4.217,2.954
						c0.613,0.943,0.98,2.083,0.98,3.321c0,3.505-2.854,6.335-6.36,6.335s-6.335-2.818-6.335-6.324
						c-0.013-3.517,2.818-6.372,6.324-6.372c0.87,0,1.715,0.184,2.463,0.515c0.98-1.201,1.85-2.439,2.695-3.701
						c-9.854-8.149-16.679-19.804-18.578-33.052c-2.733-0.318-5.49-0.6-8.285-0.857c-2.659,5.49-9.057,8.248-15,6.311
						c-6.496-2.169-10.012-9.215-7.868-15.71c2.169-6.496,9.179-10.013,15.711-7.844c4.289,1.422,7.279,4.964,8.187,9.082
						c2.279-0.649,4.51-1.262,6.789-1.85c0.515-8.285,2.941-16.079,6.863-22.868c-2.378-3.223-4.854-6.434-7.415-9.583
						c-0.552,0.233-1.14,0.33-1.753,0.33c-2.99,0-5.429-2.426-5.429-5.379c0-2.99,2.426-5.429,5.417-5.429
						c2.954-0.013,5.393,2.426,5.393,5.417c0,0.943-0.257,1.813-0.711,2.598c2.794,2.046,5.625,4.056,8.419,6.127
						c9.633-12.513,24.729-20.588,41.739-20.601c4.13,0,8.15,0.479,11.986,1.385c1.103-2.438,2.145-4.878,3.174-7.341
						c-2.732-2.304-4.486-5.772-4.486-9.669c-0.012-7.022,5.663-12.708,12.686-12.721c7.01,0,12.695,5.674,12.709,12.684
						c0.012,7.022-5.675,12.708-12.686,12.721c-0.687,0-1.396-0.074-2.047-0.159c-0.417,2.365-0.771,4.742-1.128,7.107
						c12.538,5.147,22.649,15.05,28.089,27.451c1.681-0.587,3.37-1.213,5.062-1.862c-0.392-1.103-0.624-2.304-0.624-3.542
						c0-5.711,4.634-10.355,10.355-10.368c5.71,0,10.354,4.632,10.367,10.355c0,5.711-4.633,10.356-10.355,10.368
						c-2.621,0-5.062-1.005-6.888-2.623c-1.948,1.067-3.859,2.181-5.808,3.248c1.531,4.938,2.353,10.159,2.353,15.589
						c0.013,4.546-0.576,8.958-1.644,13.186c2.5,0.649,5.038,1.299,7.538,1.912c2.499-4.743,7.5-7.966,13.246-7.978
						C385.528,97.265,392.28,103.98,392.293,112.29z"/>
				</g>
				<g opacity="0.25">
					<path fill="#E5F1FB" d="M486.71,218.981c0.006,4.718-3.827,8.544-8.53,8.544c-4.718,0.008-8.537-3.806-8.544-8.523
						c0-0.111,0-0.243,0.021-0.354c-1.606-0.146-3.207-0.251-4.814-0.342c-3.479,8.078-10.457,14.313-19.03,16.832
						c-0.035,2.121-0.104,4.223-0.215,6.345c2.49,0.035,4.501,2.06,4.509,4.551c0,2.525-2.046,4.571-4.551,4.571
						c-2.526,0.007-4.558-2.038-4.564-4.564c0-1.788,1.016-3.34,2.525-4.077c-0.466-1.99-0.946-4.001-1.447-5.99
						c-1.51,0.243-3.075,0.368-4.661,0.375c-6.124,0-11.801-1.836-16.546-4.981c-0.793,0.57-1.587,1.127-2.394,1.677
						c0.348,0.536,0.557,1.184,0.557,1.886c0,1.99-1.621,3.597-3.611,3.597s-3.597-1.6-3.597-3.591
						c-0.007-1.996,1.601-3.617,3.591-3.617c0.494,0,0.974,0.104,1.398,0.293c0.557-0.683,1.05-1.386,1.53-2.102
						c-5.595-4.627-9.47-11.244-10.548-18.766c-1.552-0.181-3.117-0.34-4.704-0.486c-1.51,3.117-5.143,4.683-8.517,3.583
						c-3.688-1.231-5.685-5.231-4.467-8.919c1.231-3.688,5.212-5.686,8.92-4.454c2.436,0.808,4.133,2.818,4.648,5.156
						c1.294-0.368,2.561-0.716,3.854-1.05c0.292-4.704,1.669-9.129,3.896-12.983c-1.351-1.83-2.756-3.653-4.21-5.441
						c-0.313,0.132-0.647,0.188-0.995,0.188c-1.697,0-3.083-1.377-3.083-3.054c0-1.698,1.378-3.083,3.076-3.083
						c1.677-0.007,3.062,1.377,3.062,3.075c0,0.536-0.146,1.029-0.403,1.475c1.586,1.162,3.193,2.303,4.78,3.479
						c5.469-7.104,14.04-11.688,23.697-11.696c2.345,0,4.627,0.272,6.805,0.786c0.626-1.384,1.218-2.77,1.803-4.168
						c-1.552-1.308-2.548-3.277-2.548-5.489c-0.006-3.987,3.216-7.215,7.202-7.223c3.98,0,7.208,3.222,7.216,7.201
						c0.007,3.987-3.222,7.215-7.202,7.223c-0.39,0-0.793-0.042-1.162-0.09c-0.236,1.343-0.438,2.692-0.641,4.035
						c7.119,2.922,12.859,8.544,15.947,15.585c0.954-0.333,1.914-0.688,2.874-1.057c-0.223-0.626-0.354-1.309-0.354-2.011
						c0-3.242,2.631-5.879,5.88-5.887c3.241,0,5.878,2.63,5.886,5.879c0,3.243-2.631,5.879-5.88,5.886
						c-1.487,0-2.873-0.57-3.91-1.489c-1.106,0.605-2.191,1.238-3.297,1.845c0.869,2.803,1.335,5.768,1.335,8.85
						c0.008,2.581-0.327,5.086-0.933,7.487c1.419,0.367,2.86,0.737,4.279,1.085c1.419-2.692,4.259-4.523,7.521-4.529
						C482.869,210.452,486.703,214.264,486.71,218.981z"/>
				</g>
				<g>
					<path fill="#233F8C" d="M149.22,107.056c0.005,3.83-3.106,6.937-6.925,6.937c-3.83,0.005-6.931-3.09-6.937-6.92
						c0-0.091,0-0.198,0.018-0.288c-1.305-0.119-2.604-0.204-3.909-0.277c-2.825,6.559-8.49,11.62-15.45,13.665
						c-0.028,1.723-0.084,3.429-0.175,5.152c2.022,0.028,3.654,1.672,3.661,3.694c0,2.05-1.661,3.711-3.694,3.711
						c-2.051,0.006-3.7-1.654-3.706-3.706c0-1.452,0.825-2.711,2.05-3.31c-0.378-1.616-0.768-3.248-1.175-4.863
						c-1.226,0.198-2.497,0.299-3.784,0.305c-4.972,0-9.58-1.492-13.433-4.045c-0.644,0.463-1.288,0.915-1.944,1.362
						c0.283,0.435,0.452,0.96,0.452,1.531c0,1.615-1.315,2.92-2.932,2.92c-1.616,0-2.919-1.299-2.919-2.915
						c-0.006-1.621,1.299-2.937,2.915-2.937c0.401,0,0.79,0.085,1.135,0.238c0.452-0.554,0.853-1.125,1.242-1.707
						c-4.542-3.756-7.688-9.128-8.563-15.234c-1.26-0.146-2.53-0.277-3.818-0.395c-1.226,2.531-4.175,3.801-6.914,2.909
						c-2.995-1-4.615-4.248-3.627-7.241c1-2.994,4.231-4.616,7.242-3.615c1.977,0.655,3.355,2.288,3.774,4.186
						c1.05-0.299,2.079-0.582,3.129-0.853c0.238-3.819,1.355-7.412,3.164-10.541c-1.096-1.485-2.237-2.966-3.418-4.417
						c-0.254,0.107-0.525,0.152-0.808,0.152c-1.378,0-2.502-1.119-2.502-2.479c0-1.378,1.119-2.502,2.497-2.502
						c1.362-0.006,2.486,1.118,2.486,2.497c0,0.434-0.118,0.835-0.328,1.197c1.288,0.943,2.593,1.87,3.881,2.824
						c4.44-5.768,11.398-9.49,19.239-9.496c1.904,0,3.757,0.221,5.525,0.638c0.508-1.124,0.989-2.249,1.463-3.384
						c-1.259-1.062-2.068-2.661-2.068-4.457c-0.005-3.237,2.611-5.857,5.847-5.864c3.231,0,5.852,2.616,5.858,5.847
						c0.005,3.237-2.616,5.857-5.848,5.863c-0.316,0-0.644-0.034-0.943-0.073c-0.192,1.09-0.355,2.186-0.52,3.276
						c5.779,2.373,10.44,6.937,12.947,12.653c0.775-0.271,1.553-0.559,2.333-0.858c-0.18-0.509-0.288-1.062-0.288-1.633
						c0-2.632,2.136-4.773,4.773-4.779c2.631,0,4.772,2.135,4.778,4.773c0,2.632-2.135,4.773-4.773,4.779
						c-1.208,0-2.333-0.464-3.175-1.209c-0.898,0.491-1.779,1.005-2.677,1.497c0.706,2.276,1.084,4.683,1.084,7.186
						c0.006,2.095-0.266,4.129-0.758,6.078c1.152,0.299,2.322,0.599,3.475,0.882c1.152-2.187,3.457-3.672,6.106-3.677
						C146.102,100.131,149.214,103.226,149.22,107.056z"/>
				</g>
			</g>
		</g>
	</g>
	<g>
		<defs>
			<polyline id="SVGID_3_" points="-29.424,586.701 -29.424,-26.053 889.707,-26.053 			"/>
		</defs>
		<clipPath id="SVGID_4_">
			<use xlink:href="#SVGID_3_"  overflow="visible"/>
		</clipPath>
		<g clip-path="url(#SVGID_4_)">
			<g>
				<g opacity="0.25">
					<path fill="#E5F1FB" d="M350.693,458.633c0.012,8.31-6.741,15.049-15.026,15.049c-8.308,0.014-15.036-6.703-15.049-15.012
						c0-0.197,0-0.429,0.036-0.626c-2.83-0.256-5.648-0.44-8.48-0.6c-6.127,14.228-18.419,25.209-33.517,29.645
						c-0.063,3.738-0.186,7.438-0.381,11.177c4.388,0.063,7.93,3.628,7.941,8.016c0,4.45-3.604,8.052-8.015,8.052
						c-4.449,0.012-8.027-3.591-8.041-8.039c0-3.15,1.791-5.882,4.45-7.182c-0.821-3.505-1.668-7.047-2.551-10.553
						c-2.658,0.431-5.416,0.65-8.211,0.661c-10.784,0-20.784-3.233-29.143-8.772c-1.396,1.004-2.794,1.983-4.215,2.953
						c0.612,0.943,0.98,2.083,0.98,3.319c0,3.506-2.856,6.337-6.361,6.337c-3.504,0-6.336-2.818-6.336-6.323
						c-0.012-3.518,2.819-6.372,6.324-6.372c0.87,0,1.716,0.183,2.463,0.515c0.98-1.201,1.85-2.438,2.696-3.702
						c-9.853-8.147-16.679-19.803-18.579-33.052c-2.732-0.318-5.49-0.6-8.284-0.857c-2.66,5.49-9.056,8.247-15.001,6.313
						c-6.495-2.168-10.012-9.215-7.867-15.711c2.169-6.495,9.179-10.013,15.711-7.844c4.289,1.423,7.279,4.964,8.186,9.082
						c2.28-0.649,4.509-1.264,6.79-1.853c0.514-8.284,2.941-16.078,6.862-22.868c-2.377-3.223-4.853-6.435-7.414-9.583
						c-0.552,0.233-1.139,0.33-1.752,0.33c-2.991,0-5.429-2.426-5.429-5.379c0-2.991,2.426-5.428,5.417-5.428
						c2.954-0.015,5.392,2.425,5.392,5.416c0,0.942-0.257,1.813-0.71,2.598c2.794,2.047,5.625,4.058,8.419,6.128
						c9.633-12.513,24.732-20.589,41.741-20.602c4.131,0,8.15,0.478,11.986,1.385c1.103-2.438,2.145-4.877,3.174-7.342
						c-2.732-2.305-4.485-5.77-4.485-9.668c-0.013-7.022,5.662-12.709,12.685-12.721c7.01,0,12.695,5.674,12.707,12.684
						c0.012,7.021-5.674,12.708-12.684,12.722c-0.688,0-1.398-0.073-2.046-0.161c-0.418,2.367-0.773,4.743-1.13,7.109
						c12.539,5.146,22.648,15.048,28.091,27.451c1.678-0.588,3.37-1.214,5.062-1.862c-0.393-1.104-0.626-2.304-0.626-3.542
						c0-5.711,4.633-10.354,10.355-10.369c5.711,0,10.354,4.634,10.368,10.356c0,5.711-4.632,10.354-10.355,10.368
						c-2.622,0-5.062-1.006-6.887-2.622c-1.95,1.065-3.861,2.181-5.811,3.246c1.532,4.938,2.354,10.158,2.354,15.59
						c0.012,4.547-0.576,8.958-1.642,13.187c2.5,0.649,5.035,1.298,7.535,1.911c2.5-4.743,7.501-7.967,13.249-7.978
						C343.928,443.608,350.68,450.324,350.693,458.633z"/>
				</g>
			</g>
		</g>
	</g>
</g>
<g>
	<g>
		<path fill="#E5F1FB" d="M420.627,248.46c0.062,58.933-30.348,110.779-76.36,140.64c0,0,0,0,0,0.01
			c-0.582,0.375-1.176,0.75-1.77,1.125c-2.165,1.365-4.363,2.688-6.604,3.965c-2.265,1.289-4.571,2.523-6.901,3.704
			c-12.563,6.39-26.041,11.229-40.18,14.292c-11.39,2.463-23.209,3.762-35.338,3.774c-52.587,0.055-99.523-24.157-130.254-62.055
			c-23.254-28.71-37.214-65.283-37.254-105.113c-0.094-92.416,74.75-167.414,167.166-167.509c6.038-0.006,12.009,0.307,17.882,0.928
			c0.518,0.054,1.034,0.109,1.541,0.163c1.23,0.142,2.463,0.306,3.684,0.469c9.48,1.299,18.71,3.39,27.609,6.207
			c2.408,0.767,4.785,1.579,7.14,2.434c1.078,0.406,2.145,0.812,3.212,1.217c0.021,0.011,0.044,0.022,0.065,0.034
			C376.472,117.094,420.555,177.619,420.627,248.46z"/>
		<g>
			<path fill="#14133F" d="M357.565,165.592c-0.563,8.052-2.732,15.772-6.114,22.954c0.172,0.563,0.109,1.201-0.331,1.851
				c-0.857,1.287-1.753,2.561-2.659,3.824c-3.554,6.103-7.99,11.728-13.063,16.691c-0.639,0.612-1.36,0.784-2.022,0.662
				c-0.907,0.845-1.813,1.679-2.732,2.488c-13.971,12.255-31.141,20.821-49.805,22.463c-10.906,0.956-22.035-0.502-32.206-4.411
				c0.269,2.634,0.563,5.257,0.821,7.88c0.711,7.254,1.018,15.158-3.076,21.188c-1.581,2.342-3.688,4.168-6.103,5.563
				c-3.676,2.157-8.039,3.334-12.304,3.8c-2.071,0.221-4.142,0.307-6.226,0.257c-2.721-0.061-5.417-0.366-8.076-0.918
				c-0.539-0.11-1.079-0.233-1.605-0.356c-4.559-1.114-9.081-3.039-12.267-6.494c-3.824-4.143-5.27-10.196-4.253-15.736
				c1.03-5.551,4.387-10.526,8.848-13.995c-10.037-2.083-18.395-10.662-20.221-20.76c-0.809-4.473-0.417-9.032,0.772-13.443
				c0.858-3.21,2.12-6.336,3.64-9.29c2.169-4.204,4.902-8.174,8.418-11.324c5.16-4.596,11.753-7.169,18.297-9.363
				c6.532-2.193,13.248-4.142,19.143-7.72c3.578-2.181,6.838-5.098,9.142-8.566c0.723-1.79,1.434-3.579,2.157-5.343
				c3.333-8.064,7.525-15.442,13.603-21.79c10.528-10.956,25.111-18.064,40.344-18.873c14.817-0.784,29.634,4.939,40.591,14.841
				C352.615,132.834,358.72,149.048,357.565,165.592z"/>
			<path fill="#F99E1C" d="M377.91,271.991c0.385,0.362,0.781,0.847,0.649,1.353c-0.055,0.221-0.188,0.396-0.374,0.518
				c-7.062-1.444-14.145-2.854-21.325-3.332c-7.138-0.477-14.405,0.005-21.199,2.211c4.286-2.391,8.694-4.563,13.212-6.491
				l0.33,0.758c4.762-0.269,9.535-0.218,14.297,0.14C368.646,267.548,374.124,268.477,377.91,271.991z"/>
			<path fill="#FFC33F" d="M355.669,277.602c-5.914,0.931-11.841,1.859-17.757,2.789l0.045,0.274
				c9.721,0.331,19.399,1.478,28.936,3.413c-0.703,0.561-1.647,0.98-2.494,1.18c-4.529,1.071-26.44,5.646-41.846,9.104
				c-4.87,1.082-9.092,2.065-11.905,2.783c-3.438-6.274-7.699-12.1-12.653-17.264c-0.935-0.977-1.948-1.954-3.06-2.734
				c7.664-11.729,19.124-20.968,32.248-25.896c0.386-0.145,0.771-0.287,1.166-0.43c0,0,0,0,0.011,0
				c2.475-0.86,5.047-1.545,7.642-1.668c0.803-0.034,1.616-0.024,2.42,0.053c0.462,0.031,0.989,0.152,1.166,0.57
				c0.088,0.22,0.066,0.461,0.012,0.682c-0.296,1.363-1.327,2.441-2.339,3.412c-2.033,1.947-4.164,3.798-6.285,5.637
				c-2.701,2.346-5.404,4.68-8.107,7.023l0.033,0.045c11.492-10.053,24.327-18.577,38.045-25.288c-0.065,0.22-0.143,0.43-0.24,0.616
				c-0.944,1.903-2.659,3.28-4.328,4.59c-4.825,3.775-9.681,7.509-14.582,11.176c-3.736,2.818-7.494,5.605-11.273,8.357l0.153,0.34
				c10.442-4.781,21.514-8.202,32.827-10.149c2.879-0.498,5.794-0.896,8.708-0.823c0.209,0.012,0.473,0.055,0.528,0.264
				c0,0.012,0,0.022,0,0.022l0.286-0.011c0.021,0.857-0.45,1.749-1.119,2.32c-0.937,0.793-2.155,1.113-3.343,1.435
				c-6.718,1.788-13.303,4.071-19.688,6.827c-4.518,1.929-8.926,4.102-13.212,6.49c6.794-2.205,14.063-2.687,21.199-2.211
				c7.182,0.479,14.265,1.889,21.326,3.334c-0.308,0.22-0.736,0.318-1.109,0.375C369.94,275.354,362.805,276.482,355.669,277.602z"
				/>
			<path fill="#F99E1C" d="M373.022,255.667l-0.286,0.011c0,0,0-0.011,0-0.021c-0.057-0.209-0.319-0.252-0.528-0.264
				c-2.914-0.074-5.829,0.324-8.708,0.822c-11.314,1.947-22.385,5.368-32.827,10.15l-0.154-0.34
				c3.78-2.754,7.538-5.541,11.274-8.358l0.331,0.438c5.23-2.115,10.629-3.858,16.116-5.185c4.496-1.093,9.586-1.813,13.438,0.745
				c0.419,0.273,0.837,0.615,1.09,1.055C372.933,255.018,373.01,255.337,373.022,255.667z"/>
			<path fill="#F99E1C" d="M367.803,281.482c0.496,0.967-0.02,1.89-0.91,2.596c-9.535-1.938-19.215-3.082-28.936-3.413l-0.045-0.274
				c5.916-0.93,11.843-1.858,17.757-2.789c3.85,0.522,7.546,1.334,10.362,2.551C366.725,280.448,367.462,280.813,367.803,281.482z"
				/>
			<path fill="#FFC33F" d="M342.639,160.268h0.013c1.518,0.648,2.827,1.713,4.049,2.833c2.444,2.229,4.613,4.746,6.452,7.493h0.385
				c0.007-3.926-0.525-7.873-1.617-11.655c0.022,0.011,0.055,0.021,0.076,0.044c3.225,2.163,5.548,5.338,7.092,8.911
				c1.104,2.517,1.819,5.243,2.187,7.959c0.421,3.145,0.458,6.366-0.166,9.479c-0.712,3.607-2.292,6.974-4.016,10.209
				c-4.247,7.955-9.507,15.361-15.626,21.977c-4.306,4.678-9.15,9.103-11.74,14.913v0.01c-0.253-0.077-0.494-0.153-0.747-0.229
				c4.245-10.155,8.216-20.44,11.922-30.814c0.317-0.539,0.614-1.079,0.899-1.628c-0.077-0.066-0.153-0.143-0.23-0.22
				c-5.02-4.449-9.258-9.789-12.464-15.691c-0.883-1.615-1.697-3.407-1.413-5.21c0.151-0.936,0.646-1.859,1.481-2.3
				c1.065-0.572,2.298-0.233,3.409,0.382c0.418,0.23,0.825,0.516,1.199,0.791c4.171,3.086,7.793,6.92,10.657,11.25l0.098-0.012
				c-1.459-7.696-5.425-14.883-11.148-20.233c0.043-0.044,0.089-0.088,0.133-0.132c1.229-1.08,3.177-0.51,4.606,0.292
				c0.145,0.077,0.286,0.165,0.418,0.251c3.983,2.349,7.055,5.964,10.039,9.514l0.309-0.056c-1.029-6.817-4.037-13.335-8.529-18.565
				C341.132,159.785,341.946,159.972,342.639,160.268z"/>
			<path fill="#F99E1C" d="M360.491,239.427c0.594,0.373,0.647,1.154,0.452,1.857c-13.718,6.711-26.553,15.235-38.045,25.288
				l-0.033-0.045c2.703-2.346,5.406-4.68,8.107-7.023c2.121-1.839,4.252-3.688,6.285-5.637c1.011-0.969,2.043-2.049,2.339-3.412
				c0.056-0.221,0.076-0.462-0.012-0.682c-0.177-0.418-0.704-0.539-1.166-0.57c-0.804-0.077-1.617-0.087-2.42-0.053
				c3.133-1.994,6.452-3.747,9.728-5.433c4.318-2.215,8.848-4.451,13.696-4.5C359.788,239.219,360.184,239.24,360.491,239.427z"/>
			<path fill="#F99E1C" d="M348.168,157.336c1.33,0.23,2.618,0.844,3.751,1.603c1.092,3.782,1.624,7.729,1.617,11.655h-0.385
				c-1.839-2.748-4.008-5.264-6.452-7.493c-1.222-1.121-2.531-2.186-4.049-2.833h-0.013c0.46-1.727,2.285-2.895,4.101-3.017
				C347.222,157.217,347.705,157.25,348.168,157.336z"/>
			<path fill="#F99E1C" d="M348.894,178.395l-0.309,0.056c-2.984-3.549-6.056-7.165-10.039-9.514l0.297-0.495
				c-1.09-1.813-1.511-4.023-1.149-6.102c0.088-0.517,0.229-1.034,0.525-1.463c0.495-0.705,1.286-1.013,2.146-1.047
				C344.855,165.06,347.863,171.578,348.894,178.395z"/>
			<path fill="#46A8DF" d="M345.295,381.213c0.397,0.583,0.827,1.264,0.629,1.936c-0.163,0.615-0.769,0.979-1.329,1.275
				c-13.375,7.262-27.853,12.488-42.794,15.451c-1.221,0.242-2.54,0.464-3.673-0.063c-1.43-0.658-2.113-2.284-2.654-3.771
				c-3.639-10.101-6.465-20.491-8.433-31.045c3.065-2.215,5.614-5.263,7.491-8.685l0.099,0.055
				c9.324-1.746,16.101-10.012,20.006-18.659c2.622-5.776,4.31-11.871,5.446-18.097
				C323.943,341.635,332.607,362.807,345.295,381.213z"/>
			<path fill="#F99E1C" d="M332.248,171.627c0.055-0.527,0.152-1.056,0.316-1.562c0.176-0.55,0.418-1.122,0.823-1.54
				c5.725,5.35,9.689,12.538,11.148,20.233l-0.098,0.012c-2.864-4.33-6.486-8.164-10.657-11.25
				c-0.374-0.274-0.781-0.561-1.199-0.791l0.561-0.045C332.35,175.135,332.041,173.354,332.248,171.627z"/>
			<path fill="#FFC33F" d="M341.568,199.549c0.076,0.077,0.153,0.154,0.23,0.22c-0.285,0.55-0.582,1.089-0.899,1.628
				C341.13,200.782,341.35,200.165,341.568,199.549z"/>
			<path fill="#FFC33F" d="M335.838,209.87c-0.184,0.221-0.416,0.393-0.674,0.502c-5.147,7.268-11.188,13.91-17.966,19.67
				c-1.813,1.568-3.677,3.051-5.588,4.473c-2.524,1.863-5.16,3.64-8.102,4.669c-2.549,0.882-5.244,1.201-7.941,1.164
				c-0.672-0.012-1.348-0.036-1.996-0.11c-2.795-0.208-5.577-0.833-8.211-1.789c-5.037-1.838-9.621-4.915-13.125-8.958
				c-5.639-6.52-8.407-15.405-7.5-23.959l-0.099-0.013c-0.136,1.214-0.625,2.377-1.042,3.529
				c-1.838,5.123-2.488,10.564-3.052,15.981c-2.279-4.277-3.688-9.069-4.559-13.849c-1.177-6.496-1.471-13.113-2.133-19.694
				c2.022-3.358,4.584-6.324,7.746-8.652c-1.949-3.75-2.807-8.064-2.438-12.28c0.294-3.309,1.372-6.605,3.517-9.142
				c2.145-2.524,5.453-4.167,8.762-3.861c2.463,0.232,4.806,1.691,6.08,3.775c14.717-0.172,29.252-5.404,40.563-14.865
				c0.343-0.282,0.698-0.454,1.053-0.54C319.846,145.297,342.15,201.843,335.838,209.87z"/>
			<path fill="#2A2F72" d="M333.188,234.716c-0.646,2.607-3.353,11.683-4.844,16.104c-0.396,0.143-0.779,0.287-1.165,0.43
				c-13.125,4.93-24.585,14.167-32.25,25.898c1.112,0.779,2.125,1.758,3.061,2.733c4.953,5.164,9.215,10.987,12.652,17.265
				c2.814-0.719,7.036-1.701,11.906-2.785c-0.431,8.438-0.973,16.971-2.47,25.253c-1.138,6.225-2.825,12.319-5.448,18.095
				c-1.152,2.541-2.545,5.05-4.193,7.371c-0.604,0.871-1.252,1.718-1.943,2.521c-3.668,4.369-8.316,7.729-13.869,8.768l-0.1-0.055
				c-1.877,3.422-4.424,6.47-7.489,8.684c-2.462,1.784-5.265,3.029-8.333,3.473c4.005,2.129,6.517,6.779,6.126,11.287
				c-0.403,4.521-3.687,8.648-7.996,10.051c3.003,0.368,6.04,1.994,7.285,4.765s-0.015,6.631-2.929,7.479
				c3.017,2.988,5.582,6.416,7.619,10.144c-11.39,2.463-23.209,3.762-35.338,3.774c-48.15,0.049-91.564-20.244-122.137-52.762
				c-2.817-2.995-5.525-6.095-8.117-9.293c0.681-1.012,15.611-36.646,15.797-37.118c4.688-11.89,13.382-25.38,9.881-37.843
				c-4.785-17.032-8.508-45.886,4.073-60.753c11.455-13.537,20.186-13.047,24.671-13.625c3.123-0.402,6.439-2.131,7.225-5.182
				c-3.177,11.506,0.797,23.71,10.937,30.327c2.607,1.702,5.523,2.953,8.581,3.587c-4.45,3.458-7.81,8.442-8.838,13.985
				s0.43,11.603,4.25,15.744c3.182,3.449,7.704,5.38,12.269,6.485c0.527,0.132,1.067,0.252,1.606,0.361
				c1.771,0.361,3.563,0.623,5.367,0.764c0.902,0.088,1.804,0.132,2.706,0.151c2.079,0.054,4.157-0.036,6.224-0.259
				c4.267-0.467,8.631-1.636,12.302-3.796c3.302,2.813,7.098,4.997,11.157,6.51c6.766,2.522,14.256,3.152,21.303,1.572
				c0.396-0.088,0.793-0.188,1.188-0.298c4.407-1.158,8.673-3.33,11.297-7.016c2.657-3.731,3.279-8.56,2.769-13.156
				c-0.056-0.494-0.121-0.989-0.199-1.473c3.014,0.106,6.002-1.789,7.188-4.561c1.141-2.662,0.555-5.96-1.404-8.081
				c0.66,0.065,1.33,0.097,2.002,0.108c2.496,0.03,5.014-0.236,7.389-0.986c0.188-0.055,0.361-0.11,0.55-0.177
				c0.879-0.309,1.737-0.684,2.562-1.113c1.736-0.881,3.363-1.972,4.945-3.128l0.593-0.429c0.692-0.507,1.374-1.025,2.045-1.563
				c1.208-0.936,2.384-1.905,3.548-2.907c3.993,0.292,7.951,1.026,11.779,2.165c0.253,0.077,0.495,0.154,0.748,0.23
				c0.936,0.296,1.858,0.614,2.783,0.954c0.265,0.099,0.55,0.22,0.683,0.472C333.331,234.122,333.266,234.441,333.188,234.716z"/>
			<path fill="#2A3071" d="M328.978,232.212c0.254,0.077,0.495,0.153,0.748,0.229c0.937,0.296,1.859,0.614,2.783,0.955
				c0.266,0.098,0.551,0.219,0.683,0.472c0.145,0.252,0.077,0.571,0.001,0.847c-0.646,2.607-3.354,11.682-4.833,16.104
				c-0.011,0-0.011,0-0.011,0c-0.396,0.145-0.78,0.287-1.166,0.431c-13.125,4.929-24.584,14.167-32.248,25.897
				c-0.979-0.692-2.035-1.229-3.201-1.471c-0.207-7.191-0.784-14.384-1.738-21.531l-2.012,0.211c-0.055-0.494-0.123-0.988-0.2-1.473
				c3.013,0.105,6.003-1.789,7.188-4.561c1.141-2.663,0.553-5.961-1.406-8.081c0.66,0.065,1.332,0.097,2.002,0.107
				c2.693,0.03,5.398-0.28,7.938-1.163c2.947-1.037,5.583-2.81,8.101-4.671c1.911-1.42,3.779-2.907,5.593-4.471
				C321.19,230.339,325.149,231.072,328.978,232.212z"/>
			<path fill="#F99E1C" d="M317.198,230.046c9.48-8.07,17.544-17.81,23.701-28.648c-3.706,10.374-7.677,20.66-11.923,30.814
				C325.149,231.072,321.19,230.339,317.198,230.046z"/>
			<path fill="#2A3071" d="M322.553,294.361c-0.431,8.436-0.972,16.968-2.471,25.25c-1.137,6.226-2.854,19.312-5.477,25.088
				c-3.906,8.646-10.652,9.922-19.977,11.668l-0.099-0.055c0.943-1.729,1.723-3.555,2.304-5.401
				c2.324-7.415,2.161-15.322,1.681-23.128c5.274-3.813,10.429-7.785,15.428-11.938c1.108-0.925,2.284-1.971,2.579-3.4
				c0.22-1.1-0.134-2.221-0.508-3.286c-1.457-4.146-3.264-8.157-5.368-12.015C313.46,296.427,317.683,295.443,322.553,294.361z"/>
			<path fill="#252849" d="M301.401,213.078c0.019-0.016,0.035-0.042,0.063-0.061c0.222-0.211,0.447-0.4,0.685-0.592
				c0.067-0.05,0.135-0.1,0.199-0.161c1.537-1.19,3.414-1.906,5.332-1.82c2.891,0.127,5.701,2.354,6.013,5.229
				c0.229,2.014-0.708,3.967-1.859,5.641c-1.854,2.712-4.345,4.976-7.22,6.575c0.4-1.497,0.658-3.028,0.304-4.525
				c-0.222-0.976-0.692-1.87-1.229-2.703c-0.762-1.209-1.647-2.321-2.636-3.341c-0.61-0.623-1.321-1.234-2.177-1.359l-0.025-0.017
				C299.597,214.897,300.452,213.937,301.401,213.078z"/>
			<path fill="#F47920" d="M303.688,220.662c0.537,0.833,1.008,1.727,1.229,2.703c0.355,1.498,0.098,3.028-0.305,4.525
				c-0.209,0.117-0.407,0.232-0.619,0.339c-1.401,0.717-2.984,1.285-4.503,0.935c-1.841-0.422-3.16-2.166-3.53-4.011
				c-0.357-1.837,0.089-3.762,0.809-5.493c0.547-1.316,1.244-2.567,2.08-3.716l0.025,0.017c0.855,0.125,1.564,0.736,2.177,1.359
				C302.04,218.34,302.926,219.453,303.688,220.662z"/>
			<path fill="#46A8DF" d="M260.549,225.024c1.224,2.33,2.72,4.506,4.515,6.45c5.098,5.516,13.008,8.829,20.285,6.996l0.012-0.021
				c2.641,0.954,5.412,1.578,8.205,1.795c1.959,2.12,2.547,5.418,1.406,8.081c-1.186,2.772-4.176,4.667-7.188,4.562
				c0.077,0.482,0.146,0.977,0.2,1.473c0.51,4.597-0.111,9.424-2.77,13.156c-2.855,4.016-7.669,6.229-12.484,7.313
				c-11.279,2.52-23.666-0.592-32.459-8.082c2.418-1.398,4.527-3.227,6.109-5.561c4.095-6.029,3.791-13.937,3.079-21.193
				c-1.022-10.346-2.572-20.759-1.34-31.086c0.73-6.071,2.583-12.198,5.733-17.414c0.667,6.575,0.959,13.195,2.131,19.693
				C256.855,215.966,258.268,220.748,260.549,225.024z"/>
			<path fill="#F99E1C" d="M285.36,238.448l-0.012,0.021c-7.277,1.833-15.188-1.479-20.285-6.996
				c-1.795-1.944-3.291-4.12-4.515-6.45c0.556-5.412,1.209-10.855,3.052-15.97c0.416-1.155,0.899-2.321,1.03-3.531l0.099,0.011
				c-0.903,8.557,1.865,17.439,7.502,23.954C275.744,233.531,280.321,236.616,285.36,238.448z"/>
			<path fill="#664EA0" d="M232.774,303.657l0.034,0.075c-3.101,1.324-6.079,2.955-8.881,4.828c0.042-1.783,0.051-3.642-0.676-5.278
				c-0.738-1.64-2.433-2.978-4.204-2.712c-1.605,0.231-2.736,1.642-3.703,2.938c-2.098,2.796-4.184,5.603-6.271,8.398
				c0.9-2.499-2.655-4.705-5.106-3.679c-2.44,1.022-3.658,3.74-4.502,6.25c-1.075,3.188-1.907,6.467-2.497,9.776
				c-1.054-19.331,4.996-38.955,16.703-54.373c2.65,0.548,5.356,0.853,8.073,0.915C226.439,281.373,230.135,292.398,232.774,303.657
				z"/>
			<path fill="#664EA0" d="M296.651,328.439c-10.75,6.849-21.799,13.22-33.119,19.074c-5.661,2.926-11.387,5.726-17.174,8.393
				c-5.693,2.623-11.429,5.26-17.429,7.113c-5.946,1.84-12.316,2.908-18.501,1.709c-5.603-1.09-10.677-3.969-14.952-7.69
				c-4.624-4.024-8.328-8.957-11.698-14.044c-3.519-5.311-6.839-10.762-10.094-16.234c-7.394-12.435-14.245-25.189-20.552-38.208
				c-0.617-1.272-2.512-0.157-1.898,1.111c5.775,11.922,12.006,23.621,18.693,35.056c3.328,5.69,6.758,11.323,10.316,16.871
				c3.359,5.238,6.932,10.419,11.351,14.831c3.984,3.978,8.688,7.317,14.002,9.249c5.727,2.083,11.898,2.129,17.833,1.006
				c6.229-1.178,12.156-3.57,17.934-6.113c5.984-2.637,11.902-5.426,17.754-8.344c13.256-6.609,26.155-13.922,38.647-21.881
				C298.955,329.581,297.851,327.677,296.651,328.439z"/>
			<path fill="#664EA0" d="M289.556,275.791c-19.644,6.583-38.505,15.409-56.135,26.291c-1.202,0.742-0.097,2.645,1.112,1.896
				c17.473-10.785,36.141-19.543,55.608-26.067C291.478,277.464,290.903,275.339,289.556,275.791z"/>
			<path fill="#664EA0" d="M294.147,280.902c-3.36,1.912-6.639,3.968-9.824,6.158c-0.489,0.336-0.709,0.965-0.393,1.504
				c0.283,0.485,1.014,0.731,1.504,0.396c3.187-2.192,6.465-4.246,9.824-6.159C296.489,282.1,295.381,280.2,294.147,280.902z"/>
			<path fill="#664EA0" d="M297.464,287.241c-2.713,2.532-5.621,4.837-8.712,6.894c-0.494,0.329-0.706,0.971-0.392,1.504
				c0.287,0.491,1.008,0.725,1.505,0.395c3.241-2.158,6.309-4.58,9.155-7.238C300.058,287.826,298.499,286.273,297.464,287.241z"/>
			<path fill="#664EA0" d="M304.097,295.044c-2.486,2.472-5.25,4.626-8.256,6.433c-1.212,0.729-0.105,2.631,1.112,1.896
				c3.157-1.896,6.088-4.18,8.7-6.775C306.66,295.598,305.103,294.044,304.097,295.044z"/>
			<path fill="#664EA0" d="M310.496,301.964c-0.576-0.304-1.137-0.101-1.504,0.396c-0.215,0.291-0.36,0.479-0.633,0.811
				c-0.239,0.289-0.485,0.574-0.739,0.854c-0.521,0.572-1.066,1.121-1.639,1.641c-1.141,1.038-2.229,1.843-3.588,2.663
				c-0.492,0.297-0.718,1.002-0.392,1.506c0.319,0.495,0.978,0.711,1.505,0.394c2.892-1.746,5.377-4.045,7.386-6.756
				C311.235,303.005,310.982,302.221,310.496,301.964z"/>
			<path fill="#664EA0" d="M315.916,310.611c-0.454-0.451-1.096-0.377-1.555,0.003c-2.383,1.966-4.764,3.932-7.146,5.899
				c-0.458,0.377-0.39,1.161,0.002,1.553c0.454,0.453,1.097,0.379,1.556,0c2.381-1.967,4.763-3.934,7.144-5.897
				C316.375,311.79,316.307,311.004,315.916,310.611z"/>
			<path fill="#664EA0" d="M172.8,230.622c-0.049-0.867-0.612-1.556-1.163-2.179c-0.628-0.712-1.309-1.379-2.027-2
				c-1.439-1.244-3.023-2.303-4.723-3.156c-1.262-0.634-2.375,1.264-1.108,1.9c1.274,0.639,2.499,1.384,3.62,2.268
				c0.596,0.47,1.165,0.979,1.705,1.511c0.443,0.437,1.107,0.964,1.378,1.533c0.133,0.279,0.172,0.277-0.134,0.464
				c-0.27,0.166-0.641,0.234-0.951,0.273c-0.656,0.084-1.344,0-1.995-0.086c-1.432-0.189-2.793-0.406-4.23-0.134
				c-0.774,0.146-1.107,1.332-0.483,1.838c1.595,1.295,3.076,2.724,4.407,4.291c0.351,0.413,0.692,0.833,1.019,1.266
				c0.129,0.17,0.246,0.371,0.386,0.536c-0.716-0.142-1.396-0.326-2.107-0.583c-4.004-1.452-7.756-3.544-11.152-6.11
				c-1.129-0.853-2.224,1.057-1.108,1.9c2.156,1.628,4.449,3.064,6.868,4.27c1.159,0.578,2.344,1.102,3.548,1.581
				c1.094,0.437,2.264,0.964,3.433,1.151c0.973,0.155,2.082-0.004,2.637-0.92c0.715-1.183-0.167-2.368-0.875-3.287
				c-1.032-1.342-2.168-2.59-3.383-3.758c0.925,0.135,1.851,0.309,2.776,0.263C170.759,233.373,172.911,232.588,172.8,230.622z"/>
			<path fill="#664EA0" d="M274.588,366.467c-7.851,0.629-15.674,1.521-23.465,2.662c-0.75,0.109-0.938,1.057-0.656,1.616
				c0.71,1.403,2.372,1.694,3.753,2.073c1.848,0.509,3.705,0.979,5.57,1.418c1.866,0.438,3.738,0.841,5.62,1.207
				c1.216,0.236,2.483,0.396,3.646,0.814c-3.027,1.534-7.06,1.924-8.863,5.01c-1.232,2.107,1.56,3.26,3.128,3.717
				c2.4,0.701,4.953,0.602,7.421,0.477c1.409-0.07,1.415-2.271-0.003-2.197c-1.957,0.098-3.975,0.219-5.91-0.173
				c-0.762-0.151-1.967-0.373-2.583-0.907c0.016-0.021,0.022-0.031,0.042-0.056c0.138-0.155,0.283-0.305,0.436-0.444
				c0.272-0.254,0.567-0.469,0.881-0.67c2.66-1.703,5.881-2.104,8.418-4.072c0.623-0.48,0.269-1.354-0.225-1.726
				c-1.268-0.959-2.781-1.319-4.314-1.61c-1.801-0.34-3.598-0.697-5.387-1.097c-1.727-0.384-3.446-0.798-5.159-1.239
				c-0.607-0.158-1.214-0.326-1.82-0.489c6.471-0.882,12.962-1.591,19.471-2.112C275.991,368.555,276.001,366.354,274.588,366.467z"
				/>
			<path fill="#664EA0" d="M150.625,343.098c-3.411-4.021-7.988-7.296-12.638-9.72c-1.254-0.653-2.365,1.244-1.108,1.899
				c3.758,1.959,7.22,4.424,10.263,7.377c0.701,0.681,1.51,1.384,2.071,2.188c0.093,0.135,0.282,0.379,0.294,0.541
				c0.017,0.236,0.136,0.075-0.03,0.169c-0.352,0.197-1.193,0.05-1.584,0.046c-2.389-0.033-4.737-0.393-7.038-1.029
				c-1.016-0.282-1.917,1.098-1.068,1.839c1.393,1.219,2.99,2.372,4.225,3.754c0.31,0.346,1.063,1.229,0.396,1.556
				c-0.547,0.266-1.428-0.078-1.954-0.246c-3.366-1.078-6.466-2.914-9.079-5.287c-1.046-0.951-2.604,0.603-1.554,1.557
				c1.752,1.591,3.688,2.979,5.79,4.07c1.857,0.967,4.169,2.15,6.309,2.168c2.208,0.021,3.587-1.979,2.609-4.006
				c-0.472-0.978-1.278-1.703-2.08-2.404c-0.006-0.004-0.013-0.01-0.02-0.018c1.555,0.217,3.125,0.313,4.675,0.237
				c1.152-0.058,2.313-0.47,2.595-1.726C151.944,344.968,151.302,343.896,150.625,343.098z"/>
			<path fill="#14133F" d="M304.446,176.391c-0.19-0.562-0.758-0.931-1.354-0.767c-0.549,0.152-0.959,0.789-0.768,1.354
				c0.904,2.661,1.49,5.41,1.77,8.202c-2.554-0.398-5.107-0.798-7.66-1.196c-0.586-0.092-1.184,0.15-1.353,0.769
				c-0.144,0.523,0.181,1.26,0.771,1.352c3.059,0.479,6.117,0.957,9.176,1.435c0.654,0.103,1.44-0.279,1.392-1.062
				C306.205,183.043,305.554,179.648,304.446,176.391z"/>
			<path fill="#14133F" d="M334.315,198.56c-0.759-0.598-1.482-1.237-2.167-1.919c-0.336-0.334-0.663-0.679-0.979-1.033
				c-0.08-0.09-0.159-0.183-0.238-0.275c0.036-0.021,0.073-0.044,0.109-0.067c0.346-0.214,0.693-0.429,1.039-0.644
				c0.488-0.303,0.721-0.998,0.393-1.505c-0.315-0.49-0.979-0.717-1.505-0.394c-0.361,0.225-0.724,0.449-1.086,0.674
				c-0.383,0.238-0.826,0.454-1.154,0.764c-0.483,0.457-0.534,1.195-0.168,1.733c0.25,0.368,0.563,0.708,0.854,1.043
				c1.014,1.163,2.137,2.226,3.349,3.181c0.45,0.355,1.121,0.471,1.556-0.002C334.681,199.718,334.798,198.94,334.315,198.56z"/>
			<path fill="#F99E1C" d="M341.893,200.014c-2.973-3.072-5.47-6.553-7.406-10.365c-0.961-1.888-1.771-3.844-2.431-5.857
				c-0.608-1.862-1.264-4.054,0.039-5.763c0.856-1.126-1.054-2.221-1.9-1.108c-1.328,1.744-1.192,4.019-0.682,6.04
				c0.59,2.322,1.532,4.591,2.559,6.75c2.079,4.377,4.899,8.379,8.268,11.859C341.324,202.59,342.877,201.031,341.893,200.014z"/>
			<path fill="#14133F" d="M311.168,166.886c-3.561-1.323-7.285-2.059-11.087-2.066c-1.779-0.004-3.441,0.955-3.676,2.874
				c-0.196,1.605,1.08,3.673,2.873,3.676c3.252,0.007,6.381,0.508,9.432,1.641C312.679,174.484,315.165,168.37,311.168,166.886z"/>
			<path opacity="0.31" fill="#E33F6A" enable-background="new    " d="M321.045,192.069c-4.361-1.926-10.478-3.144-15.286-1.074
				c-2.305,0.992-2.656,2.662-2.197,4.505c0.312,0.659,0.688,1.1,1.098,1.614c2.237,2.815,6.45,1.932,9.869,2.531
				c3.491,0.612,4.956,3.617,8.416,4.05c1.352,0.169,2.802-0.556,3.607-1.484C330.057,198.176,324.863,193.758,321.045,192.069z"/>
			<path fill="#FFFFFF" d="M289.429,172.548c0.184-0.683-0.897-0.882-1.082-0.2c-0.545,2.01-1.177,4.907-3.514,5.563
				c-0.893,0.251-1.96,0.055-2.514-0.745c-0.567-0.821-0.469-1.953-0.201-2.863c0.688-2.335,2.648-3.467,4.418-4.911
				c1.47-1.199,2.777-2.86,2.553-4.867c-0.079-0.702-1.175-0.622-1.097,0.084c0.233,2.1-1.597,3.54-3.099,4.659
				c-1.644,1.223-3.103,2.521-3.763,4.53c-0.489,1.491-0.519,3.397,0.75,4.525c1.247,1.108,3.169,0.963,4.476,0.054
				C288.276,177.042,288.853,174.675,289.429,172.548z"/>
			<path fill="#FFFFFF" d="M273.86,188.358c-0.57,1.038-1.215,2.262-2.399,2.691c-1.086,0.393-2.147-0.134-2.253-1.333
				c-0.102-1.167,0.756-2.06,1.711-2.584c0.869-0.478,2.132-0.565,2.594-1.574c0.377-0.823-0.082-1.605-0.365-2.371
				c-0.449-1.211,0.326-2.141,1.33-2.754c1.699-1.038,4.387-1.948,4.015-4.473c-0.103-0.696-1.201-0.618-1.097,0.084
				c0.338,2.292-3.058,2.906-4.354,4.09c-0.636,0.582-1.144,1.388-1.161,2.272c-0.008,0.428,0.105,0.831,0.26,1.225
				c0.143,0.358,0.418,0.788,0.418,1.181c0,0.559-0.582,0.707-1.021,0.864c-0.458,0.163-0.904,0.353-1.324,0.596
				c-0.809,0.47-1.544,1.175-1.884,2.061c-0.575,1.497,0.006,3.444,1.688,3.872c2.338,0.596,3.873-1.616,4.834-3.367
				C275.19,188.217,274.2,187.739,273.86,188.358z"/>
			<path fill="#FFFFFF" d="M284.765,184.832c-0.219-0.192-0.584-0.178-0.775,0.05c-0.18,0.214-0.361,0.429-0.555,0.631
				c-0.199,0.209-0.311,0.316-0.537,0.477c-0.23,0.164-0.36,0.237-0.629,0.316c-0.021,0.007-0.043,0.012-0.065,0.018
				c-0.001,0,0,0,0,0c-0.056,0.007-0.108,0.015-0.164,0.018c-0.047,0.002-0.095,0.002-0.142,0.003c0.105,0-0.055-0.006-0.094-0.012
				c-0.047-0.007-0.094-0.016-0.141-0.026c-0.014-0.003-0.085-0.024-0.111-0.031c-0.029-0.012-0.092-0.038-0.104-0.043
				c-0.047-0.022-0.094-0.056-0.143-0.075c0,0,0,0.001,0,0c-0.015-0.012-0.029-0.021-0.043-0.033
				c-0.035-0.027-0.066-0.06-0.102-0.088c-0.006-0.005-0.006-0.006-0.01-0.009c-0.008-0.011-0.019-0.021-0.025-0.033
				c-0.013-0.019-0.059-0.092-0.07-0.111c-0.004-0.013-0.021-0.059-0.027-0.074c-0.002-0.006-0.006-0.027-0.01-0.043
				c-0.002-0.007-0.002-0.016-0.002-0.018c-0.004-0.131-0.004-0.177,0.03-0.335c0.015-0.067,0.06-0.174,0.112-0.292
				c0.068-0.148,0.145-0.293,0.218-0.438c0.351-0.686,0.7-1.372,1.052-2.057c0.135-0.265,0.008-0.607-0.256-0.735
				c-0.271-0.133-0.599-0.011-0.734,0.254c-0.361,0.707-0.723,1.415-1.084,2.123c-0.311,0.607-0.609,1.305-0.332,1.983
				c0.237,0.583,0.761,0.944,1.352,1.111c0.623,0.175,1.258,0.039,1.816-0.261c0.653-0.352,1.156-0.935,1.627-1.496
				C285.006,185.38,284.992,185.031,284.765,184.832z"/>
			<path fill="#FFFFFF" d="M306.991,244.096c-0.469-2.833-0.938-5.665-1.408-8.497c-0.141-0.854-1.244-1.405-2.029-1.15
				c-0.924,0.3-1.302,1.116-1.15,2.031c0.47,2.832,0.938,5.665,1.408,8.497c0.141,0.854,1.244,1.405,2.029,1.15
				C306.765,245.826,307.143,245.01,306.991,244.096z"/>
			<path fill="#FFFFFF" d="M322.348,243.093c-1.733-2.644-3.469-5.288-5.203-7.932c-0.472-0.72-1.482-1.089-2.257-0.589
				c-0.719,0.465-1.095,1.486-0.589,2.258c1.733,2.643,3.467,5.287,5.202,7.931c0.473,0.72,1.483,1.091,2.257,0.589
				C322.478,244.886,322.854,243.865,322.348,243.093z"/>
			<path fill="#FFFFFF" d="M325.766,226.196c-2.998-0.989-5.996-1.978-8.994-2.967c-0.82-0.27-1.839,0.316-2.027,1.154
				c-0.207,0.909,0.275,1.739,1.154,2.028c2.997,0.989,5.995,1.978,8.993,2.967c0.82,0.271,1.839-0.316,2.028-1.154
				C327.126,227.314,326.645,226.485,325.766,226.196z"/>
			<path fill="#282F6B" d="M331.105,119.813c-4.352,6.12-9.95,11.322-16.336,15.269c-6.662,4.117-14.013,6.679-21.732,7.9
				c-8.442,1.336-17.233,1.482-25.297,4.585c-6.37,2.452-12.479,6.713-15.212,13.184c-2.774,6.567-1.377,13.84-2.487,20.703
				c-0.527,3.255-1.724,6.376-4.155,8.687c-2.228,2.118-5.126,3.368-7.949,4.478c-5.52,2.17-11.908,4.236-14.076,10.391
				c-1.266,3.593-0.628,7.542,0.429,11.1c1.182,3.982,2.978,7.746,4.256,11.696c2.575,7.955,3.444,16.875-0.352,24.6
				c-1.664,3.387-4.177,6.408-7.465,8.316c-3.079,1.787-6.755,2.627-10.3,2.186c-1.78-0.223-3.493-0.794-5.049-1.684
				c-0.687-0.392-1.305,0.668-0.619,1.06c6.35,3.623,14.574,1.938,19.803-2.892c5.811-5.367,7.936-13.647,7.349-21.33
				c-0.341-4.471-1.485-8.844-3.037-13.04c-1.437-3.887-3.194-7.684-4.05-11.76c-0.789-3.755-0.608-7.796,1.873-10.912
				c1.866-2.344,4.615-3.753,7.327-4.886c5.597-2.338,12.066-4.006,15.236-9.699c3.423-6.15,2.118-13.696,2.887-20.411
				c0.406-3.554,1.489-6.919,3.614-9.827c2.101-2.873,4.984-5.113,8.083-6.819c7.406-4.077,15.918-4.811,24.156-5.813
				c4.303-0.523,8.605-1.139,12.784-2.317c3.595-1.014,7.089-2.392,10.417-4.085c6.679-3.396,12.716-8.1,17.61-13.776
				c1.186-1.374,2.301-2.807,3.352-4.285C332.621,119.788,331.559,119.175,331.105,119.813z"/>
			<path fill="#282F6B" d="M322.317,112.894c-2.72,5.732-8.066,9.624-13.918,11.756c-7.137,2.602-14.854,2.517-22.332,2.022
				c-7.709-0.509-15.457-1.471-23.176-0.584c-6.8,0.78-13.275,3.083-18.481,7.62c-4.623,4.028-8.044,9.478-9.578,15.421
				c-0.893,3.464-0.875,7.061-1.599,10.552c-0.674,3.254-2.236,6-4.691,8.236c-4.573,4.166-10.667,6.217-15.86,9.454
				c-5.482,3.419-10.449,7.762-14.18,13.063c-3.613,5.134-5.885,11.123-6.172,17.418c-0.274,5.985,1.198,12.2,4.705,17.118
				c0.845,1.185,1.795,2.287,2.844,3.294c0.569,0.546,1.437-0.319,0.867-0.867c-4.407-4.229-6.756-10.139-7.158-16.179
				c-0.416-6.268,1.225-12.411,4.429-17.788c3.325-5.581,8.12-10.2,13.475-13.826c2.586-1.75,5.321-3.219,8.095-4.644
				c2.723-1.399,5.473-2.804,7.937-4.638c2.271-1.69,4.304-3.749,5.561-6.316c1.602-3.272,1.757-6.941,2.188-10.495
				c0.764-6.293,3.452-12.168,7.793-16.804c4.657-4.974,10.762-7.901,17.437-9.052c7.467-1.289,15.088-0.547,22.586,0.026
				c7.569,0.579,15.379,1.041,22.792-0.953c5.819-1.564,11.46-4.638,15.191-9.465c0.901-1.168,1.673-2.42,2.305-3.753
				C323.711,112.803,322.655,112.181,322.317,112.894z"/>
			<path fill="#282F6B" d="M362.2,112.8c-8.61-2.511-18.189-1.041-25.64,3.958c-0.65,0.436-0.038,1.499,0.618,1.058
				c7.193-4.826,16.377-6.26,24.694-3.834C362.633,114.203,362.956,113.021,362.2,112.8z"/>
			<path fill="#282F6B" d="M361.709,122.729c-5.955-2.975-12.514-4.575-19.171-4.659c-0.789-0.01-0.789,1.216,0,1.226
				c6.437,0.082,12.793,1.615,18.552,4.492C361.794,124.138,362.416,123.082,361.709,122.729z"/>
			<path fill="#282F6B" d="M362.756,143.091c-2.271-6.255-6.756-11.374-12.057-15.288c-3.029-2.237-6.33-4.083-9.754-5.645
				c-0.712-0.325-1.336,0.73-0.619,1.058c5.729,2.612,11.172,6.054,15.427,10.748c4.29,4.734,7.128,10.763,7.376,17.202
				c0.141,3.618-0.565,7.232-2.257,10.447c-0.367,0.697,0.69,1.318,1.058,0.618C365.031,156.334,365.002,149.275,362.756,143.091z"
				/>
			<path fill="#282F6B" d="M342.673,155.759c-5.833-8.484-8.223-19.156-6.479-29.313c0.132-0.771-1.05-1.103-1.183-0.326
				c-1.799,10.477,0.575,21.492,6.604,30.258C342.059,157.024,343.121,156.412,342.673,155.759z"/>
			<path fill="#282F6B" d="M323.491,109.788c-7.537-5.043-15.985-8.968-24.958-10.551c-8.198-1.445-16.675-0.825-24.392,2.4
				c-7.244,3.028-13.546,8.219-17.235,15.22c-4.215,8-5.001,17.153-6.501,25.918c-1.379,8.062-3.543,16.647-9.382,22.715
				c-5.172,5.375-12.412,7.631-19.535,9.059c-7.354,1.473-14.924,2.175-22.036,4.678c-3.427,1.207-6.709,2.84-9.565,5.102
				c-3.014,2.387-5.503,5.439-7.319,8.823c-3.611,6.73-4.598,14.817-2.195,22.117c2.35,7.139,7.597,13.299,14.273,16.752
				c1.617,0.836,3.315,1.51,5.063,2.013c0.759,0.219,1.083-0.963,0.325-1.182c-7.176-2.065-13.254-7.218-16.729-13.798
				c-3.592-6.801-3.917-14.77-1.206-21.937c1.344-3.556,3.417-6.853,6.065-9.58c2.578-2.656,5.689-4.662,9.072-6.137
				c6.705-2.922,14.103-3.788,21.241-5.047c6.888-1.214,14.037-2.773,19.827-6.916c6.536-4.678,9.976-12.018,11.893-19.625
				c2.099-8.326,2.48-17,4.938-25.245c1.21-4.063,2.959-7.98,5.545-11.362c2.336-3.053,5.276-5.629,8.53-7.661
				c6.714-4.192,14.684-6.109,22.564-5.813c8.983,0.337,17.697,3.339,25.506,7.685c1.912,1.064,3.772,2.213,5.591,3.429
				C323.529,111.286,324.144,110.225,323.491,109.788z"/>
			<path fill="#282F6B" d="M261.03,182.579c0.574-0.543-0.294-1.409-0.867-0.867c-5.173,4.896-8.835,11.29-10.597,18.182
				c-1.83,7.159-1.413,14.441,0.76,21.469c2.295,7.422,6.008,14.443,7.353,22.145c0.641,3.672,0.628,7.48-0.413,11.081
				c-1.002,3.463-2.894,6.659-5.415,9.233c-6.089,6.217-15.578,8.021-23.606,4.762c-0.731-0.296-1.048,0.889-0.326,1.182
				c7.117,2.891,15.637,1.973,21.873-2.56c5.818-4.228,9.362-11.009,9.543-18.19c0.198-7.918-3.228-15.341-5.954-22.593
				c-1.383-3.68-2.668-7.43-3.324-11.316c-0.609-3.607-0.624-7.334-0.098-10.953C251.148,195.984,255.024,188.264,261.03,182.579z"
				/>
			<path fill="#0E94C4" d="M286.681,241.518c-0.582-0.533-1.451,0.332-0.867,0.867c1.457,1.338,1.246,3.635,0.224,5.178
				c-1.22,1.84-3.359,2.854-5.276,3.797c-0.387,0.189-0.352,0.68-0.123,0.961c2.004,2.488,2.461,6.162,1.016,9.029
				c-1.412,2.803-4.4,4.614-7.523,4.65c-0.789,0.008-0.791,1.234,0,1.225c3.602-0.039,7.133-2.166,8.68-5.459
				c1.471-3.127,1.07-6.82-0.841-9.643c2.105-1.053,4.347-2.314,5.433-4.477C288.392,245.684,288.39,243.087,286.681,241.518z"/>
			<path fill="#0E94C4" d="M275.319,240.362c-0.715-0.312-1.34,0.743-0.618,1.058c1.834,0.797,2.36,2.966,1.948,4.789
				c-0.521,2.309-2.541,3.925-4.383,5.217c-1.937,1.356-4.02,2.592-5.531,4.448c-0.678,0.833-1.23,1.765-1.539,2.797
				c-0.381,1.274-0.338,2.622-0.279,3.937c0.066,1.509,0.188,3.166-0.539,4.549c-0.6,1.143-1.904,1.919-3.17,1.419
				c-0.733-0.291-1.051,0.894-0.325,1.18c2.476,0.981,4.658-1.315,5.119-3.569c0.599-2.931-0.606-6.028,1.086-8.721
				c2.757-4.388,9.8-5.592,10.802-11.211C278.289,244.005,277.571,241.34,275.319,240.362z"/>
			<path fill="#0E94C4" d="M260.022,263.768c-0.229-0.229-0.639-0.242-0.867,0c-1.111,1.18-2.356,2.075-3.842,2.769
				c-0.299,0.14-0.375,0.571-0.22,0.839c0.18,0.309,0.537,0.359,0.838,0.221c1.534-0.716,2.93-1.729,4.09-2.962
				C260.25,264.393,260.261,264.006,260.022,263.768z"/>
			<path fill="#0E94C4" d="M257.414,262.922c-0.246-0.227-0.623-0.24-0.867,0c-0.886,0.876-1.771,1.752-2.658,2.629
				c-0.228,0.227-0.243,0.645,0,0.866c0.246,0.226,0.623,0.241,0.866,0c0.887-0.876,1.772-1.753,2.658-2.629
				C257.643,263.563,257.657,263.145,257.414,262.922z"/>
			<path fill="#0E94C4" d="M294.077,371.158c-0.604-1.766-1.208-3.527-1.811-5.29c-0.107-0.313-0.42-0.519-0.754-0.429
				c-0.305,0.084-0.537,0.439-0.429,0.754l1.812,5.291c0.106,0.313,0.42,0.519,0.752,0.427
				C293.953,371.828,294.185,371.473,294.077,371.158z"/>
			<path fill="#0E94C4" d="M298.985,369.516c-0.705-1.547-1.412-3.094-2.118-4.641c-0.138-0.3-0.573-0.375-0.839-0.221
				c-0.309,0.183-0.356,0.535-0.219,0.839c0.705,1.548,1.412,3.094,2.117,4.641c0.139,0.302,0.573,0.376,0.838,0.22
				C299.075,370.173,299.124,369.818,298.985,369.516z"/>
			<path fill="#0E94C4" d="M304.931,366.214c-0.662-1.543-1.324-3.083-1.986-4.625c-0.131-0.305-0.578-0.373-0.838-0.221
				c-0.315,0.185-0.352,0.534-0.221,0.839c0.662,1.542,1.324,3.083,1.986,4.626c0.132,0.304,0.579,0.372,0.839,0.219
				C305.024,366.868,305.062,366.52,304.931,366.214z"/>
			<path fill="#0E94C4" d="M298.969,377.296c-0.436-1.159-0.87-2.317-1.306-3.478c-0.112-0.299-0.419-0.535-0.754-0.428
				c-0.292,0.094-0.549,0.433-0.428,0.754c0.436,1.158,0.871,2.316,1.307,3.477c0.113,0.299,0.419,0.536,0.754,0.429
				C298.834,377.954,299.09,377.615,298.969,377.296z"/>
			<path fill="#0E94C4" d="M305.087,374.145c-0.65-1.215-1.301-2.434-1.949-3.649c-0.152-0.284-0.568-0.396-0.84-0.222
				c-0.287,0.187-0.381,0.535-0.22,0.838c0.649,1.22,1.3,2.437,1.95,3.652c0.15,0.284,0.568,0.396,0.839,0.221
				C305.155,374.798,305.249,374.449,305.087,374.145z"/>
			<path fill="#0E94C4" d="M304.411,381.756c-0.551-1.156-1.1-2.314-1.648-3.473c-0.139-0.289-0.578-0.387-0.839-0.219
				c-0.299,0.192-0.368,0.527-0.221,0.838c0.55,1.158,1.101,2.313,1.649,3.472c0.139,0.29,0.576,0.39,0.84,0.222
				C304.489,382.402,304.558,382.066,304.411,381.756z"/>
			<path fill="#0E94C4" d="M304.968,403.955c-1.445-2.595-2.583-5.337-3.402-8.191c-0.217-0.756-1.399-0.434-1.182,0.326
				c0.846,2.951,2.031,5.801,3.526,8.484C304.294,405.262,305.353,404.646,304.968,403.955z"/>
			<path fill="#0E94C4" d="M310.373,401.42c-0.991-2.479-1.981-4.957-2.972-7.438c-0.123-0.307-0.41-0.521-0.754-0.426
				c-0.292,0.078-0.552,0.441-0.429,0.754c0.991,2.479,1.981,4.955,2.973,7.435c0.123,0.308,0.409,0.522,0.754,0.429
				C310.236,402.094,310.496,401.729,310.373,401.42z"/>
			<path fill="#0E94C4" d="M317.327,399.993c-1.181-2.657-2.361-5.315-3.542-7.974c-0.135-0.305-0.574-0.371-0.838-0.22
				c-0.313,0.179-0.354,0.538-0.221,0.839c1.182,2.656,2.361,5.314,3.542,7.972c0.136,0.306,0.574,0.372,0.839,0.221
				C317.421,400.653,317.461,400.294,317.327,399.993z"/>
			<path fill="#0E94C4" d="M324.806,396.851c-1.418-2.225-2.641-4.575-3.627-7.022c-0.124-0.307-0.407-0.521-0.754-0.428
				c-0.291,0.08-0.552,0.445-0.428,0.754c1.027,2.549,2.272,4.996,3.75,7.314C324.17,398.134,325.23,397.52,324.806,396.851z"/>
			<path fill="#0E94C4" d="M330.677,393.82c-1.155-2.036-2.313-4.075-3.47-6.113c-0.39-0.688-1.448-0.068-1.059,0.618
				c1.155,2.038,2.313,4.075,3.471,6.114C330.008,395.125,331.066,394.509,330.677,393.82z"/>
			<path fill="#0E94C4" d="M336.714,391.049c-1.027-2.156-2.056-4.314-3.083-6.472c-0.143-0.3-0.57-0.377-0.839-0.222
				c-0.306,0.182-0.362,0.541-0.22,0.84c1.027,2.158,2.056,4.313,3.083,6.473c0.143,0.297,0.569,0.377,0.839,0.219
				C336.799,391.708,336.856,391.35,336.714,391.049z"/>
			<path fill="#0E94C4" d="M342.84,386.928c-1.239-1.673-2.479-3.345-3.718-5.018c-0.196-0.266-0.53-0.398-0.838-0.221
				c-0.263,0.152-0.419,0.57-0.222,0.838c1.239,1.673,2.479,3.347,3.72,5.02c0.196,0.266,0.529,0.398,0.838,0.221
				C342.882,387.614,343.038,387.195,342.84,386.928z"/>
			<path fill="#0E94C4" d="M329.71,367.2l-2.3-3.313c-0.184-0.264-0.546-0.408-0.839-0.221c-0.262,0.169-0.415,0.559-0.222,0.84
				l2.302,3.313c0.183,0.264,0.546,0.41,0.839,0.222C329.751,367.87,329.905,367.48,329.71,367.2z"/>
			<path fill="#0E94C4" d="M325.005,368.896c-0.617-1.318-1.232-2.636-1.85-3.953c-0.142-0.299-0.571-0.375-0.838-0.219
				c-0.309,0.18-0.361,0.537-0.222,0.838c0.617,1.317,1.233,2.635,1.851,3.951c0.141,0.299,0.57,0.377,0.838,0.221
				C325.092,369.555,325.146,369.197,325.005,368.896z"/>
			<path fill="#0E94C4" d="M323.24,360.277c-0.66-1.104-1.321-2.203-1.982-3.307c-0.164-0.272-0.558-0.398-0.838-0.218
				c-0.276,0.179-0.396,0.543-0.22,0.837c0.661,1.104,1.321,2.204,1.98,3.307c0.166,0.273,0.56,0.399,0.84,0.219
				C323.297,360.938,323.417,360.572,323.24,360.277z"/>
			<path fill="#0E94C4" d="M261.123,229.859c-0.277-0.147-0.685-0.087-0.838,0.219c-0.491,0.985-0.981,1.97-1.472,2.955
				c-0.144,0.286-0.087,0.676,0.219,0.838c0.277,0.146,0.686,0.086,0.838-0.22c0.491-0.985,0.981-1.969,1.472-2.955
				C261.485,230.411,261.429,230.021,261.123,229.859z"/>
			<path fill="#0E94C4" d="M265.219,232.832c-0.075-0.127-0.22-0.249-0.366-0.281c-0.295-0.068-0.695,0.089-0.754,0.428
				c-0.074,0.437-0.185,0.867-0.336,1.283c-0.037,0.103-0.072,0.207-0.119,0.306c-0.006,0.012-0.011,0.023-0.014,0.028
				c-0.023,0.055-0.049,0.109-0.074,0.164c-0.097,0.203-0.203,0.401-0.318,0.595c-0.164,0.276-0.071,0.684,0.22,0.838
				c0.295,0.157,0.664,0.075,0.838-0.219c0.485-0.818,0.827-1.729,0.985-2.669C265.31,233.137,265.308,232.982,265.219,232.832z"/>
			<path fill="#0E94C4" d="M262.021,234.716c-0.285-0.152-0.674-0.081-0.838,0.219c-0.479,0.88-0.959,1.759-1.439,2.639
				c-0.154,0.281-0.08,0.68,0.219,0.838c0.287,0.151,0.675,0.081,0.838-0.22c0.48-0.879,0.961-1.759,1.441-2.639
				C262.396,235.273,262.319,234.874,262.021,234.716z"/>
			<path fill="#0E94C4" d="M254.091,242.426c-0.276-0.146-0.688-0.087-0.838,0.22c-0.412,0.841-0.823,1.682-1.235,2.522
				c-0.14,0.287-0.087,0.676,0.22,0.838c0.275,0.146,0.688,0.087,0.838-0.219c0.412-0.841,0.823-1.682,1.235-2.522
				C254.451,242.977,254.398,242.588,254.091,242.426z"/>
			<path fill="#0E94C4" d="M256.394,245.521c-0.362,0.016-0.568,0.267-0.611,0.605c0-0.003,0-0.002,0-0.005l-0.001,0.006
				c0,0.002-0.001,0.004-0.001,0.006c-0.002,0.015-0.001,0.011-0.003,0.019c-0.003,0.023-0.006,0.047-0.011,0.07
				c-0.01,0.066-0.021,0.133-0.035,0.199c-0.026,0.133-0.056,0.266-0.091,0.396c-0.066,0.244-0.148,0.483-0.242,0.721
				c-0.013,0.029-0.026,0.059-0.039,0.087c-0.028,0.062-0.058,0.123-0.087,0.185c-0.052,0.105-0.109,0.211-0.167,0.313
				c-0.135,0.235-0.287,0.459-0.452,0.675c-0.196,0.256-0.048,0.697,0.22,0.838c0.324,0.172,0.629,0.053,0.839-0.22
				c0.731-0.956,1.151-2.097,1.294-3.284C257.045,245.814,256.697,245.507,256.394,245.521z"/>
			<path fill="#0E94C4" d="M253.645,249.805c-0.28-0.148-0.682-0.084-0.838,0.219c-0.661,1.287-1.321,2.572-1.981,3.856
				c-0.146,0.285-0.084,0.679,0.22,0.839c0.28,0.147,0.682,0.084,0.838-0.22c0.661-1.286,1.321-2.571,1.981-3.856
				C254.011,250.357,253.948,249.964,253.645,249.805z"/>
			<path fill="#0E94C4" d="M279.087,254.846c-0.152-0.281-0.566-0.395-0.839-0.22c-0.286,0.185-0.383,0.536-0.22,0.838
				c0.027,0.05,0.052,0.101,0.078,0.151c0.004,0.011,0.002,0.007,0.006,0.013c0.005,0.013,0.01,0.024,0.015,0.038
				c0.035,0.093,0.063,0.188,0.088,0.285c0.013,0.055,0.025,0.111,0.035,0.167c0.003,0.017,0.006,0.034,0.009,0.05
				c0.008,0.105,0.016,0.21,0.016,0.316c-0.002,0.09,0.015,0.235-0.022,0.318c0.013-0.092,0.015-0.105,0.003-0.037
				c-0.005,0.029-0.011,0.058-0.016,0.084c-0.01,0.049-0.021,0.098-0.034,0.146c-0.013,0.048-0.026,0.096-0.042,0.143
				c-0.012,0.039-0.027,0.131-0.057,0.16c0.035-0.081,0.039-0.09,0.012-0.029c-0.012,0.026-0.023,0.053-0.036,0.078
				c-0.024,0.051-0.053,0.102-0.081,0.149c-0.158,0.278-0.074,0.683,0.221,0.839c0.291,0.154,0.668,0.078,0.838-0.22
				C279.631,257.113,279.636,255.859,279.087,254.846z"/>
			<g>
				<path fill="#0E94C4" d="M277.136,260.252C277.151,260.212,277.169,260.161,277.136,260.252L277.136,260.252z"/>
				<path fill="#0E94C4" d="M277.92,259.75c-0.351-0.079-0.63,0.107-0.753,0.428c-0.014,0.035-0.029,0.069-0.041,0.104
					c0.005-0.017,0.007-0.019,0.01-0.029c-0.002,0.007-0.005,0.015-0.007,0.019c-0.028,0.063-0.058,0.123-0.088,0.184
					c-0.062,0.12-0.129,0.238-0.202,0.354c-0.035,0.057-0.074,0.112-0.113,0.168c-0.021,0.03-0.043,0.061-0.064,0.09l0,0
					c-0.084,0.104-0.169,0.205-0.262,0.301c-0.092,0.098-0.19,0.191-0.293,0.281c-0.049,0.041-0.099,0.082-0.148,0.123
					c-0.001,0,0,0-0.001,0c-0.024,0.019-0.049,0.037-0.075,0.055c-0.23,0.164-0.479,0.305-0.736,0.421
					c-0.131,0.06-0.246,0.233-0.283,0.366c-0.04,0.146-0.021,0.343,0.063,0.473c0.196,0.303,0.525,0.361,0.838,0.221
					c1.201-0.541,2.115-1.582,2.586-2.8C278.464,260.205,278.222,259.818,277.92,259.75z"/>
			</g>
		</g>
		<path fill="#14133F" d="M137.45,262.325c-2.361-5.046-3.156-10.761-2.253-16.259c0.127-0.771-1.053-1.104-1.181-0.326
			c-0.961,5.851-0.137,11.833,2.376,17.203C136.727,263.658,137.783,263.036,137.45,262.325z"/>
		<path fill="#14133F" d="M134.909,265.727c-2.917-3.191-4.673-7.344-4.926-11.66c-0.046-0.784-1.271-0.789-1.226,0
			c0.272,4.65,2.141,9.086,5.284,12.525C134.575,267.175,135.441,266.309,134.909,265.727z"/>
		<path fill="#14133F" d="M373.405,157.703c-2.711,1.843-5.424,3.687-8.137,5.529c-0.647,0.441-0.036,1.503,0.619,1.059
			c2.711-1.843,5.423-3.687,8.137-5.53C374.674,158.32,374.063,157.258,373.405,157.703z"/>
		<path fill="#14133F" d="M376.856,166.234c-3.087,1.02-6.258,1.752-9.479,2.187c-0.33,0.045-0.503,0.465-0.428,0.754
			c0.094,0.355,0.428,0.472,0.754,0.428c3.221-0.436,6.392-1.167,9.478-2.187C377.928,167.169,377.609,165.986,376.856,166.234z"/>
		<path fill="#14133F" d="M374.981,177.887c-2.865-0.583-5.73-1.167-8.596-1.75c-0.77-0.157-1.1,1.024-0.326,1.181
			c2.865,0.584,5.729,1.167,8.597,1.75C375.425,179.225,375.755,178.045,374.981,177.887z"/>
		<path fill="#14133F" d="M384.459,273.007c0.118,3.326-0.973,6.64-3.094,9.212c-0.497,0.604,0.364,1.477,0.866,0.867
			c2.328-2.822,3.583-6.415,3.452-10.079C385.657,272.223,384.431,272.218,384.459,273.007z"/>
		<path fill="#14133F" d="M390.186,275.654c0.037,3.287-1.118,6.529-3.264,9.027c-0.51,0.596,0.354,1.467,0.867,0.865
			c2.354-2.744,3.663-6.271,3.621-9.893C391.402,274.867,390.177,274.864,390.186,275.654z"/>
		<path fill="#14133F" d="M347.171,296.471c-2.146,1.094-4.577,1.477-6.961,1.158c-0.329-0.045-0.613,0.313-0.613,0.613
			c0,0.367,0.283,0.568,0.613,0.611c2.597,0.348,5.249-0.14,7.58-1.326C348.493,297.17,347.874,296.111,347.171,296.471z"/>
		<path fill="#14133F" d="M349.629,303.693c-0.081-0.295-0.443-0.547-0.754-0.428c-1.992,0.762-4.094,1.131-6.227,1.08
			c-0.789-0.02-0.788,1.206,0,1.225c2.229,0.054,4.467-0.325,6.552-1.122C349.509,304.33,349.722,304.035,349.629,303.693z"/>
	</g>
	<g>
		<path fill="#FFFFFF" d="M213.503,150.352c0.01,9.811-7.93,17.768-17.741,17.778c-9.811,0.009-17.768-7.931-17.777-17.741
			c-0.006-6.19,3.158-11.639,7.961-14.823l-1.945-53.661c-0.155-4.355,3.33-7.98,7.695-7.984l7.939-0.008
			c4.365-0.004,7.858,3.614,7.712,7.969l-1.836,53.666C210.321,138.72,213.497,144.163,213.503,150.352z"/>
		<path fill="#2A3071" d="M208.365,150.345c0.006,6.972-5.637,12.626-12.608,12.634c-6.973,0.007-12.627-5.636-12.634-12.608
			c-0.005-4.398,2.244-8.272,5.658-10.535l-1.383-38.135c-0.11-3.095,2.368-5.671,5.469-5.675l5.643-0.006
			c3.102-0.003,5.584,2.568,5.481,5.664l-1.305,38.138C206.104,142.078,208.36,145.946,208.365,150.345z"/>
		<path fill="#14133F" d="M195.93,90.394c-4.396,0.19-8.792,0.381-13.188,0.573c-1.206,0.053-1.21,1.934,0.002,1.881
			c4.396-0.191,8.792-0.382,13.187-0.573C197.138,92.223,197.143,90.341,195.93,90.394z"/>
		<path fill="#14133F" d="M191.253,102.294c-2.706,0.04-5.412,0.081-8.118,0.121c-1.209,0.018-1.21,1.899,0.002,1.881
			c2.706-0.04,5.412-0.081,8.117-0.121C192.465,104.157,192.466,102.276,191.253,102.294z"/>
		<path fill="#14133F" d="M195.192,109.5c-4.228,0.292-8.456,0.583-12.684,0.874c-1.202,0.083-1.208,1.964,0.002,1.882
			c4.228-0.292,8.456-0.583,12.684-0.875C196.396,111.298,196.403,109.416,195.192,109.5z"/>
		<path fill="#14133F" d="M190.634,117.968c-2.283,0.134-4.566,0.268-6.848,0.401c-0.507,0.03-0.94,0.413-0.939,0.942
			c0,0.486,0.431,0.969,0.941,0.939c2.283-0.133,4.565-0.268,6.848-0.401c0.507-0.03,0.94-0.413,0.94-0.942
			C191.575,118.421,191.143,117.938,190.634,117.968z"/>
		<path fill="#14133F" d="M193.431,126.308c-3.424,0.179-6.848,0.358-10.271,0.537c-1.205,0.063-1.21,1.945,0.001,1.881
			c3.424-0.179,6.848-0.357,10.271-0.536C194.637,128.127,194.643,126.246,193.431,126.308z"/>
		<path fill="#14133F" d="M190.649,132.818l-5.453,0.006c-0.492,0-0.963,0.434-0.94,0.942c0.024,0.509,0.415,0.94,0.942,0.939
			l5.454-0.005c0.492-0.001,0.963-0.434,0.939-0.942C191.567,133.249,191.177,132.818,190.649,132.818z"/>
		<path fill="#233F8C" d="M204.295,144.705c-1.017-1.033-2.461-1.796-3.944-1.648c-1.439,0.144-2.622,1.197-2.525,2.721
			c0.098,1.532,1.458,2.657,1.384,4.204c-0.074,0.33-0.175,0.656-0.313,0.975c-0.685,1.586-2.155,2.323-3.214,3.598
			c-0.983,1.185-1.48,2.839-0.569,4.218c0.88,1.334,2.535,1.761,4.042,1.504C205.904,159.129,209.127,149.61,204.295,144.705z"/>
		<path fill="#233F8C" d="M201.712,102.674c-0.021-1.209-1.902-1.211-1.881,0.001c0.193,11.763-0.229,23.528-1.269,35.247
			c-0.107,1.206,1.775,1.197,1.881-0.002C201.483,126.202,201.906,114.437,201.712,102.674z"/>
	</g>
	<g>
		<g>
			<path fill="none" stroke="#14133F" stroke-miterlimit="10" d="M340.899,231.392"/>
		</g>
	</g>
	<g>
		<g>
			<path fill="none" stroke="#14133F" stroke-miterlimit="10" d="M511.646,153.612"/>
		</g>
	</g>
	<g>
		<line fill="none" stroke="#14133F" stroke-miterlimit="10" x1="138.263" y1="183.81" x2="153.667" y2="203.136"/>
	</g>
	<g>
		<g>
			<g>
				<circle fill="#233F8C" cx="110.755" cy="294.178" r="13.308"/>
				<path fill="#2A3071" d="M113.616,294.893c1.731-0.002,3.144,1.407,3.146,3.139c0.001,1.738-1.408,3.144-3.139,3.146
					c-1.739,0.001-3.151-1.399-3.153-3.139C110.467,296.307,111.877,294.895,113.616,294.893z"/>
				<path fill="#2A3071" d="M106.247,285.1c2.6-0.002,4.7,2.102,4.703,4.692c0.002,2.594-2.093,4.699-4.693,4.704
					c-2.593,0.002-4.7-2.102-4.702-4.694C101.55,287.21,103.653,285.102,106.247,285.1z"/>
				<circle fill="#2A3071" cx="106.215" cy="299.141" r="2.043"/>
			</g>
			<g>
				<path fill="#233F8C" d="M97.423,270.586c-0.372,0.678-0.585,1.436-0.608,2.247c-0.982-0.089-1.965-0.156-2.948-0.211
					c-2.129,4.948-6.406,8.771-11.657,10.313c-0.021,1.299-0.065,2.586-0.131,3.885h-0.034c-0.441,0-0.87,0.104-1.243,0.296
					c-0.283-1.22-0.578-2.451-0.885-3.671c-0.925,0.147-1.886,0.228-2.857,0.229c-3.75,0.004-7.229-1.121-10.135-3.049
					c-0.485,0.35-0.97,0.689-1.467,1.027c-0.227-0.395-0.588-0.711-1.018-0.881c0.339-0.418,0.643-0.847,0.936-1.287
					c-3.425-2.832-5.801-6.885-6.46-11.491c-0.949-0.112-1.91-0.214-2.881-0.304c0.102-0.17,0.169-0.35,0.237-0.541
					c0.259-0.77,0.281-1.56,0.122-2.293c0.791-0.228,1.57-0.441,2.36-0.646c0.177-2.88,1.022-5.592,2.386-7.954
					c-0.826-1.116-1.685-2.233-2.578-3.33c0.44-0.147,0.801-0.452,1.016-0.858c0.972,0.711,1.955,1.41,2.927,2.131
					c3.35-4.352,8.6-7.158,14.518-7.164c1.435-0.001,2.835,0.167,4.169,0.482c0.383-0.849,0.743-1.695,1.104-2.555
					c0.599,0.508,1.334,0.855,2.147,0.992c-0.146,0.824-0.27,1.648-0.394,2.474c4.363,1.792,7.879,5.233,9.769,9.546
					c0.587-0.203,1.174-0.418,1.762-0.646c0.204,0.565,0.554,1.062,0.995,1.457c-0.677,0.374-1.343,0.758-2.021,1.132
					c0.533,1.716,0.817,3.534,0.819,5.42c0.002,1.581-0.2,3.117-0.572,4.586C95.672,270.146,96.554,270.371,97.423,270.586z"/>
				<path fill="#2A3071" d="M96.815,272.833c0.022-0.813,0.236-1.569,0.608-2.247c0.868-1.65,2.606-2.771,4.605-2.773
					c2.88-0.002,5.232,2.334,5.235,5.226c0.002,2.892-2.345,5.231-5.225,5.235c-2.892,0.002-5.232-2.334-5.235-5.225
					C96.805,272.98,96.804,272.9,96.815,272.833z"/>
				<path fill="#2A3071" d="M95.58,257.326c-0.136-0.383-0.215-0.801-0.216-1.23c-0.002-1.988,1.612-3.604,3.599-3.607
					c1.988-0.002,3.605,1.611,3.607,3.6s-1.612,3.605-3.6,3.607c-0.915,0-1.762-0.348-2.396-0.913
					C96.134,258.389,95.784,257.891,95.58,257.326z"/>
				<path fill="#2A3071" d="M84.443,245.953c-0.813-0.135-1.548-0.484-2.147-0.992c-0.95-0.801-1.561-2.009-1.563-3.365
					c-0.002-2.439,1.973-4.418,4.413-4.42c2.439-0.003,4.418,1.972,4.42,4.412c0.002,2.439-1.972,4.418-4.412,4.421
					C84.917,246.009,84.669,245.986,84.443,245.953z"/>
				<path fill="#2A3071" d="M82.681,267.832c1.626-0.001,2.949,1.318,2.951,2.945s-1.318,2.949-2.945,2.951
					c-1.626,0.002-2.938-1.317-2.94-2.944C79.745,269.158,81.054,267.835,82.681,267.832z"/>
				<path fill="#2A3071" d="M82.079,286.82c1.525,0.021,2.757,1.264,2.759,2.787c0.001,1.547-1.251,2.803-2.788,2.804
					c-1.547,0.002-2.791-1.25-2.792-2.798c-0.001-1.096,0.62-2.045,1.545-2.497c0.373-0.192,0.801-0.296,1.243-0.296
					C82.056,286.82,82.067,286.82,82.079,286.82z"/>
				<path fill="#2A3071" d="M70.231,255.264c4.179-0.005,7.56,3.369,7.564,7.549c0.004,4.179-3.37,7.57-7.548,7.576
					c-4.179,0.002-7.571-3.383-7.576-7.562C62.667,258.648,66.052,255.268,70.231,255.264z"/>
				<path fill="#2A3071" d="M110.948,77.286c4.179-0.005,7.56,3.369,7.564,7.549c0.004,4.179-3.37,7.57-7.548,7.576
					c-4.179,0.002-7.571-3.383-7.576-7.562C103.384,80.671,106.769,77.29,110.948,77.286z"/>
				<path fill="#2A3071" d="M73.222,274.35c1.333,0,2.417,1.07,2.42,2.402c0.001,1.333-1.082,2.407-2.415,2.408
					c-1.333,0.002-2.407-1.07-2.408-2.403C70.817,275.424,71.889,274.352,73.222,274.35z"/>
				<path fill="#2A3071" d="M64.44,280.771c0.429,0.17,0.791,0.486,1.018,0.881c0.215,0.328,0.34,0.724,0.34,1.152
					c0.001,1.219-0.992,2.203-2.211,2.204c-1.22,0.001-2.204-0.979-2.205-2.198c-0.001-1.222,0.98-2.217,2.2-2.218
					C63.887,280.594,64.18,280.661,64.44,280.771z"/>
				<path fill="#2A3071" d="M59.577,252.066c-0.214,0.406-0.576,0.711-1.016,0.859c-0.192,0.079-0.396,0.113-0.61,0.113
					c-1.039,0.001-1.887-0.846-1.888-1.873c-0.001-1.039,0.845-1.889,1.884-1.889c1.028,0,1.875,0.846,1.877,1.885
					C59.825,251.488,59.735,251.795,59.577,252.066z"/>
				<path fill="#2A3071" d="M56.394,264.855c0.159,0.733,0.137,1.523-0.122,2.293c-0.068,0.191-0.135,0.371-0.237,0.541
					c-0.924,1.91-3.148,2.873-5.215,2.197c-2.26-0.755-3.483-3.203-2.739-5.465c0.754-2.259,3.192-3.48,5.464-2.729
					C55.035,262.191,56.076,263.421,56.394,264.855z"/>
			</g>
			<g>
				<circle fill="#233F8C" cx="69.09" cy="299.719" r="6.295"/>
				<circle fill="#2A3071" cx="70.445" cy="301.543" r="1.486"/>
				<circle fill="#2A3071" cx="66.959" cy="297.647" r="2.222"/>
				<circle fill="#2A3071" cx="66.942" cy="302.066" r="0.966"/>
			</g>
		</g>
		<g>
			<g>
				<circle fill="#233F8C" cx="222.164" cy="457.395" r="17.877"/>
				<path fill="#2A3071" d="M229.655,442.888c1.675-0.001,3.033,1.358,3.034,3.027c0.001,1.677-1.351,3.032-3.028,3.034
					c-1.675,0.002-3.031-1.352-3.034-3.028C226.626,444.252,227.979,442.89,229.655,442.888z"/>
				<path fill="#2A3071" d="M248.758,454.954c0.002,2.728-2.211,4.945-4.94,4.947c-1.527,0.003-2.896-0.69-3.802-1.786
					c-0.406-0.48-0.72-1.046-0.907-1.67c-0.629,0.336-1.265,0.663-1.906,0.973l-0.014-0.038c-0.861-1.124-0.984-2.761-0.324-4
					c0.687,0.229,1.379,0.461,2.068,0.698l0.025,0.005c0.084-0.48,0.237-0.938,0.455-1.361c0.808-1.599,2.476-2.698,4.396-2.7
					C246.537,450.019,248.754,452.224,248.758,454.954z"/>
				<path fill="#2A3071" d="M224.999,435.071c-0.002-1.702,1.383-3.091,3.085-3.093c1.708-0.001,3.09,1.385,3.091,3.087
					c0.002,1.708-1.378,3.09-3.085,3.091c-0.109,0-0.218-0.006-0.321-0.013c-0.134,0.721-0.262,1.434-0.396,2.152
					c-0.089,0.507-0.185,1.015-0.274,1.522c-0.007,0-0.007,0-0.007,0c-0.084,0.006-0.174,0.011-0.256,0.019
					c-0.393,0.021-0.797-0.031-1.137-0.224c-0.211-0.115-0.404-0.295-0.52-0.515c0.186-0.403,0.371-0.809,0.544-1.221
					c0.301-0.7,0.583-1.406,0.852-2.12C225.636,437.235,225,436.228,224.999,435.071z"/>
				<path fill="#2A3071" d="M235.456,445.021c-0.296-0.622-0.464-1.316-0.464-2.049c-0.004-2.665,2.159-4.824,4.817-4.828
					c2.665-0.002,4.825,2.153,4.828,4.818c0.002,2.658-2.153,4.817-4.819,4.821c-1.117,0.001-2.151-0.384-2.974-1.025
					C236.253,446.297,235.778,445.707,235.456,445.021z"/>
				<path fill="#2A3071" d="M228.178,474.231c0.321,0.514,0.501,1.109,0.503,1.76c0.002,1.867-1.512,3.378-3.374,3.38
					c-1.87,0.002-3.379-1.505-3.382-3.373c0-0.252,0.025-0.495,0.084-0.727c0.326-1.516,1.673-2.647,3.291-2.648
					C226.513,472.622,227.586,473.263,228.178,474.231z"/>
				<path fill="#2A3071" d="M233.921,445.715l-0.005-0.013c0.397-0.219,0.814-0.405,1.238-0.566
					c0.553,0.577,1.061,1.188,1.511,1.835c-0.308,0.367-0.59,0.746-0.84,1.146C234.746,447.878,233.896,446.826,233.921,445.715z"/>
				<path fill="#2A3071" d="M244.351,471.909c0.002,2.248-1.819,4.066-4.066,4.068c-2.248,0.004-4.073-1.813-4.076-4.061
					c0-0.442,0.07-0.867,0.205-1.26l-0.059-0.02c-0.437-0.289-0.873-0.576-1.304-0.871c-1.324-0.897-2.621-1.827-3.9-2.782
					c0.378-0.815,0.808-1.619,1.411-2.28c0.422-0.464,0.936-0.849,1.514-1.087l0.019,0.044c1.036,1.148,2.044,2.315,3.015,3.521
					c0.329,0.397,0.65,0.81,0.964,1.214l0.046,0.069c0.622-0.397,1.367-0.623,2.156-0.625
					C242.523,467.84,244.348,469.661,244.351,471.909z"/>
				<path fill="#2A3071" d="M231.694,458.759c-1.547,0.002-2.802-1.249-2.803-2.797s1.249-2.801,2.797-2.803
					c1.542-0.001,2.8,1.25,2.803,2.797C234.493,457.504,233.234,458.758,231.694,458.759z"/>
				<path fill="#2A3071" d="M199.1,453.192c-0.002-2.55,2.063-4.617,4.618-4.622c0.919,0,1.78,0.269,2.499,0.735
					c1.234,0.789,2.063,2.149,2.117,3.71l0.122-0.006l1.431-0.003c0.13,1.439-0.311,2.91-1.208,4.042l-0.09,0.076
					c-0.379-0.43-0.728-0.873-1.048-1.341c-0.731,1.073-1.899,1.818-3.254,1.979c-0.179,0.026-0.366,0.04-0.559,0.04
					C201.173,457.808,199.104,455.741,199.1,453.192z"/>
				<path fill="#2A3071" d="M207.244,467.261c-0.552,0.115-1.104,0.245-1.649,0.38c0.387,2.208-0.882,4.438-3.078,5.18
					c-2.419,0.817-5.046-0.482-5.865-2.909c-0.817-2.421,0.483-5.048,2.909-5.866c1.984-0.663,4.11,0.093,5.261,1.723
					c0.366-0.309,0.718-0.624,1.071-0.951c0.289-0.258,0.57-0.526,0.847-0.798c0.977,0.667,1.619,1.816,1.666,2.997
					C208.015,467.093,207.629,467.17,207.244,467.261z"/>
				<path fill="#2A3071" d="M203.212,436.031c-0.002-2.222,1.8-4.029,4.021-4.031c2.223-0.002,4.028,1.802,4.031,4.023
					c0.001,1.311-0.621,2.473-1.589,3.205c0.816,1.131,1.685,2.221,2.61,3.267c0.328,0.371,0.663,0.744,1.003,1.104
					c-0.205,0.425-0.531,0.784-0.93,1.021c-0.423,0.264-0.931,0.379-1.431,0.341c-0.143-0.364-0.29-0.729-0.451-1.09
					c-0.566-1.374-1.178-2.734-1.822-4.076c-0.435,0.167-0.911,0.258-1.412,0.259C205.021,440.056,203.213,438.259,203.212,436.031z
					"/>
				<path fill="#2A3071" d="M211.06,462.272c-0.001-1.206,0.98-2.189,2.193-2.19c1.208-0.002,2.191,0.979,2.193,2.188
					c0.001,1.215-0.98,2.196-2.188,2.197C212.044,464.468,211.061,463.486,211.06,462.272z"/>
				<path fill="#2A3071" d="M215.638,437.342c-0.001-0.874,0.705-1.581,1.578-1.581c0.874-0.001,1.581,0.703,1.583,1.577
					c0,0.675-0.423,1.247-1.014,1.479c0.091,0.392,0.194,0.781,0.297,1.175c0.187,0.713,0.386,1.419,0.6,2.124
					c-0.257,0.052-0.521,0.045-0.776-0.013c-0.432-0.097-0.823-0.358-1.08-0.712l-0.02-1.06c-0.007-0.494-0.015-0.982-0.021-1.477
					C216.121,438.67,215.638,438.061,215.638,437.342z"/>
				<path fill="#2A3071" d="M219.249,452.12c-1.746,0.001-3.167-1.41-3.169-3.157c-0.001-1.747,1.416-3.16,3.163-3.163
					c1.74-0.001,3.161,1.41,3.162,3.158C222.408,450.703,220.989,452.118,219.249,452.12z"/>
				<path fill="#2A3071" d="M221.688,469.795c-1.336,0.001-2.422-1.083-2.423-2.419c-0.001-1.342,1.083-2.429,2.418-2.43
					c1.342-0.001,2.429,1.083,2.43,2.425C224.114,468.707,223.03,469.794,221.688,469.795z"/>
				<circle fill="#2A3071" cx="222.601" cy="458.479" r="4.617"/>
				<circle fill="#2A3071" cx="108.258" cy="97.056" r="4.617"/>
				<path fill="#2A3071" d="M216.087,455.294c0.001,1.221-0.987,2.211-2.201,2.212c-1.22,0.001-2.209-0.986-2.21-2.206
					s0.986-2.211,2.206-2.212C215.096,453.086,216.086,454.075,216.087,455.294z"/>
				<path fill="#2A3071" d="M215.884,469.743l-0.109,0.083c-0.54,0.648-1.13,1.26-1.764,1.818l-0.071,0.063
					c0.481,0.553,0.797,1.239,0.888,1.997c0.025,0.146,0.032,0.301,0.032,0.461c0.002,2.102-1.691,3.798-3.784,3.799
					c-2.1,0.003-3.797-1.689-3.8-3.79c-0.001-1.732,1.16-3.198,2.757-3.644c0.328-0.099,0.675-0.149,1.034-0.149
					c0.462-0.001,0.899,0.083,1.311,0.236l0.019-0.063c0.288-0.751,0.576-1.503,0.864-2.255l0.039-0.191
					C214.328,468.286,215.285,468.883,215.884,469.743z"/>
			</g>
			<g>
				<circle fill="#233F8C" cx="270.011" cy="439.689" r="14.12"/>
				<path fill="#2A3071" d="M273.046,440.447c1.837-0.002,3.335,1.494,3.336,3.329c0.002,1.846-1.494,3.335-3.33,3.339
					c-1.845,0.001-3.344-1.487-3.346-3.331C269.706,441.946,271.201,440.448,273.046,440.447z"/>
				<path fill="#2A3071" d="M265.228,430.057c2.758-0.003,4.985,2.229,4.988,4.979c0.003,2.752-2.22,4.987-4.979,4.989
					c-2.752,0.003-4.987-2.229-4.99-4.979C260.245,432.294,262.476,430.059,265.228,430.057z"/>
				<circle fill="#2A3071" cx="265.194" cy="444.954" r="2.168"/>
			</g>
			<path fill="#2A3071" d="M255.372,419.459c-4.066,0-4.074,6.321,0,6.321C259.439,425.78,259.447,419.459,255.372,419.459z"/>
			<path fill="#2A3071" d="M241.309,409.019c-4.067,0-4.074,6.321,0,6.321C245.376,415.34,245.383,409.019,241.309,409.019z"/>
			<path fill="#2A3071" d="M258.143,458.879c-4.068,0-4.076,6.321,0,6.321C262.21,465.2,262.216,458.879,258.143,458.879z"/>
			<path fill="#2A3071" d="M255.585,474.434c-4.067,0-4.074,6.321,0,6.321C259.652,480.755,259.659,474.434,255.585,474.434z"/>
			<path fill="#2A3071" d="M268.37,474.007c-4.068,0-4.075,6.322,0,6.322C272.438,480.329,272.442,474.007,268.37,474.007z"/>
		</g>
		<g>
			<g>
				<circle fill="#E5F1FB" cx="423.151" cy="438.31" r="20.526"/>
				<path fill="#D4EAF9" d="M404.505,436.38c-0.704-1.791,0.181-3.811,1.966-4.511c1.79-0.705,3.809,0.173,4.512,1.965
					c0.703,1.79-0.175,3.807-1.965,4.511C407.232,439.047,405.208,438.171,404.505,436.38z"/>
				<path fill="#D4EAF9" d="M409.397,410.904c2.917-1.147,6.213,0.29,7.359,3.205c0.644,1.633,0.478,3.386-0.316,4.814
					c-0.345,0.633-0.816,1.208-1.403,1.669c0.621,0.531,1.238,1.073,1.838,1.631l-0.036,0.028c-0.839,1.393-2.538,2.21-4.14,2.024
					c-0.041-0.831-0.086-1.669-0.121-2.504l-0.003-0.029c-0.551,0.113-1.104,0.14-1.647,0.085c-2.048-0.193-3.922-1.516-4.729-3.568
					C405.052,415.346,406.48,412.05,409.397,410.904z"/>
				<path fill="#D4EAF9" d="M398.102,444.633c-1.817,0.716-3.883-0.185-4.599-2.003c-0.718-1.824,0.185-3.882,2.004-4.597
					c1.824-0.719,3.879,0.178,4.599,2.003c0.046,0.115,0.084,0.233,0.119,0.348c0.825-0.158,1.643-0.319,2.468-0.479
					c0.579-0.117,1.16-0.228,1.741-0.345c0.002,0.008,0.002,0.008,0.002,0.008c0.042,0.087,0.087,0.18,0.13,0.266
					c0.185,0.411,0.3,0.864,0.237,1.31c-0.036,0.274-0.146,0.558-0.332,0.771c-0.51-0.028-1.02-0.057-1.531-0.07
					c-0.875-0.027-1.749-0.033-2.624-0.021C400.146,443.046,399.337,444.147,398.102,444.633z"/>
				<path fill="#D4EAF9" d="M404.354,429.285c-0.54,0.578-1.212,1.048-1.994,1.354c-2.848,1.119-6.062-0.288-7.179-3.127
					c-1.12-2.847,0.279-6.06,3.127-7.178c2.842-1.118,6.054,0.28,7.173,3.128c0.469,1.194,0.491,2.461,0.149,3.609
					C405.384,427.898,404.952,428.654,404.354,429.285z"/>
				<path fill="#D4EAF9" d="M438.629,424.824c0.414-0.56,0.978-1.001,1.67-1.274c1.997-0.785,4.246,0.2,5.028,2.19
					c0.785,1.997-0.193,4.243-2.189,5.028c-0.269,0.104-0.541,0.18-0.812,0.216c-1.758,0.285-3.531-0.681-4.21-2.409
					C437.605,427.279,437.842,425.863,438.629,424.824z"/>
				<path fill="#D4EAF9" d="M405.74,430.635l-0.014,0.014c-0.398-0.335-0.773-0.702-1.123-1.089
					c0.386-0.832,0.823-1.631,1.328-2.383c0.521,0.174,1.044,0.317,1.575,0.417C407.707,428.847,406.938,430.195,405.74,430.635z"/>
				<path fill="#D4EAF9" d="M429.371,408.51c2.4-0.943,5.107,0.241,6.053,2.643c0.944,2.4-0.229,5.112-2.633,6.058
					c-0.475,0.188-0.956,0.289-1.431,0.312l0.003,0.068c-0.124,0.587-0.25,1.175-0.387,1.759c-0.403,1.791-0.854,3.569-1.341,5.337
					c-1.029-0.063-2.067-0.186-3.027-0.552c-0.674-0.258-1.3-0.646-1.796-1.163l0.039-0.039c0.795-1.589,1.618-3.156,2.503-4.7
					c0.285-0.518,0.592-1.032,0.891-1.538l0.059-0.078c-0.688-0.498-1.24-1.199-1.572-2.043
					C425.786,412.169,426.969,409.454,429.371,408.51z"/>
				<path fill="#D4EAF9" d="M420.615,427.549c0.65,1.655-0.161,3.519-1.814,4.169c-1.651,0.65-3.518-0.163-4.168-1.814
					c-0.646-1.647,0.162-3.518,1.816-4.168C418.102,425.084,419.969,425.903,420.615,427.549z"/>
				<path fill="#D4EAF9" d="M428.324,464.724c-2.724,1.07-5.802-0.271-6.875-3.002c-0.389-0.979-0.46-2.013-0.261-2.979
					c0.325-1.649,1.432-3.106,3.077-3.816l-0.058-0.127l-0.602-1.53c1.481-0.74,3.239-0.886,4.823-0.4l0.121,0.064
					c-0.3,0.585-0.628,1.143-0.994,1.683c1.453,0.331,2.741,1.268,3.481,2.647c0.103,0.182,0.193,0.374,0.275,0.58
					C432.389,460.575,431.048,463.653,428.324,464.724z"/>
				<path fill="#D4EAF9" d="M439.948,450.124c0.355,0.541,0.726,1.077,1.1,1.604c2.198-1.341,5.114-0.918,6.825,1.118
					c1.889,2.245,1.599,5.599-0.652,7.489c-2.244,1.889-5.599,1.599-7.488-0.651c-1.54-1.843-1.624-4.432-0.364-6.346
					c-0.483-0.263-0.967-0.508-1.466-0.747c-0.396-0.2-0.804-0.389-1.206-0.569c0.303-1.324,1.261-2.493,2.505-3.038
					C439.447,449.37,439.691,449.75,439.948,450.124z"/>
				<path fill="#D4EAF9" d="M408.258,467.52c-2.376,0.935-5.063-0.234-5.995-2.609c-0.933-2.374,0.237-5.062,2.611-5.993
					c1.398-0.551,2.903-0.374,4.093,0.355c0.865-1.348,1.667-2.731,2.396-4.159c0.26-0.507,0.519-1.02,0.759-1.534
					c0.54,0.041,1.062,0.241,1.481,0.565c0.459,0.344,0.798,0.836,0.967,1.388c-0.331,0.304-0.661,0.616-0.979,0.938
					c-1.229,1.183-2.429,2.405-3.592,3.654c0.361,0.396,0.656,0.867,0.867,1.402C411.801,463.9,410.638,466.584,408.258,467.52z"/>
				<path fill="#D4EAF9" d="M433.02,448.134c-1.289,0.507-2.753-0.129-3.263-1.426c-0.507-1.29,0.131-2.753,1.42-3.26
					c1.297-0.511,2.759,0.128,3.268,1.418C434.954,446.162,434.317,447.624,433.02,448.134z"/>
				<path fill="#D4EAF9" d="M404.45,453.688c-0.935,0.367-1.985-0.091-2.354-1.024c-0.365-0.932,0.093-1.983,1.025-2.351
					c0.721-0.283,1.509-0.07,2.003,0.463c0.382-0.262,0.756-0.534,1.132-0.81c0.685-0.499,1.355-1.007,2.021-1.531
					c0.163,0.255,0.267,0.538,0.313,0.837c0.077,0.501-0.038,1.029-0.308,1.452l-1.125,0.466c-0.525,0.214-1.043,0.427-1.57,0.642
					C405.667,452.615,405.219,453.385,404.45,453.688z"/>
				<path fill="#D4EAF9" d="M418.733,443.635c0.733,1.866-0.18,3.977-2.046,4.71s-3.973-0.188-4.705-2.055
					c-0.73-1.86,0.182-3.97,2.048-4.703C415.897,440.853,418.002,441.775,418.733,443.635z"/>
				<path fill="#D4EAF9" d="M436.606,433.621c0.56,1.428-0.146,3.043-1.57,3.604c-1.435,0.563-3.05-0.141-3.611-1.567
					c-0.563-1.434,0.143-3.049,1.574-3.612C434.427,431.483,436.042,432.188,436.606,433.621z"/>
				<circle fill="#D4EAF9" cx="424.127" cy="437.387" r="5.301"/>
				<path fill="#D4EAF9" d="M423.454,445.684c1.303-0.511,2.773,0.131,3.285,1.428c0.513,1.304-0.129,2.775-1.435,3.288
					c-1.303,0.512-2.773-0.128-3.287-1.434C421.507,447.67,422.149,446.197,423.454,445.684z"/>
				<path fill="#D4EAF9" d="M438.983,439.849l0.135,0.082c0.919,0.304,1.819,0.679,2.684,1.122l0.1,0.049
					c0.387-0.746,0.988-1.37,1.761-1.784c0.146-0.091,0.309-0.161,0.48-0.229c2.243-0.884,4.769,0.216,5.646,2.453
					c0.882,2.244-0.218,4.768-2.46,5.648c-1.854,0.729-3.906,0.103-5.051-1.422c-0.241-0.309-0.442-0.656-0.594-1.041
					c-0.193-0.494-0.288-0.995-0.297-1.501l-0.075,0.008c-0.925,0.007-1.85,0.015-2.772,0.021l-0.223,0.039
					C438.078,442.121,438.314,440.848,438.983,439.849z"/>
			</g>
			<g>
				<path fill="#E5F1FB" d="M378.242,379.494c8.336-3.277,17.743,0.82,21.021,9.154c3.277,8.336-0.82,17.741-9.153,21.021
					c-8.336,3.277-17.744-0.821-21.021-9.154C365.811,392.18,369.907,382.771,378.242,379.494z"/>
				<path fill="#D4EAF9" d="M383.714,391.02c-0.771-1.961,0.198-4.19,2.16-4.963c1.972-0.773,4.191,0.199,4.964,2.161
					c0.774,1.972-0.188,4.197-2.16,4.972C386.717,393.961,384.489,392.991,383.714,391.02z"/>
				<path fill="#D4EAF9" d="M375.884,403.732c-1.159-2.949,0.292-6.267,3.231-7.421c2.938-1.155,6.26,0.281,7.42,3.23
					c1.156,2.939-0.292,6.264-3.231,7.421C380.363,408.119,377.039,406.672,375.884,403.732z"/>
				<path fill="#2A3071" d="M91.479,99.151c-1.159-2.949,0.292-6.267,3.231-7.421c2.938-1.155,6.26,0.281,7.42,3.23
					c1.156,2.939-0.292,6.264-3.231,7.421C95.958,103.538,92.634,102.091,91.479,99.151z"/>
				<circle fill="#D4EAF9" cx="391.822" cy="397.525" r="2.49"/>
			</g>
			<path fill="#D4EAF9" d="M368.684,418.706c1.704,4.35,8.467,1.707,6.76-2.648C373.737,411.71,366.978,414.351,368.684,418.706z"/>
			<path fill="#D4EAF9" d="M363.416,438.114c1.705,4.35,8.465,1.707,6.758-2.648C368.469,431.118,361.709,433.76,363.416,438.114z"
				/>
			<path fill="#D4EAF9" d="M409.662,399.228c1.704,4.35,8.465,1.707,6.757-2.647C414.715,392.23,407.954,394.872,409.662,399.228z"
				/>
			<path fill="#D4EAF9" d="M427.361,395.441c1.704,4.35,8.463,1.708,6.757-2.648C432.414,388.445,425.653,391.087,427.361,395.441z"
				/>
			<path fill="#D4EAF9" d="M421.549,381.954c1.704,4.351,8.463,1.707,6.757-2.647C426.602,374.958,419.84,377.6,421.549,381.954z"/>
		</g>
		<g>
			<g>
				<path fill="#2A3071" d="M49.933,391.926"/>
			</g>
		</g>
	</g>
	<g>
		<g>
			<path fill="#F47920" d="M291.802,227.377c0.223,3.716,3.581,6.207,7.202,5.285c0.781-0.199,0.45-1.404-0.332-1.205
				c-2.805,0.713-5.446-1.176-5.62-4.08C293.004,226.577,291.753,226.572,291.802,227.377L291.802,227.377z"/>
		</g>
	</g>
	<g>
		<g>
			<path fill="#F47920" d="M320.941,186.652c-2.095,2.062-3.718,4.521-4.777,7.263c-0.822,2.122-2.059,5.654-0.346,7.655
				c0.874,1.021,2.181,1.214,3.324,1.785c1.375,0.688,2.354,2.339,1.521,3.817c-0.829,1.47-3.016,1.282-4.438,0.967
				c-1.316-0.29-2.686-0.913-3.194-2.256c-0.348-0.913-1.829-0.517-1.478,0.407c1.05,2.765,4.252,3.728,6.99,3.554
				c3.019-0.192,4.969-3.122,3.401-5.901c-0.793-1.406-2.124-1.958-3.551-2.525c-0.852-0.338-1.586-0.73-1.805-1.7
				c-0.182-0.807,0.012-1.708,0.182-2.5c0.775-3.616,2.621-6.893,5.252-9.483C322.729,187.043,321.645,185.96,320.941,186.652
				L320.941,186.652z"/>
		</g>
		<g>
			<path fill="#F47920" d="M265.367,165.244c1.159-0.236,2.511-0.547,3.657-0.078c0.82,0.337,1.545,1.226,1.256,2.138
				c0.178-0.179,0.355-0.357,0.535-0.535c-2.994,0.634-6.853,0.888-8.42,4.01c-0.629,1.254-0.735,2.974,0.375,4.009
				c0.971,0.904,2.783,0.789,3.406-0.467c0.438-0.88-0.883-1.657-1.322-0.773c-0.125,0.252-0.352,0.34-0.635,0.303
				c-0.387-0.051-0.609-0.369-0.709-0.724c-0.263-0.938,0.284-1.918,0.928-2.562c1.76-1.757,4.494-1.833,6.785-2.319
				c0.264-0.055,0.457-0.289,0.535-0.535c0.469-1.479-0.427-3.005-1.71-3.739c-1.551-0.886-3.434-0.542-5.088-0.205
				C263.994,163.964,264.403,165.441,265.367,165.244L265.367,165.244z"/>
		</g>
	</g>
</g>
</svg>
