<?xml version="1.0" encoding="utf-8"?>
<!-- Generator: Adobe Illustrator 16.0.0, SVG Export Plug-In . SVG Version: 6.00 Build 0)  -->
<!DOCTYPE svg PUBLIC "-//W3C//DTD SVG 1.1//EN" "http://www.w3.org/Graphics/SVG/1.1/DTD/svg11.dtd">
<svg version="1.1" id="Layer_1" xmlns="http://www.w3.org/2000/svg" xmlns:xlink="http://www.w3.org/1999/xlink" x="0px" y="0px"
	 width="295.031px" height="335.734px" viewBox="0 0 295.031 335.734" enable-background="new 0 0 295.031 335.734"
	 xml:space="preserve">
<g>
	<g>
		<g>
			<g>
				<path opacity="0.2" fill="#21428F" d="M57.989,40.158c-1.754,0.405-3.914,2.43-3.914,2.43h-1.82
					c-0.442-4.02-2.032-7.688-4.432-10.683l1.292-1.292c0,0,2.959-0.095,4.487-1.05c1.526-0.955,0.19-2.291-2.101-4.581
					c-2.291-2.291-3.627-3.627-4.581-2.101c-0.956,1.528-1.051,4.487-1.051,4.487l-1.291,1.291
					c-2.996-2.399-6.665-3.989-10.684-4.43v-1.821c0,0,2.024-2.159,2.43-3.915c0.405-1.754-1.485-1.754-4.725-1.754
					c-3.239,0-5.129,0-4.725,1.754c0.405,1.756,2.43,3.915,2.43,3.915v1.821c-4.019,0.441-7.688,2.031-10.683,4.43l-1.292-1.291
					c0,0-0.095-2.959-1.05-4.487c-0.955-1.526-2.291-0.19-4.582,2.101c-2.291,2.29-3.627,3.626-2.1,4.581
					c1.527,0.955,4.486,1.05,4.486,1.05l1.291,1.292c-2.399,2.996-3.989,6.664-4.431,10.683H9.125c0,0-2.16-2.024-3.915-2.43
					c-1.755-0.405-1.755,1.485-1.755,4.725c0,3.24,0,5.13,1.755,4.725c1.754-0.405,3.915-2.429,3.915-2.429h1.821
					c0.441,4.019,2.031,7.688,4.431,10.683l-1.291,1.291c0,0-2.959,0.096-4.486,1.05c-1.527,0.954-0.19,2.29,2.1,4.581
					s3.627,3.628,4.582,2.1c0.954-1.526,1.05-4.484,1.05-4.484l1.292-1.291c2.996,2.398,6.664,3.988,10.683,4.43v1.821
					c0,0-2.024,2.159-2.43,3.913c-0.405,1.756,1.485,1.756,4.725,1.756c3.24,0,5.13,0,4.725-1.756
					c-0.405-1.754-2.43-3.913-2.43-3.913v-1.821c4.019-0.441,7.688-2.031,10.684-4.43l1.291,1.291c0,0,0.095,2.958,1.051,4.484
					c0.954,1.528,2.29,0.191,4.581-2.1c2.292-2.291,3.627-3.627,2.101-4.581c-1.528-0.954-4.487-1.05-4.487-1.05l-1.292-1.291
					c2.4-2.996,3.99-6.664,4.432-10.683h1.82c0,0,2.16,2.024,3.914,2.429c1.756,0.405,1.756-1.485,1.756-4.725
					C59.745,41.643,59.745,39.752,57.989,40.158z"/>
				<path opacity="0.2" fill="#21428F" d="M281.339,18.782c-1.151,0.266-2.57,1.595-2.57,1.595h-1.194
					c-0.291-2.638-1.335-5.048-2.909-7.016l0.847-0.845c0,0,1.942-0.064,2.944-0.688c1.005-0.629,0.127-1.507-1.379-3.011
					c-1.501-1.502-2.379-2.383-3.008-1.38c-0.625,1.003-0.687,2.947-0.687,2.947l-0.85,0.85c-1.966-1.576-4.376-2.621-7.013-2.912
					V7.127c0,0,1.329-1.42,1.594-2.571c0.266-1.149-0.974-1.149-3.102-1.149c-2.127,0-3.368,0-3.104,1.149
					c0.268,1.151,1.598,2.571,1.598,2.571v1.194c-2.64,0.291-5.052,1.335-7.016,2.912l-0.85-0.85c0,0-0.062-1.943-0.689-2.947
					c-0.626-1.003-1.502-0.123-3.008,1.38c-1.504,1.504-2.382,2.382-1.377,3.011c1.003,0.624,2.944,0.688,2.944,0.688l0.848,0.845
					c-1.575,1.968-2.616,4.377-2.909,7.016h-1.197c0,0-1.415-1.329-2.569-1.595c-1.15-0.267-1.15,0.975-1.15,3.102
					c0,2.129,0,3.369,1.15,3.1c1.154-0.263,2.569-1.593,2.569-1.593h1.197c0.293,2.639,1.334,5.046,2.909,7.014l-0.848,0.848
					c0,0-1.941,0.063-2.944,0.689c-1.005,0.627-0.127,1.504,1.377,3.01c1.506,1.503,2.382,2.382,3.008,1.377
					c0.628-1,0.689-2.944,0.689-2.944l0.85-0.848c1.964,1.575,4.376,2.618,7.016,2.908v1.197c0,0-1.33,1.418-1.598,2.57
					c-0.265,1.15,0.977,1.15,3.104,1.15c2.128,0,3.367,0,3.102-1.15c-0.265-1.151-1.594-2.57-1.594-2.57v-1.197
					c2.637-0.29,5.047-1.333,7.013-2.908l0.85,0.848c0,0,0.062,1.944,0.687,2.944c0.629,1.005,1.507,0.126,3.008-1.377
					c1.506-1.505,2.384-2.383,1.379-3.01c-1.002-0.626-2.944-0.689-2.944-0.689l-0.847-0.848c1.574-1.968,2.618-4.375,2.909-7.014
					h1.194c0,0,1.419,1.33,2.57,1.593c1.151,0.269,1.151-0.971,1.151-3.1C282.49,19.757,282.49,18.515,281.339,18.782z"/>
				<path opacity="0.2" fill="#21428F" d="M286.93,53.009c-0.64,0.148-1.43,0.888-1.43,0.888h-0.663
					c-0.162-1.47-0.743-2.809-1.617-3.903l0.469-0.472c0,0,1.082-0.035,1.639-0.384c0.558-0.349,0.069-0.837-0.766-1.673
					c-0.836-0.836-1.324-1.324-1.675-0.768c-0.347,0.559-0.383,1.641-0.383,1.641l-0.47,0.471c-1.097-0.878-2.436-1.457-3.903-1.619
					v-0.665c0,0,0.737-0.789,0.886-1.43c0.148-0.642-0.541-0.642-1.723-0.642c-1.185,0-1.876,0-1.728,0.642
					c0.148,0.641,0.888,1.43,0.888,1.43v0.665c-1.47,0.162-2.809,0.741-3.901,1.619l-0.473-0.471c0,0-0.033-1.082-0.384-1.641
					c-0.348-0.557-0.835-0.068-1.675,0.768c-0.835,0.836-1.323,1.325-0.766,1.673c0.561,0.349,1.639,0.384,1.639,0.384l0.473,0.472
					c-0.878,1.094-1.457,2.433-1.619,3.903h-0.665c0,0-0.789-0.74-1.43-0.888c-0.642-0.149-0.642,0.542-0.642,1.726
					c0,1.183,0,1.874,0.642,1.725c0.641-0.147,1.43-0.887,1.43-0.887h0.665c0.162,1.468,0.741,2.807,1.619,3.902l-0.473,0.472
					c0,0-1.078,0.035-1.639,0.383c-0.558,0.349-0.069,0.837,0.766,1.674c0.84,0.835,1.327,1.324,1.675,0.766
					c0.351-0.558,0.384-1.639,0.384-1.639l0.473-0.471c1.093,0.876,2.432,1.458,3.901,1.619v0.663c0,0-0.739,0.789-0.888,1.432
					c-0.148,0.64,0.543,0.64,1.728,0.64c1.182,0,1.871,0,1.723-0.64c-0.148-0.643-0.886-1.432-0.886-1.432v-0.663
					c1.468-0.161,2.807-0.743,3.903-1.619l0.47,0.471c0,0,0.036,1.081,0.383,1.639c0.351,0.558,0.839,0.069,1.675-0.766
					c0.835-0.837,1.323-1.325,0.766-1.674c-0.557-0.348-1.639-0.383-1.639-0.383l-0.469-0.472c0.874-1.095,1.455-2.434,1.617-3.902
					h0.663c0,0,0.79,0.74,1.43,0.887c0.642,0.149,0.642-0.542,0.642-1.725C287.571,53.55,287.571,52.86,286.93,53.009z"/>
			</g>
		</g>
		<g>
			<path fill="#FFFFFF" d="M57.462,222.638c0.014,1.258,0.045,2.518,0.081,3.775c0.014,0.495,0.029,0.991,0.048,1.487
				c0.23,6.952,0.68,13.9,1.123,20.753c0.035,0.502,0.064,1.002,0.1,1.496c0.08,1.255,0.16,2.504,0.235,3.748
				c0.034,0.501,0.064,1,0.094,1.495c0.094,1.532,0.185,3.052,0.265,4.569c0.344,6.333,0.718,12.706,1.172,19.09
				c0.035,0.496,0.07,0.989,0.109,1.49c0.089,1.244,0.185,2.493,0.281,3.736c0.038,0.501,0.078,0.997,0.118,1.497
				c0.769,9.589,1.757,13.364,3.124,22.885c0.069,0.495,0.139,0.989,0.212,1.48c0.189,1.3,0.39,2.592,0.6,3.881
				c0.073,0.494,0.153,0.986,0.238,1.477c0.828,5.06,1.776,10.084,2.874,15.075c0.105,0.495,0.213,0.99,0.328,1.481
				c0.275,1.228,0.563,2.456,0.861,3.679h184.643c-0.401-1.408-1.556-5.476-3.232-11.349c-0.134-0.472-0.269-0.952-0.411-1.448
				c-0.367-1.279-0.751-2.633-1.157-4.054c-0.138-0.477-0.269-0.962-0.415-1.452c-1.977-6.918-4.368-15.271-6.951-24.233
				c-0.141-0.484-0.286-0.977-0.426-1.467c-0.383-1.338-0.773-2.69-1.171-4.048c-0.14-0.486-0.279-0.977-0.425-1.468
				c-1.598-5.525-3.234-5.37-4.877-11c-0.146-0.489-0.29-0.977-0.43-1.466c-0.395-1.354-0.794-2.707-1.189-4.049
				c-0.14-0.487-0.281-0.977-0.421-1.462c-2.113-7.189-4.18-14.193-6.107-20.636c-0.143-0.49-0.29-0.975-0.432-1.456
				c-0.417-1.374-0.82-2.715-1.215-4.028c-0.149-0.492-0.293-0.973-0.439-1.451c-1.878-6.217-3.564-11.656-4.932-15.904
				l0.956-34.901c-0.289-0.411-0.577-0.819-0.867-1.226c-0.801-1.14-1.608-2.265-2.417-3.374c-0.295-0.407-0.591-0.808-0.885-1.209
				c-4.14-5.624-8.312-10.867-12.462-15.674c-0.33-0.383-0.659-0.758-0.991-1.136c-0.905-1.045-1.819-2.066-2.721-3.066
				c-0.344-0.378-0.688-0.748-1.021-1.12c-4.774-5.184-9.473-9.762-14.001-13.669c-0.391-0.33-0.774-0.658-1.157-0.981
				c-1.044-0.882-2.076-1.724-3.1-2.526c-0.408-0.322-0.755,0.788-1.158,0.481c-11.886-9.073-23.493-11.679-30.234-8.804
				c-9.468,4.034-30.315,8.095-45.518,12.563c-4.779,1.403-8.879,2.588-11.692,3.396c-2.542,0.729-4.039,1.147-4.039,1.147
				c-8.753,2.479-15.218,7.83-19.875,14.636c-0.3,0.436-0.595,0.876-0.874,1.328c-0.604,0.946-1.166,1.912-1.699,2.909
				c-0.246,0.444-0.481,0.896-0.71,1.353c-3.027,6.015-4.961,12.744-6.061,19.435c-0.134,0.813-0.257,1.621-0.37,2.438
				c-0.073,0.489-0.139,0.981-0.198,1.477c-0.161,1.199-0.299,2.41-0.418,3.618c-0.056,0.49-0.101,0.986-0.14,1.478
				c-0.533,5.876-0.699,11.838-0.64,17.815C57.447,221.646,57.452,222.141,57.462,222.638z"/>
			<path fill="#41C1C6" d="M59.745,265.848c0.103,1.797,0.211,3.593,0.322,5.394c55.865-13.675,109.495-34.184,160.077-61.267
				l0.165-6.152C169.621,231.258,115.826,252.038,59.745,265.848z"/>
			<g>
				<g>
					<path fill="#FFFFFF" d="M227.754,95.116l1.389-10.92c0,0-10.903-5.728-12.79-9.669c-1.881-3.94,2.048-7.261,3.9-6.36
						c1.854,0.901,1.854,4.086,4.499,6.48c2.644,2.393,7.77-5.503,8.439-7.994c0.668-2.492-0.381-9.377-5.471-12.144
						c-5.091-2.767-5.344,5.623-8.991,4.819c-2.22-0.49-3.221-11.961,0.674-15.756c3.894-3.792,10.863-2.034,10.863-2.034
						s-7.632-5.646-6.468-7.828c1.166-2.181,7.29-0.476,12.056,3.602c0,0-5.878-6.306-2.691-7.49
						c3.187-1.187,9.941,5.046,9.941,5.046s-3.593-4.692-0.109-4.859c3.48-0.167,10.237,12.413,13.2,23.126
						c2.964,10.714-6.471,45.016-6.471,45.016L227.754,95.116z"/>
				</g>
				<g>
					<g>
						<path fill="#D7D7D7" d="M230.484,30.759c2.693,1.496,5.275,3.878,5.275,3.878c4.385,4.598,5.186,8.573,5.186,8.573
							S238.056,36.434,230.484,30.759z"/>
					</g>
					<g>
						<path fill="#D7D7D7" d="M236.746,54.964c0,0-4.317-11.582-9.722-13.825c1,0.028,1.856,0.139,2.439,0.239l0.803,0.161
							C235.366,45.083,236.746,54.964,236.746,54.964z"/>
					</g>
					<g>
						<path fill="#1A1C49" d="M235.76,34.637c0,0-0.062-0.08-0.159-0.219L235.76,34.637z"/>
					</g>
					<g>
						<path fill="#D7D7D7" d="M223.384,33.667c1.749,0.763,3.619,1.9,5.314,3.35c4.067,3.888,6.179,7.865,6.179,7.865
							S229.333,37.973,223.384,33.667z"/>
					</g>
				</g>
			</g>
			<g>
				<polygon fill="#41C1C6" points="224.378,96.036 229.143,84.195 251.969,89.25 250.224,101.113 				"/>
			</g>
			<g>
				<path fill="#FFFFFF" d="M222.433,221.447c4.368,4.374,15.956,5.02,23.494-17.826c7.532-22.847,14.409-103.001,14.409-103.001
					l-36.043-13.315l-11.637,112.964L222.433,221.447z"/>
			</g>
			<g>
				<g>
					<path fill="#769AD0" d="M107.872,149.034l-17.109-40.213c0,0-12.345,9.32-16.709-3.817
						c-3.887-11.708,6.122-15.506,13.669-11.313c0,0-20.816-45.047,14.596-56.636c35.417-11.591,47.087,43.695,49.965,55.655
						c5.07,21.061-7.766,34.658-18.481,38.212l3.803,12.757L107.872,149.034z"/>
				</g>
			</g>
			<path opacity="0.3" fill="#FFFFFF" d="M118.996,101.375c-4.769,2.729-10.727,2.526-15.619,0.218
				c-4.914-2.321-11.14-7.292-13.887-11.981c-1.086-1.853-2.256-12.195,3.193-11.082c0.89,2.848,1.811,5.704,2.914,8.477
				c1.768,4.436,5.34,8.47,8.907,11.574c1.105,0.961,2.287,1.874,3.645,2.423c1.557,0.629,3.262,0.753,4.936,0.869
				C115.074,102.011,117.152,102.139,118.996,101.375z"/>
			<g>
				<path fill="#B05AA3" d="M133.802,130.92c-6.922,2.836-22.416-0.565-22.416-0.565s10.968,8.329,24.357,7.074L133.802,130.92z"/>
			</g>
			<g>
				<g>
					<path fill="#FFFFFF" d="M179.957,133.336l1.682-18.879l8.944-0.712c0,0,8.701-26.562,11.006-26.198
						c2.308,0.362,1.072,7.805,1.072,7.805s2.528,3.684,4.732,6.751c2.207,3.067,0.488,7.999,0.488,7.999s2.395-0.807,4.207,0.11
						c1.811,0.918-0.101,6.396-0.101,6.396l-13.952,31.146l-15.998-3.102l-1.864-8.122
						C179.936,135.487,179.858,134.407,179.957,133.336z"/>
				</g>
				<g>
					<path fill="#41C1C6" d="M189.604,115.252c0.439-0.111,1.033-0.369,1.592-0.497l-4.388-23.274l-5.451,1.028l4.415,23.427
						C187.056,115.746,188.346,115.566,189.604,115.252z"/>
				</g>
				<g>
					<path fill="#41C1C6" d="M185.894,89.686c0.838-0.157,1.625-0.464,2.353-0.899c-0.607,0.944-1.298,1.766-2.06,2.45l0.248,1.307
						l-4.457,0.839c-6.914,1.305-14.21-6.584-16.289-17.618c-2.081-11.034,1.841-21.037,8.757-22.341l4.456-6.665l0.244,7.129
						c0.965,0.361,1.907,0.881,2.822,1.538c-0.844-0.14-1.687-0.14-2.527,0.02c-5.926,1.117-9.286,9.685-7.504,19.14
						C173.718,84.041,179.971,90.802,185.894,89.686z"/>
				</g>
				<g>
					<path fill="#41C1C6" d="M178.901,46.759c-6.915,1.304-10.837,17.131-8.757,28.166s9.376,18.922,16.29,17.619
						c6.914-1.304,10.83-11.304,8.75-22.34C193.104,59.17,185.815,45.455,178.901,46.759z"/>
				</g>
				<g>
					<path fill="#DCF2FC" d="M188.246,88.787c-0.728,0.436-1.515,0.742-2.353,0.899c-5.923,1.116-12.176-5.645-13.957-15.101
						c-1.782-9.455,1.578-18.022,7.504-19.14c0.841-0.159,1.684-0.159,2.527-0.02c5.083,0.872,9.897,7,11.427,15.115
						C194.925,78.661,192.663,86.133,188.246,88.787z"/>
				</g>
				<g>
					<path fill="#FFFFFF" d="M177.957,59.984c-0.53,0.816-0.565,1.865-0.393,2.823c0.572,3.194,3.111,5.601,4.954,8.274
						c2.117,3.067,3.397,6.705,3.665,10.422c0.056,0.763,0.197,1.707,0.923,1.944c0.501,0.165,1.061-0.14,1.357-0.578
						s0.383-0.978,0.454-1.501c0.539-3.975,0.448-8.034-0.267-11.98c-0.421-2.31-1.072-4.623-2.357-6.589
						C184.969,60.772,180.115,56.646,177.957,59.984z"/>
				</g>
				<g>
					<path fill="#1A1C49" d="M181.968,55.426c-0.844-0.14-1.687-0.14-2.527,0.02c-0.49,0.092-0.962,0.24-1.415,0.432
						c5.449,0.145,10.838,6.544,12.474,15.211c1.632,8.672-1.059,16.594-6.085,18.709c0.492,0.015,0.987-0.019,1.479-0.112
						c0.838-0.157,1.625-0.464,2.353-0.899c4.417-2.653,6.679-10.126,5.148-18.245C191.865,62.426,187.051,56.298,181.968,55.426z"
						/>
				</g>
				<g>
					<path fill="#FFFFFF" d="M180.174,136.532c0,0-4.482-16.156-3.257-19.596c1.231-3.438,3.512-18.947,5.009-17.771
						c1.5,1.176,3.999,18.941,3.999,18.941L180.174,136.532z"/>
				</g>
				<g>
					<path fill="#FFFFFF" d="M201.589,87.547c-3.014-1.479-13.756,19.632-14.681,21.625c-16.424,35.458,8.5,3.164,11.596-2.658
						c0,0,0.098,3.925,3.148,5.012c1.94,0.69,7.139-0.779,7.038-6.908c-0.161-9.931-6.029-9.266-6.029-9.266L201.589,87.547z"/>
				</g>
			</g>
			<g>
				<polygon fill="#41C1C6" points="178.899,141.75 178.207,128.581 205.903,130.195 207.709,139.628 				"/>
			</g>
			<path fill="#FFFFFF" d="M154.056,91.98c-1.048-3.746-2.181-8.183-3.571-12.884c-0.633,3.914-2.709,7.661-7.351,9.255
				c-9.566,3.282-16.043-6.645-16.043-6.645s-1.332,14.142-10.435,18.914c-16.837,8.825-27.382-17.386-27.382-17.386
				s20.986-14.765,54.047-22.856c-3.384-6.634-7.788-18.596-13.757-23.1c-13.8-10.412-32.639-15.825-49.186-6.392
				C74.741,34.1,62.057,55.92,68.333,87.788c6.276,31.864,25.489,57.288,25.489,57.288l-16.547,15.053l79.943-21.094
				C157.218,139.035,158.12,106.509,154.056,91.98z"/>
			<path fill="#EFEFEF" d="M143.134,88.351c-9.566,3.282-16.043-6.645-16.043-6.645s-1.332,14.142-10.435,18.914
				c-8.498,4.453-15.388-0.018-20.135-5.538c0.004,0.004,29.15,39.774,47.665,29.85c14.076-7.547,10.393-30.097,7.814-40.481
				c-0.476-1.733-0.97-3.514-1.516-5.354C149.852,83.01,147.775,86.757,143.134,88.351z"/>
			<g>
				<path fill="#41C1C6" d="M112.055,59.553c2.154,2.857,4.089,5.88,5.886,8.98c1.623-0.65,3.303-1.297,5.042-1.938
					c-2.011-3.53-4.221-6.967-6.687-10.238c-8.288-11.001-18.754-24.615-29.803-28.259c-2.062,0.725-4.105,1.644-6.115,2.789
					c-0.375,0.213-0.784,0.488-1.214,0.817C91.207,33.87,102.987,47.521,112.055,59.553z"/>
				<path fill="#41C1C6" d="M137.253,99.576c-1.501-4.102-3.08-8.37-4.785-12.679c-3.388-2.159-5.377-5.191-5.377-5.191
					s-0.171,1.722-0.761,4.148c2.169,5.272,4.1,10.533,5.934,15.548c28.918,78.99,56.165,153.913,81.086,234.332h5.564
					C193.834,254.711,166.387,179.165,137.253,99.576z"/>
			</g>
			<g>
				<g>
					<path fill="#FFFFFF" d="M93.575,188.496l89.722,21.859l-7.881-77.943l36.457,3.601c0,0,12.151,108.445,11.704,115.815
						c-2.149,35.325-130.791-3.549-130.791-3.549S91.916,218.747,93.575,188.496z"/>
				</g>
			</g>
			<g>
				<path fill="#2B52A4" d="M181.968,211.549c-0.159,0-0.322-0.027-0.48-0.078c-38.464-12.824-98.194-31.339-105.001-29.784
					c-0.817,0.179-1.628-0.327-1.816-1.143c-0.185-0.818,0.328-1.632,1.143-1.817c9.364-2.108,87.798,23.616,104.449,29.139
					l-5.085-59.982c-0.07-0.835,0.547-1.568,1.385-1.639c0.832-0.072,1.567,0.548,1.638,1.383l5.281,62.276
					c0.042,0.509-0.176,1.005-0.575,1.32C182.636,211.437,182.304,211.549,181.968,211.549z"/>
			</g>
			<g>
				<path fill="#2B52A4" d="M195.397,268.017c-18.212,0-50.792-4.69-112.026-19.039c-0.816-0.19-1.321-1.009-1.13-1.824
					c0.19-0.818,1.012-1.317,1.824-1.131c80.532,18.871,119.727,23.288,131.039,14.76c4.354-3.28,4.606-8.434,4.898-14.401
					c0.072-1.486,0.149-3.002,0.285-4.531c0.077-0.836,0.817-1.452,1.649-1.374c0.836,0.075,1.45,0.814,1.373,1.649
					c-0.131,1.484-0.206,2.96-0.275,4.405c-0.316,6.448-0.616,12.54-6.104,16.678C213.334,265.917,207.58,268.017,195.397,268.017z"
					/>
			</g>
			<path fill="#41C1C6" d="M135.935,145.52c-8.597,0.767-27.889,2.023-42.113-0.444l-5.249,4.776c25,4.509,42.5,3.062,50.082,1.963
				C137.589,149.792,136.684,147.686,135.935,145.52z"/>
			<path fill="#41C1C6" d="M157.267,136.445l-6.558,5.305l2.715,6.006l10.779-9.877
				C164.203,137.878,161.568,135.396,157.267,136.445z"/>
			<polygon fill="#1A1C49" points="89.274,83.234 67.074,95.082 69.821,102.436 92.557,89.58 			"/>
			<path fill="#FED600" d="M219.403,62.462c-0.483,0.112-1.08,0.67-1.08,0.67h-0.503c-0.12-1.109-0.557-2.12-1.222-2.946
				l0.358-0.355c0,0,0.814-0.026,1.235-0.289c0.424-0.263,0.054-0.631-0.576-1.264c-0.632-0.631-1.003-0.999-1.267-0.579
				c-0.262,0.421-0.29,1.237-0.29,1.237l-0.354,0.355c-0.827-0.66-1.839-1.099-2.945-1.221v-0.502c0,0,0.558-0.595,0.668-1.08
				c0.117-0.482-0.406-0.482-1.3-0.482c-0.892,0-1.415,0-1.306,0.482c0.112,0.485,0.671,1.08,0.671,1.08v0.502
				c-1.105,0.122-2.119,0.561-2.946,1.221l-0.354-0.355c0,0-0.025-0.815-0.289-1.237c-0.262-0.42-0.634-0.053-1.264,0.579
				c-0.632,0.632-1,1-0.579,1.264c0.422,0.263,1.237,0.289,1.237,0.289l0.355,0.355c-0.661,0.826-1.098,1.837-1.222,2.946h-0.502
				c0,0-0.594-0.558-1.077-0.67c-0.485-0.111-0.485,0.41-0.485,1.303s0,1.414,0.485,1.302c0.483-0.112,1.077-0.669,1.077-0.669
				h0.502c0.124,1.109,0.561,2.12,1.222,2.946l-0.355,0.355c0,0-0.815,0.026-1.237,0.289c-0.421,0.263-0.053,0.631,0.579,1.264
				c0.63,0.631,1.002,1,1.264,0.579c0.264-0.421,0.289-1.237,0.289-1.237l0.354-0.355c0.827,0.662,1.841,1.1,2.946,1.222v0.501
				c0,0-0.559,0.597-0.671,1.08c-0.109,0.484,0.414,0.484,1.306,0.484c0.894,0,1.417,0,1.3-0.484c-0.11-0.483-0.668-1.08-0.668-1.08
				v-0.501c1.106-0.122,2.118-0.56,2.945-1.222l0.354,0.355c0,0,0.028,0.816,0.29,1.237c0.264,0.421,0.635,0.053,1.267-0.579
				c0.63-0.632,1-1,0.576-1.264c-0.421-0.263-1.235-0.289-1.235-0.289l-0.358-0.355c0.665-0.826,1.102-1.837,1.222-2.946h0.503
				c0,0,0.597,0.558,1.08,0.669c0.485,0.112,0.485-0.41,0.485-1.302S219.889,62.351,219.403,62.462z"/>
			<path opacity="0.3" fill="#FFFFFF" d="M89.274,83.234c0,0,16.329-12.689,32.821-17.606c10.824-3.228,17.747-4.653,21.226-5.25
				l2.654-0.671c0,0,2.143,5.542,3.854,10.792c1.71,5.248,1.611,15.002-6.696,17.853c-9.566,3.282-16.043-6.645-16.043-6.645
				s-1.332,14.142-10.435,18.914C99.819,109.445,89.274,83.234,89.274,83.234z"/>
			<g>
				<path fill="#769AD0" d="M146.869,13.643c-0.258-1.871-1.657-2.93-4.385-2.553c-2.94,0.406-4.431,2.627-5.153,5.287l-7.96-3.205
					c1.592-5.83,6.35-9.648,12.285-10.467c6.095-0.841,12.706,2.061,13.663,9.009c1.101,7.966-7.113,11.606-6.604,15.295
					l-8.555,1.181C139.296,21.935,147.519,18.348,146.869,13.643z M140.604,37.335c-0.384-2.779,1.598-5.395,4.379-5.779
					c2.78-0.383,5.396,1.6,5.778,4.378c0.384,2.779-1.598,5.396-4.377,5.779C143.604,42.097,140.988,40.116,140.604,37.335z"/>
			</g>
			<g>
				<path fill="#769AD0" d="M160.595,33.486c0.411-1.486,1.979-2.375,3.467-1.962c1.484,0.413,2.374,1.981,1.961,3.467
					c-0.412,1.487-1.981,2.375-3.465,1.964C161.07,36.542,160.181,34.974,160.595,33.486z M168.914,22.899
					c0.278-1-0.196-1.84-1.654-2.244c-1.571-0.437-2.807,0.359-3.751,1.544l-3.317-3.351c2.072-2.594,5.304-3.484,8.476-2.604
					c3.258,0.903,5.961,3.808,4.933,7.524c-1.182,4.256-6.119,4.302-6.665,6.275l-4.57-1.269
					C163.289,25.432,168.218,25.414,168.914,22.899z"/>
			</g>
			<g>
				<g>
					<circle fill="#1A1C49" cx="116.189" cy="84.115" r="3.623"/>
				</g>
			</g>
			<g>
				<g>
					<circle fill="#1A1C49" cx="136.769" cy="78.529" r="3.622"/>
				</g>
			</g>
			<g>
				<g>
					<path fill="#1A1C49" d="M105.407,79.729c0.254-0.029,0.498-0.141,0.69-0.333c2.822-2.835,7.311-4.039,11.169-2.991
						c0.61,0.17,1.248-0.197,1.419-0.815c0.165-0.616-0.2-1.25-0.816-1.418c-4.707-1.274-9.972,0.134-13.413,3.592
						c-0.451,0.453-0.448,1.185,0.005,1.635C104.72,79.658,105.072,79.768,105.407,79.729z"/>
				</g>
			</g>
			<g>
				<g>
					<path fill="#1A1C49" d="M135.855,64.393c-0.22,0.13-0.398,0.331-0.496,0.586c-1.412,3.742-5.012,6.677-8.961,7.305
						c-0.629,0.093-1.06,0.689-0.96,1.322c0.101,0.631,0.693,1.061,1.324,0.959c4.814-0.764,9.04-4.206,10.763-8.769
						c0.225-0.598-0.074-1.266-0.675-1.49C136.51,64.176,136.146,64.22,135.855,64.393z"/>
				</g>
			</g>
			<g>
				<path fill="#2B52A4" d="M219.884,213.542c-0.771,0-1.43-0.584-1.505-1.366l-3.637-36.171c-0.084-0.833,0.523-1.577,1.357-1.661
					c0.838-0.088,1.579,0.523,1.661,1.358l3.637,36.17c0.084,0.832-0.525,1.577-1.359,1.66
					C219.986,213.538,219.938,213.542,219.884,213.542z"/>
			</g>
		</g>
	</g>
</g>
</svg>
