<?xml version="1.0" encoding="utf-8"?>
<!-- Generator: Adobe Illustrator 16.0.0, SVG Export Plug-In . SVG Version: 6.00 Build 0)  -->
<!DOCTYPE svg PUBLIC "-//W3C//DTD SVG 1.1//EN" "http://www.w3.org/Graphics/SVG/1.1/DTD/svg11.dtd">
<svg version="1.1" id="Layer_1" xmlns="http://www.w3.org/2000/svg" xmlns:xlink="http://www.w3.org/1999/xlink" x="0px" y="0px"
	 width="200px" height="200px" viewBox="0 0 200 200" enable-background="new 0 0 200 200" xml:space="preserve">
<circle fill="#DBF1FD" stroke="#FFFFFF" stroke-width="2" stroke-miterlimit="10" cx="101.103" cy="101.501" r="89.218"/>
<g>
	<defs>
		<circle id="SVGID_1_" cx="101.103" cy="101.501" r="89.218"/>
	</defs>
	<clipPath id="SVGID_2_">
		<use xlink:href="#SVGID_1_"  overflow="visible"/>
	</clipPath>
	<g clip-path="url(#SVGID_2_)">
		<g>
			<path fill="#F9B05F" d="M-3.25,166.185l34.936-28.021c0,0,2.546-44.397,9.462-43.67c6.914,0.729,4.367,24.383,4.367,24.383
				s35.664-33.115,40.03-30.933c4.367,2.184-14.92,28.021-14.92,28.021s25.11-27.293,28.021-23.654c2.912,3.64,0,9.098,0,9.098
				s3.315,7.104,1.294,11.194c0,0,1.254,9.549-4.933,19.374c-6.187,9.827-32.026,31.297-42.214,34.208
				c-10.19,2.911-33.845,27.658-33.845,27.658L-3.25,166.185z"/>
			<g>
				<g>
					<g>
						<g>
							<g>
								<path fill="#9E4E27" d="M45.578,144.403c-0.232,0.281-0.499,0.494-0.716,0.735c-0.223,0.232-0.397,0.435-0.524,0.608
									c-0.125,0.172-0.169,0.287-0.128,0.342c0.038,0.052,0.097,0.067,0.179,0.047c0.081-0.02,0.178-0.063,0.291-0.135
									c0.114-0.07,0.244-0.165,0.39-0.283c0.145-0.119,0.312-0.257,0.5-0.411c0.222-0.15,0.655-0.611,1.345-1.33
									c0.366-0.342,0.678-0.804,1.057-1.283c0.395-0.471,0.746-1.039,1.115-1.664c0.77-1.23,1.387-2.731,1.903-4.425
									c0.174-0.868,0.44-1.727,0.488-2.628c0.037-0.446,0.114-0.894,0.117-1.345l-0.019-1.358
									c-0.105-1.81-0.433-3.561-1.046-5.149c-0.154-0.396-0.273-0.794-0.447-1.156c-0.18-0.358-0.354-0.708-0.524-1.046
									c-0.308-0.693-0.756-1.253-1.102-1.814c-0.339-0.569-0.782-0.984-1.106-1.401c-0.328-0.418-0.672-0.732-0.974-0.997
									c-0.595-0.537-0.909-0.78-0.949-0.735c-0.027,0.03,0.221,0.329,0.742,0.892c0.545,0.539,1.148,1.36,1.86,2.392
									c0.666,1.065,1.375,2.321,1.889,3.845c0.591,1.498,0.841,3.144,1.01,4.816c0.001,0.421,0.003,0.84,0.004,1.258l0.002,0.623
									l-0.07,0.617c-0.046,0.41-0.091,0.818-0.137,1.225c-0.089,0.398-0.179,0.796-0.268,1.19c-0.14,0.8-0.461,1.508-0.681,2.202
									c-0.251,0.685-0.591,1.289-0.854,1.883c-0.313,0.567-0.641,1.063-0.913,1.521c-0.28,0.456-0.604,0.811-0.85,1.152
									c-0.49,0.686-0.857,0.992-0.922,1.077C46.035,143.881,45.814,144.126,45.578,144.403z"/>
							</g>
						</g>
					</g>
				</g>
			</g>
			<g>
				<g>
					<g>
						<g>
							<g>
								<path fill="#9E4E27" d="M75.158,125.275c-0.278,0.331-0.534,0.648-0.767,0.953c-0.231,0.304-0.41,0.563-0.537,0.777
									c-0.125,0.212-0.164,0.343-0.114,0.39c0.046,0.044,0.113,0.046,0.2,0.005c0.087-0.04,0.188-0.109,0.305-0.209
									c0.118-0.1,0.25-0.228,0.399-0.385c0.147-0.157,0.316-0.339,0.507-0.543c0.207-0.224,0.701-0.755,1.479-1.593
									c0.779-0.84,1.734-1.868,2.868-3.089c1.132-1.222,2.39-2.579,3.772-4.07c1.373-1.501,2.801-2.986,4.161-4.567
									c1.373-1.568,2.704-3.089,3.994-4.563c1.277-1.48,2.415-2.8,3.414-3.957c0.988-1.16,1.774-2.103,2.357-2.824
									c0.584-0.723,0.853-1.103,0.808-1.141c-0.031-0.027-0.355,0.287-0.976,0.944c-0.616,0.666-1.426,1.541-2.434,2.63
									c-1,1.104-2.139,2.36-3.417,3.771c-1.273,1.417-2.581,2.873-3.922,4.366c-1.325,1.508-2.681,2.935-3.999,4.347
									c-1.317,1.411-2.504,2.685-3.562,3.817c-1.054,1.136-1.921,2.069-2.605,2.806c-0.681,0.736-1.066,1.152-1.152,1.245
									C75.697,124.646,75.437,124.943,75.158,125.275z"/>
							</g>
						</g>
					</g>
				</g>
			</g>
			<g>
				<g>
					<g>
						<g>
							<g>
								<path fill="#9E4E27" d="M78.688,136.163c-0.278,0.252-0.534,0.497-0.769,0.735c-0.233,0.236-0.416,0.442-0.547,0.617
									c-0.129,0.173-0.174,0.288-0.133,0.342c0.039,0.051,0.099,0.066,0.182,0.046s0.18-0.063,0.294-0.134
									c0.115-0.069,0.246-0.162,0.393-0.28c0.146-0.117,0.314-0.253,0.504-0.406c0.207-0.167,0.697-0.564,1.471-1.192
									c0.775-0.628,1.726-1.398,2.854-2.313c1.13-0.91,2.275-2.048,3.595-3.231c1.288-1.217,2.673-2.365,3.898-3.71
									c1.257-1.311,2.475-2.582,3.656-3.814c0.602-0.604,1.121-1.22,1.603-1.807c0.485-0.583,0.939-1.131,1.365-1.643
									c0.845-1.024,1.515-1.856,2.01-2.494c0.495-0.639,0.719-0.976,0.672-1.014c-0.031-0.025-0.314,0.249-0.849,0.825
									c-0.53,0.585-1.226,1.352-2.091,2.306c-0.878,0.949-1.801,2.099-2.965,3.274c-1.162,1.177-2.355,2.386-3.579,3.626
									c-1.191,1.272-2.48,2.396-3.721,3.522c-1.239,1.127-2.356,2.143-3.352,3.047c-1.042,0.849-1.899,1.547-2.575,2.098
									c-0.675,0.55-1.056,0.859-1.142,0.929C79.225,135.686,78.966,135.909,78.688,136.163z"/>
							</g>
						</g>
					</g>
				</g>
			</g>
			<g>
				<g>
					<g>
						<g>
							<g>
								<path fill="#9E4E27" d="M79.195,144.193c0.065,0.422,0.136,0.818,0.212,1.191c0.076,0.37,0.152,0.674,0.23,0.91
									c0.077,0.232,0.15,0.35,0.219,0.345c0.063-0.004,0.109-0.051,0.136-0.142c0.027-0.092,0.042-0.212,0.044-0.364
									c0.002-0.154-0.007-0.338-0.027-0.554c-0.022-0.215-0.047-0.461-0.075-0.739c-0.032-0.304-0.107-1.025-0.225-2.162
									c-0.119-1.14-0.454-2.508-0.748-4.148c-0.126-0.825-0.396-1.663-0.644-2.555c-0.256-0.889-0.506-1.828-0.805-2.8
									c-0.359-0.951-0.721-1.909-1.085-2.873c-0.189-0.479-0.349-0.972-0.565-1.441l-0.672-1.407
									c-0.46-0.935-0.871-1.878-1.356-2.764c-0.514-0.87-1.02-1.727-1.519-2.569c-0.255-0.416-0.478-0.838-0.743-1.217
									c-0.27-0.376-0.532-0.74-0.786-1.094c-0.51-0.704-0.989-1.364-1.438-1.981c-0.929-1.206-1.796-2.08-2.406-2.773
									c-0.626-0.682-0.96-1-1.004-0.96c-0.03,0.028,0.232,0.395,0.786,1.1c0.542,0.715,1.322,1.606,2.195,2.791
									c0.416,0.609,0.859,1.261,1.333,1.955c0.468,0.696,1.006,1.409,1.445,2.247c0.468,0.818,0.942,1.647,1.422,2.488
									c0.507,0.826,0.85,1.752,1.292,2.64c0.904,1.771,1.532,3.617,2.198,5.406c0.366,0.883,0.551,1.775,0.798,2.599
									c0.232,0.828,0.451,1.61,0.658,2.349c0.294,1.501,0.536,2.737,0.727,3.711c0.214,0.969,0.225,1.532,0.249,1.655
									C79.079,143.385,79.13,143.771,79.195,144.193z"/>
							</g>
						</g>
					</g>
				</g>
			</g>
		</g>
		<g>
			<path fill="#F9B05F" d="M209.327,166.185l-34.937-28.021c0,0-2.546-44.397-9.461-43.67c-6.915,0.729-4.367,24.383-4.367,24.383
				s-35.664-33.115-40.031-30.933c-4.366,2.184,14.92,28.021,14.92,28.021s-25.109-27.293-28.021-23.654
				c-2.912,3.64,0,9.098,0,9.098s-3.315,7.104-1.294,11.194c0,0-1.254,9.549,4.933,19.374c6.187,9.827,32.025,31.297,42.215,34.208
				c10.19,2.911,33.844,27.658,33.844,27.658L209.327,166.185z"/>
			<g>
				<g>
					<g>
						<g>
							<g>
								<path fill="#9E4E27" d="M160.051,144.873c0.27,0.261,0.585,0.44,0.855,0.632c0.276,0.182,0.512,0.318,0.704,0.411
									c0.19,0.09,0.306,0.106,0.347,0.052c0.037-0.052,0.038-0.116,0.002-0.193s-0.097-0.163-0.184-0.26
									c-0.088-0.096-0.2-0.202-0.338-0.32c-0.139-0.115-0.297-0.249-0.477-0.399c-0.214-0.143-0.627-0.589-1.287-1.282
									c-0.351-0.329-0.647-0.776-1.011-1.238c-0.379-0.452-0.713-1.001-1.066-1.604c-0.737-1.185-1.326-2.63-1.823-4.254
									c-0.165-0.834-0.426-1.658-0.472-2.521c-0.036-0.429-0.113-0.856-0.117-1.289l0.014-1.303
									c0.093-1.737,0.388-3.424,0.954-4.966c0.144-0.384,0.25-0.771,0.41-1.125c0.166-0.351,0.326-0.691,0.482-1.022
									c0.278-0.681,0.694-1.234,1.007-1.795c0.306-0.568,0.714-0.988,1.004-1.418c0.293-0.43,0.603-0.763,0.87-1.05
									c0.525-0.584,0.771-0.9,0.732-0.945c-0.027-0.03-0.323,0.215-0.894,0.743c-0.594,0.504-1.25,1.302-2.018,2.327
									c-0.723,1.059-1.487,2.325-2.051,3.878c-0.641,1.527-0.935,3.218-1.136,4.947c-0.009,0.436-0.018,0.87-0.025,1.303
									l-0.012,0.646l0.063,0.642c0.042,0.427,0.084,0.851,0.126,1.273c0.089,0.415,0.177,0.828,0.264,1.239
									c0.139,0.833,0.461,1.571,0.686,2.294c0.255,0.714,0.601,1.346,0.872,1.964c0.321,0.593,0.657,1.109,0.939,1.588
									c0.29,0.475,0.625,0.847,0.882,1.201c0.511,0.713,0.893,1.034,0.96,1.122C159.529,144.375,159.775,144.616,160.051,144.873z
									"/>
							</g>
						</g>
					</g>
				</g>
			</g>
			<g>
				<g>
					<g>
						<g>
							<g>
								<path fill="#9E4E27" d="M130.445,125.721c0.309,0.303,0.605,0.581,0.892,0.837c0.284,0.254,0.528,0.451,0.731,0.594
									c0.201,0.141,0.327,0.188,0.377,0.141c0.046-0.044,0.053-0.111,0.019-0.201c-0.034-0.091-0.096-0.197-0.186-0.322
									c-0.092-0.124-0.209-0.267-0.354-0.427c-0.146-0.159-0.313-0.342-0.502-0.548c-0.206-0.224-0.697-0.756-1.472-1.596
									c-0.776-0.841-1.728-1.872-2.856-3.096c-1.129-1.222-2.384-2.579-3.763-4.071c-1.372-1.499-2.803-2.979-4.168-4.554
									c-1.386-1.554-2.729-3.062-4.032-4.522c-1.312-1.449-2.479-2.739-3.504-3.872c-1.029-1.124-1.867-2.021-2.512-2.688
									c-0.646-0.668-0.99-0.982-1.035-0.944c-0.031,0.027,0.241,0.388,0.816,1.084c0.585,0.693,1.354,1.604,2.311,2.739
									c0.972,1.129,2.079,2.414,3.322,3.858c1.251,1.438,2.535,2.917,3.853,4.434c1.306,1.527,2.646,2.971,3.952,4.396
									c1.307,1.423,2.484,2.706,3.534,3.85c1.052,1.14,1.916,2.077,2.599,2.816c0.682,0.737,1.066,1.153,1.153,1.246
									C129.86,125.134,130.137,125.416,130.445,125.721z"/>
							</g>
						</g>
					</g>
				</g>
			</g>
			<g>
				<g>
					<g>
						<g>
							<g>
								<path fill="#9E4E27" d="M126.986,136.672c0.305,0.222,0.597,0.423,0.877,0.604c0.279,0.181,0.517,0.316,0.712,0.408
									c0.194,0.09,0.313,0.108,0.354,0.055c0.039-0.051,0.039-0.115,0.001-0.193c-0.038-0.077-0.102-0.165-0.192-0.263
									c-0.093-0.098-0.21-0.207-0.354-0.327c-0.144-0.119-0.31-0.255-0.497-0.409c-0.205-0.167-0.691-0.565-1.459-1.192
									c-0.769-0.628-1.711-1.397-2.829-2.312c-1.122-0.908-2.26-2.043-3.571-3.22c-1.281-1.21-2.663-2.349-3.888-3.68
									c-1.264-1.292-2.489-2.544-3.677-3.758c-0.609-0.592-1.139-1.193-1.634-1.765c-0.502-0.563-0.973-1.093-1.413-1.588
									c-0.883-0.985-1.603-1.77-2.159-2.354c-0.558-0.585-0.858-0.859-0.905-0.821c-0.031,0.025,0.196,0.345,0.686,0.959
									c0.499,0.613,1.154,1.417,1.97,2.417c0.842,0.984,1.736,2.167,2.878,3.371c1.144,1.204,2.318,2.44,3.523,3.708
									c1.178,1.297,2.456,2.442,3.691,3.588c1.234,1.144,2.349,2.175,3.341,3.093c1.044,0.857,1.902,1.563,2.58,2.12
									c0.678,0.552,1.062,0.863,1.147,0.934C126.407,136.241,126.681,136.45,126.986,136.672z"/>
							</g>
						</g>
					</g>
				</g>
			</g>
			<g>
				<g>
					<g>
						<g>
							<g>
								<path fill="#9E4E27" d="M126.235,144.122c-0.024,0.432-0.039,0.839-0.043,1.222c-0.003,0.38,0.009,0.692,0.035,0.937
									c0.027,0.241,0.075,0.364,0.144,0.369c0.063,0.004,0.118-0.037,0.164-0.123c0.046-0.085,0.086-0.201,0.119-0.35
									c0.034-0.149,0.063-0.329,0.088-0.542c0.023-0.211,0.051-0.454,0.081-0.729c0.032-0.299,0.108-1.011,0.229-2.133
									c0.121-1.124,0.457-2.474,0.751-4.091c0.126-0.814,0.396-1.641,0.641-2.521c0.254-0.876,0.501-1.803,0.796-2.762
									c0.354-0.939,0.709-1.886,1.067-2.837c0.186-0.473,0.341-0.96,0.554-1.425l0.658-1.391c0.451-0.925,0.849-1.859,1.32-2.738
									c0.498-0.864,0.988-1.716,1.471-2.555c0.247-0.415,0.46-0.836,0.715-1.215c0.259-0.376,0.51-0.741,0.754-1.096
									c0.484-0.712,0.939-1.379,1.364-2.003c0.876-1.227,1.684-2.137,2.229-2.88c0.561-0.73,0.82-1.116,0.776-1.156
									c-0.03-0.028-0.345,0.291-0.945,0.959c-0.589,0.679-1.415,1.54-2.335,2.702c-0.437,0.602-0.902,1.244-1.399,1.929
									c-0.49,0.69-1.049,1.399-1.508,2.234c-0.487,0.818-0.98,1.647-1.48,2.487c-0.527,0.826-0.888,1.756-1.348,2.647
									c-0.938,1.779-1.596,3.637-2.286,5.442c-0.38,0.891-0.575,1.792-0.832,2.624c-0.24,0.837-0.468,1.629-0.683,2.374
									c-0.326,1.516-0.553,2.772-0.75,3.759c-0.216,0.982-0.228,1.554-0.252,1.679
									C126.292,143.295,126.261,143.689,126.235,144.122z"/>
							</g>
						</g>
					</g>
				</g>
			</g>
		</g>
		<path fill="#82AADA" d="M85.678,65.125c-0.396,1.605-2.017,2.584-3.621,2.19c-1.604-0.396-2.584-2.017-2.189-3.622
			c0.396-1.603,4.839-7.132,4.839-7.132S86.072,63.521,85.678,65.125z"/>
		<path fill="#82AADA" d="M92.455,100.366c-0.395,1.603-2.018,2.582-3.62,2.188c-1.604-0.397-2.584-2.016-2.188-3.621
			c0.395-1.604,4.838-7.134,4.838-7.134S92.851,98.762,92.455,100.366z"/>
		<path fill="#82AADA" d="M98.423,43.012c-0.396,1.605-2.016,2.584-3.62,2.189c-1.604-0.395-2.584-2.017-2.188-3.621
			c0.395-1.603,4.838-7.132,4.838-7.132S98.817,41.408,98.423,43.012z"/>
		<path fill="#82AADA" d="M76.599,86.809c-0.396,1.603-2.016,2.582-3.62,2.186c-1.605-0.395-2.584-2.015-2.189-3.618
			c0.395-1.605,4.839-7.134,4.839-7.134S76.994,85.204,76.599,86.809z"/>
		<path fill="#82AADA" d="M98.423,75.966c-0.396,1.604-2.016,2.583-3.62,2.188c-1.604-0.396-2.584-2.017-2.188-3.619
			c0.395-1.604,4.838-7.133,4.838-7.133S98.817,74.361,98.423,75.966z"/>
		<path fill="#82AADA" d="M130.308,66.454c0.396,1.603,2.016,2.582,3.619,2.187c1.604-0.395,2.583-2.015,2.188-3.619
			c-0.396-1.605-4.839-7.134-4.839-7.134S129.91,64.849,130.308,66.454z"/>
		<path fill="#82AADA" d="M110.972,97.54c0.396,1.604,2.016,2.585,3.621,2.188c1.603-0.396,2.583-2.017,2.188-3.621
			c-0.395-1.602-4.838-7.131-4.838-7.131S110.576,95.936,110.972,97.54z"/>
		<path fill="#82AADA" d="M114.703,48.434c0.395,1.602,2.016,2.582,3.619,2.186c1.604-0.396,2.584-2.014,2.189-3.619
			c-0.396-1.604-4.839-7.133-4.839-7.133S114.307,46.829,114.703,48.434z"/>
		<path fill="#82AADA" d="M137.229,89.524c0.396,1.605,2.016,2.584,3.62,2.189c1.604-0.395,2.585-2.015,2.189-3.619
			c-0.396-1.605-4.84-7.134-4.84-7.134S136.835,87.921,137.229,89.524z"/>
		<path fill="#82AADA" d="M114.703,77.294c0.395,1.605,2.016,2.584,3.619,2.188c1.604-0.395,2.584-2.016,2.189-3.621
			c-0.396-1.605-4.839-7.132-4.839-7.132S114.307,75.69,114.703,77.294z"/>
	</g>
</g>
<circle fill="none" stroke="#FFFFFF" stroke-width="2" stroke-miterlimit="10" cx="101.103" cy="101.501" r="89.218"/>
</svg>
