<?xml version="1.0" encoding="utf-8"?>
<!-- Generator: Adobe Illustrator 16.0.0, SVG Export Plug-In . SVG Version: 6.00 Build 0)  -->
<!DOCTYPE svg PUBLIC "-//W3C//DTD SVG 1.1//EN" "http://www.w3.org/Graphics/SVG/1.1/DTD/svg11.dtd">
<svg version="1.1" id="Layer_1" xmlns="http://www.w3.org/2000/svg" xmlns:xlink="http://www.w3.org/1999/xlink" x="0px" y="0px"
	 width="200px" height="200px" viewBox="0 0 200 200" enable-background="new 0 0 200 200" xml:space="preserve">
<circle fill="#DBF1FD" stroke="#FFFFFF" stroke-width="2" stroke-miterlimit="10" cx="100.32" cy="99.25" r="92.249"/>
<g>
	<defs>
		<circle id="SVGID_1_" cx="100.32" cy="99.25" r="92.249"/>
	</defs>
	<clipPath id="SVGID_2_">
		<use xlink:href="#SVGID_1_"  overflow="visible"/>
	</clipPath>
	<g clip-path="url(#SVGID_2_)">
		<g>
			<path fill="#EB9A42" d="M10.277,160.238l41.875-39.167c0,0-1.064-56.925,7.834-56.668c8.897,0.257,7.943,30.703,7.943,30.703
				s42.312-45.744,48.097-43.379c5.788,2.362-16.324,37.219-16.324,37.219s29.405-37.281,33.474-32.92
				c4.069,4.364,0.883,11.615,0.883,11.615s4.925,8.745,2.74,14.164c0,0,2.529,12.067-4.414,25.214
				c-6.944,13.145-37.838,43.064-50.565,47.771c-12.724,4.706-40.516,38.598-40.516,38.598L10.277,160.238z"/>
			<g>
				<g>
					<g>
						<g>
							<g>
								<path fill="#9E4E27" d="M70.502,127.696c-0.27,0.381-0.591,0.678-0.846,1.006c-0.263,0.317-0.467,0.592-0.614,0.824
									c-0.144,0.229-0.191,0.379-0.136,0.442c0.052,0.061,0.127,0.073,0.229,0.038c0.101-0.034,0.219-0.101,0.356-0.202
									c0.138-0.102,0.294-0.235,0.47-0.401c0.173-0.166,0.373-0.357,0.598-0.573c0.269-0.213,0.776-0.843,1.586-1.826
									c0.434-0.472,0.787-1.092,1.224-1.741c0.206-0.332,0.457-0.659,0.654-1.038c0.194-0.382,0.397-0.778,0.607-1.192
									c0.863-1.645,1.505-3.62,1.998-5.829c0.137-1.125,0.395-2.246,0.367-3.4c0.004-0.573,0.058-1.15,0.019-1.727
									c-0.052-0.575-0.104-1.153-0.156-1.732c-0.023-0.583-0.183-1.141-0.29-1.702c-0.133-0.556-0.196-1.126-0.387-1.656
									c-0.357-1.067-0.657-2.137-1.157-3.109c-0.235-0.49-0.426-0.986-0.683-1.432c-0.264-0.44-0.521-0.868-0.77-1.284
									c-0.459-0.854-1.086-1.525-1.582-2.209c-0.246-0.344-0.514-0.644-0.79-0.909c-0.266-0.272-0.519-0.529-0.756-0.772
									c-0.458-0.502-0.927-0.871-1.338-1.18c-0.811-0.63-1.233-0.911-1.277-0.853c-0.031,0.041,0.316,0.396,1.036,1.064
									c0.361,0.333,0.794,0.703,1.203,1.209c0.411,0.501,0.947,0.999,1.407,1.661c0.955,1.295,1.983,2.83,2.789,4.726
									c0.901,1.855,1.382,3.933,1.761,6.053c0.043,0.537,0.086,1.073,0.129,1.605l0.063,0.797l-0.029,0.795
									c-0.018,0.528-0.037,1.054-0.055,1.577c-0.076,0.518-0.151,1.034-0.226,1.547c-0.101,1.035-0.442,1.971-0.656,2.879
									c-0.254,0.898-0.629,1.705-0.908,2.488c-0.345,0.756-0.715,1.42-1.018,2.033c-0.313,0.609-0.693,1.094-0.974,1.554
									c-0.559,0.923-1,1.352-1.074,1.466C71.037,126.985,70.778,127.319,70.502,127.696z"/>
							</g>
						</g>
					</g>
				</g>
			</g>
			<g>
				<g>
					<g>
						<g>
							<g>
								<path fill="#9E4E27" d="M106.404,100.401c-0.323,0.449-0.619,0.878-0.888,1.29c-0.268,0.409-0.472,0.756-0.615,1.041
									c-0.141,0.281-0.179,0.449-0.113,0.503c0.062,0.05,0.145,0.044,0.251-0.017c0.106-0.062,0.228-0.159,0.366-0.299
									c0.14-0.139,0.296-0.315,0.471-0.531c0.173-0.215,0.371-0.463,0.595-0.742c0.243-0.306,0.821-1.032,1.732-2.177
									c0.913-1.147,2.033-2.554,3.361-4.223c1.326-1.669,2.8-3.524,4.419-5.563c1.607-2.05,3.286-4.084,4.869-6.234
									c1.601-2.135,3.152-4.206,4.657-6.212c1.488-2.014,2.813-3.808,3.975-5.381c1.151-1.577,2.064-2.854,2.74-3.832
									c0.676-0.978,0.984-1.488,0.925-1.532c-0.041-0.03-0.424,0.404-1.15,1.304c-0.72,0.909-1.668,2.105-2.849,3.596
									c-1.169,1.506-2.499,3.221-3.994,5.147c-1.487,1.934-3.015,3.92-4.581,5.957c-1.544,2.054-3.136,4.008-4.682,5.938
									c-1.543,1.93-2.936,3.67-4.175,5.221c-1.235,1.552-2.252,2.828-3.054,3.835c-0.798,1.006-1.249,1.574-1.35,1.701
									C107.033,99.548,106.729,99.951,106.404,100.401z"/>
							</g>
						</g>
					</g>
				</g>
			</g>
			<g>
				<g>
					<g>
						<g>
							<g>
								<path fill="#9E4E27" d="M111.967,113.959c-0.33,0.349-0.634,0.686-0.911,1.011c-0.275,0.324-0.49,0.604-0.643,0.838
									c-0.15,0.231-0.198,0.38-0.142,0.443c0.053,0.059,0.13,0.071,0.232,0.036c0.102-0.035,0.222-0.101,0.359-0.201
									c0.14-0.102,0.297-0.233,0.474-0.397c0.176-0.164,0.377-0.354,0.604-0.567c0.247-0.233,0.835-0.789,1.762-1.665
									c0.928-0.878,2.066-1.954,3.417-3.23c1.354-1.271,2.706-2.837,4.274-4.475c1.526-1.679,3.183-3.279,4.617-5.115
									c1.477-1.795,2.908-3.536,4.296-5.224c0.709-0.831,1.313-1.667,1.872-2.462c0.563-0.791,1.09-1.534,1.583-2.228
									c0.98-1.39,1.756-2.516,2.326-3.378c0.572-0.862,0.826-1.313,0.766-1.354c-0.042-0.029-0.375,0.35-1,1.138
									c-0.617,0.796-1.43,1.844-2.442,3.149c-0.501,0.659-1.036,1.363-1.607,2.113c-0.573,0.748-1.151,1.565-1.857,2.356
									c-1.368,1.617-2.773,3.277-4.215,4.979c-1.396,1.741-2.933,3.3-4.406,4.86c-1.473,1.559-2.8,2.964-3.982,4.216
									c-1.247,1.186-2.274,2.16-3.084,2.929c-0.808,0.768-1.264,1.2-1.366,1.297C112.607,113.299,112.299,113.609,111.967,113.959
									z"/>
							</g>
						</g>
					</g>
				</g>
			</g>
			<g>
				<g>
					<g>
						<g>
							<g>
								<path fill="#9E4E27" d="M113.401,124.147c0.123,0.532,0.25,1.032,0.382,1.501c0.132,0.466,0.257,0.846,0.377,1.14
									c0.119,0.291,0.222,0.433,0.305,0.421c0.079-0.011,0.13-0.075,0.154-0.194c0.024-0.118,0.03-0.273,0.018-0.469
									c-0.014-0.196-0.043-0.43-0.09-0.703c-0.049-0.271-0.104-0.584-0.168-0.937c-0.069-0.384-0.235-1.297-0.497-2.737
									c-0.101-0.729-0.354-1.507-0.581-2.376c-0.237-0.868-0.495-1.816-0.776-2.846c-0.241-1.041-0.668-2.085-1.07-3.198
									c-0.413-1.109-0.824-2.283-1.299-3.494c-0.552-1.181-1.105-2.367-1.664-3.562c-0.288-0.593-0.539-1.207-0.861-1.786
									c-0.33-0.575-0.662-1.151-0.994-1.73c-0.679-1.147-1.294-2.312-1.999-3.395c-0.741-1.061-1.47-2.104-2.188-3.132
									c-0.367-0.507-0.691-1.024-1.066-1.482c-0.381-0.453-0.75-0.893-1.109-1.319c-0.72-0.849-1.396-1.646-2.026-2.391
									c-1.302-1.449-2.493-2.481-3.338-3.308c-0.865-0.81-1.32-1.186-1.37-1.132c-0.035,0.037,0.336,0.479,1.114,1.324
									c0.762,0.858,1.845,1.92,3.076,3.347c0.59,0.737,1.221,1.526,1.893,2.366c0.666,0.844,1.423,1.701,2.064,2.728
									c0.677,1,1.363,2.012,2.059,3.039c0.364,0.502,0.68,1.04,0.979,1.593c0.308,0.547,0.618,1.097,0.93,1.651
									c0.313,0.553,0.623,1.104,0.933,1.651l0.462,0.82l0.391,0.852c0.521,1.132,1.037,2.253,1.548,3.363
									c0.555,1.092,0.877,2.214,1.272,3.241c0.377,1.034,0.733,2.013,1.068,2.935c0.546,1.881,0.945,3.444,1.289,4.668
									c0.367,1.217,0.436,1.935,0.479,2.09C113.175,123.125,113.277,123.613,113.401,124.147z"/>
							</g>
						</g>
					</g>
				</g>
			</g>
		</g>
		<path fill="#FFFFFF" d="M162.83,86.422c0,0-56.65,52.357-60.069,69.94c0,0-44.44-29.792-44.44-58.117
			c0-28.324-10.744-35.597-10.744-35.597l44.441-2.637l32.72-28.182C124.738,31.83,125.226,72.644,162.83,86.422z"/>
		<g>
			<path fill="#F9B05F" d="M174.735,186.584L135.57,144.71c0,0-56.926,1.063-56.668-7.833c0.255-8.899,30.702-7.946,30.702-7.946
				s-45.743-42.309-43.38-48.097c2.365-5.786,37.223,16.324,37.223,16.324s-37.284-29.402-32.92-33.472
				c4.361-4.072,11.612-0.885,11.612-0.885s8.746-4.922,14.165-2.74c0,0,12.069-2.527,25.214,4.414
				c13.145,6.944,43.067,37.841,47.774,50.564c4.706,12.728,38.596,40.517,38.596,40.517L174.735,186.584z"/>
			<g>
				<g>
					<g>
						<g>
							<g>
								<path fill="#9E4E27" d="M114.9,90.455c0.449,0.324,0.878,0.62,1.29,0.888c0.409,0.267,0.756,0.472,1.04,0.615
									c0.282,0.141,0.45,0.179,0.504,0.113c0.05-0.062,0.044-0.145-0.017-0.251c-0.062-0.106-0.159-0.228-0.299-0.367
									s-0.315-0.296-0.531-0.47c-0.216-0.172-0.463-0.371-0.743-0.595c-0.305-0.243-1.031-0.821-2.177-1.732
									c-1.147-0.913-2.554-2.032-4.223-3.361c-1.67-1.326-3.524-2.799-5.563-4.418c-2.05-1.607-4.084-3.285-6.234-4.869
									c-2.135-1.601-4.206-3.153-6.212-4.657c-2.014-1.488-3.808-2.813-5.381-3.976c-1.577-1.151-2.855-2.064-3.832-2.74
									c-0.978-0.677-1.488-0.984-1.532-0.925c-0.03,0.041,0.404,0.424,1.304,1.151c0.909,0.72,2.105,1.667,3.596,2.848
									c1.506,1.169,3.221,2.5,5.147,3.995c1.934,1.487,3.919,3.014,5.957,4.581c2.054,1.544,4.007,3.136,5.939,4.682
									c1.93,1.543,3.67,2.935,5.221,4.175c1.552,1.235,2.829,2.252,3.835,3.053c1.007,0.798,1.574,1.249,1.702,1.35
									C114.047,89.827,114.45,90.13,114.9,90.455z"/>
							</g>
						</g>
					</g>
				</g>
			</g>
			<g>
				<g>
					<g>
						<g>
							<g>
								<path fill="#9E4E27" d="M128.457,84.892c0.349,0.33,0.686,0.634,1.011,0.912c0.324,0.275,0.604,0.489,0.838,0.643
									c0.231,0.15,0.38,0.198,0.443,0.142c0.059-0.053,0.071-0.13,0.036-0.232c-0.035-0.103-0.101-0.222-0.201-0.36
									c-0.102-0.139-0.233-0.296-0.397-0.474c-0.164-0.175-0.354-0.376-0.567-0.604c-0.233-0.247-0.789-0.834-1.665-1.761
									c-0.878-0.928-1.954-2.066-3.231-3.417c-1.271-1.354-2.836-2.706-4.474-4.274c-1.679-1.526-3.279-3.183-5.114-4.616
									c-1.796-1.477-3.537-2.909-5.224-4.296c-0.83-0.709-1.667-1.313-2.462-1.872c-0.792-0.563-1.534-1.09-2.229-1.583
									c-1.39-0.98-2.516-1.756-3.377-2.327c-0.863-0.571-1.313-0.826-1.355-0.765c-0.029,0.042,0.35,0.375,1.138,1
									c0.797,0.618,1.844,1.43,3.149,2.442c0.658,0.501,1.362,1.037,2.112,1.607c0.748,0.574,1.565,1.151,2.356,1.857
									c1.616,1.368,3.276,2.773,4.979,4.215c1.739,1.397,3.3,2.933,4.859,4.407c1.559,1.472,2.964,2.799,4.216,3.982
									c1.186,1.248,2.16,2.274,2.929,3.083c0.768,0.808,1.2,1.264,1.297,1.367C127.797,84.251,128.107,84.56,128.457,84.892z"/>
							</g>
						</g>
					</g>
				</g>
			</g>
		</g>
	</g>
</g>
<circle fill="none" stroke="#FFFFFF" stroke-width="2" stroke-miterlimit="10" cx="100.32" cy="99.25" r="92.249"/>
</svg>
