<?xml version="1.0" encoding="utf-8"?>
<!-- Generator: Adobe Illustrator 16.0.0, SVG Export Plug-In . SVG Version: 6.00 Build 0)  -->
<!DOCTYPE svg PUBLIC "-//W3C//DTD SVG 1.1//EN" "http://www.w3.org/Graphics/SVG/1.1/DTD/svg11.dtd">
<svg version="1.1" id="Layer_1" xmlns="http://www.w3.org/2000/svg" xmlns:xlink="http://www.w3.org/1999/xlink" x="0px" y="0px"
	 width="200px" height="200px" viewBox="0 0 200 200" enable-background="new 0 0 200 200" xml:space="preserve">
<circle fill="#DBF1FD" stroke="#FFFFFF" stroke-width="2" stroke-miterlimit="10" cx="101.234" cy="102.82" r="90.499"/>
<g>
	<defs>
		<circle id="SVGID_1_" cx="101.234" cy="102.82" r="90.499"/>
	</defs>
	<clipPath id="SVGID_2_">
		<use xlink:href="#SVGID_1_"  overflow="visible"/>
	</clipPath>
	<g clip-path="url(#SVGID_2_)">
		<g>
			<path fill="#4F6EB5" d="M163.862,201.137h-15.932v-59.584c0-9.414-7.659-17.072-17.076-17.072h-20.31
				c-9.413,0-17.075,7.658-17.075,17.072v2.911H77.538v-2.911c0-18.2,14.807-33.005,33.007-33.005h20.31
				c18.2,0,33.008,14.805,33.008,33.005V201.137z"/>
		</g>
		<path fill="#82AADA" d="M84.49,155.607c0.011,1.921-1.537,3.486-3.458,3.495c-1.918,0.011-3.483-1.538-3.495-3.458
			c-0.007-1.919,3.429-9.411,3.429-9.411S84.479,153.689,84.49,155.607z"/>
		<path fill="#82AADA" d="M92.102,164.218c0.011,1.921-1.537,3.483-3.457,3.494c-1.918,0.01-3.483-1.537-3.495-3.458
			c-0.009-1.918,3.427-9.411,3.427-9.411S92.093,162.299,92.102,164.218z"/>
		<g>
			<g>
				<rect x="106.867" y="107.321" fill="#263572" width="27.666" height="18.384"/>
			</g>
			<path fill="#263572" d="M135.846,97.158h-30.291c-3.88,0-7.027-3.147-7.027-7.027l0,0c0-3.883,3.147-7.027,7.027-7.027h30.291
				c3.883,0,7.027,3.144,7.027,7.027l0,0C142.873,94.011,139.729,97.158,135.846,97.158z"/>
			<path fill="#263572" d="M130.296,112.788h-19.188v-8.517c0-1.334,1.08-2.416,2.414-2.416h14.356c1.335,0,2.418,1.082,2.418,2.416
				V112.788z"/>
			<rect x="117.165" y="93.766" fill="#263572" width="7.07" height="11.39"/>
		</g>
		<path fill="#FFFFFF" d="M73.75,89.627c0,0,14.661,2.355,28.008,0c13.35-2.357,17.538-5.433,25.654-2.324
			c8.113,3.11,31.543,4.155,36.449,3.371c0,0-10.275-19.675-18.127-22.138c-7.854-2.466-25.035,2.785-25.035,2.785l-13.833-0.567
			l-25.852-1.02L73.75,89.627z"/>
		<g>
			<path fill="#F9B05F" d="M-15.097,71.321l61.852,1.418c0,0,9.364,11.633,23.55,13.904c14.187,2.27,46.816-1.704,47.383-5.959
				c0.567-4.254-28.94-10.732-30.926-13.595c-1.985-2.86,8.512-5.981,11.916-3.144c3.407,2.837,8.189,6.809,8.189,6.809
				l13.833,0.567c0,0-16.063-25.251-24.007-27.237c-7.945-1.987-51.638,0-51.638,0l-64.124-10.782L-15.097,71.321z"/>
			<g>
				<g>
					<g>
						<g>
							<g>
								<path fill="#9E4E27" d="M82.356,51.296c-0.433,0.063-0.832,0.181-1.207,0.277c-0.373,0.102-0.674,0.202-0.905,0.3
									c-0.228,0.097-0.334,0.185-0.32,0.261c0.014,0.072,0.069,0.121,0.164,0.148c0.096,0.027,0.219,0.039,0.372,0.036
									c0.154-0.003,0.336-0.021,0.548-0.052c0.211-0.033,0.455-0.07,0.729-0.113c0.296-0.064,1.013-0.128,2.142-0.236
									c0.564-0.071,1.197-0.072,1.894-0.104c0.696-0.042,1.458-0.028,2.284-0.005c1.652,0.024,3.482,0.216,5.476,0.519
									c1.986,0.36,3.984,0.81,5.948,1.465c1.962,0.653,3.832,1.396,5.565,2.28c1.752,0.845,3.227,1.76,4.501,2.583
									c1.257,0.847,2.261,1.55,2.982,2.13c0.734,0.566,1.126,0.825,1.172,0.774c0.031-0.035-0.285-0.358-0.954-0.974
									c-0.654-0.632-1.6-1.377-2.801-2.272c-1.225-0.866-2.656-1.813-4.366-2.699c-1.688-0.93-3.526-1.674-5.428-2.384
									c-1.928-0.63-3.842-1.207-5.771-1.538c-1.918-0.383-3.677-0.546-5.244-0.657c-1.569-0.065-2.861-0.073-3.879-0.01
									c-1.018,0.022-1.586,0.112-1.715,0.117C83.187,51.179,82.79,51.229,82.356,51.296z"/>
							</g>
						</g>
					</g>
				</g>
			</g>
			<g>
				<g>
					<g>
						<g>
							<g>
								<path fill="#9E4E27" d="M81.251,43.855c-0.085,0.064-0.16,0.135-0.225,0.21c-0.064,0.075-0.109,0.152-0.134,0.229
									c-0.024,0.077-0.019,0.15,0.018,0.22c0.033,0.065,0.069,0.112,0.106,0.141c0.038,0.028,0.077,0.045,0.117,0.05
									c0.041,0.004,0.084-0.002,0.129-0.021c0.045-0.02,0.096-0.041,0.154-0.066c0.063-0.028,0.211-0.095,0.446-0.2
									c0.235-0.104,0.542-0.189,0.895-0.316c0.354-0.123,0.766-0.2,1.208-0.314c0.454-0.06,0.908-0.171,1.379-0.187
									c0.468-0.052,0.923-0.057,1.367-0.054c0.443-0.016,0.834,0.043,1.185,0.041c0.347,0.018,0.626,0.054,0.846,0.046
									c0.219-0.001,0.339-0.035,0.356-0.101c0.012-0.046-0.081-0.106-0.282-0.184c-0.201-0.073-0.469-0.175-0.813-0.258
									c-0.348-0.06-0.745-0.161-1.199-0.192c-0.454-0.033-0.924-0.072-1.406-0.04c-0.483-0.001-0.952,0.071-1.414,0.133
									c-0.46,0.066-0.865,0.186-1.231,0.264c-0.355,0.119-0.647,0.217-0.877,0.294c-0.231,0.074-0.352,0.143-0.381,0.153
									C81.419,43.739,81.336,43.79,81.251,43.855z"/>
							</g>
						</g>
					</g>
				</g>
			</g>
		</g>
	</g>
</g>
<circle fill="none" stroke="#FFFFFF" stroke-width="2" stroke-miterlimit="10" cx="101.234" cy="102.82" r="90.499"/>
</svg>
