<?xml version="1.0" encoding="utf-8"?>
<!-- Generator: Adobe Illustrator 16.0.0, SVG Export Plug-In . SVG Version: 6.00 Build 0)  -->
<!DOCTYPE svg PUBLIC "-//W3C//DTD SVG 1.1//EN" "http://www.w3.org/Graphics/SVG/1.1/DTD/svg11.dtd">
<svg version="1.1" id="Layer_1" xmlns="http://www.w3.org/2000/svg" xmlns:xlink="http://www.w3.org/1999/xlink" x="0px" y="0px"
	 width="200px" height="200px" viewBox="0 0 200 200" enable-background="new 0 0 200 200" xml:space="preserve">
<path fill="#DBF1FD" stroke="#FFFFFF" stroke-width="2" stroke-miterlimit="10" d="M192.354,101.249
	c0,51.045-41.38,92.425-92.425,92.425s-92.427-41.38-92.427-92.425c0-51.048,41.382-92.428,92.427-92.428
	S192.354,50.201,192.354,101.249z"/>
<g>
	<defs>
		<path id="SVGID_1_" d="M192.354,101.249c0,51.045-41.38,92.425-92.425,92.425s-92.427-41.38-92.427-92.425
			c0-51.048,41.382-92.428,92.427-92.428S192.354,50.201,192.354,101.249z"/>
	</defs>
	<clipPath id="SVGID_2_">
		<use xlink:href="#SVGID_1_"  overflow="visible"/>
	</clipPath>
	<g clip-path="url(#SVGID_2_)">
		<g>
			<path fill="#F9B05F" d="M-5.802,168.174l36.725-29.457c0,0,2.679-46.671,9.946-45.907c7.27,0.766,4.593,25.633,4.593,25.633
				s37.49-34.814,42.081-32.52c4.589,2.297-15.685,29.457-15.685,29.457s26.395-28.691,29.458-24.865c3.06,3.824,0,9.563,0,9.563
				s3.483,7.466,1.357,11.769c0,0,1.319,10.035-5.184,20.366c-6.504,10.33-33.667,32.899-44.377,35.96
				c-10.712,3.061-35.577,29.075-35.577,29.075L-5.802,168.174z"/>
			<g>
				<g>
					<g>
						<g>
							<g>
								<path fill="#9E4E27" d="M45.535,145.284c-0.244,0.295-0.526,0.519-0.755,0.771c-0.235,0.243-0.419,0.455-0.555,0.636
									c-0.132,0.18-0.18,0.299-0.139,0.354c0.038,0.052,0.099,0.067,0.184,0.045c0.084-0.021,0.186-0.069,0.304-0.144
									c0.119-0.075,0.255-0.174,0.409-0.299c0.152-0.125,0.328-0.27,0.526-0.432c0.233-0.158,0.688-0.642,1.413-1.396
									c0.385-0.359,0.712-0.846,1.11-1.35c0.415-0.493,0.783-1.091,1.171-1.747c0.809-1.293,1.458-2.87,1.999-4.648
									c0.183-0.912,0.463-1.813,0.513-2.76c0.039-0.47,0.12-0.938,0.123-1.413l-0.02-1.428c-0.111-1.9-0.455-3.739-1.099-5.409
									c-0.162-0.416-0.288-0.834-0.47-1.215c-0.189-0.377-0.372-0.743-0.55-1.099c-0.323-0.729-0.794-1.317-1.158-1.907
									c-0.355-0.598-0.82-1.034-1.161-1.473c-0.344-0.439-0.705-0.771-1.022-1.049c-0.625-0.566-0.953-0.823-0.993-0.777
									c-0.027,0.031,0.235,0.344,0.783,0.935c0.574,0.565,1.209,1.429,1.958,2.513c0.701,1.119,1.448,2.439,1.989,4.042
									c0.623,1.575,0.887,3.306,1.065,5.065c0.002,0.442,0.003,0.884,0.005,1.322l0.002,0.656l-0.073,0.648
									c-0.048,0.432-0.096,0.861-0.143,1.288c-0.095,0.42-0.188,0.837-0.282,1.253c-0.148,0.841-0.485,1.586-0.717,2.316
									c-0.264,0.72-0.622,1.356-0.898,1.98c-0.33,0.598-0.674,1.117-0.96,1.602c-0.294,0.479-0.636,0.853-0.894,1.211
									c-0.515,0.721-0.902,1.045-0.971,1.134C46.018,144.735,45.785,144.993,45.535,145.284z"/>
							</g>
						</g>
					</g>
				</g>
			</g>
			<g>
				<g>
					<g>
						<g>
							<g>
								<path fill="#9E4E27" d="M76.63,125.178c-0.293,0.347-0.563,0.68-0.808,1c-0.244,0.318-0.433,0.589-0.568,0.813
									c-0.133,0.222-0.175,0.357-0.124,0.405c0.047,0.044,0.116,0.045,0.206,0.001c0.091-0.043,0.196-0.116,0.318-0.221
									c0.123-0.106,0.262-0.24,0.418-0.406c0.155-0.166,0.333-0.356,0.533-0.571c0.218-0.234,0.736-0.793,1.554-1.674
									c0.819-0.883,1.823-1.964,3.015-3.248c1.19-1.283,2.512-2.71,3.965-4.278c1.444-1.578,2.945-3.139,4.375-4.801
									c1.443-1.647,2.843-3.246,4.2-4.795c1.344-1.557,2.541-2.942,3.59-4.158c1.041-1.22,1.868-2.208,2.482-2.967
									c0.614-0.758,0.898-1.156,0.853-1.195c-0.031-0.027-0.372,0.304-1.022,0.995c-0.647,0.7-1.498,1.621-2.556,2.767
									c-1.051,1.161-2.247,2.482-3.591,3.966c-1.338,1.49-2.712,3.021-4.122,4.592c-1.392,1.585-2.817,3.086-4.203,4.57
									c-1.384,1.483-2.632,2.821-3.744,4.014c-1.108,1.193-2.02,2.175-2.739,2.949c-0.716,0.773-1.121,1.211-1.211,1.309
									C77.198,124.518,76.924,124.829,76.63,125.178z"/>
							</g>
						</g>
					</g>
				</g>
			</g>
			<g>
				<g>
					<g>
						<g>
							<g>
								<path fill="#9E4E27" d="M80.34,136.624c-0.292,0.266-0.562,0.521-0.809,0.771c-0.246,0.248-0.439,0.464-0.579,0.646
									c-0.138,0.181-0.186,0.3-0.144,0.354c0.04,0.052,0.102,0.066,0.188,0.044s0.188-0.069,0.307-0.143
									c0.12-0.074,0.257-0.173,0.413-0.296c0.154-0.124,0.331-0.267,0.53-0.427c0.217-0.176,0.733-0.595,1.546-1.254
									c0.815-0.661,1.813-1.471,2.999-2.433c1.188-0.956,2.392-2.153,3.778-3.396c1.354-1.279,2.81-2.487,4.098-3.9
									c1.321-1.378,2.602-2.714,3.843-4.009c0.632-0.636,1.179-1.283,1.686-1.899c0.51-0.613,0.988-1.188,1.436-1.726
									c0.889-1.077,1.594-1.95,2.114-2.621c0.521-0.67,0.759-1.023,0.712-1.062c-0.033-0.025-0.329,0.264-0.89,0.87
									c-0.557,0.615-1.287,1.422-2.195,2.427c-0.922,0.998-1.892,2.208-3.115,3.443c-1.221,1.238-2.475,2.511-3.761,3.814
									c-1.252,1.338-2.606,2.52-3.911,3.704c-1.302,1.186-2.477,2.253-3.523,3.204c-1.095,0.893-1.997,1.627-2.707,2.206
									c-0.709,0.578-1.11,0.904-1.2,0.978C80.906,136.123,80.634,136.358,80.34,136.624z"/>
							</g>
						</g>
					</g>
				</g>
			</g>
			<g>
				<g>
					<g>
						<g>
							<g>
								<path fill="#9E4E27" d="M80.878,145.053c0.067,0.444,0.141,0.861,0.219,1.253c0.078,0.39,0.157,0.709,0.237,0.957
									c0.08,0.245,0.154,0.368,0.223,0.363c0.064-0.004,0.11-0.054,0.138-0.148c0.027-0.096,0.042-0.223,0.043-0.383
									c0.001-0.162-0.008-0.355-0.03-0.582c-0.023-0.225-0.049-0.484-0.079-0.777c-0.033-0.318-0.112-1.076-0.236-2.271
									c-0.125-1.197-0.477-2.636-0.786-4.359c-0.133-0.867-0.417-1.748-0.677-2.685c-0.27-0.934-0.533-1.921-0.846-2.942
									c-0.378-1-0.758-2.007-1.14-3.02c-0.199-0.503-0.367-1.021-0.594-1.516l-0.707-1.478c-0.484-0.982-0.915-1.975-1.425-2.904
									c-0.54-0.915-1.072-1.814-1.595-2.7c-0.269-0.438-0.503-0.882-0.781-1.28c-0.283-0.395-0.559-0.777-0.826-1.148
									c-0.536-0.74-1.04-1.435-1.51-2.084c-0.976-1.268-1.886-2.187-2.526-2.916c-0.658-0.717-1.007-1.054-1.051-1.013
									c-0.031,0.028,0.246,0.413,0.829,1.153c0.571,0.75,1.391,1.687,2.31,2.931c0.437,0.641,0.904,1.326,1.402,2.056
									c0.493,0.731,1.059,1.48,1.521,2.361c0.492,0.86,0.991,1.732,1.496,2.615c0.534,0.868,0.895,1.842,1.36,2.775
									c0.221,0.473,0.441,0.942,0.66,1.41l0.327,0.7l0.267,0.722c0.356,0.959,0.708,1.909,1.058,2.85
									c0.385,0.929,0.58,1.867,0.84,2.732c0.244,0.871,0.474,1.693,0.691,2.469c0.33,1.574,0.559,2.879,0.764,3.902
									c0.225,1.019,0.236,1.611,0.262,1.74C80.757,144.202,80.81,144.608,80.878,145.053z"/>
							</g>
						</g>
					</g>
				</g>
			</g>
		</g>
		<g>
			<path fill="#F9B05F" d="M217.661,168.174l-36.723-29.457c0,0-2.677-46.671-9.947-45.907c-7.271,0.766-4.589,25.633-4.589,25.633
				s-37.492-34.814-42.083-32.52c-4.592,2.297,15.686,29.457,15.686,29.457s-26.397-28.691-29.457-24.865
				c-3.062,3.824,0,9.563,0,9.563s-3.485,7.466-1.361,11.769c0,0-1.315,10.035,5.188,20.366c6.503,10.33,33.663,32.899,44.373,35.96
				c10.715,3.061,35.582,29.075,35.582,29.075L217.661,168.174z"/>
			<g>
				<g>
					<g>
						<g>
							<g>
								<path fill="#9E4E27" d="M165.872,145.762c0.283,0.274,0.613,0.463,0.897,0.665c0.29,0.192,0.535,0.337,0.736,0.436
									c0.199,0.096,0.319,0.115,0.36,0.06c0.039-0.052,0.038-0.118-0.001-0.199c-0.038-0.08-0.103-0.169-0.195-0.27
									c-0.093-0.102-0.211-0.213-0.355-0.336c-0.146-0.122-0.313-0.262-0.502-0.42c-0.226-0.15-0.66-0.62-1.354-1.349
									c-0.369-0.346-0.682-0.816-1.063-1.303c-0.399-0.476-0.751-1.053-1.123-1.686c-0.775-1.246-1.396-2.767-1.918-4.476
									c-0.173-0.877-0.447-1.744-0.495-2.652c-0.037-0.45-0.118-0.9-0.122-1.355l0.013-1.371c0.098-1.827,0.408-3.602,1.005-5.224
									c0.15-0.404,0.264-0.812,0.433-1.183c0.174-0.369,0.343-0.728,0.507-1.075c0.294-0.716,0.732-1.298,1.062-1.888
									c0.322-0.597,0.752-1.038,1.058-1.489c0.309-0.451,0.634-0.801,0.916-1.103c0.555-0.613,0.814-0.944,0.774-0.99
									c-0.028-0.031-0.338,0.229-0.937,0.784c-0.623,0.53-1.313,1.369-2.119,2.446c-0.758,1.113-1.562,2.444-2.153,4.076
									c-0.673,1.605-0.981,3.381-1.191,5.198c-0.009,0.458-0.018,0.915-0.026,1.368l-0.011,0.681l0.065,0.673
									c0.045,0.448,0.089,0.895,0.133,1.338c0.093,0.437,0.185,0.87,0.276,1.303c0.146,0.875,0.484,1.65,0.72,2.41
									c0.268,0.75,0.632,1.414,0.917,2.063c0.337,0.622,0.691,1.165,0.987,1.668c0.305,0.498,0.657,0.889,0.927,1.262
									c0.537,0.747,0.938,1.086,1.01,1.178C165.325,145.237,165.583,145.491,165.872,145.762z"/>
							</g>
						</g>
					</g>
				</g>
			</g>
			<g>
				<g>
					<g>
						<g>
							<g>
								<path fill="#9E4E27" d="M134.749,125.629c0.324,0.319,0.635,0.613,0.935,0.882c0.298,0.268,0.554,0.478,0.766,0.628
									c0.21,0.148,0.341,0.2,0.392,0.152c0.047-0.044,0.052-0.113,0.015-0.208c-0.036-0.095-0.102-0.205-0.197-0.336
									s-0.22-0.279-0.372-0.448c-0.153-0.167-0.329-0.358-0.528-0.575c-0.217-0.235-0.733-0.795-1.547-1.678
									c-0.816-0.884-1.815-1.968-3.003-3.255c-1.187-1.284-2.505-2.711-3.955-4.279c-1.442-1.577-2.945-3.133-4.381-4.787
									c-1.457-1.635-2.869-3.219-4.238-4.755c-1.378-1.523-2.604-2.881-3.682-4.072c-1.081-1.182-1.961-2.125-2.638-2.828
									s-1.038-1.035-1.084-0.996c-0.031,0.027,0.255,0.406,0.861,1.137c0.615,0.729,1.424,1.686,2.431,2.877
									c1.022,1.187,2.187,2.537,3.494,4.055c1.315,1.512,2.666,3.065,4.052,4.659c1.373,1.604,2.782,3.122,4.155,4.62
									c1.373,1.495,2.612,2.844,3.715,4.046c1.105,1.198,2.015,2.184,2.731,2.961c0.717,0.774,1.121,1.212,1.212,1.311
									C134.136,125.012,134.425,125.309,134.749,125.629z"/>
							</g>
						</g>
					</g>
				</g>
			</g>
			<g>
				<g>
					<g>
						<g>
							<g>
								<path fill="#9E4E27" d="M131.111,137.141c0.319,0.233,0.626,0.446,0.92,0.638c0.292,0.19,0.541,0.334,0.746,0.433
									c0.202,0.097,0.325,0.117,0.368,0.063c0.039-0.052,0.038-0.117-0.003-0.198c-0.04-0.081-0.107-0.172-0.204-0.274
									c-0.098-0.103-0.221-0.217-0.373-0.343c-0.151-0.125-0.326-0.269-0.522-0.431c-0.215-0.176-0.728-0.594-1.534-1.253
									c-0.808-0.66-1.799-1.47-2.975-2.431c-1.179-0.955-2.375-2.148-3.755-3.385c-1.347-1.273-2.799-2.47-4.087-3.87
									c-1.328-1.358-2.615-2.675-3.864-3.951c-0.64-0.623-1.196-1.256-1.716-1.855c-0.527-0.594-1.021-1.15-1.484-1.671
									c-0.927-1.037-1.683-1.863-2.267-2.479c-0.585-0.616-0.899-0.905-0.946-0.867c-0.033,0.025,0.208,0.36,0.723,1.006
									c0.525,0.644,1.214,1.488,2.072,2.539c0.886,1.034,1.825,2.277,3.026,3.543c1.202,1.265,2.438,2.564,3.705,3.896
									c1.238,1.363,2.582,2.567,3.88,3.771c1.299,1.201,2.47,2.285,3.513,3.251c1.097,0.901,2,1.643,2.712,2.228
									c0.713,0.58,1.115,0.908,1.206,0.981C130.504,136.687,130.79,136.907,131.111,137.141z"/>
							</g>
						</g>
					</g>
				</g>
			</g>
			<g>
				<g>
					<g>
						<g>
							<g>
								<path fill="#9E4E27" d="M130.328,144.981c-0.026,0.453-0.043,0.881-0.048,1.282c-0.005,0.4,0.006,0.728,0.032,0.984
									c0.026,0.254,0.074,0.383,0.144,0.388c0.064,0.004,0.12-0.039,0.167-0.13c0.047-0.09,0.088-0.211,0.123-0.367
									c0.035-0.157,0.065-0.346,0.091-0.569c0.024-0.223,0.053-0.479,0.085-0.767c0.033-0.314,0.113-1.063,0.24-2.242
									c0.128-1.182,0.48-2.601,0.79-4.301c0.133-0.856,0.415-1.726,0.673-2.649c0.268-0.922,0.527-1.896,0.837-2.904
									c0.372-0.988,0.746-1.981,1.122-2.982c0.195-0.496,0.359-1.009,0.582-1.498l0.692-1.462
									c0.474-0.972,0.893-1.954,1.389-2.878c0.523-0.909,1.038-1.805,1.546-2.686c0.26-0.437,0.483-0.879,0.751-1.277
									c0.272-0.396,0.537-0.78,0.793-1.152c0.51-0.747,0.988-1.449,1.436-2.104c0.922-1.289,1.771-2.245,2.345-3.025
									c0.591-0.767,0.865-1.171,0.82-1.212c-0.03-0.028-0.359,0.308-0.991,1.011c-0.618,0.714-1.485,1.62-2.45,2.842
									c-0.459,0.633-0.948,1.309-1.47,2.028c-0.515,0.726-1.102,1.471-1.584,2.349c-0.512,0.86-1.029,1.731-1.555,2.614
									c-0.553,0.869-0.932,1.846-1.414,2.782c-0.985,1.87-1.677,3.823-2.402,5.721c-0.397,0.936-0.604,1.883-0.873,2.757
									c-0.253,0.88-0.492,1.712-0.717,2.496c-0.344,1.592-0.581,2.913-0.788,3.949c-0.228,1.032-0.24,1.632-0.266,1.764
									C130.389,144.112,130.355,144.526,130.328,144.981z"/>
							</g>
						</g>
					</g>
				</g>
			</g>
		</g>
		<g>
			<g>
				<path fill="#FFFFFF" d="M110.338,73.508c-6.631,1.27-7.662,2.301-8.937,8.932c-1.271-6.631-2.302-7.663-8.932-8.932
					c6.63-1.275,7.661-2.307,8.932-8.938C102.676,71.202,103.707,72.233,110.338,73.508z"/>
			</g>
			<g>
				<path fill="#FFFFFF" d="M87.123,59.015c-8.94,1.714-10.332,3.104-12.05,12.045c-1.712-8.94-3.104-10.331-12.044-12.045
					c8.94-1.717,10.332-3.108,12.044-12.048C76.791,55.907,78.183,57.298,87.123,59.015z"/>
			</g>
			<g>
				<path fill="#FFFFFF" d="M134.518,42.705c-15.305,2.938-17.686,5.318-20.625,20.625c-2.935-15.307-5.314-17.688-20.619-20.625
					c15.305-2.937,17.685-5.318,20.619-20.625C116.832,37.387,119.213,39.768,134.518,42.705z"/>
			</g>
		</g>
	</g>
</g>
<path fill="none" stroke="#FFFFFF" stroke-width="2" stroke-miterlimit="10" d="M192.354,101.249
	c0,51.045-41.38,92.425-92.425,92.425s-92.427-41.38-92.427-92.425c0-51.048,41.382-92.428,92.427-92.428
	S192.354,50.201,192.354,101.249z"/>
</svg>
