<?xml version="1.0" encoding="utf-8"?>
<!-- Generator: Adobe Illustrator 16.0.0, SVG Export Plug-In . SVG Version: 6.00 Build 0)  -->
<!DOCTYPE svg PUBLIC "-//W3C//DTD SVG 1.1//EN" "http://www.w3.org/Graphics/SVG/1.1/DTD/svg11.dtd">
<svg version="1.1" id="Layer_1" xmlns="http://www.w3.org/2000/svg" xmlns:xlink="http://www.w3.org/1999/xlink" x="0px" y="0px"
	 width="200px" height="200px" viewBox="0 0 200 200" enable-background="new 0 0 200 200" xml:space="preserve">
<circle fill="#DBF1FD" stroke="#FFFFFF" stroke-width="2" stroke-miterlimit="10" cx="101.104" cy="101.501" r="89.218"/>
<g>
	<g>
		<defs>
			<circle id="SVGID_1_" cx="101.104" cy="101.501" r="89.218"/>
		</defs>
		<clipPath id="SVGID_2_">
			<use xlink:href="#SVGID_1_"  overflow="visible"/>
		</clipPath>
	</g>
</g>
<circle fill="none" stroke="#FFFFFF" stroke-width="2" stroke-miterlimit="10" cx="101.104" cy="101.501" r="89.218"/>
<g>
	<path fill="#82AADA" d="M143.162,85.68v66.436c0,1.764-1.435,3.195-3.199,3.195H81.771c-1.767,0-3.2-1.434-3.2-3.195V85.68
		c0-9.489,7.699-17.188,17.189-17.188h30.215C135.465,68.492,143.162,76.19,143.162,85.68z"/>
	<rect x="78.57" y="91.644" fill="#4F6EB5" width="64.592" height="49.421"/>
	<g>
		<circle fill="#4F6EB5" stroke="#FFFFFF" stroke-width="0.4183" stroke-miterlimit="10" cx="110.516" cy="115.895" r="13.049"/>
		<polygon fill="#FFFFFF" points="118.25,113.885 112.524,113.885 112.524,108.16 108.508,108.16 108.508,113.885 102.782,113.885 
			102.782,117.904 108.508,117.904 108.508,123.629 112.524,123.629 112.524,117.904 118.25,117.904 		"/>
	</g>
	<path fill="#263572" d="M118.42,59.336h-15.105c-1.116,0-2.021,0.906-2.021,2.022v7.134h19.148v-7.134
		C120.441,60.242,119.536,59.336,118.42,59.336z"/>
	<rect x="108.16" y="43.623" fill="#263572" width="5.413" height="17.821"/>
	<path fill="#263572" d="M90.907,51.508L90.907,51.508c2.72-3.887,7.337-5.982,12.054-5.473l15.467,1.674
		c3.713,0.401,7.363-1.183,9.604-4.17l0,0c1.02-1.354,0.072-3.289-1.621-3.322l-26.83-0.52c-4.994-0.097-9.601,2.674-11.855,7.133
		l-1.73,3.418L90.907,51.508z"/>
	
		<line fill="none" stroke="#FFFFFF" stroke-width="1.3845" stroke-linecap="round" stroke-miterlimit="10" x1="168.575" y1="156.854" x2="33.631" y2="156.854"/>
</g>
<g>
	<path opacity="0.4" fill="#FFFFFF" enable-background="new    " d="M58.744,73.344c0,5.188-4.208,9.395-9.396,9.395
		c-5.188,0-9.396-4.207-9.396-9.395c0-5.191,4.208-9.396,9.396-9.396C54.536,63.947,58.744,68.152,58.744,73.344z"/>
	<circle opacity="0.4" fill="#FFFFFF" enable-background="new    " cx="55.979" cy="79.999" r="4.526"/>
	<path opacity="0.4" fill="#FFFFFF" enable-background="new    " d="M153.277,47.394c5.188,0.108,9.303,4.401,9.193,9.591
		c-0.107,5.188-4.401,9.303-9.59,9.195c-5.189-0.109-9.306-4.403-9.197-9.59C143.795,51.401,148.09,47.283,153.277,47.394z"/>
	<circle opacity="0.4" fill="#FFFFFF" enable-background="new    " cx="159.873" cy="50.297" r="4.527"/>
	<circle fill="none" stroke="#FFFFFF" stroke-width="0.6923" stroke-miterlimit="10" cx="66.4" cy="45.601" r="4.526"/>
	<circle fill="none" stroke="#FFFFFF" stroke-width="0.6923" stroke-miterlimit="10" cx="153.99" cy="97.444" r="4.526"/>
	<circle fill="#FFFFFF" cx="74.447" cy="59.909" r="1.536"/>
	<circle fill="#FFFFFF" cx="128.45" cy="30.38" r="1.536"/>
	<circle fill="#FFFFFF" cx="155.346" cy="79.998" r="1.537"/>
	<path fill="#FFFFFF" d="M57.514,100.121c0,0.848-0.687,1.533-1.534,1.533c-0.849,0-1.537-0.688-1.537-1.533
		c0-0.852,0.688-1.539,1.537-1.539C56.827,98.582,57.514,99.27,57.514,100.121z"/>
</g>
</svg>
