<?xml version="1.0" encoding="utf-8"?>
<!-- Generator: Adobe Illustrator 16.0.0, SVG Export Plug-In . SVG Version: 6.00 Build 0)  -->
<!DOCTYPE svg PUBLIC "-//W3C//DTD SVG 1.1//EN" "http://www.w3.org/Graphics/SVG/1.1/DTD/svg11.dtd">
<svg version="1.1" id="Layer_1" xmlns="http://www.w3.org/2000/svg" xmlns:xlink="http://www.w3.org/1999/xlink" x="0px" y="0px"
	 width="200px" height="200px" viewBox="0 0 200 200" enable-background="new 0 0 200 200" xml:space="preserve">
<circle fill="#DBF1FD" stroke="#FFFFFF" stroke-width="2" stroke-miterlimit="10" cx="100.984" cy="100.129" r="90.249"/>
<g>
	<defs>
		<circle id="SVGID_1_" cx="100.984" cy="100.129" r="90.249"/>
	</defs>
	<clipPath id="SVGID_2_">
		<use xlink:href="#SVGID_1_"  overflow="visible"/>
	</clipPath>
	<g clip-path="url(#SVGID_2_)">
		<g>
			<path fill="#FFFFFF" d="M105.024,64.095c0.073-1.598,0.14-3.239-0.357-4.759c-0.496-1.522-1.685-2.924-3.261-3.199
				c-1.229-0.216-2.505,0.289-3.459,1.094c-1.697,1.433-2.49,3.858-1.962,6.018c-1.296-0.842-2.885-1.455-4.378-1.051
				c-1.794,0.488-2.966,2.467-2.768,4.317c0.195,1.85,1.586,3.452,3.303,4.166c0.345,0.142,0.709,0.26,0.987,0.506
				c0.713,0.63,0.555,1.762,0.828,2.674c0.578,1.932,3.269,2.535,5.004,1.514c0.852,0.737,1.969,1.13,3.053,0.858
				c1.822-0.459,2.759-3.151,1.344-4.389c1.329,1.282,3.484,1.519,5.154,0.736c1.673-0.78,2.841-2.457,3.212-4.265
				c0.241-1.171,0.142-2.488-0.61-3.419C109.749,63.211,107.128,63.574,105.024,64.095z"/>
		</g>
		<g>
			<path fill="#EB9A42" d="M26.15,155.861l38.306-35.831c0,0-0.974-52.072,7.165-51.835c8.141,0.234,7.268,28.084,7.268,28.084
				s38.703-41.844,43.995-39.683c5.295,2.162-14.932,34.049-14.932,34.049s26.897-34.105,30.621-30.114
				c3.723,3.991,0.808,10.624,0.808,10.624s4.504,8,2.507,12.957c0,0,2.313,11.039-4.037,23.064
				c-6.353,12.023-34.614,39.394-46.254,43.699c-11.641,4.306-37.063,35.309-37.063,35.309L26.15,155.861z"/>
			<g>
				<g>
					<g>
						<g>
							<g>
								<path fill="#9E4E27" d="M81.236,126.085c-0.246,0.349-0.54,0.62-0.771,0.921c-0.24,0.291-0.426,0.543-0.559,0.756
									c-0.131,0.211-0.173,0.349-0.122,0.409c0.048,0.056,0.119,0.068,0.211,0.037s0.201-0.091,0.327-0.184
									c0.126-0.093,0.27-0.215,0.43-0.366c0.159-0.152,0.341-0.327,0.548-0.524c0.246-0.195,0.71-0.771,1.452-1.672
									c0.397-0.432,0.72-0.999,1.12-1.593c0.188-0.304,0.418-0.604,0.598-0.951c0.178-0.349,0.363-0.712,0.556-1.09
									c0.789-1.505,1.377-3.313,1.828-5.335c0.125-1.029,0.36-2.056,0.336-3.111c0.003-0.525,0.053-1.053,0.017-1.58l-0.143-1.585
									c-0.021-0.534-0.167-1.045-0.265-1.559c-0.122-0.508-0.179-1.029-0.354-1.515c-0.327-0.977-0.602-1.956-1.059-2.846
									c-0.215-0.448-0.39-0.902-0.625-1.31c-0.242-0.403-0.477-0.795-0.705-1.175c-0.421-0.781-0.995-1.396-1.448-2.021
									c-0.446-0.635-1-1.079-1.416-1.538c-0.419-0.458-0.849-0.796-1.226-1.077c-0.742-0.575-1.13-0.832-1.171-0.776
									c-0.029,0.037,0.288,0.363,0.947,0.974c0.33,0.305,0.726,0.644,1.1,1.107c0.375,0.458,0.866,0.913,1.286,1.52
									c0.873,1.185,1.813,2.588,2.55,4.321c0.824,1.697,1.263,3.597,1.609,5.535c0.039,0.491,0.078,0.98,0.117,1.468l0.058,0.729
									l-0.026,0.727c-0.017,0.483-0.034,0.964-0.051,1.442c-0.069,0.474-0.138,0.945-0.207,1.415
									c-0.093,0.946-0.404,1.802-0.6,2.632c-0.232,0.822-0.576,1.559-0.83,2.275c-0.315,0.69-0.653,1.298-0.93,1.858
									c-0.286,0.558-0.634,1.001-0.89,1.421c-0.511,0.844-0.914,1.236-0.982,1.341C81.724,125.434,81.488,125.74,81.236,126.085z"
									/>
							</g>
						</g>
					</g>
				</g>
			</g>
			<g>
				<g>
					<g>
						<g>
							<g>
								<path fill="#9E4E27" d="M114.077,101.119c-0.295,0.411-0.565,0.805-0.811,1.181c-0.243,0.375-0.43,0.693-0.56,0.954
									c-0.128,0.259-0.162,0.414-0.101,0.464c0.058,0.047,0.135,0.042,0.232-0.013c0.099-0.056,0.21-0.145,0.337-0.271
									c0.128-0.128,0.271-0.289,0.431-0.486c0.158-0.196,0.34-0.424,0.545-0.68c0.222-0.278,0.751-0.943,1.585-1.991
									c0.835-1.049,1.858-2.335,3.074-3.862c1.213-1.527,2.561-3.223,4.042-5.088c1.471-1.875,3.006-3.736,4.454-5.703
									c1.464-1.953,2.884-3.847,4.259-5.683c1.361-1.843,2.573-3.484,3.636-4.923c1.052-1.443,1.887-2.612,2.504-3.507
									c0.618-0.895,0.898-1.362,0.844-1.403c-0.039-0.028-0.39,0.368-1.056,1.19c-0.659,0.832-1.526,1.926-2.606,3.289
									c-1.069,1.378-2.287,2.946-3.655,4.708c-1.36,1.769-2.758,3.585-4.191,5.449c-1.413,1.878-2.869,3.666-4.283,5.432
									c-1.412,1.765-2.685,3.357-3.819,4.775c-1.13,1.42-2.06,2.588-2.793,3.508c-0.73,0.921-1.143,1.44-1.235,1.557
									C114.651,100.338,114.374,100.707,114.077,101.119z"/>
							</g>
						</g>
					</g>
				</g>
			</g>
			<g>
				<g>
					<g>
						<g>
							<g>
								<path fill="#9E4E27" d="M119.168,113.519c-0.302,0.319-0.579,0.628-0.832,0.926c-0.252,0.298-0.447,0.554-0.586,0.769
									c-0.137,0.214-0.18,0.351-0.127,0.41c0.05,0.055,0.121,0.066,0.216,0.035c0.094-0.031,0.203-0.091,0.33-0.183
									c0.128-0.092,0.272-0.212,0.435-0.362c0.16-0.151,0.344-0.324,0.553-0.52c0.226-0.214,0.764-0.722,1.611-1.523
									c0.849-0.803,1.89-1.787,3.126-2.955c1.238-1.163,2.475-2.595,3.91-4.093c1.396-1.536,2.91-3,4.222-4.68
									c1.351-1.643,2.66-3.234,3.93-4.778c0.648-0.76,1.201-1.525,1.712-2.253c0.515-0.724,0.997-1.403,1.448-2.039
									c0.896-1.271,1.604-2.302,2.126-3.091c0.521-0.79,0.754-1.203,0.697-1.242c-0.039-0.027-0.345,0.319-0.917,1.04
									c-0.566,0.729-1.31,1.687-2.236,2.879c-0.94,1.186-1.915,2.611-3.171,4.087c-1.251,1.479-2.537,2.996-3.855,4.554
									c-1.278,1.592-2.683,3.019-4.031,4.444c-1.347,1.426-2.561,2.712-3.643,3.856c-1.141,1.084-2.08,1.976-2.82,2.679
									c-0.739,0.702-1.156,1.098-1.25,1.187C119.754,112.914,119.471,113.198,119.168,113.519z"/>
							</g>
						</g>
					</g>
				</g>
			</g>
			<g>
				<g>
					<g>
						<g>
							<g>
								<path fill="#9E4E27" d="M120.476,122.847c0.113,0.487,0.23,0.944,0.353,1.373c0.121,0.426,0.236,0.773,0.348,1.043
									c0.11,0.265,0.205,0.395,0.283,0.384c0.073-0.011,0.121-0.069,0.145-0.178c0.023-0.109,0.029-0.251,0.019-0.43
									c-0.012-0.18-0.039-0.394-0.082-0.644c-0.044-0.248-0.096-0.534-0.153-0.856c-0.063-0.352-0.215-1.188-0.454-2.505
									c-0.24-1.32-0.753-2.888-1.242-4.777c-0.221-0.952-0.611-1.907-0.979-2.926c-0.378-1.015-0.754-2.089-1.188-3.197
									c-0.505-1.08-1.012-2.166-1.522-3.259c-0.264-0.542-0.493-1.104-0.788-1.634l-0.91-1.583
									c-0.621-1.05-1.184-2.115-1.829-3.105c-0.678-0.971-1.345-1.926-2.002-2.865c-0.335-0.464-0.633-0.937-0.976-1.355
									c-0.349-0.415-0.687-0.817-1.015-1.207c-0.659-0.776-1.277-1.505-1.854-2.187c-1.192-1.325-2.282-2.269-3.056-3.024
									c-0.792-0.741-1.209-1.083-1.256-1.033c-0.033,0.035,0.307,0.439,1.017,1.213c0.697,0.786,1.687,1.758,2.813,3.063
									c0.539,0.675,1.116,1.396,1.73,2.165c0.608,0.772,1.301,1.556,1.888,2.496c0.619,0.914,1.247,1.84,1.883,2.779
									c0.333,0.459,0.622,0.951,0.895,1.457c0.281,0.5,0.565,1.004,0.851,1.511c0.285,0.506,0.569,1.01,0.853,1.511l0.422,0.75
									l0.357,0.779c0.477,1.035,0.949,2.061,1.416,3.077c0.507,0.998,0.803,2.024,1.164,2.964c0.344,0.946,0.67,1.841,0.977,2.684
									c0.499,1.721,0.864,3.15,1.179,4.27c0.336,1.113,0.399,1.77,0.438,1.912C120.269,121.912,120.362,122.358,120.476,122.847z"
									/>
							</g>
						</g>
					</g>
				</g>
			</g>
		</g>
		<g>
			<path fill="#FFFFFF" d="M108.705,96.756c-2.264-3.161-5.487-5.625-9.131-6.98c-0.981-0.365-2.019-0.654-3.064-0.577
				c-2.582,0.192-4.553,2.668-4.938,5.229c-0.385,2.562,0.479,5.145,1.561,7.498c-3.228-2.826-7.6-4.616-11.824-3.87
				c-4.222,0.747-7.99,4.494-7.906,8.781c0.083,4.289,4.875,8.057,8.848,6.445c-1.636,2.736-3.303,5.549-3.896,8.683
				c-0.595,3.134,0.09,6.712,2.522,8.776c2.433,2.063,6.752,1.828,8.332-0.942c1.464,4.934,4.631,9.587,9.314,11.727
				c4.683,2.139,10.921,1.144,13.922-3.04c0.483-0.677,1.033-1.507,1.865-1.491c0.43,0.007,0.813,0.251,1.188,0.462
				c3.325,1.869,7.619,1.427,10.94-0.454s5.774-5.015,7.589-8.373c2.713-5.02,4.167-11.054,2.375-16.473
				c-1.79-5.417-7.545-9.705-13.116-8.472c1.945-5.324-1.436-11.947-6.891-13.49c-5.453-1.544-11.806,2.321-12.941,7.874"/>
		</g>
		<g>
			<path fill="#F9B05F" d="M159.555,185.731l-35.828-38.306c0,0-52.074,0.975-51.837-7.166c0.234-8.139,28.083-7.267,28.083-7.267
				S58.129,94.292,60.292,88.998c2.161-5.293,34.049,14.932,34.049,14.932S60.236,77.034,64.226,73.31
				c3.992-3.723,10.624-0.809,10.624-0.809s8-4.504,12.958-2.507c0,0,11.038-2.312,23.063,4.039
				c12.023,6.351,39.393,34.613,43.698,46.255c4.307,11.639,35.309,37.061,35.309,37.061L159.555,185.731z"/>
			<g>
				<g>
					<g>
						<g>
							<g>
								<path fill="#9E4E27" d="M104.813,97.805c0.411,0.295,0.805,0.565,1.181,0.811c0.375,0.243,0.693,0.43,0.954,0.56
									c0.259,0.128,0.414,0.162,0.464,0.101c0.047-0.058,0.042-0.135-0.013-0.232c-0.056-0.099-0.145-0.21-0.271-0.337
									c-0.128-0.128-0.289-0.271-0.486-0.431c-0.196-0.158-0.423-0.34-0.68-0.545c-0.278-0.222-0.943-0.751-1.991-1.585
									c-1.049-0.835-2.335-1.859-3.862-3.074c-1.527-1.213-3.224-2.561-5.088-4.042c-1.875-1.47-3.736-3.005-5.703-4.454
									c-1.954-1.464-3.848-2.883-5.683-4.259c-1.843-1.361-3.484-2.573-4.923-3.635c-1.443-1.052-2.612-1.887-3.507-2.504
									c-0.895-0.618-1.362-0.898-1.403-0.843c-0.028,0.038,0.368,0.389,1.19,1.055c0.832,0.659,1.926,1.527,3.289,2.607
									c1.377,1.07,2.946,2.288,4.708,3.656c1.769,1.36,3.585,2.758,5.448,4.191c1.878,1.413,3.666,2.87,5.432,4.283
									c1.765,1.412,3.357,2.685,4.775,3.819c1.42,1.13,2.588,2.06,3.508,2.793c0.921,0.73,1.44,1.143,1.557,1.235
									C104.032,97.23,104.401,97.508,104.813,97.805z"/>
							</g>
						</g>
					</g>
				</g>
			</g>
			<g>
				<g>
					<g>
						<g>
							<g>
								<path fill="#9E4E27" d="M117.214,92.715c0.319,0.302,0.628,0.579,0.926,0.833c0.298,0.251,0.554,0.446,0.769,0.585
									c0.214,0.136,0.351,0.179,0.409,0.126c0.056-0.049,0.067-0.121,0.036-0.215s-0.091-0.204-0.183-0.331
									c-0.092-0.127-0.213-0.271-0.362-0.434c-0.151-0.161-0.324-0.345-0.52-0.553c-0.214-0.226-0.722-0.764-1.523-1.611
									c-0.803-0.849-1.787-1.89-2.955-3.126c-1.164-1.239-2.595-2.475-4.094-3.911c-1.535-1.396-3-2.911-4.679-4.222
									c-1.643-1.351-3.235-2.66-4.779-3.93c-0.76-0.649-1.525-1.201-2.253-1.712c-0.724-0.514-1.403-0.997-2.039-1.448
									c-1.272-0.896-2.302-1.604-3.091-2.126c-0.79-0.522-1.203-0.753-1.242-0.697c-0.027,0.039,0.319,0.344,1.04,0.917
									c0.729,0.566,1.687,1.31,2.88,2.236c1.187,0.94,2.611,1.916,4.087,3.17c1.479,1.252,2.997,2.538,4.555,3.856
									c1.591,1.278,3.018,2.683,4.444,4.031c1.426,1.347,2.711,2.561,3.856,3.643c1.084,1.141,1.976,2.08,2.679,2.82
									c0.701,0.739,1.098,1.156,1.187,1.25C116.609,92.129,116.894,92.412,117.214,92.715z"/>
							</g>
						</g>
					</g>
				</g>
			</g>
		</g>
		<g>
			<path fill="none" stroke="#4F6EB5" stroke-width="1.3547" stroke-linecap="round" stroke-miterlimit="10" d="M133.403,113.625
				c0,6.646-5.386,12.033-12.03,12.033c-6.646,0-12.032-5.387-12.032-12.033c0-6.645,5.387-12.032,12.032-12.032"/>
			
				<polyline fill="none" stroke="#4F6EB5" stroke-width="1.3547" stroke-linecap="round" stroke-linejoin="round" stroke-miterlimit="10" points="
				117.679,99.105 121.373,101.593 118.885,105.286 			"/>
		</g>
		<g>
			<path fill="#FFFFFF" d="M163.046,100.057c-0.41-0.259-0.854-0.489-1.157-0.867c-0.775-0.967-0.324-2.384-0.473-3.615
				c-0.318-2.608-3.64-3.977-6.094-3.046c-0.929-1.135-2.279-1.885-3.731-1.773c-2.44,0.188-4.23,3.437-2.69,5.338
				c-1.422-1.938-4.138-2.714-6.457-2.081c-2.319,0.635-4.186,2.531-5.061,4.77c-0.567,1.452-0.73,3.164,0.032,4.525
				c1.381,2.464,4.824,2.573,7.643,2.368c-0.445,2.037-0.893,4.128-0.589,6.19c0.301,2.063,1.52,4.124,3.483,4.824
				c1.531,0.549,3.279,0.181,4.681-0.644c2.495-1.467,4.046-4.407,3.846-7.294c1.479,1.366,3.381,2.502,5.387,2.312
				c2.412-0.23,4.352-2.515,4.507-4.933C166.526,103.715,165.095,101.351,163.046,100.057z"/>
		</g>
		<g>
			<circle opacity="0.4" fill="#FFFFFF" cx="56.231" cy="93.967" r="9.093"/>
			<circle opacity="0.4" fill="#FFFFFF" cx="62.648" cy="100.408" r="4.381"/>
			<circle opacity="0.4" fill="#FFFFFF" cx="156.62" cy="77.945" r="9.093"/>
			<circle opacity="0.4" fill="#FFFFFF" cx="163.194" cy="71.664" r="4.381"/>
			<circle fill="none" stroke="#FFFFFF" stroke-width="0.6774" stroke-miterlimit="10" cx="72.734" cy="67.12" r="4.381"/>
			<circle fill="none" stroke="#FFFFFF" stroke-width="0.6774" stroke-miterlimit="10" cx="82.809" cy="102.196" r="4.38"/>
			<circle fill="none" stroke="#FFFFFF" stroke-width="0.6774" stroke-miterlimit="10" cx="167.575" cy="121.673" r="4.381"/>
			<circle fill="#FFFFFF" cx="80.521" cy="80.966" r="1.487"/>
			<circle fill="#FFFFFF" cx="86.828" cy="53.876" r="1.488"/>
			<circle fill="#FFFFFF" cx="132.784" cy="52.39" r="1.487"/>
			<circle fill="#FFFFFF" cx="167.576" cy="92.782" r="1.486"/>
			<circle fill="#FFFFFF" cx="62.649" cy="119.882" r="1.486"/>
			<circle fill="#FFFFFF" cx="47.138" cy="112.256" r="1.488"/>
		</g>
	</g>
</g>
<circle fill="none" stroke="#FFFFFF" stroke-width="2" stroke-miterlimit="10" cx="100.984" cy="100.129" r="90.249"/>
</svg>
