<?xml version="1.0" encoding="utf-8"?>
<!-- Generator: Adobe Illustrator 16.0.0, SVG Export Plug-In . SVG Version: 6.00 Build 0)  -->
<!DOCTYPE svg PUBLIC "-//W3C//DTD SVG 1.1//EN" "http://www.w3.org/Graphics/SVG/1.1/DTD/svg11.dtd">
<svg version="1.1" id="Layer_1" xmlns="http://www.w3.org/2000/svg" xmlns:xlink="http://www.w3.org/1999/xlink" x="0px" y="0px"
	 width="200px" height="200px" viewBox="0 0 200 200" enable-background="new 0 0 200 200" xml:space="preserve">
<circle fill="#DBF1FD" stroke="#FFFFFF" stroke-width="2" stroke-miterlimit="10" cx="99.899" cy="101.502" r="91.499"/>
<g>
	<defs>
		<circle id="SVGID_1_" cx="99.899" cy="101.502" r="91.499"/>
	</defs>
	<clipPath id="SVGID_2_">
		<use xlink:href="#SVGID_1_"  overflow="visible"/>
	</clipPath>
	<g clip-path="url(#SVGID_2_)">
		<g>
			<path fill="#FFFFFF" d="M156.146,79.268c-1.068-0.153-2.149-0.048-3.176,0.254c-0.303-2.229-1.909-4.419-4.141-5.027
				c-3.62-0.986-7.554,1.557-8.992,5.021c-0.698,1.686-0.896,3.637-0.332,5.352c-0.83-1.448-2.536-2.357-4.215-2.736
				c-3.249-0.733-6.922,0.104-9.219,2.517c-2.297,2.414-2.886,6.435-1.012,9.188c1.875,2.755,6.216,3.585,8.742,1.412
				c-0.892,2.25-1.796,4.561-1.846,6.98c-0.048,2.421,0.937,5.014,3.038,6.216c2.532,1.45,5.982,0.362,7.811-1.913
				c1.722-2.146,2.206-5.056,1.955-7.809c0.382,2.229,2.799,3.903,5.089,3.659c2.461-0.262,4.49-2.363,5.09-4.765
				c0.481-1.937,0.142-3.997-0.689-5.827c1.162,1.401,3.37,1.968,5.115,1.263c2.206-0.89,3.531-3.324,3.597-5.702
				C163.067,83.496,159.962,79.814,156.146,79.268z"/>
		</g>
		<g>
			<path fill="#FFFFFF" d="M48.984,70.276c0.083-1.824,0.161-3.696-0.405-5.434c-0.567-1.736-1.924-3.335-3.725-3.65
				c-1.404-0.246-2.857,0.329-3.947,1.249c-1.938,1.637-2.84,4.405-2.24,6.869c-1.48-0.961-3.291-1.661-4.996-1.198
				c-2.048,0.557-3.384,2.815-3.16,4.926c0.225,2.112,1.809,3.942,3.771,4.756c0.393,0.162,0.811,0.297,1.129,0.578
				c0.813,0.72,0.632,2.011,0.944,3.052c0.658,2.206,3.729,2.896,5.712,1.729c0.97,0.841,2.247,1.289,3.485,0.979
				c2.079-0.524,3.145-3.595,1.532-5.01c1.517,1.463,3.975,1.733,5.884,0.842s3.241-2.805,3.666-4.869
				c0.274-1.337,0.161-2.84-0.697-3.902C54.378,69.267,51.388,69.683,48.984,70.276z"/>
		</g>
		<g>
			<path fill="#FFFFFF" d="M62.126,136.548c0.083-1.826,0.159-3.696-0.408-5.436c-0.566-1.735-1.924-3.335-3.725-3.648
				c-1.403-0.247-2.857,0.327-3.947,1.247c-1.938,1.637-2.84,4.406-2.241,6.869c-1.479-0.961-3.291-1.661-4.995-1.198
				c-2.049,0.556-3.385,2.815-3.16,4.925c0.225,2.112,1.811,3.94,3.771,4.756c0.392,0.163,0.811,0.297,1.129,0.58
				c0.813,0.719,0.632,2.009,0.944,3.051c0.658,2.206,3.731,2.895,5.712,1.73c0.97,0.842,2.247,1.288,3.485,0.977
				c2.081-0.523,3.147-3.596,1.532-5.009c1.517,1.463,3.977,1.733,5.884,0.842c1.909-0.892,3.241-2.805,3.666-4.869
				c0.274-1.338,0.161-2.842-0.698-3.901C67.52,135.536,64.528,135.95,62.126,136.548z"/>
		</g>
		<path fill="#EB9A42" d="M88.301,190.567l16.826-28.755c0,0,57.489-44.934,53.283-53.55c-4.207-8.615-36.925,12.43-36.925,12.43
			s27.577-81.564,18.695-84.022c-8.879-2.457-29.913,58.548-29.913,58.548s5.142-64.649-4.206-69.371
			C96.714,21.125,94.844,88.43,94.844,88.43S78.485,31.875,70.072,31.875s7.946,63.342,7.946,63.342S52.312,52.089,44.366,54.134
			s24.771,85.243,24.771,85.243l-33.184,48.14L88.301,190.567z"/>
		<g>
			<path fill="#FFFFFF" d="M91.795,101.456c1.866-3.144,3.771-6.396,4.27-10.018s-0.763-7.743-3.949-9.534
				c-3.524-1.98-8.26-0.329-10.725,2.884c-1.096-1.171-2.299-2.217-3.701-2.996c-2.962-1.647-7.05-1.787-9.455,0.604
				c-1.266,1.258-1.898,3.027-2.214,4.783c-0.459,2.545-0.335,5.194,0.364,7.684c-1.848-2.771-6.164-3.413-8.81-1.388
				c-2.648,2.023-3.204,6.236-1.271,8.949c1.933,2.715,5.98,3.595,8.927,2.036c-2.454,1.624-4.605,3.881-5.505,6.681
				c-0.9,2.801-0.329,6.178,1.876,8.126c2.204,1.948,6.065,1.906,7.854-0.429c-0.782,3.718,0.536,7.807,3.341,10.368
				c1.214,1.107,2.781,1.964,4.422,1.875c1.36-0.074,2.603-0.782,3.697-1.591c3.496-2.589,6.03-6.446,7.018-10.682
				c5.15,3.574,13.485,0.316,14.846-5.803C104.144,106.888,97.974,100.402,91.795,101.456z"/>
		</g>
		<path fill="#F9B05F" d="M117.281,190.567L103.4,164.763c0,0-68.683-39.645-63.607-50.812
			c5.076-11.166,33.838,13.534,33.838,13.534s-19.484-59.5-11.167-62.01s21.317,29.526,21.317,29.526s-1.014-40.943,5.076-41.62
			c6.092-0.677,13.875,39.251,13.875,39.251s7.162-37.808,14.55-35.868c7.389,1.941,4.398,37.222,4.398,37.222
			s12.183-27.746,17.257-25.379c5.076,2.369-5.414,73.768-5.414,73.768l33.16,44.325L117.281,190.567z"/>
		<g>
			<g>
				
					<line fill="none" stroke="#4F6EB5" stroke-width="1.5252" stroke-linecap="round" stroke-miterlimit="10" x1="91.431" y1="106.796" x2="91.431" y2="134.717"/>
				
					<polyline fill="none" stroke="#4F6EB5" stroke-width="1.5252" stroke-linecap="round" stroke-linejoin="round" stroke-miterlimit="10" points="
					87.837,108.485 91.503,104.963 95.022,108.628 				"/>
			</g>
			<g>
				
					<line fill="none" stroke="#4F6EB5" stroke-width="1.5252" stroke-linecap="round" stroke-miterlimit="10" x1="109.599" y1="132.887" x2="109.599" y2="104.963"/>
				
					<polyline fill="none" stroke="#4F6EB5" stroke-width="1.5252" stroke-linecap="round" stroke-linejoin="round" stroke-miterlimit="10" points="
					113.192,131.195 109.527,134.717 106.005,131.054 				"/>
			</g>
		</g>
		<g>
			<circle opacity="0.4" fill="#FFFFFF" cx="35.016" cy="86.633" r="10.379"/>
			<circle opacity="0.4" fill="#FFFFFF" cx="42.34" cy="93.985" r="5.001"/>
			<circle opacity="0.4" fill="#FFFFFF" cx="149.603" cy="68.345" r="10.379"/>
			<circle opacity="0.4" fill="#FFFFFF" cx="157.107" cy="61.177" r="5"/>
			<circle fill="none" stroke="#FFFFFF" stroke-width="0.7626" stroke-miterlimit="10" cx="53.852" cy="55.989" r="5.001"/>
			<circle fill="none" stroke="#FFFFFF" stroke-width="0.7626" stroke-miterlimit="10" cx="65.352" cy="96.025" r="5"/>
			<circle fill="none" stroke="#FFFFFF" stroke-width="0.7626" stroke-miterlimit="10" cx="162.107" cy="118.259" r="5.001"/>
			<circle fill="#FFFFFF" cx="62.742" cy="71.793" r="1.697"/>
			<circle fill="#FFFFFF" cx="69.938" cy="40.873" r="1.697"/>
			<circle fill="#FFFFFF" cx="122.396" cy="39.175" r="1.696"/>
			<circle fill="#FFFFFF" cx="162.107" cy="85.28" r="1.697"/>
			<circle fill="#FFFFFF" cx="42.341" cy="116.214" r="1.698"/>
			<circle fill="#FFFFFF" cx="24.636" cy="107.509" r="1.697"/>
		</g>
	</g>
</g>
<circle fill="none" stroke="#FFFFFF" stroke-width="2" stroke-miterlimit="10" cx="99.899" cy="101.502" r="91.499"/>
</svg>
