<?xml version="1.0" encoding="utf-8"?>
<!-- Generator: Adobe Illustrator 16.0.0, SVG Export Plug-In . SVG Version: 6.00 Build 0)  -->
<!DOCTYPE svg PUBLIC "-//W3C//DTD SVG 1.1//EN" "http://www.w3.org/Graphics/SVG/1.1/DTD/svg11.dtd">
<svg version="1.1" id="Layer_1" xmlns="http://www.w3.org/2000/svg" xmlns:xlink="http://www.w3.org/1999/xlink" x="0px" y="0px"
	 width="200px" height="200px" viewBox="0 0 200 200" enable-background="new 0 0 200 200" xml:space="preserve">
<circle fill="#DBF1FD" stroke="#FFFFFF" stroke-width="2" stroke-miterlimit="10" cx="101.5" cy="102" r="89.998"/>
<g>
	<defs>
		<circle id="SVGID_1_" cx="101.5" cy="102" r="89.998"/>
	</defs>
	<clipPath id="SVGID_2_">
		<use xlink:href="#SVGID_1_"  overflow="visible"/>
	</clipPath>
	<g clip-path="url(#SVGID_2_)">
		<g>
			<path fill="#FFFFFF" d="M109.406,73.618c-0.547-1.868-1.908-3.463-3.632-4.353c0.007-0.18,0.015-0.356,0.018-0.536
				c0.013-1.698-0.168-3.496-1.18-4.862c-1.084-1.466-3.095-2.178-4.861-1.724s-3.184,2.047-3.428,3.854
				c-0.054-1.867-0.298-3.777-1.156-5.437c-0.855-1.664-2.414-3.05-4.266-3.301c-2.596-0.352-5.106,1.693-5.885,4.197
				c-0.69,2.221-0.242,4.644,0.742,6.77c-1.434-2.371-4.74-3.533-7.271-2.337c-2.802,1.325-3.968,5.295-2.266,7.886
				c1.445,2.199,4.673,2.868,6.958,1.681c-0.905,1.052-1.175,2.735-1.207,4.204c-0.071,3.224,0.804,7.162,3.891,8.09
				c1.748,0.523,3.713-0.206,4.969-1.526c1.261-1.32,1.886-3.138,2.103-4.95c0.529,1.351,1.49,2.521,2.682,3.346
				c2.189,1.511,5.344,1.745,7.464,0.14c1.813-1.372,2.443-4.15,1.397-6.086c1.029,0.821,2.778,0.804,3.824-0.107
				C109.654,77.395,109.907,75.331,109.406,73.618z"/>
		</g>
		<path fill="#EB9A42" d="M93.753,194.599l-49.949-6.143l27.84-39.714c0,0-24.564-45.859-19.653-49.544
			c4.914-3.683,24.184,23.34,24.184,23.34s-11.082-70.422-4.121-72.472c6.961-2.045,21.699,48.315,21.699,48.315
			s6.551-56.911,13.921-56.092s4.504,56.092,4.504,56.092s20.883-51.591,26.203-49.134c5.325,2.457-10.645,53.636-10.645,53.636
			s27.022-27.839,31.117-24.155c4.094,3.685-43.81,79.429-43.81,79.429L93.753,194.599z"/>
		<g>
			<path fill="#FFFFFF" d="M105.884,149.858c5.749,1.426,11.188-4.701,11.166-10.624c-0.019-5.557-3.936-11.054-9.351-12.284
				c-4.317-0.981-9.145,1.194-11.387,4.89c0.81-3.354,0.33-7.01-2.491-8.739c-3.391-2.077-7.996,0.18-10.212,3.483
				c-0.731,1.091-1.291,2.291-1.672,3.545l-0.098-3.97c-1.81-3.389-6.912-4.757-9.767-2.185c-2.325,2.095-1.712,6.378,0.665,8.03
				c-3.195-0.698-6.81,0.497-8.794,3.131c-0.721,0.956-1.25,2.15-1.059,3.334c0.261,1.64,1.865,2.799,3.499,3.091
				c1.635,0.291,3.305-0.099,4.922-0.486c-5.042,2.021-8.296,7.771-7.43,13.136c0.568,3.519,3.229,6.989,6.787,7.186
				c3.873,0.215,6.88-3.301,8.676-6.735c-2.139,4.213-2.665,9.218-1.447,13.782c0.553,2.079,1.607,4.223,3.559,5.134
				c1.185,0.556,2.546,0.574,3.854,0.497c2.242-0.133,4.541-0.549,6.412-1.785c1.674-1.108,2.933-2.993,2.965-4.969
				c0.493,5.071,6.281,8.885,11.332,7.726c5.281-1.214,8.874-6.85,8.57-12.26C114.276,157.374,110.615,152.502,105.884,149.858z"/>
		</g>
		<path fill="#F9B05F" d="M114.088,194.599l-10.676-25.387c0,0-54.067-20.627-55.583-38.832c0,0,0.407-6.849,33.13,11.633
			c0,0-20.866-48.463-16.336-52.993c4.527-4.527,21.995,16.172,21.995,16.172s-2.491-35.477,4.527-35.904
			s13.584,33.639,13.584,33.639s6.47-37.196,12.292-35.255c5.82,1.94,5.175,35.58,5.175,35.58s10.998-24.905,15.527-21.67
			c4.527,3.235-6.471,33.962-6.471,33.962s1.941,23.935,2.265,31.376l33.639,41.725L114.088,194.599z"/>
		<g>
			<g>
				
					<line fill="none" stroke="#4F6EB5" stroke-width="1.4541" stroke-linecap="round" stroke-miterlimit="10" x1="112.926" y1="118.267" x2="94.413" y2="136.782"/>
				
					<polyline fill="none" stroke="#4F6EB5" stroke-width="1.4541" stroke-linecap="round" stroke-linejoin="round" stroke-miterlimit="10" points="
					109.423,117.004 114.19,117.1 114.097,121.863 				"/>
			</g>
			<g>
				
					<line fill="none" stroke="#4F6EB5" stroke-width="1.4541" stroke-linecap="round" stroke-miterlimit="10" x1="95.673" y1="118.267" x2="114.19" y2="136.782"/>
				
					<polyline fill="none" stroke="#4F6EB5" stroke-width="1.4541" stroke-linecap="round" stroke-linejoin="round" stroke-miterlimit="10" points="
					99.176,117.004 94.413,117.1 94.507,121.863 				"/>
			</g>
		</g>
		<g>
			<path fill="#FFFFFF" d="M144.108,118.719c-0.689-0.384-1.47-0.564-2.259-0.581c0.086-0.077,0.171-0.156,0.246-0.244
				c0.791-0.916,0.929-2.397,0.174-3.34c-0.429-0.532-1.046-0.802-1.711-0.86c0.09-1.003-0.075-1.968-0.703-2.754
				c-1.098-1.37-3.292-1.503-4.771-0.562c-1.479,0.94-2.281,2.705-2.444,4.452c-0.163,1.745,0.232,3.492,0.695,5.184
				c-0.373-1.657-2.261-2.647-3.952-2.475c-1.691,0.174-3.162,1.248-4.326,2.489c-1.532,1.634-2.647,4.315-1.168,5.996
				c0.491,0.562,1.196,0.894,1.916,1.093c2.016,0.558,4.283,0.111,5.942-1.166c-1.173,1.934-1.767,4.384-0.909,6.477
				c0.862,2.093,3.515,3.474,5.523,2.43c0.866-0.45,1.492-1.252,1.998-2.087c1.627-2.682,2.144-6.427,0.082-8.789
				c0.956,1.271,2.268,2.425,3.854,2.563c1.856,0.163,3.675-1.286,4.057-3.11C146.732,121.61,145.738,119.623,144.108,118.719z"/>
		</g>
		<g>
			<circle opacity="0.4" fill="#FFFFFF" cx="35.25" cy="97.333" r="9.733"/>
			<circle opacity="0.4" fill="#FFFFFF" cx="42.12" cy="104.228" r="4.689"/>
			<circle opacity="0.4" fill="#FFFFFF" cx="142.708" cy="80.183" r="9.733"/>
			<path opacity="0.4" fill="#FFFFFF" d="M149.846,68.772c2.587,0.054,4.643,2.197,4.587,4.786
				c-0.054,2.592-2.197,4.646-4.784,4.592c-2.59-0.056-4.646-2.199-4.592-4.789C145.112,70.772,147.256,68.716,149.846,68.772z"/>
			<path fill="none" stroke="#FFFFFF" stroke-width="0.7271" stroke-miterlimit="10" d="M57.605,68.596
				c0,2.589-2.101,4.687-4.69,4.687s-4.688-2.098-4.688-4.687c0-2.592,2.099-4.69,4.688-4.69S57.605,66.004,57.605,68.596z"/>
			<circle fill="none" stroke="#FFFFFF" stroke-width="0.7271" stroke-miterlimit="10" cx="63.698" cy="106.142" r="4.689"/>
			<circle fill="none" stroke="#FFFFFF" stroke-width="0.7271" stroke-miterlimit="10" cx="154.435" cy="126.989" r="4.688"/>
			<circle fill="#FFFFFF" cx="61.25" cy="83.417" r="1.592"/>
			<circle fill="#FFFFFF" cx="68.001" cy="54.42" r="1.592"/>
			<circle fill="#FFFFFF" cx="117.193" cy="52.827" r="1.591"/>
			<circle fill="#FFFFFF" cx="154.434" cy="96.064" r="1.592"/>
			<circle fill="#FFFFFF" cx="42.12" cy="125.072" r="1.592"/>
			<circle fill="#FFFFFF" cx="25.517" cy="116.909" r="1.592"/>
		</g>
	</g>
</g>
<circle fill="none" stroke="#FFFFFF" stroke-width="2" stroke-miterlimit="10" cx="101.5" cy="102" r="89.998"/>
</svg>
