<?xml version="1.0" encoding="utf-8"?>
<!-- Generator: Adobe Illustrator 16.0.0, SVG Export Plug-In . SVG Version: 6.00 Build 0)  -->
<!DOCTYPE svg PUBLIC "-//W3C//DTD SVG 1.1//EN" "http://www.w3.org/Graphics/SVG/1.1/DTD/svg11.dtd">
<svg version="1.1" id="Layer_1" xmlns="http://www.w3.org/2000/svg" xmlns:xlink="http://www.w3.org/1999/xlink" x="0px" y="0px"
	 width="200px" height="200px" viewBox="0 0 200 200" enable-background="new 0 0 200 200" xml:space="preserve">
<circle fill="#DBF1FD" stroke="#FFFFFF" stroke-width="2" stroke-miterlimit="10" cx="100.5" cy="102.501" r="91.749"/>
<g>
	<defs>
		<circle id="SVGID_1_" cx="100.5" cy="102.501" r="91.749"/>
	</defs>
	<clipPath id="SVGID_2_">
		<use xlink:href="#SVGID_1_"  overflow="visible"/>
	</clipPath>
	<g clip-path="url(#SVGID_2_)">
		<g>
			<path fill="#EB9A42" d="M116.534,79.224c0,0-4.704-8.82-11.761-10.583c-7.056-1.766-31.461-2.059-37.635,2.645
				c-6.174,4.704-22.346,19.113-22.346,19.113l-37.34-1.516v54.44l38.81-6.048c0,0,12.055,6.341,19.993,7.812
				c7.939,1.471,27.051,2.609,32.931-7.812C105.067,126.857,116.534,79.224,116.534,79.224z"/>
			<g>
				<g>
					<g>
						<g>
							<g>
								<path fill="#9E4E27" d="M56.464,117.522c-0.289,0.028-0.561,0.067-0.818,0.117c-0.256,0.05-0.468,0.109-0.636,0.179
									c-0.165,0.07-0.252,0.15-0.257,0.241c-0.004,0.084,0.023,0.149,0.082,0.197s0.14,0.084,0.244,0.107
									c0.105,0.023,0.231,0.037,0.381,0.039c0.149,0.001,0.32,0.001,0.513,0.002c0.21,0,0.712-0.001,1.501-0.003
									c0.792-0.002,1.751-0.172,2.896-0.283c0.576-0.038,1.164-0.198,1.787-0.335c0.622-0.145,1.28-0.28,1.959-0.455
									c0.665-0.228,1.333-0.457,2.006-0.688c0.333-0.122,0.679-0.218,1.005-0.363l0.975-0.456
									c0.647-0.314,1.303-0.588,1.911-0.928c0.594-0.365,1.179-0.726,1.754-1.079c0.588-0.334,1.092-0.727,1.557-1.107
									c0.467-0.375,0.906-0.727,1.316-1.057c0.792-0.688,1.334-1.346,1.768-1.808c0.423-0.477,0.604-0.739,0.547-0.793
									c-0.04-0.037-0.296,0.142-0.767,0.534c-0.479,0.383-1.06,0.944-1.847,1.563c-0.409,0.292-0.846,0.604-1.311,0.936
									c-0.467,0.328-0.938,0.712-1.51,1.007c-0.555,0.319-1.117,0.644-1.687,0.973c-0.556,0.352-1.197,0.562-1.802,0.856
									c-1.207,0.605-2.478,0.976-3.706,1.385c-0.605,0.234-1.22,0.313-1.786,0.452c-0.569,0.125-1.107,0.243-1.614,0.355
									c-1.029,0.12-1.876,0.22-2.544,0.298c-0.665,0.101-1.046,0.06-1.13,0.069C57.017,117.479,56.753,117.494,56.464,117.522z"/>
							</g>
						</g>
					</g>
				</g>
			</g>
		</g>
		<g>
			<path fill="#FFFFFF" d="M121.988,80.424l1.879,0.475c2.082-4.46,1.396-10.079-1.694-13.91c-0.798-0.988-1.953-1.927-3.2-1.691
				c-0.804,0.155-1.434,0.769-1.955,1.398c-1.683,2.035-2.78,4.55-3.124,7.168c-1.587-3.986-5.26-7.072-9.458-7.95
				c-3.441-0.717-7.71,0.487-8.862,3.809c-0.936,2.699,0.509,5.496,2.311,7.834c-2.522-2.701-6.386-4.178-10.008-3.458
				c-4.111,0.82-7.532,4.651-7.514,8.845c0.017,4.191,3.789,8.117,7.978,7.964c-2.76,0.155-5.578,0.321-8.142,1.354
				c-2.563,1.034-4.874,3.11-5.436,5.817c-0.98,4.712,3.88,9,8.685,9.312c4.804,0.311,9.317-2.091,13.53-4.421
				c1.825,6.152,9.7,9.491,15.558,6.871c5.857-2.62,8.681-10.295,6.286-16.249c2.561,1.628,6.283,3.129,8.27,0.835
				c0.528-0.612,0.806-1.399,0.981-2.185C129.114,87.549,126.413,82.301,121.988,80.424z"/>
		</g>
		<g>
			<path fill="#FFFFFF" d="M111.83,133.754c-0.72-4.163-3.757-8.019-7.854-9.042c-3.793-0.949-8.228,1.023-9.76,4.552
				c0.789-2.771-0.388-6.015-2.757-7.712c-2.621-1.882-6.37-1.869-9.145-0.22c-2.772,1.647-4.539,4.756-4.854,7.967l0.619-5.287
				c-4.813-1.79-10.808,2.106-11.125,7.231c-0.064,1.03,0.104,2.148,0.829,2.88c0.444,0.451,1.048,0.702,1.65,0.893
				c2.891,0.918,6.134,0.632,8.838-0.732c-4.219,2.607-6.844,7.671-6.431,12.629c0.098,1.183,0.371,2.392,1.087,3.34
				c0.876,1.161,2.316,1.781,3.752,2.014c5.388,0.869,10.938-4.019,10.756-9.475c0.452,3.287,2.367,6.449,5.324,7.955
				c2.956,1.508,6.916,1.068,9.167-1.368c1.754-1.897,2.109-4.948,0.97-7.199c1.76,1.272,4.57,1.248,6.365-0.156
				C111.647,140.153,112.348,136.741,111.83,133.754z"/>
		</g>
		<g>
			<path fill="#FFFFFF" d="M58.642,77.378c-0.089-1.913-0.408-3.864-1.377-5.515c-0.969-1.649-2.689-2.951-4.601-3.009
				c-2.109-0.065-4.072,1.434-4.931,3.361c-0.5,1.124-0.662,2.36-0.584,3.591c-0.646-1.248-1.823-2.231-3.207-2.5
				c-2.269-0.444-4.747,1.097-5.355,3.326c-0.34,1.244-0.069,2.594,0.612,3.681c-0.485-0.039-0.979,0.046-1.405,0.286
				c-1.386,0.774-1.872,2.688-1.3,4.17c0.572,1.482,1.994,2.515,3.521,2.953c0.258,0.074,0.519,0.128,0.782,0.173
				c-0.206,1.248,0.229,2.633,1.223,3.444c1.513,1.237,3.942,1.033,5.351-0.319c0.912-0.876,1.366-2.142,1.362-3.409
				c0.637,1.084,1.862,1.922,3.111,2.281c0.84,0.243,1.771,0.341,2.571-0.013c1.31-0.583,1.85-2.179,1.883-3.612
				c0.033-1.381-0.285-2.767-0.895-4.008c0.125,0.03,0.254,0.048,0.385,0.048c1.067,0.004,2.006-0.811,2.443-1.786
				C58.665,79.547,58.69,78.444,58.642,77.378z"/>
		</g>
		<g>
			<path fill="#F9B05F" d="M191.54,86.862l-42.731-1.625c0,0-6.104-9.691-35.815-8.102c-29.71,1.589-35.408,10.136-36.629,30.484
				c-1.22,20.351-4.07,31.785,25.233,31.358c0,0,0.813,13.412,16.279,12.19c15.465-1.222,33.779-21.103,33.779-21.103l43.956,8.912
				L191.54,86.862z"/>
			<g>
				<g>
					<g>
						<g>
							<g>
								<path fill="#9E4E27" d="M125.709,135.099c0.315-0.073,0.611-0.154,0.888-0.243c0.275-0.088,0.498-0.18,0.67-0.274
									c0.17-0.095,0.25-0.187,0.239-0.276c-0.011-0.084-0.052-0.145-0.124-0.183c-0.071-0.038-0.165-0.062-0.281-0.069
									c-0.117-0.007-0.256-0.001-0.417,0.02c-0.16,0.021-0.345,0.047-0.554,0.075c-0.227,0.032-0.766,0.108-1.616,0.229
									c-0.853,0.12-1.897,0.269-3.138,0.443c-1.239,0.173-2.598,0.478-4.101,0.753c-1.498,0.306-3.03,0.54-4.545,0.946
									c-1.52,0.379-2.993,0.747-4.422,1.104c-1.43,0.345-2.663,0.797-3.758,1.133c-1.09,0.354-1.961,0.655-2.613,0.901
									c-0.653,0.246-0.967,0.406-0.943,0.48c0.017,0.052,0.354,0.002,1.016-0.149c0.66-0.151,1.528-0.366,2.605-0.645
									c1.083-0.265,2.296-0.639,3.688-0.948c1.391-0.314,2.818-0.637,4.282-0.968c1.457-0.361,2.91-0.604,4.33-0.865
									c1.419-0.263,2.698-0.5,3.837-0.711c1.146-0.164,2.09-0.299,2.833-0.405c0.742-0.107,1.161-0.168,1.255-0.182
									C125.103,135.227,125.392,135.171,125.709,135.099z"/>
							</g>
						</g>
					</g>
				</g>
			</g>
			<g>
				<g>
					<g>
						<g>
							<g>
								<path fill="#9E4E27" d="M93.352,111.92c0.283-0.195,0.543-0.39,0.782-0.584c0.238-0.193,0.423-0.369,0.558-0.527
									c0.132-0.156,0.178-0.275,0.136-0.355c-0.04-0.074-0.103-0.114-0.188-0.121c-0.084-0.006-0.185,0.01-0.302,0.051
									c-0.118,0.04-0.252,0.103-0.404,0.188c-0.15,0.086-0.323,0.185-0.519,0.296c-0.212,0.122-0.717,0.413-1.512,0.872
									c-0.813,0.434-1.74,1.079-2.855,1.819c-0.553,0.376-1.153,0.751-1.754,1.187c-0.59,0.451-1.21,0.925-1.859,1.422
									c-1.328,0.958-2.539,2.089-3.803,3.188c-1.271,1.087-2.411,2.282-3.398,3.534c-0.974,1.264-1.694,2.522-2.099,3.719
									c-0.417,1.191-0.501,2.227-0.445,2.984c0.052,0.763,0.208,1.121,0.269,1.109c0.068-0.009,0.031-0.37,0.069-1.077
									c0.034-0.706,0.179-1.638,0.615-2.713c0.428-1.077,1.111-2.226,2.051-3.39c0.939-1.163,2.025-2.264,3.234-3.299
									c0.606-0.518,1.206-1.029,1.8-1.536c0.586-0.518,1.182-1.01,1.805-1.457c1.236-0.903,2.293-1.797,3.343-2.441
									c1.023-0.681,1.865-1.24,2.528-1.682c0.686-0.402,1.073-0.629,1.16-0.68C92.805,112.284,93.069,112.116,93.352,111.92z"/>
							</g>
						</g>
					</g>
				</g>
			</g>
			<g>
				<g>
					<g>
						<g>
							<g>
								<path fill="#9E4E27" d="M101.411,97.49c0.376-0.124,0.728-0.252,1.055-0.386c0.324-0.133,0.587-0.26,0.785-0.382
									c0.196-0.122,0.285-0.227,0.263-0.314c-0.021-0.082-0.076-0.136-0.167-0.163s-0.206-0.035-0.348-0.023
									c-0.142,0.012-0.309,0.04-0.502,0.086c-0.192,0.048-0.413,0.103-0.662,0.165c-0.271,0.068-0.916,0.231-1.934,0.489
									c-1.019,0.257-2.26,0.625-3.737,1.034c-1.476,0.412-3.083,1.001-4.86,1.599c-1.723,0.758-3.523,1.393-5.22,2.329
									c-1.702,0.912-3.305,1.898-4.738,3.021c-1.459,1.084-2.619,2.229-3.574,3.273c-0.502,0.499-0.852,1.045-1.211,1.482
									c-0.36,0.441-0.624,0.866-0.841,1.238c-0.445,0.737-0.63,1.123-0.564,1.164c0.046,0.028,0.321-0.286,0.821-0.939
									c0.477-0.671,1.21-1.479,2.134-2.459c0.958-0.952,2.09-2.001,3.492-3.015c1.37-1.055,2.914-1.947,4.506-2.828
									c1.611-0.854,3.285-1.496,4.907-2.167c1.628-0.654,3.165-1.076,4.495-1.545c1.361-0.385,2.481-0.701,3.365-0.95
									c0.878-0.256,1.386-0.372,1.498-0.403C100.688,97.717,101.034,97.614,101.411,97.49z"/>
							</g>
						</g>
					</g>
				</g>
			</g>
			<g>
				<g>
					<g>
						<g>
							<g>
								<path fill="#9E4E27" d="M94.63,86.276c0.212-0.069,0.41-0.146,0.594-0.231c0.184-0.085,0.332-0.174,0.445-0.267
									c0.111-0.093,0.162-0.184,0.149-0.273c-0.011-0.083-0.043-0.145-0.095-0.183c-0.052-0.039-0.119-0.063-0.2-0.071
									c-0.082-0.009-0.178-0.004-0.29,0.015c-0.111,0.021-0.238,0.043-0.381,0.07c-0.156,0.03-0.527,0.101-1.113,0.213
									c-0.587,0.113-1.307,0.25-2.16,0.415c-0.855,0.159-1.758,0.519-2.775,0.815c-1.002,0.346-2.062,0.576-3.035,1.074
									c-0.988,0.451-1.947,0.888-2.877,1.313c-0.472,0.196-0.883,0.448-1.266,0.695c-0.383,0.242-0.742,0.47-1.079,0.684
									c-0.667,0.431-1.194,0.791-1.581,1.079c-0.387,0.289-0.557,0.464-0.514,0.53c0.03,0.045,0.256-0.033,0.679-0.234
									s0.971-0.479,1.646-0.835c0.688-0.334,1.416-0.818,2.319-1.19c0.901-0.376,1.826-0.762,2.775-1.158
									c0.929-0.443,1.907-0.698,2.852-0.984c0.943-0.287,1.794-0.546,2.552-0.776c0.776-0.152,1.415-0.277,1.918-0.375
									c0.503-0.099,0.787-0.154,0.85-0.167C94.222,86.397,94.417,86.345,94.63,86.276z"/>
							</g>
						</g>
					</g>
				</g>
			</g>
		</g>
		<g>
			<g>
				
					<line fill="none" stroke="#4F6EB5" stroke-width="1.5459" stroke-linecap="round" stroke-miterlimit="10" x1="110.544" y1="88.739" x2="110.544" y2="117.117"/>
				
					<polyline fill="none" stroke="#4F6EB5" stroke-width="1.5459" stroke-linecap="round" stroke-linejoin="round" stroke-miterlimit="10" points="
					106.892,90.455 110.616,86.878 114.196,90.602 				"/>
			</g>
			<g>
				
					<line fill="none" stroke="#4F6EB5" stroke-width="1.5459" stroke-linecap="round" stroke-miterlimit="10" x1="129.008" y1="115.255" x2="129.008" y2="86.878"/>
				
					<polyline fill="none" stroke="#4F6EB5" stroke-width="1.5459" stroke-linecap="round" stroke-linejoin="round" stroke-miterlimit="10" points="
					132.66,113.537 128.935,117.117 125.357,113.394 				"/>
			</g>
		</g>
		<g>
			<path fill="#FFFFFF" d="M162.343,126.092c-0.108-2.344-0.499-4.739-1.69-6.766c-1.188-2.023-3.299-3.621-5.645-3.693
				c-2.588-0.076-4.997,1.762-6.05,4.127c-0.614,1.378-0.813,2.895-0.717,4.404c-0.794-1.528-2.236-2.735-3.936-3.067
				c-2.783-0.542-5.825,1.346-6.571,4.082c-0.417,1.525-0.084,3.183,0.751,4.518c-0.597-0.051-1.202,0.054-1.724,0.347
				c-1.701,0.953-2.298,3.301-1.596,5.118c0.701,1.818,2.447,3.088,4.32,3.624c0.315,0.09,0.637,0.157,0.959,0.212
				c-0.252,1.53,0.281,3.231,1.499,4.227c1.858,1.518,4.838,1.271,6.567-0.394c1.118-1.075,1.675-2.627,1.67-4.183
				c0.782,1.329,2.286,2.359,3.818,2.802c1.031,0.295,2.172,0.417,3.154-0.02c1.607-0.713,2.27-2.671,2.311-4.43
				c0.04-1.696-0.351-3.396-1.099-4.92c0.154,0.037,0.313,0.06,0.473,0.06c1.309,0.006,2.461-0.995,2.997-2.189
				C162.372,128.757,162.402,127.401,162.343,126.092z"/>
		</g>
		<g>
			<circle opacity="0.4" fill="#FFFFFF" cx="42.66" cy="98.525" r="10.548"/>
			<circle opacity="0.4" fill="#FFFFFF" cx="50.104" cy="105.998" r="5.082"/>
			<circle opacity="0.4" fill="#FFFFFF" cx="159.117" cy="79.94" r="10.548"/>
			<circle opacity="0.4" fill="#FFFFFF" cx="166.744" cy="72.654" r="5.081"/>
			<circle fill="none" stroke="#FFFFFF" stroke-width="0.7729" stroke-miterlimit="10" cx="61.804" cy="67.382" r="5.082"/>
			<circle fill="none" stroke="#FFFFFF" stroke-width="0.7729" stroke-miterlimit="10" cx="73.491" cy="108.071" r="5.082"/>
			<circle fill="none" stroke="#FFFFFF" stroke-width="0.7729" stroke-miterlimit="10" cx="171.825" cy="130.669" r="5.082"/>
			<circle fill="#FFFFFF" cx="70.838" cy="83.445" r="1.725"/>
			<circle fill="#FFFFFF" cx="78.153" cy="52.018" r="1.725"/>
			<circle fill="#FFFFFF" cx="131.466" cy="50.296" r="1.725"/>
			<circle fill="#FFFFFF" cx="171.825" cy="97.151" r="1.725"/>
			<circle fill="#FFFFFF" cx="50.104" cy="128.588" r="1.725"/>
			<circle fill="#FFFFFF" cx="32.111" cy="119.741" r="1.724"/>
		</g>
	</g>
</g>
<circle fill="none" stroke="#FFFFFF" stroke-width="2" stroke-miterlimit="10" cx="100.5" cy="102.501" r="91.749"/>
</svg>
