<?xml version="1.0" encoding="utf-8"?>
<!-- Generator: Adobe Illustrator 16.0.0, SVG Export Plug-In . SVG Version: 6.00 Build 0)  -->
<!DOCTYPE svg PUBLIC "-//W3C//DTD SVG 1.1//EN" "http://www.w3.org/Graphics/SVG/1.1/DTD/svg11.dtd">
<svg version="1.1" id="Layer_1" xmlns="http://www.w3.org/2000/svg" xmlns:xlink="http://www.w3.org/1999/xlink" x="0px" y="0px"
	 width="200px" height="200px" viewBox="0 0 200 200" enable-background="new 0 0 200 200" xml:space="preserve">
<circle fill="#DBF1FD" stroke="#FFFFFF" stroke-width="2" stroke-miterlimit="10" cx="100.984" cy="100.001" r="93.749"/>
<g>
	<defs>
		<circle id="SVGID_1_" cx="100.984" cy="100.001" r="93.749"/>
	</defs>
	<clipPath id="SVGID_2_">
		<use xlink:href="#SVGID_1_"  overflow="visible"/>
	</clipPath>
	<g clip-path="url(#SVGID_2_)">
		<g>
			<path fill="#FFFFFF" d="M169.032,121.362l1.833,0.463c2.028-4.348,1.36-9.823-1.654-13.557c-0.774-0.963-1.901-1.88-3.117-1.648
				c-0.784,0.15-1.398,0.749-1.904,1.362c-1.641,1.982-2.711,4.433-3.047,6.983c-1.544-3.884-5.124-6.891-9.217-7.745
				c-3.354-0.701-7.515,0.474-8.637,3.71c-0.913,2.631,0.496,5.358,2.254,7.635c-2.458-2.633-6.226-4.071-9.754-3.368
				c-4.007,0.799-7.342,4.533-7.324,8.619c0.018,4.087,3.691,7.912,7.775,7.762c-2.69,0.15-5.435,0.313-7.937,1.32
				c-2.496,1.009-4.749,3.033-5.296,5.669c-0.956,4.594,3.783,8.771,8.462,9.075c4.684,0.304,9.082-2.036,13.188-4.307
				c1.78,5.995,9.454,9.25,15.161,6.697c5.711-2.556,8.462-10.034,6.129-15.837c2.496,1.587,6.123,3.05,8.059,0.813
				c0.513-0.595,0.785-1.362,0.956-2.128C175.979,128.307,173.344,123.19,169.032,121.362z"/>
		</g>
		<g>
			<path fill="#FFFFFF" d="M108.564,89.886c-0.465-0.292-0.965-0.554-1.31-0.98c-0.876-1.095-0.366-2.696-0.532-4.089
				c-0.359-2.947-4.117-4.496-6.889-3.444c-1.051-1.282-2.578-2.129-4.219-2.002c-2.76,0.209-4.785,3.885-3.041,6.034
				c-1.611-2.191-4.679-3.069-7.3-2.351c-2.624,0.717-4.735,2.861-5.724,5.392c-0.641,1.641-0.824,3.578,0.037,5.117
				c1.56,2.787,5.455,2.912,8.641,2.677c-0.505,2.304-1.008,4.667-0.668,6.998c0.342,2.334,1.721,4.663,3.94,5.457
				c1.732,0.618,3.708,0.204,5.292-0.729c2.82-1.66,4.573-4.982,4.347-8.247c1.672,1.545,3.823,2.829,6.091,2.612
				c2.728-0.262,4.922-2.842,5.095-5.576C112.499,94.021,110.88,91.348,108.564,89.886z"/>
		</g>
		<path fill="#EB9A42" d="M186.463,186.559c0,0-4.53-23.235-22.653-46.995c0,0,1.741-45.368-2.093-69.766
			c-3.833-24.4-9.061-35.552-13.939-35.204c-4.882,0.348,0,38.339,0,38.339s-15.339-51.584-23.702-50.19
			c-8.365,1.395,8.363,50.886,8.363,50.886s-16.38-47.4-25.793-45.658c-9.41,1.742,9.413,52.63,9.413,52.63
			s-14.641-46.356-23.702-43.568c-9.062,2.788,12.548,67.604,12.548,67.604l-3.486,33.126c0,0,6.972,10.457,23.701,11.501
			l8.714,37.295H186.463z"/>
		<g>
			<path fill="#FFFFFF" d="M125.231,124.581c-0.464-0.294-0.968-0.555-1.308-0.98c-0.879-1.095-0.366-2.698-0.537-4.09
				c-0.357-2.949-4.114-4.495-6.887-3.446c-1.051-1.279-2.576-2.126-4.221-2.001c-2.76,0.211-4.782,3.887-3.039,6.035
				c-1.608-2.19-4.68-3.069-7.302-2.352c-2.622,0.717-4.731,2.86-5.721,5.392c-0.641,1.642-0.825,3.578,0.036,5.117
				c1.561,2.787,5.456,2.91,8.641,2.677c-0.503,2.306-1.008,4.668-0.666,6.999c0.341,2.333,1.719,4.663,3.938,5.456
				c1.731,0.618,3.708,0.202,5.293-0.728c2.82-1.661,4.572-4.983,4.345-8.248c1.673,1.545,3.826,2.829,6.092,2.613
				c2.729-0.262,4.92-2.843,5.098-5.576C129.166,128.716,127.547,126.043,125.231,124.581z"/>
		</g>
		<path fill="#F9B05F" d="M67.063,193.579l11.103-19.337c0,0,31.079-10.501,37.563-26.737c0,0-12.294-4.968-12.148-10.661
			c0.148-5.688,7.733-19.84,7.589-27.137c-0.148-7.295-7.006-9.63-10.215-8.754c0,0-4.857-7.585-10.816-6.71
			c-5.962,0.875-6.691,2.333-6.691,2.333s-9.13-4.96-16.384-0.146c-7.252,4.814-23.265,25.359-20.8,54.95l-30.41,38.627
			L67.063,193.579z"/>
		<g>
			<g>
				<g>
					<g>
						<g>
							<path fill="#9E4E27" d="M82.945,128.725c0.062,0.438,0.153,0.849,0.239,1.23c0.089,0.379,0.18,0.685,0.273,0.917
								c0.092,0.23,0.181,0.336,0.266,0.32c0.079-0.015,0.136-0.07,0.171-0.165c0.036-0.096,0.057-0.218,0.063-0.369
								c0.006-0.153-0.001-0.333-0.022-0.544c-0.022-0.209-0.048-0.449-0.078-0.721c-0.011-0.148-0.058-0.397-0.071-0.75
								c0.009-0.354,0.021-0.811,0.034-1.369c0.007-0.28,0.014-0.575,0.021-0.887c0.044-0.31,0.091-0.634,0.139-0.975
								c0.112-0.679,0.169-1.432,0.414-2.217c0.212-0.79,0.392-1.636,0.741-2.479c0.156-0.428,0.316-0.866,0.48-1.314
								c0.184-0.44,0.404-0.88,0.612-1.336c0.821-1.832,1.912-3.56,3.055-5.273c1.273-1.625,2.417-3.277,3.786-4.662
								c1.26-1.481,2.565-2.618,3.666-3.662c0.278-0.256,0.531-0.516,0.791-0.736c0.267-0.215,0.519-0.416,0.757-0.607
								c0.47-0.387,0.884-0.727,1.243-1.022c0.709-0.597,1.043-0.928,1.001-0.989c-0.029-0.043-0.415,0.191-1.161,0.705
								c-0.373,0.261-0.804,0.563-1.295,0.905c-0.491,0.345-1.049,0.726-1.598,1.233c-1.119,0.993-2.472,2.05-3.746,3.491
								c-0.642,0.713-1.375,1.366-1.966,2.157c-0.612,0.775-1.231,1.561-1.858,2.355c-0.624,0.798-1.139,1.666-1.704,2.485
								c-0.482,0.872-1.012,1.708-1.44,2.589c-0.87,1.752-1.523,3.404-1.955,4.923c-0.188,0.767-0.412,1.453-0.519,2.096
								c-0.095,0.646-0.179,1.222-0.254,1.73c-0.141,1.015-0.07,1.604-0.099,1.731C82.925,127.879,82.929,128.283,82.945,128.725z"
								/>
						</g>
					</g>
				</g>
			</g>
		</g>
		<g>
			<g>
				<g>
					<g>
						<g>
							<path fill="#9E4E27" d="M69.379,121.38c-0.037,0.396-0.06,0.77-0.068,1.122c-0.009,0.352,0.002,0.642,0.032,0.872
								c0.031,0.227,0.089,0.348,0.174,0.361c0.08,0.012,0.148-0.02,0.207-0.093c0.058-0.074,0.109-0.177,0.154-0.311
								c0.044-0.135,0.083-0.299,0.117-0.494c0.032-0.194,0.068-0.418,0.11-0.67c0.044-0.275,0.149-0.93,0.314-1.961
								c0.166-1.033,0.433-2.282,0.713-3.774c0.123-0.75,0.343-1.517,0.552-2.329c0.214-0.812,0.438-1.663,0.673-2.555
								c0.315-0.863,0.633-1.732,0.953-2.607c0.167-0.434,0.302-0.884,0.495-1.309l0.604-1.269c0.853-1.671,1.806-3.233,2.926-4.593
								c0.281-0.338,0.537-0.684,0.815-0.992c0.29-0.298,0.57-0.588,0.843-0.869c0.52-0.591,1.121-1.018,1.632-1.477
								c0.501-0.476,1.058-0.759,1.498-1.095c0.443-0.337,0.87-0.568,1.241-0.764c0.734-0.408,1.092-0.649,1.065-0.719
								c-0.02-0.048-0.409,0.089-1.177,0.414c-0.385,0.161-0.838,0.342-1.3,0.646c-0.462,0.299-1.033,0.566-1.57,0.999
								c-1.104,0.823-2.313,1.851-3.444,3.213c-1.186,1.319-2.146,2.873-3.07,4.489c-0.889,1.645-1.478,3.371-2.105,5.048
								c-0.351,0.827-0.501,1.665-0.726,2.437c-0.205,0.777-0.399,1.513-0.583,2.205c-0.274,1.4-0.5,2.552-0.679,3.46
								c-0.182,0.907-0.246,1.421-0.268,1.536C69.459,120.624,69.415,120.983,69.379,121.38z"/>
						</g>
					</g>
				</g>
			</g>
		</g>
		<g>
			<g>
				<g>
					<g>
						<g>
							<path fill="#9E4E27" d="M56.714,116.299c-0.044,0.32-0.075,0.625-0.092,0.913c-0.017,0.287-0.012,0.525,0.013,0.717
								c0.026,0.189,0.081,0.294,0.165,0.313c0.079,0.017,0.147-0.002,0.207-0.058c0.059-0.055,0.112-0.134,0.159-0.24
								s0.089-0.237,0.127-0.395c0.036-0.156,0.077-0.336,0.124-0.54c0.051-0.221,0.171-0.746,0.362-1.575
								c0.189-0.831,0.44-1.843,0.755-3.038c0.325-1.189,0.701-2.507,1.195-3.925c0.489-1.42,1.077-2.818,1.743-4.199
								c0.351-0.68,0.73-1.33,1.082-1.984c0.393-0.623,0.792-1.229,1.232-1.791c0.88-1.118,1.788-2.007,2.678-2.656
								c0.456-0.3,0.874-0.579,1.269-0.774c0.406-0.167,0.75-0.373,1.073-0.464c0.645-0.189,0.973-0.325,0.963-0.399
								c-0.006-0.051-0.341-0.026-1.021,0.082c-0.67,0.14-1.532,0.458-2.514,1.034c-0.951,0.621-1.945,1.466-2.886,2.571
								c-0.953,1.101-1.699,2.39-2.443,3.711c-0.352,0.671-0.66,1.356-0.987,2.024c-0.279,0.688-0.556,1.37-0.83,2.046
								c-0.236,0.688-0.46,1.341-0.673,1.961c-0.187,0.627-0.363,1.221-0.53,1.779c-0.316,1.12-0.545,2.049-0.726,2.78
								c-0.17,0.731-0.267,1.145-0.289,1.237C56.815,115.687,56.757,115.978,56.714,116.299z"/>
						</g>
					</g>
				</g>
			</g>
		</g>
		<g>
			<path fill="none" stroke="#4F6EB5" stroke-width="1.4745" stroke-linecap="round" stroke-miterlimit="10" d="M90.527,145.28
				c0,7.515-6.089,13.604-13.601,13.604c-7.514,0-13.604-6.09-13.604-13.604c0-7.512,6.09-13.604,13.604-13.604"/>
			
				<polyline fill="none" stroke="#4F6EB5" stroke-width="1.4745" stroke-linecap="round" stroke-linejoin="round" stroke-miterlimit="10" points="
				72.748,128.865 76.926,131.677 74.113,135.853 			"/>
		</g>
		<g>
			<circle opacity="0.4" fill="#FFFFFF" cx="165.296" cy="109.57" r="10.28"/>
			<circle opacity="0.4" fill="#FFFFFF" cx="158.04" cy="116.852" r="4.951"/>
			<circle opacity="0.4" fill="#FFFFFF" cx="51.797" cy="91.454" r="10.28"/>
			<circle opacity="0.4" fill="#FFFFFF" cx="44.365" cy="84.354" r="4.953"/>
			<circle fill="none" stroke="#FFFFFF" stroke-width="0.7372" stroke-miterlimit="10" cx="146.637" cy="79.216" r="4.953"/>
			<circle fill="none" stroke="#FFFFFF" stroke-width="0.7372" stroke-miterlimit="10" cx="135.249" cy="118.872" r="4.953"/>
			<circle fill="none" stroke="#FFFFFF" stroke-width="0.7372" stroke-miterlimit="10" cx="39.411" cy="140.893" r="4.953"/>
			<circle fill="#FFFFFF" cx="137.833" cy="94.87" r="1.68"/>
			<circle fill="#FFFFFF" cx="130.705" cy="64.244" r="1.682"/>
			<circle fill="#FFFFFF" cx="78.746" cy="62.562" r="1.682"/>
			<path fill="#FFFFFF" d="M37.731,108.23c0,0.926,0.754,1.682,1.68,1.682c0.929,0,1.681-0.756,1.681-1.682
				c0-0.93-0.752-1.683-1.681-1.683C38.485,106.548,37.731,107.301,37.731,108.23z"/>
			<circle fill="#FFFFFF" cx="158.041" cy="138.867" r="1.681"/>
			<circle fill="#FFFFFF" cx="175.576" cy="130.245" r="1.68"/>
		</g>
	</g>
</g>
<circle fill="none" stroke="#FFFFFF" stroke-width="2" stroke-miterlimit="10" cx="100.984" cy="100.001" r="93.749"/>
</svg>
