<?xml version="1.0" encoding="utf-8"?>
<!-- Generator: Adobe Illustrator 16.0.0, SVG Export Plug-In . SVG Version: 6.00 Build 0)  -->
<!DOCTYPE svg PUBLIC "-//W3C//DTD SVG 1.1//EN" "http://www.w3.org/Graphics/SVG/1.1/DTD/svg11.dtd">
<svg version="1.1" id="Layer_1" xmlns="http://www.w3.org/2000/svg" xmlns:xlink="http://www.w3.org/1999/xlink" x="0px" y="0px"
	 width="200px" height="200px" viewBox="0 0 200 200" enable-background="new 0 0 200 200" xml:space="preserve">
<path fill="#DBF1FD" stroke="#FFFFFF" stroke-width="2" stroke-miterlimit="10" d="M193.385,100.246
	c0,51.438-41.7,93.138-93.138,93.138c-51.44,0-93.142-41.7-93.142-93.138c0-51.441,41.702-93.141,93.142-93.141
	C151.685,7.105,193.385,48.805,193.385,100.246z"/>
<g>
	<defs>
		<path id="SVGID_1_" d="M193.385,100.246c0,51.438-41.7,93.138-93.138,93.138c-51.44,0-93.142-41.7-93.142-93.138
			c0-51.441,41.702-93.141,93.142-93.141C151.685,7.105,193.385,48.805,193.385,100.246z"/>
	</defs>
	<clipPath id="SVGID_2_">
		<use xlink:href="#SVGID_1_"  overflow="visible"/>
	</clipPath>
	<g clip-path="url(#SVGID_2_)">
		<g>
			<path fill="#FFFFFF" d="M94.021,49.437c0.08-1.775,0.155-3.596-0.397-5.286c-0.549-1.689-1.87-3.246-3.62-3.552
				c-1.367-0.239-2.783,0.32-3.84,1.214c-1.887,1.592-2.765,4.285-2.182,6.683c-1.439-0.935-3.201-1.615-4.858-1.166
				c-1.994,0.542-3.295,2.739-3.075,4.793c0.218,2.054,1.759,3.834,3.667,4.625c0.382,0.158,0.789,0.289,1.099,0.563
				c0.79,0.7,0.615,1.957,0.918,2.969c0.642,2.146,3.63,2.816,5.558,1.683c0.943,0.819,2.185,1.254,3.389,0.952
				c2.024-0.509,3.062-3.498,1.491-4.873c1.476,1.423,3.869,1.686,5.724,0.818c1.857-0.867,3.153-2.729,3.565-4.736
				c0.27-1.301,0.157-2.764-0.676-3.796C99.268,48.455,96.357,48.857,94.021,49.437z"/>
		</g>
		<g>
			<path fill="#EB9A42" d="M6.437,151.334l42.535-39.784c0,0-1.081-57.823,7.958-57.562C65.968,54.25,65,85.173,65,85.173
				s42.976-46.463,48.854-44.063S97.271,78.919,97.271,78.919s29.867-37.871,34.002-33.439c4.134,4.432,0.898,11.797,0.898,11.797
				s5,8.883,2.782,14.387c0,0,2.568,12.26-4.483,25.611c-7.054,13.352-38.438,43.746-51.363,48.525
				c-12.925,4.783-41.154,39.206-41.154,39.206L6.437,151.334z"/>
			<g>
				<g>
					<g>
						<g>
							<g>
								<path fill="#9E4E27" d="M67.616,118.28c-0.274,0.387-0.601,0.688-0.859,1.021c-0.268,0.321-0.476,0.6-0.625,0.835
									c-0.147,0.233-0.195,0.385-0.14,0.449c0.052,0.061,0.128,0.072,0.23,0.037s0.222-0.104,0.361-0.206
									c0.14-0.104,0.298-0.239,0.477-0.408c0.176-0.168,0.379-0.362,0.607-0.582c0.273-0.217,0.789-0.856,1.611-1.854
									c0.441-0.479,0.799-1.109,1.243-1.769c0.209-0.337,0.464-0.67,0.664-1.056c0.197-0.387,0.403-0.79,0.617-1.21
									c0.875-1.67,1.527-3.677,2.028-5.92c0.14-1.143,0.4-2.281,0.373-3.453c0.004-0.583,0.06-1.169,0.019-1.754
									c-0.053-0.584-0.105-1.171-0.158-1.759c-0.024-0.593-0.186-1.159-0.294-1.729c-0.135-0.563-0.199-1.143-0.393-1.682
									c-0.363-1.084-0.667-2.17-1.175-3.158c-0.239-0.498-0.432-1.002-0.693-1.454c-0.268-0.448-0.529-0.882-0.781-1.304
									c-0.467-0.868-1.104-1.55-1.606-2.244c-0.25-0.35-0.522-0.654-0.802-0.923c-0.271-0.276-0.527-0.538-0.769-0.784
									c-0.465-0.51-0.941-0.885-1.358-1.199c-0.823-0.64-1.252-0.926-1.297-0.867c-0.031,0.041,0.322,0.402,1.054,1.079
									c0.367,0.338,0.807,0.713,1.222,1.228c0.418,0.509,0.962,1.015,1.43,1.687c0.97,1.315,2.015,2.874,2.834,4.799
									c0.916,1.885,1.404,3.996,1.79,6.149c0.044,0.546,0.087,1.09,0.13,1.631l0.064,0.81l-0.029,0.808
									c-0.019,0.536-0.037,1.07-0.056,1.603c-0.077,0.526-0.153,1.05-0.229,1.571c-0.103,1.052-0.448,2.003-0.666,2.926
									c-0.257,0.913-0.639,1.731-0.921,2.527c-0.35,0.769-0.726,1.442-1.033,2.066c-0.318,0.618-0.705,1.111-0.989,1.578
									c-0.568,0.938-1.015,1.373-1.09,1.489C68.159,117.559,67.896,117.898,67.616,118.28z"/>
							</g>
						</g>
					</g>
				</g>
			</g>
			<g>
				<g>
					<g>
						<g>
							<g>
								<path fill="#9E4E27" d="M104.083,90.556c-0.329,0.456-0.63,0.892-0.903,1.309c-0.271,0.416-0.48,0.767-0.626,1.056
									c-0.144,0.286-0.183,0.457-0.117,0.51c0.063,0.05,0.146,0.044,0.254-0.019c0.107-0.062,0.23-0.162,0.372-0.303
									c0.141-0.142,0.3-0.321,0.478-0.541c0.175-0.218,0.376-0.47,0.604-0.754c0.247-0.31,0.834-1.048,1.76-2.211
									c0.928-1.165,2.065-2.594,3.415-4.289c1.347-1.696,2.844-3.579,4.489-5.65c1.633-2.082,3.337-4.148,4.945-6.333
									c1.626-2.169,3.203-4.272,4.73-6.31c1.512-2.046,2.858-3.868,4.039-5.465c1.169-1.602,2.097-2.899,2.783-3.892
									c0.688-0.993,1.001-1.511,0.941-1.555c-0.041-0.03-0.43,0.411-1.168,1.325c-0.73,0.923-1.693,2.139-2.892,3.653
									c-1.188,1.53-2.539,3.272-4.058,5.229c-1.51,1.964-3.062,3.981-4.652,6.051c-1.568,2.086-3.186,4.071-4.755,6.032
									c-1.568,1.96-2.982,3.728-4.241,5.303c-1.255,1.576-2.288,2.873-3.102,3.896c-0.812,1.022-1.269,1.599-1.372,1.728
									C104.722,89.689,104.413,90.099,104.083,90.556z"/>
							</g>
						</g>
					</g>
				</g>
			</g>
			<g>
				<g>
					<g>
						<g>
							<g>
								<path fill="#9E4E27" d="M109.734,104.327c-0.336,0.354-0.645,0.696-0.927,1.026c-0.28,0.328-0.498,0.611-0.653,0.85
									c-0.153,0.234-0.202,0.386-0.146,0.449c0.053,0.059,0.131,0.07,0.234,0.035c0.104-0.036,0.225-0.104,0.365-0.206
									c0.142-0.103,0.302-0.236,0.481-0.403c0.178-0.167,0.382-0.359,0.613-0.576c0.251-0.237,0.848-0.802,1.789-1.691
									c0.943-0.892,2.099-1.984,3.471-3.281c1.376-1.291,2.748-2.881,4.342-4.544c0.787-0.842,1.579-1.689,2.376-2.541
									c0.394-0.431,0.808-0.845,1.187-1.293l1.126-1.361c1.5-1.824,2.954-3.592,4.364-5.306c0.721-0.843,1.334-1.693,1.901-2.5
									c0.571-0.804,1.107-1.558,1.608-2.263c0.996-1.412,1.784-2.555,2.364-3.43s0.84-1.333,0.778-1.375
									c-0.042-0.029-0.38,0.356-1.015,1.157c-0.627,0.809-1.452,1.874-2.479,3.2c-0.509,0.669-1.053,1.384-1.633,2.146
									c-0.582,0.76-1.169,1.59-1.886,2.394c-1.39,1.642-2.816,3.328-4.28,5.058c-1.419,1.768-2.979,3.352-4.476,4.936
									c-1.495,1.584-2.844,3.012-4.045,4.283c-1.268,1.203-2.31,2.194-3.132,2.975c-0.821,0.779-1.284,1.219-1.389,1.317
									C110.386,103.657,110.072,103.973,109.734,104.327z"/>
							</g>
						</g>
					</g>
				</g>
			</g>
			<g>
				<g>
					<g>
						<g>
							<g>
								<path fill="#9E4E27" d="M111.189,114.673c0.125,0.541,0.254,1.049,0.388,1.525c0.133,0.473,0.26,0.859,0.381,1.158
									c0.12,0.295,0.224,0.439,0.308,0.428c0.079-0.011,0.13-0.076,0.154-0.196c0.024-0.121,0.03-0.278,0.017-0.477
									c-0.014-0.199-0.043-0.437-0.092-0.714c-0.049-0.276-0.105-0.594-0.17-0.951c-0.07-0.391-0.239-1.318-0.505-2.781
									c-0.102-0.739-0.359-1.53-0.59-2.413c-0.24-0.882-0.503-1.845-0.788-2.89c-0.245-1.058-0.679-2.117-1.087-3.248
									c-0.421-1.127-0.837-2.319-1.32-3.55c-0.56-1.198-1.123-2.404-1.689-3.617c-0.293-0.602-0.548-1.226-0.875-1.814
									c-0.335-0.584-0.672-1.17-1.01-1.757c-0.689-1.167-1.313-2.349-2.03-3.449c-0.752-1.077-1.492-2.137-2.222-3.181
									c-0.372-0.515-0.702-1.04-1.082-1.505c-0.387-0.46-0.763-0.907-1.127-1.34c-0.73-0.863-1.417-1.672-2.058-2.428
									c-1.322-1.472-2.531-2.521-3.389-3.361c-0.878-0.823-1.34-1.206-1.391-1.151c-0.035,0.038,0.343,0.485,1.132,1.344
									c0.775,0.872,1.875,1.95,3.125,3.399c0.599,0.749,1.24,1.55,1.922,2.403c0.677,0.857,1.445,1.728,2.098,2.771
									c0.688,1.015,1.385,2.043,2.091,3.086c0.37,0.51,0.691,1.057,0.994,1.618c0.313,0.556,0.628,1.115,0.944,1.677
									c0.317,0.562,0.633,1.122,0.947,1.678l0.47,0.833l0.396,0.865c0.529,1.149,1.054,2.288,1.573,3.416
									c0.563,1.109,0.891,2.249,1.292,3.292c0.383,1.051,0.745,2.044,1.086,2.98c0.555,1.911,0.96,3.499,1.309,4.742
									c0.373,1.235,0.443,1.965,0.486,2.123C110.961,113.635,111.064,114.131,111.189,114.673z"/>
							</g>
						</g>
					</g>
				</g>
			</g>
		</g>
		<g>
			<path fill="#FFFFFF" d="M158.451,89.371c-0.456-0.289-0.95-0.546-1.286-0.965c-0.862-1.074-0.359-2.647-0.525-4.013
				c-0.352-2.897-4.042-4.416-6.766-3.384c-1.033-1.259-2.531-2.091-4.146-1.967c-2.709,0.208-4.698,3.815-2.984,5.927
				c-1.581-2.151-4.595-3.014-7.172-2.31c-2.574,0.704-4.648,2.809-5.619,5.296c-0.631,1.612-0.809,3.514,0.035,5.022
				c1.534,2.738,5.358,2.862,8.486,2.634c-0.493,2.261-0.989,4.583-0.654,6.873c0.337,2.289,1.688,4.579,3.868,5.357
				c1.703,0.608,3.641,0.2,5.199-0.716c2.771-1.629,4.489-4.892,4.268-8.1c1.646,1.519,3.756,2.779,5.983,2.566
				c2.678-0.255,4.833-2.791,5.002-5.476C162.314,93.431,160.726,90.806,158.451,89.371z"/>
		</g>
		<g>
			<path fill="#FFFFFF" d="M94.021,85.752c0.08-1.775,0.155-3.596-0.397-5.285c-0.549-1.69-1.87-3.245-3.62-3.552
				c-1.367-0.24-2.783,0.32-3.84,1.216c-1.887,1.59-2.765,4.284-2.182,6.682c-1.439-0.937-3.201-1.617-4.858-1.167
				c-1.994,0.541-3.295,2.738-3.075,4.792c0.218,2.054,1.759,3.834,3.667,4.626c0.382,0.159,0.789,0.289,1.099,0.564
				c0.79,0.698,0.615,1.956,0.918,2.968c0.642,2.145,3.63,2.817,5.558,1.684c0.943,0.816,2.185,1.254,3.389,0.949
				c2.024-0.508,3.062-3.496,1.491-4.872c1.476,1.422,3.869,1.686,5.724,0.818c1.857-0.867,3.153-2.729,3.565-4.736
				c0.27-1.303,0.157-2.764-0.676-3.796C99.268,84.771,96.357,85.175,94.021,85.752z"/>
		</g>
		<g>
			<path fill="#F9B05F" d="M185.417,206.446l-45.093-36.862c0,0-57.165,8.767-58.107-0.222
				c-0.946-8.995,29.832-12.149,29.832-12.149s-51.77-36.409-50.172-42.556c1.595-6.145,39.679,11.402,39.679,11.402
				s-41.509-24.561-37.669-29.248c3.842-4.688,11.575-2.461,11.575-2.461s8.137-6.139,13.887-4.674c0,0,11.81-4.174,25.98,1.037
				c14.171,5.21,48.47,32.27,54.932,44.447c6.457,12.171,44.332,35.568,44.332,35.568L185.417,206.446z"/>
			<g>
				<g>
					<g>
						<g>
							<g>
								<path fill="#9E4E27" d="M112.183,117.757c0.496,0.266,0.968,0.506,1.418,0.721c0.448,0.214,0.824,0.374,1.13,0.479
									c0.303,0.104,0.478,0.121,0.521,0.048c0.041-0.067,0.024-0.15-0.052-0.249c-0.076-0.098-0.191-0.207-0.351-0.327
									c-0.159-0.122-0.358-0.255-0.599-0.401c-0.24-0.145-0.517-0.311-0.829-0.498c-0.34-0.203-1.149-0.688-2.426-1.45
									c-1.278-0.764-2.846-1.7-4.705-2.813c-1.86-1.109-3.927-2.341-6.198-3.696c-2.281-1.34-4.556-2.754-6.935-4.058
									c-2.366-1.323-4.66-2.605-6.884-3.849c-2.229-1.227-4.214-2.318-5.954-3.275c-1.743-0.945-3.153-1.692-4.228-2.241
									c-1.076-0.549-1.63-0.791-1.666-0.726c-0.024,0.045,0.464,0.371,1.469,0.981c1.012,0.602,2.346,1.394,4.006,2.38
									c1.675,0.973,3.581,2.08,5.723,3.325c2.148,1.235,4.354,2.504,6.617,3.806c2.276,1.276,4.459,2.615,6.612,3.909
									c2.151,1.293,4.092,2.458,5.82,3.497c1.729,1.033,3.152,1.884,4.274,2.555c1.12,0.667,1.753,1.044,1.896,1.129
									C111.238,117.239,111.686,117.491,112.183,117.757z"/>
							</g>
						</g>
					</g>
				</g>
			</g>
			<g>
				<g>
					<g>
						<g>
							<g>
								<path fill="#9E4E27" d="M125.08,110.325c0.396,0.286,0.775,0.547,1.14,0.782c0.363,0.234,0.673,0.412,0.93,0.535
									c0.253,0.12,0.409,0.148,0.464,0.084c0.052-0.061,0.054-0.14,0.004-0.237c-0.049-0.098-0.132-0.209-0.252-0.335
									c-0.121-0.126-0.274-0.267-0.464-0.423c-0.189-0.153-0.407-0.331-0.653-0.531c-0.269-0.217-0.907-0.733-1.915-1.548
									c-1.009-0.815-2.246-1.815-3.714-3.002c-1.464-1.191-3.222-2.341-5.083-3.698c-0.938-0.668-1.884-1.34-2.835-2.017
									c-0.479-0.332-0.944-0.688-1.438-1.004l-1.499-0.936c-2.007-1.243-3.953-2.45-5.84-3.619
									c-0.932-0.602-1.854-1.097-2.731-1.552c-0.872-0.459-1.691-0.891-2.456-1.293c-1.532-0.799-2.77-1.428-3.715-1.886
									c-0.945-0.459-1.433-0.655-1.466-0.589c-0.023,0.046,0.404,0.33,1.281,0.852c0.886,0.514,2.05,1.19,3.501,2.032
									c0.73,0.415,1.513,0.859,2.345,1.332c0.83,0.476,1.731,0.947,2.624,1.551c1.812,1.159,3.673,2.349,5.582,3.569
									c1.941,1.171,3.719,2.506,5.489,3.778c1.768,1.271,3.362,2.418,4.783,3.438c1.361,1.096,2.482,1.997,3.365,2.708
									c0.882,0.71,1.379,1.11,1.491,1.201C124.328,109.77,124.684,110.039,125.08,110.325z"/>
							</g>
						</g>
					</g>
				</g>
			</g>
		</g>
		<g>
			<path fill="none" stroke="#4F6EB5" stroke-width="1.4576" stroke-linecap="round" stroke-miterlimit="10" d="M148.09,135.893
				c0,7.383-5.981,13.364-13.361,13.364c-7.381,0-13.362-5.981-13.362-13.364c0-7.378,5.981-13.359,13.362-13.359"/>
			
				<polyline fill="none" stroke="#4F6EB5" stroke-width="1.4576" stroke-linecap="round" stroke-linejoin="round" stroke-miterlimit="10" points="
				130.628,119.771 134.729,122.533 131.967,126.636 			"/>
		</g>
		<g>
			<circle opacity="0.4" fill="#FFFFFF" cx="39.839" cy="82.606" r="10.097"/>
			<circle opacity="0.4" fill="#FFFFFF" cx="46.966" cy="89.759" r="4.865"/>
			<circle opacity="0.4" fill="#FFFFFF" cx="151.314" cy="64.816" r="10.097"/>
			<circle opacity="0.4" fill="#FFFFFF" cx="158.614" cy="57.842" r="4.864"/>
			<circle fill="none" stroke="#FFFFFF" stroke-width="0.7288" stroke-miterlimit="10" cx="58.164" cy="52.794" r="4.864"/>
			<circle fill="none" stroke="#FFFFFF" stroke-width="0.7288" stroke-miterlimit="10" cx="69.352" cy="91.744" r="4.864"/>
			<circle fill="none" stroke="#FFFFFF" stroke-width="0.7288" stroke-miterlimit="10" cx="163.48" cy="113.373" r="4.866"/>
			<circle fill="#FFFFFF" cx="66.812" cy="68.17" r="1.652"/>
			<circle fill="#FFFFFF" cx="73.814" cy="38.089" r="1.652"/>
			<circle fill="#FFFFFF" cx="124.848" cy="36.438" r="1.651"/>
			<circle fill="#FFFFFF" cx="163.479" cy="81.291" r="1.651"/>
			<circle fill="#FFFFFF" cx="46.966" cy="111.383" r="1.651"/>
			<circle fill="#FFFFFF" cx="29.742" cy="102.915" r="1.652"/>
		</g>
	</g>
</g>
<path fill="none" stroke="#FFFFFF" stroke-width="2" stroke-miterlimit="10" d="M193.385,100.246
	c0,51.438-41.7,93.138-93.138,93.138c-51.44,0-93.142-41.7-93.142-93.138c0-51.441,41.702-93.141,93.142-93.141
	C151.685,7.105,193.385,48.805,193.385,100.246z"/>
</svg>
