<?xml version="1.0" encoding="utf-8"?>
<!-- Generator: Adobe Illustrator 16.0.0, SVG Export Plug-In . SVG Version: 6.00 Build 0)  -->
<!DOCTYPE svg PUBLIC "-//W3C//DTD SVG 1.1//EN" "http://www.w3.org/Graphics/SVG/1.1/DTD/svg11.dtd">
<svg version="1.1" id="Layer_1" xmlns="http://www.w3.org/2000/svg" xmlns:xlink="http://www.w3.org/1999/xlink" x="0px" y="0px"
	 width="200px" height="200px" viewBox="0 0 200 200" enable-background="new 0 0 200 200" xml:space="preserve">
<g>
	<g>
		<g>
			<path fill="#2A3072" d="M19.312,70.717c0-14.958,9.645-23.706,20.302-30.412c10.65-6.705,23.725-9.075,36.239-7.746
				c5.481,0.584,10.983,1.843,16.448,1.131c9.212-1.196,16.729-7.708,25.223-11.455c17.616-7.761,40.161-2.128,52.048,13.018
				c7.221,9.194,11.57,16.613,13.708,28.104c0.766,4.101,0.299,12.533-0.142,16.681c-0.528,5.027-2.61,9.737-4.53,14.407
				c-3.201,7.83-6.021,15.923-6.823,24.346c-1.181,12.379,1.958,25.464-2.771,36.963c-3.735,9.081-12,15.726-21.078,19.469
				c-9.085,3.751-18.991,4.923-28.778,5.683c-15.497,1.212-31.548,1.421-46.045-4.197c-18.878-7.322-33.45-24.8-37.259-44.689
				c-1.955-10.226-1.286-21.063-5.272-30.683c-3.952-9.522-10.014-15.119-11.269-27.751V70.717z"/>
		</g>
		<g>
			<g>
				<defs>
					<path id="SVGID_1_" d="M19.312,70.717c0-14.958,9.645-23.706,20.302-30.412c10.65-6.705,23.725-9.075,36.239-7.746
						c5.481,0.584,10.983,1.843,16.448,1.131c9.212-1.196,16.729-7.708,25.223-11.455c17.616-7.761,40.161-2.128,52.048,13.018
						c7.221,9.194,10.459,20.861,12.597,32.351c0.758,4.104,1.41,8.286,0.97,12.434c-0.528,5.027-2.61,9.737-4.53,14.407
						c-3.201,7.83-6.021,15.923-6.823,24.346c-1.181,12.379,1.958,25.464-2.771,36.963c-3.735,9.081-12,15.726-21.078,19.469
						c-9.085,3.751-18.991,4.923-28.778,5.683c-15.497,1.212-31.548,1.421-46.045-4.197c-18.878-7.322-33.45-24.8-37.259-44.689
						c-1.955-10.226-1.286-21.063-5.272-30.683c-3.952-9.522-10.014-15.119-11.269-27.751V70.717z"/>
				</defs>
				<clipPath id="SVGID_2_">
					<use xlink:href="#SVGID_1_"  overflow="visible"/>
				</clipPath>
				<g clip-path="url(#SVGID_2_)">
					<g>
						<g>
							<path fill="#FDBA24" d="M-18.886,14.11c0,0-13.907-5.487-27.947,5.745c-14.044,11.231-16.726,25.151-21.765,28.531
								c-5.04,3.377-21.301,14.376-24.957,19.4c-3.658,5.024-12.271,19.95-7.07,29.274c5.203,9.328,8.946,20.081,5.076,30.721
								c-3.873,10.645-6.135,24.752-3.449,30.415c2.688,5.661,1.765,38.291,2.834,41.209c1.073,2.916,6.177,28.198,43.254,44.152
								c37.075,15.957,36.758-21.224,68.661-19.667c31.903,1.551,22.047-17.874,35.668-31.22
								c13.621-13.344,19.438-16.639,19.438-16.639s-11.645-32.815-31.635-45.436c0,0-1.92-2.452-10.191,6.137
								c-8.271,8.587-14.084,9.948-19.163,11.083c-5.086,1.134-9.956,6.384-9.956,6.384s0.6-18.492,10.086-28.144
								c9.485-9.652,1.109-33.53,4.244-42.008C17.37,75.573,17.304,25.883-18.886,14.11z"/>
							<path fill="#C0852B" d="M12.806,93.202c-0.019,3.107,0.065,6.19,0.152,9.241c0.065,3.052,0.065,6.084-0.122,9.045
								c-0.18,2.957-0.702,5.84-1.619,8.409c-0.484,1.274-1.115,2.443-1.898,3.44c-0.18,0.264-0.397,0.494-0.612,0.718l-0.739,0.798
								c-0.56,0.627-1.166,1.231-1.681,1.89c-2.1,2.631-3.61,5.583-4.834,8.578c-1.228,3.004-2.11,6.103-2.716,9.234
								c-0.624,3.153-1.034,6.231-1.187,9.542l-0.286,6.354l4.405-4.66c2.368-2.511,5.465-5.027,8.501-5.896
								c1.814-0.475,3.89-1.03,5.804-1.819c1.944-0.784,3.81-1.765,5.508-2.934c3.384-2.358,6.28-5.248,8.791-8.277
								c1.261-1.469,2.582-2.881,4.001-4.166c0.727-0.627,1.479-1.234,2.296-1.71c0.41-0.241,0.843-0.443,1.299-0.567
								c0.444-0.115,0.966-0.155,1.367,0.146c-0.333-0.38-0.914-0.467-1.408-0.433c-0.51,0.038-1.013,0.155-1.495,0.327
								c-0.975,0.32-1.849,0.835-2.706,1.357c-1.706,1.071-3.277,2.32-4.754,3.659c-2.913,2.61-5.859,5.046-9.137,6.829
								c-1.625,0.902-3.303,1.647-5.049,2.19c-1.759,0.578-3.517,0.877-5.518,1.289c-2.299,0.532-4.25,1.573-6.037,2.729
								c-0.065,0.042-0.121,0.085-0.184,0.128c0.64-3.945,1.678-7.87,3.045-11.53c1.044-2.693,2.343-5.278,4.039-7.494
								c0.404-0.569,0.876-1.065,1.311-1.608l0.783-0.928c0.302-0.341,0.59-0.692,0.833-1.072c1.044-1.472,1.795-3.085,2.324-4.707
								c1.044-3.258,1.247-6.549,1.224-9.721c0-3.182-0.354-6.292-0.755-9.358c-0.376-3.073-0.929-6.096-1.312-9.122
								c-0.201-1.516-0.391-3.026-0.462-4.54c-0.072-1.519-0.072-3.039,0.273-4.552c-0.665,1.401-0.969,2.974-1.162,4.515
								C12.912,90.089,12.83,91.648,12.806,93.202z"/>
							<path fill="#C0852B" d="M-56.841,241.61l-2.057-1.071c-0.684-0.367-1.327-0.796-1.992-1.189l-3.971-2.387l-3.788-2.651
								c-4.965-3.628-9.6-7.694-13.524-12.362c-3.937-4.638-7.238-9.806-9.554-15.361c-0.581-1.386-1.091-2.795-1.555-4.226
								c-0.226-0.714-0.452-1.431-0.656-2.171l-0.359-1.206c-0.007-0.111-0.021-0.22-0.039-0.331l-0.031-0.159l-0.023-0.265
								c-0.219-2.88-0.207-6.056-0.245-9.122c-0.034-6.195-0.041-12.408-0.326-18.673c-0.167-3.141-0.313-6.254-0.838-9.538
								c-0.185-0.857-0.255-1.626-0.636-2.641l-0.414-1.176c-0.092-0.275-0.216-0.519-0.274-0.852
								c-0.333-1.201-0.439-2.634-0.477-4.051c-0.052-5.779,1.091-11.843,2.697-17.622c0.415-1.451,0.856-2.89,1.347-4.31
								c0.452-1.339,1.1-3.021,1.457-4.662c0.787-3.295,1.002-6.729,0.653-10.05c-0.729-6.674-3.249-12.813-6.293-18.403
								l-0.577-1.05l-0.376-0.849c-0.307-0.534-0.422-1.174-0.601-1.78c-0.2-0.6-0.19-1.289-0.308-1.926
								c-0.042-0.665-0.026-1.349-0.032-2.026c0.146-2.75,0.878-5.58,1.867-8.339c0.999-2.759,2.301-5.462,3.773-8.053
								c0.749-1.283,1.527-2.567,2.371-3.75c0.732-1.006,1.792-2.047,2.864-3.054c2.192-2.016,4.605-3.917,7.023-5.801
								c2.427-1.882,4.896-3.719,7.401-5.524l3.769-2.691l1.895-1.331c0.647-0.462,1.222-0.795,2.029-1.509
								c1.426-1.299,2.32-2.731,3.15-4.114c0.814-1.392,1.535-2.784,2.255-4.155c2.84-5.477,5.916-10.722,10.014-15.218
								c2.02-2.244,4.204-4.412,6.621-6.21c2.386-1.843,5.027-3.384,7.863-4.456c2.831-1.096,5.838-1.752,8.896-1.936
								c0.764-0.068,1.529-0.037,2.305-0.062c0.761,0.047,1.535,0.041,2.302,0.14c1.532,0.15,3.067,0.413,4.549,0.871
								c-5.825-2.194-12.456-2.206-18.496-0.308c-3.044,0.91-5.906,2.399-8.525,4.195c-2.66,1.768-5.027,3.868-7.276,6.108
								c-4.506,4.49-7.985,9.921-11.077,15.308c-0.78,1.352-1.557,2.672-2.346,3.937c-0.79,1.25-1.646,2.426-2.547,3.185
								c-0.349,0.327-1.119,0.79-1.747,1.206l-1.951,1.279l-3.887,2.595c-5.161,3.52-10.281,7.05-15.124,11.269
								c-1.199,1.1-2.407,2.197-3.534,3.679c-0.987,1.327-1.839,2.681-2.678,4.061c-1.646,2.765-3.103,5.645-4.274,8.696
								c-1.166,3.045-2.048,6.283-2.258,9.734c-0.009,0.867-0.025,1.743,0.026,2.623c0.134,0.885,0.145,1.78,0.407,2.663
								c0.238,0.881,0.432,1.781,0.862,2.616l0.582,1.273l0.536,0.998c2.843,5.281,5.04,10.893,5.617,16.601
								c0.313,2.843,0.143,5.688-0.489,8.423c-0.136,0.692-0.346,1.364-0.57,2.035c-0.188,0.631-0.477,1.441-0.731,2.187
								c-0.512,1.52-0.97,3.046-1.396,4.58c-0.844,3.077-1.527,6.186-2.026,9.352c-0.481,3.167-0.814,6.382-0.694,9.716
								c0.079,1.669,0.209,3.36,0.729,5.143c0.093,0.438,0.293,0.898,0.467,1.354c0.077,0.199,0.213,0.5,0.249,0.621l0.125,0.386
								c0.2,0.428,0.321,1.215,0.47,1.87c0.509,2.84,0.732,5.932,0.945,8.974c0.369,6.131,0.553,12.316,0.799,18.523
								c0.14,3.127,0.201,6.163,0.56,9.46l0.038,0.32l0.082,0.411l0.194,0.811l0.334,1.01c0.232,0.749,0.494,1.507,0.758,2.259
								c0.537,1.51,1.157,2.985,1.836,4.437c2.716,5.788,6.406,11.052,10.707,15.666c4.343,4.594,9.296,8.535,14.571,11.884
								c5.232,3.449,10.986,5.935,16.709,8.302L-56.841,241.61z"/>
						</g>
						<g>
							<path fill="#2D2212" d="M63.406,109.43c0,0,24.552,6.718,35.336,33.701c0,0,8.833,23.797-3.775,20.188
								c0,0-9.806,1.043-30.799-25.254C43.174,111.764,63.406,109.43,63.406,109.43z"/>
							<g>
								<path fill="#FCCDBE" d="M62.865,127.625c0,0,17.399-3.779,23.027-22.561c5.632-18.781-2.148-21.724,4.042-26.928
									c0,0,3.75-3.181,6.854,5.502c3.107,8.678,2.46,22.044,13.199,24.986c10.731,2.942,28.597,4.909,32.518,11.409
									c0,0,1.622,4.415-9.483,1.839c0,0,19.469,2.078,18.979,7.6c-0.479,5.523-23.259-2.202-37.875-1.104
									c-14.626,1.101-34.63,19.736-37.563,25.254C76.555,153.627,58.829,132.778,62.865,127.625z"/>
								<path fill="#B36457" d="M136.937,122.426c-2.66,0-5.245-0.45-7.793-1.04c-2.542-0.621-5.052-1.41-7.406-2.641
									c2.642,0.289,5.163,0.851,7.698,1.435C131.953,120.808,134.464,121.466,136.937,122.426z"/>
							</g>
							<g>
								<path fill="#E89F23" d="M63.406,109.43c0,0-3.508-5.216-17.166,7.444c-13.659,12.664-14.494,14.196-8.405,21.208
									c6.096,7.013,18.904,27.631,22.834,36.399c3.931,8.771,14.381,11.507,23.11,2.962c8.727-8.552,14.862-13.498,14.862-13.498
									s-21.769-2.927-34.231-32.201C55.34,110.458,63.406,109.43,63.406,109.43z"/>
								<g>
									<path fill="#9F6928" d="M59.137,117.083l-5.321,3.832c-1.74,1.266-3.421,2.576-5.074,3.909
										c-1.659,1.33-3.231,2.743-4.775,4.214c-1.563,1.463-2.956,3.072-4.521,4.703c0.658-2.134,1.69-4.185,3.063-5.978
										c1.355-1.792,2.903-3.464,4.666-4.858c1.747-1.418,3.643-2.636,5.637-3.643C54.813,118.272,56.918,117.462,59.137,117.083z
										"/>
									<path fill="#9F6928" d="M68.856,180.862l5.288-3.875c1.729-1.282,3.4-2.605,5.041-3.955
										c1.646-1.344,3.206-2.774,4.737-4.253c1.551-1.479,2.929-3.104,4.475-4.743c-0.637,2.14-1.657,4.203-3.005,6.002
										c-1.342,1.809-2.877,3.496-4.629,4.903c-1.728,1.432-3.617,2.666-5.605,3.688
										C73.171,179.638,71.074,180.468,68.856,180.862z"/>
									<path fill="#9F6928" d="M60.934,128.254c-3.25,1.847-6.094,3.789-8.775,6.032c-1.311,1.137-2.653,2.268-3.883,3.535
										c-1.281,1.236-2.461,2.573-3.847,3.871c0.487-1.813,1.28-3.547,2.352-5.102c1.028-1.591,2.345-2.982,3.788-4.213
										c1.454-1.228,3.106-2.209,4.843-2.955C57.161,128.686,59.031,128.187,60.934,128.254z"/>
									<path fill="#9F6928" d="M64.512,136.283c-0.739,1.544-1.721,2.899-2.783,4.172c-1.069,1.269-2.222,2.462-3.493,3.53
										c-1.267,1.075-2.622,2.055-4.095,2.861c-1.467,0.809-3.052,1.495-4.754,1.728c1.252-1.161,2.43-2.243,3.633-3.306
										c1.202-1.06,2.379-2.146,3.613-3.175c1.224-1.03,2.47-2.055,3.769-3.033C61.69,138.074,63.021,137.126,64.512,136.283z"/>
									<path fill="#9F6928" d="M69.714,146.263c-0.989,1.321-2.117,2.441-3.293,3.493c-1.174,1.051-2.406,2.031-3.685,2.929
										c-1.281,0.908-2.623,1.728-4.008,2.483c-1.386,0.752-2.824,1.435-4.402,1.918c0.985-1.325,2.112-2.45,3.29-3.502
										c1.181-1.048,2.405-2.03,3.691-2.928c1.276-0.9,2.616-1.724,4.007-2.479C66.7,147.427,68.138,146.745,69.714,146.263z"/>
									<path fill="#9F6928" d="M75.38,153.216c-0.665,1.635-1.702,3.049-2.852,4.329c-1.156,1.276-2.455,2.44-3.872,3.425
										c-1.41,0.99-2.935,1.832-4.542,2.462c-1.591,0.671-3.288,1.104-5.027,1.247c1.37-1.11,2.765-1.999,4.117-2.949l4.03-2.793
										C69.925,157.088,72.5,155.155,75.38,153.216z"/>
									<path fill="#9F6928" d="M81.867,159.839c-0.813,1.798-2.07,3.301-3.373,4.706c-1.312,1.393-2.729,2.681-4.227,3.853
										c-1.497,1.178-3.076,2.237-4.71,3.21c-1.64,0.966-3.343,1.835-5.182,2.484c1.255-1.499,2.635-2.799,4.043-4.048
										c1.407-1.252,2.842-2.453,4.315-3.599c1.473-1.151,2.967-2.262,4.486-3.35C78.736,161.991,80.287,160.959,81.867,159.839z"
										/>
								</g>
							</g>
						</g>
					</g>
					<g>
						<path fill="#E5F1FB" d="M140.129,85.217h0.013l-0.073-0.174c-0.229-0.618-0.496-1.221-0.822-1.792l-9.96-21.892
							c-0.635-1.386-2.597-1.389-3.231-0.003l-10.011,21.907c-0.31,0.553-0.564,1.127-0.789,1.728l-0.056,0.125h0.006
							c-0.918,2.507-1.148,5.353-0.267,8.342c1.393,4.735,5.444,8.424,10.316,9.277c8.376,1.468,15.659-4.946,15.659-13.055
							C140.914,88.11,140.626,86.615,140.129,85.217z"/>
						<path fill="#E5F1FB" d="M115.815,52.45h0.012l-0.049-0.089c-0.124-0.339-0.268-0.668-0.442-0.985l-5.443-11.962
							c-0.348-0.758-1.424-0.758-1.771,0l-5.468,11.968c-0.172,0.302-0.312,0.619-0.436,0.944l-0.031,0.068h0.006
							c-0.502,1.373-0.628,2.927-0.148,4.562c0.766,2.588,2.977,4.604,5.636,5.067c4.58,0.805,8.557-2.7,8.557-7.127
							C116.251,54.035,116.088,53.215,115.815,52.45z"/>
						<path fill="#E5F1FB" d="M154.949,65.736h0.007l-0.043-0.09c-0.124-0.342-0.273-0.671-0.447-0.984l-5.443-11.962
							c-0.342-0.758-1.423-0.758-1.766,0l-5.474,11.969c-0.168,0.304-0.306,0.618-0.43,0.947l-0.03,0.066h0.007
							c-0.504,1.373-0.634,2.926-0.149,4.561c0.765,2.588,2.976,4.604,5.63,5.071c4.579,0.801,8.563-2.704,8.563-7.135
							C155.379,67.317,155.224,66.5,154.949,65.736z"/>
					</g>
				</g>
			</g>
		</g>
	</g>
</g>
</svg>
