<?xml version="1.0" encoding="utf-8"?>
<!-- Generator: Adobe Illustrator 16.0.0, SVG Export Plug-In . SVG Version: 6.00 Build 0)  -->
<!DOCTYPE svg PUBLIC "-//W3C//DTD SVG 1.1//EN" "http://www.w3.org/Graphics/SVG/1.1/DTD/svg11.dtd">
<svg version="1.1" id="Layer_1" xmlns="http://www.w3.org/2000/svg" xmlns:xlink="http://www.w3.org/1999/xlink" x="0px" y="0px"
	 width="200px" height="200px" viewBox="0 0 200 200" enable-background="new 0 0 200 200" xml:space="preserve">
<g>
	<g>
		<g>
			<path fill="#2A3072" d="M20.192,73.622c0-14.573,9.403-23.099,19.787-29.631c10.378-6.533,23.116-8.843,35.311-7.547
				c5.341,0.569,10.699,1.795,16.027,1.102c8.979-1.166,16.293-7.511,24.576-11.162c17.165-7.562,39.132-2.074,50.714,12.685
				c7.03,8.958,11.274,16.188,13.357,27.382c0.744,3.996,0.29,12.213-0.14,16.254c-0.515,4.898-2.543,9.488-4.414,14.038
				c-3.124,7.629-5.873,15.516-6.647,23.723c-1.15,12.062,1.907,24.813-2.701,36.017c-3.639,8.846-11.691,15.321-20.537,18.97
				c-8.846,3.653-18.503,4.795-28.04,5.537c-15.1,1.181-30.739,1.383-44.859-4.09c-18.394-7.136-32.599-24.165-36.31-43.546
				c-1.907-9.963-1.248-20.522-5.141-29.896c-3.845-9.278-9.748-14.731-10.978-27.04v-2.795H20.192z"/>
		</g>
		<g>
			<path fill="#FFFFFF" d="M140.137,79.459h-11.825c-2.555-10.365-11.909-18.085-23.05-18.085c-11.147,0-20.496,7.72-23.057,18.085
				H70.386c-8.422,0-15.245,6.824-15.245,15.24v25.956c0,8.42,6.823,15.243,15.245,15.243h69.751
				c8.416,0,15.239-6.823,15.239-15.243V94.699C155.376,86.283,148.553,79.459,140.137,79.459z M105.262,67.574
				c7.695,0,14.234,4.979,16.602,11.885H88.647C91.021,72.554,97.56,67.574,105.262,67.574z"/>
			<polygon fill="#D23227" points="121.016,102.174 110.311,102.174 110.311,91.472 100.206,91.472 100.206,102.174 89.501,102.174 
				89.501,112.282 100.206,112.282 100.206,122.986 110.311,122.986 110.311,112.282 121.016,112.282 			"/>
		</g>
	</g>
</g>
</svg>
