<?xml version="1.0" encoding="utf-8"?>
<!-- Generator: Adobe Illustrator 16.0.0, SVG Export Plug-In . SVG Version: 6.00 Build 0)  -->
<!DOCTYPE svg PUBLIC "-//W3C//DTD SVG 1.1//EN" "http://www.w3.org/Graphics/SVG/1.1/DTD/svg11.dtd">
<svg version="1.1" id="Layer_1" xmlns="http://www.w3.org/2000/svg" xmlns:xlink="http://www.w3.org/1999/xlink" x="0px" y="0px"
	 width="200px" height="200px" viewBox="0 0 200 200" enable-background="new 0 0 200 200" xml:space="preserve">
<g>
	<g>
		<g>
			<path fill="#2A3072" d="M12.764,138.447C2.002,126.636,1.276,113.024,5.127,99.827c3.857-13.194,11.396-14.917,22.55-23.148
				c4.884-3.599,10.272-6.688,14.208-11.302c6.643-7.773,8.082-18.49,12.312-27.757c8.761-19.193,28.52-31.027,51.75-28.32
				c12.553,1.464,21.373,4.541,31.384,12.037c3.569,2.674,9.643,9.425,11.886,13.286c2.994,5.152,4.865,9.624,6.669,14.734
				c3.021,8.564,3.348,10.52,13.691,19.144c10.206,8.513,21.87,13.504,26.289,26.101c3.492,9.944,1.537,21.323-3.157,31.014
				c-4.701,9.693-11.932,17.967-19.354,25.833c-11.755,12.455-24.668,24.518-40.517,30.827c-20.641,8.219-45.087,5.224-62.492-7.663
				c-8.952-6.624-16.202-15.686-26.369-20.32c-10.069-4.594-19.033-4.519-29.141-13.564L12.764,138.447z"/>
		</g>
		<g>
			<path fill="#FFFFFF" d="M165.182,86.841c-7.355-3.583-17.672-0.908-23.491,6.09c-3.119,3.753-5.688,6.384-7.78,8.235
				c-6.545-3.74-12.148-9.595-15.058-14.09c-5.328-8.258-18.556-10.056-26.322,1.275c-7.774,11.331-15.516,9.892-22.558,15.073
				c-0.065,0.046-0.118,0.104-0.183,0.157c-2.438-1.678-5.976-4.806-10.826-10.651c-5.82-7.002-16.144-9.679-23.499-6.087
				c-5.931,2.89-8.33,9.137-6.584,17.127c1.432,6.577,5.381,11.729,11.742,15.313c6.258,3.527,14.019,4.995,21.119,4.995
				c2.216,0,4.354-0.15,6.368-0.418c0.844,4.812,1.863,8.538,1.863,8.538s6.068,15.346,35.94,15.539
				c30.749,0.202,34.797-14.244,34.797-14.244s1.21-4.267,2.203-9.568c5.924-0.465,12.017-1.969,17.11-4.839
				c6.354-3.582,10.311-8.734,11.742-15.313C173.512,95.979,171.106,89.735,165.182,86.841z M41.571,117.59
				c-5.852-3.297-9.487-8.021-10.801-14.033c-1.556-7.15,0.412-12.462,5.538-14.966c6.479-3.164,15.966-0.657,21.158,5.583
				c4.786,5.757,8.408,9.056,11.075,10.926c-2.105,3.697-1.674,10.798-0.751,16.829C59.584,122.981,49.149,121.86,41.571,117.59z
				 M169.863,103.557c-1.308,6.015-4.943,10.736-10.794,14.037c-4.59,2.583-10.239,4.009-15.803,4.505
				c1.288-7.78,1.784-16.819-2.563-18.025c-1.687-0.475-3.347-1.135-4.963-1.936c2.086-1.909,4.552-4.485,7.441-7.964
				c5.184-6.241,14.671-8.745,21.145-5.586C169.458,91.092,171.426,96.407,169.863,103.557z"/>
			<g>
				<path fill="#BDE1F7" d="M74.485,109.091c2.654,0.239,5.236,0.572,7.845,0.746c1.301,0.098,2.596,0.192,3.897,0.258
					c1.294,0.092,2.596,0.131,3.89,0.187c5.185,0.213,10.363,0.215,15.548,0.141c2.589-0.069,5.186-0.104,7.781-0.239
					c1.293-0.059,2.595-0.071,3.896-0.159c1.295-0.076,2.596-0.142,3.903-0.197c1.302-0.035,2.603-0.14,3.91-0.216
					c1.302-0.071,2.609-0.14,3.923-0.189c2.622-0.133,5.237-0.333,7.904-0.33c-2.511,0.847-5.066,1.55-7.629,2.217
					c-1.289,0.291-2.577,0.572-3.878,0.837s-2.596,0.536-3.91,0.719c-2.615,0.405-5.236,0.785-7.878,0.994
					c-1.327,0.107-2.642,0.248-3.976,0.301l-3.975,0.147c-5.31,0.072-10.645-0.203-15.907-0.994
					C84.573,112.514,79.342,111.226,74.485,109.091z"/>
				<path fill="#BDE1F7" d="M74.485,119.987c2.654,0.242,5.236,0.572,7.845,0.742c1.301,0.101,2.596,0.198,3.897,0.261
					c1.294,0.092,2.596,0.131,3.89,0.188c5.185,0.212,10.363,0.215,15.548,0.14c2.589-0.068,5.186-0.104,7.781-0.239
					c1.293-0.059,2.595-0.071,3.896-0.156c1.295-0.079,2.596-0.141,3.903-0.199c1.302-0.036,2.603-0.141,3.91-0.213
					c1.302-0.078,2.609-0.141,3.923-0.195c2.622-0.131,5.237-0.331,7.904-0.327c-2.511,0.847-5.066,1.55-7.629,2.216
					c-1.289,0.291-2.577,0.572-3.878,0.837c-1.301,0.266-2.596,0.536-3.91,0.719c-2.615,0.406-5.236,0.788-7.878,0.991
					c-1.327,0.111-2.642,0.249-3.976,0.304l-3.975,0.147c-5.31,0.072-10.645-0.202-15.907-0.994
					C84.573,123.406,79.342,122.122,74.485,119.987z"/>
				<path fill="#BDE1F7" d="M74.661,130.199c2.655,0.242,5.237,0.572,7.852,0.745c1.301,0.102,2.596,0.2,3.897,0.259
					c1.294,0.092,2.596,0.131,3.89,0.193c5.185,0.209,10.363,0.209,15.542,0.14c2.596-0.071,5.191-0.111,7.78-0.244
					c1.302-0.053,2.602-0.069,3.896-0.154c1.301-0.081,2.603-0.144,3.903-0.199c1.308-0.04,2.609-0.141,3.91-0.212
					c1.308-0.079,2.615-0.142,3.93-0.196c2.615-0.135,5.237-0.334,7.904-0.331c-2.511,0.851-5.067,1.554-7.63,2.218
					c-1.288,0.29-2.583,0.57-3.884,0.836c-1.295,0.268-2.59,0.539-3.903,0.723c-2.615,0.402-5.237,0.785-7.885,0.99
					c-1.321,0.111-2.642,0.249-3.969,0.304l-3.976,0.145c-5.316,0.075-10.644-0.199-15.907-0.99
					C84.75,133.625,79.525,132.331,74.661,130.199z"/>
			</g>
		</g>
	</g>
</g>
</svg>
