<?xml version="1.0" encoding="utf-8"?>
<!-- Generator: Adobe Illustrator 16.0.0, SVG Export Plug-In . SVG Version: 6.00 Build 0)  -->
<!DOCTYPE svg PUBLIC "-//W3C//DTD SVG 1.1//EN" "http://www.w3.org/Graphics/SVG/1.1/DTD/svg11.dtd">
<svg version="1.1" id="Layer_1" xmlns="http://www.w3.org/2000/svg" xmlns:xlink="http://www.w3.org/1999/xlink" x="0px" y="0px"
	 width="200px" height="200px" viewBox="0 0 200 200" enable-background="new 0 0 200 200" xml:space="preserve">
<g>
	<g>
		<g>
			<path fill="#2A3072" d="M43.198,28.323c9.265-12.666,22.851-14.099,36.028-13.175c13.171,0.919,25.711,7.012,35.483,15.888
				c4.279,3.89,8.158,8.364,13.227,11.146c8.542,4.694,18.939,3.835,28.453,5.924c19.725,4.341,35.325,23.076,36.009,43.263
				c0.419,12.258-0.494,21.234-5.803,32.287c-1.891,3.947-7.509,10.799-10.452,14.038c-3.562,3.929-8.242,6.627-12.761,9.392
				c-7.56,4.648-14.96,9.754-20.856,16.39c-8.669,9.75-14.115,22.774-25.243,29.582c-8.786,5.375-19.902,5.883-29.907,3.428
				c-10.015-2.449-19.13-7.593-27.887-13.012c-13.873-8.573-27.593-18.34-36.389-32.076c-11.449-17.894-12.961-41.719-3.867-60.919
				c4.679-9.87,11.958-18.631,14.542-29.247c2.552-10.511,0.886-19.005,7.647-30.478L43.198,28.323L43.198,28.323z"/>
		</g>
		<g>
			<g>
				<g>
					<defs>
						<path id="SVGID_1_" d="M19.312,70.717c0-14.958,9.645-23.706,20.302-30.412c10.65-6.705,23.725-9.075,36.239-7.746
							c5.481,0.584,10.983,1.843,16.448,1.131c9.213-1.196,16.729-7.708,25.223-11.455c17.617-7.761,40.162-2.128,52.049,13.018
							c7.221,9.194,10.459,20.861,12.597,32.351c0.758,4.104,1.41,8.286,0.97,12.434c-0.527,5.027-2.609,9.737-4.529,14.407
							c-3.201,7.831-6.021,15.923-6.823,24.346c-1.181,12.379,1.958,25.464-2.771,36.963c-3.736,9.081-12,15.727-21.078,19.469
							c-9.086,3.752-18.992,4.924-28.778,5.684c-15.497,1.212-31.548,1.421-46.045-4.197c-18.878-7.322-33.45-24.8-37.259-44.689
							c-1.955-10.226-1.286-21.063-5.272-30.683c-3.952-9.522-10.014-15.119-11.269-27.751v-2.869H19.312z"/>
					</defs>
					<clipPath id="SVGID_2_">
						<use xlink:href="#SVGID_1_"  overflow="visible"/>
					</clipPath>
					<g clip-path="url(#SVGID_2_)">
						<g>
							<g>
								<path fill="#C0852B" d="M-56.841,241.609l-2.057-1.07c-0.684-0.367-1.327-0.796-1.992-1.189l-3.971-2.387l-3.788-2.65
									c-4.965-3.629-9.6-7.694-13.524-12.362c-3.937-4.638-7.238-9.806-9.554-15.361c-0.581-1.386-1.091-2.795-1.555-4.226
									c-0.226-0.715-0.452-1.432-0.656-2.172l-0.359-1.205c-0.007-0.111-0.021-0.221-0.039-0.331l-0.031-0.159l-0.023-0.266
									c-0.219-2.879-0.207-6.056-0.245-9.121c-0.034-6.195-0.041-12.408-0.326-18.674c-0.167-3.141-0.313-6.254-0.838-9.537
									c-0.185-0.857-0.255-1.627-0.636-2.642l-0.414-1.176c-0.092-0.274-0.216-0.519-0.274-0.853
									c-0.333-1.201-0.439-2.633-0.477-4.051c-0.052-5.779,1.091-11.843,2.697-17.621c0.415-1.451,0.856-2.891,1.347-4.311
									c0.452-1.339,1.1-3.021,1.457-4.662c0.787-3.295,1.002-6.729,0.653-10.05c-0.729-6.675-3.249-12.813-6.293-18.403
									l-0.577-1.05l-0.376-0.849c-0.307-0.534-0.422-1.174-0.601-1.78c-0.2-0.6-0.19-1.289-0.308-1.926
									c-0.042-0.665-0.026-1.349-0.032-2.026c0.146-2.75,0.878-5.58,1.867-8.339c0.999-2.759,2.301-5.462,3.773-8.053
									c0.749-1.283,1.527-2.567,2.371-3.75c0.732-1.006,1.792-2.047,2.864-3.054c2.192-2.016,4.605-3.917,7.023-5.801
									c2.427-1.882,4.896-3.719,7.401-5.524l3.769-2.691l1.895-1.331c0.647-0.462,1.222-0.795,2.029-1.509
									c1.426-1.299,2.32-2.731,3.15-4.114c0.814-1.392,1.535-2.784,2.255-4.155c2.84-5.477,5.916-10.722,10.014-15.218
									c2.02-2.244,4.204-4.412,6.621-6.21c2.386-1.843,5.027-3.384,7.863-4.456c2.831-1.096,5.838-1.752,8.896-1.936
									c0.764-0.068,1.529-0.037,2.305-0.062c0.761,0.047,1.535,0.041,2.302,0.14c1.532,0.15,3.067,0.413,4.549,0.871
									c-5.825-2.194-12.456-2.206-18.496-0.308c-3.044,0.91-5.906,2.399-8.525,4.195c-2.66,1.768-5.027,3.868-7.276,6.108
									c-4.506,4.49-7.985,9.921-11.077,15.308c-0.78,1.352-1.557,2.672-2.346,3.937c-0.79,1.25-1.646,2.426-2.547,3.185
									c-0.349,0.327-1.119,0.79-1.747,1.206l-1.951,1.279l-3.887,2.595c-5.161,3.52-10.281,7.05-15.124,11.269
									c-1.199,1.1-2.407,2.197-3.534,3.679c-0.987,1.327-1.839,2.681-2.678,4.061c-1.646,2.765-3.103,5.645-4.274,8.696
									c-1.166,3.045-2.048,6.283-2.258,9.734c-0.009,0.867-0.025,1.743,0.026,2.623c0.134,0.885,0.145,1.78,0.407,2.663
									c0.238,0.881,0.432,1.781,0.862,2.616l0.582,1.273l0.536,0.998c2.843,5.281,5.04,10.894,5.617,16.601
									c0.313,2.844,0.143,5.688-0.489,8.424c-0.136,0.691-0.346,1.363-0.57,2.035c-0.188,0.631-0.477,1.44-0.731,2.187
									c-0.512,1.521-0.97,3.046-1.396,4.58c-0.844,3.077-1.527,6.187-2.026,9.353c-0.481,3.166-0.814,6.381-0.694,9.715
									c0.079,1.67,0.209,3.361,0.729,5.144c0.093,0.438,0.293,0.897,0.467,1.354c0.077,0.199,0.213,0.5,0.249,0.621l0.125,0.386
									c0.2,0.428,0.321,1.215,0.47,1.87c0.509,2.84,0.732,5.932,0.945,8.974c0.369,6.131,0.553,12.315,0.799,18.522
									c0.14,3.127,0.201,6.164,0.56,9.461l0.038,0.32l0.082,0.41l0.194,0.811l0.334,1.011c0.232,0.749,0.494,1.507,0.758,2.259
									c0.537,1.51,1.157,2.985,1.836,4.438c2.716,5.787,6.406,11.052,10.707,15.666c4.343,4.594,9.296,8.535,14.571,11.884
									c5.232,3.448,10.986,5.935,16.709,8.302L-56.841,241.609z"/>
							</g>
						</g>
					</g>
				</g>
			</g>
		</g>
	</g>
</g>
<path fill="#FEDB41" d="M93.916,65.31c-4.373,0-7.901,3.705-7.901,8.077v5.268c0,1.476,1.158,2.634,2.634,2.634h10.535
	c1.475,0,2.633-1.158,2.633-2.634v-5.268C101.816,69.014,98.288,65.31,93.916,65.31z"/>
<path fill="#FCBF29" d="M99.183,81.288h-5.268V65.31c4.373,0,7.901,3.705,7.901,8.077v5.268
	C101.816,80.13,100.658,81.288,99.183,81.288z"/>
<path fill="#FD3018" d="M144.31,118.162v7.901c0,4.372-3.704,7.901-8.077,7.901H62.31c-4.373,0-7.901-3.529-7.901-7.901v-7.901
	l5.268-2.634l-5.268-2.634v-5.269l2.634-5.268V91.823l-2.634-5.268v-2.634c0-4.373,3.529-7.901,7.901-7.901h46.899
	c4.109,0,7.901,2.055,10.378,5.268l-4.425,5.268v10.536l17.277,5.267l0.053,0.106c5.688,0.632,10.396,4.898,11.554,10.43
	c0.158,0.842-5.004,1.738-5.004,2.634L144.31,118.162z"/>
<path fill="#B80000" d="M144.31,118.162v7.901c0,4.372-3.704,7.901-8.077,7.901H93.916V76.021h15.293
	c4.109,0,7.901,2.055,10.378,5.268l-4.425,5.268v10.536l17.277,5.267l0.053,0.106c5.688,0.632,10.396,4.898,11.554,10.43
	c0.158,0.842-5.004,1.738-5.004,2.634L144.31,118.162z"/>
<g>
	<path fill="#FEA832" d="M96.549,57.232v2.81c0,1.476-1.158,2.634-2.634,2.634s-2.634-1.158-2.634-2.634v-2.81
		c0-1.475,1.158-2.634,2.634-2.634S96.549,55.757,96.549,57.232z"/>
	<path fill="#FEA832" d="M78.884,67.172l-2.634-2.634c-1.029-1.028-1.029-2.695,0-3.724c1.028-1.029,2.696-1.029,3.725,0
		l2.634,2.634c1.029,1.029,1.029,2.696,0,3.725S79.913,68.201,78.884,67.172z"/>
</g>
<path fill="#FE9923" d="M105.398,67.172c-1.029-1.029-1.029-2.696,0-3.725l2.634-2.634c1.028-1.029,2.695-1.029,3.724,0
	c1.029,1.029,1.029,2.696,0,3.724l-2.634,2.634C108.094,68.201,106.427,68.201,105.398,67.172z"/>
<path fill="#57555C" d="M75.479,123.43c-5.794,0-10.536,4.74-10.536,10.535c0,5.794,4.741,10.535,10.536,10.535
	s10.535-4.741,10.535-10.535C86.014,128.17,81.273,123.43,75.479,123.43z"/>
<path fill="#3C3A41" d="M86.014,133.965c0,5.794-4.741,10.535-10.535,10.535v-21.07C81.273,123.43,86.014,128.17,86.014,133.965z"/>
<path fill="#EFE6DE" d="M75.479,128.697c-2.897,0-5.268,2.37-5.268,5.268s2.371,5.268,5.268,5.268c2.897,0,5.268-2.37,5.268-5.268
	S78.376,128.697,75.479,128.697z"/>
<path fill="#DFCCBF" d="M80.747,133.965c0,2.897-2.371,5.268-5.268,5.268v-10.535C78.376,128.697,80.747,131.067,80.747,133.965z"/>
<path fill="#57555C" d="M123.063,123.43c-5.795,0-10.535,4.74-10.535,10.535c0,5.794,4.74,10.535,10.535,10.535
	c5.794,0,10.535-4.741,10.535-10.535C133.599,128.17,128.857,123.43,123.063,123.43z"/>
<path fill="#3C3A41" d="M133.599,133.965c0,5.794-4.741,10.535-10.535,10.535v-21.07C128.857,123.43,133.599,128.17,133.599,133.965
	z"/>
<path fill="#EFE6DE" d="M123.063,128.697c-2.897,0-5.268,2.37-5.268,5.268s2.37,5.268,5.268,5.268s5.268-2.37,5.268-5.268
	S125.961,128.697,123.063,128.697z"/>
<g>
	<path fill="#DFCCBF" d="M128.331,133.965c0,2.897-2.37,5.268-5.268,5.268v-10.535C125.961,128.697,128.331,131.067,128.331,133.965
		z"/>
	<path fill="#DFCCBF" d="M107.261,89.189v5.268c0,4.357,3.544,7.901,7.901,7.901h17.294l-11.967-19.943
		c-0.251-0.417-0.604-0.745-0.896-1.127h-4.432C110.805,81.288,107.261,84.833,107.261,89.189z"/>
</g>
<g>
	<path fill="#EFE6DE" d="M70.211,99.725v-5.267c0-4.357-3.544-7.902-7.901-7.902h-7.901v21.07h7.901
		C66.667,107.626,70.211,104.082,70.211,99.725z"/>
	<path fill="#EFE6DE" d="M144.31,115.528v2.634H54.408v-5.268h89.638C144.204,113.736,144.31,114.633,144.31,115.528z"/>
	<path fill="#EFE6DE" d="M101.816,99.725c0,1.475-1.158,2.634-2.633,2.634h-2.634v2.634c0,1.475-1.158,2.634-2.634,2.634
		s-2.634-1.159-2.634-2.634v-2.634h-2.634c-1.476,0-2.634-1.159-2.634-2.634s1.158-2.633,2.634-2.633h2.634v-2.634
		c0-1.476,1.158-2.634,2.634-2.634s2.634,1.159,2.634,2.634v2.634h2.634C100.658,97.091,101.816,98.25,101.816,99.725z"/>
</g>
<path fill="#DFCCBF" d="M101.816,99.725c0,1.475-1.158,2.634-2.633,2.634h-2.634v2.634c0,1.475-1.158,2.634-2.634,2.634V91.823
	c1.476,0,2.634,1.159,2.634,2.634v2.634h2.634C100.658,97.091,101.816,98.25,101.816,99.725z"/>
<path fill="#FE9923" d="M93.916,62.676v-8.077c1.476,0,2.634,1.159,2.634,2.634v2.81C96.549,61.518,95.391,62.676,93.916,62.676z"/>
<path fill="#DFCCBF" d="M144.31,115.528v2.634H93.916v-5.268h50.13C144.204,113.736,144.31,114.633,144.31,115.528z"/>
</svg>
