<?xml version="1.0" encoding="utf-8"?>
<!-- Generator: Adobe Illustrator 16.0.0, SVG Export Plug-In . SVG Version: 6.00 Build 0)  -->
<!DOCTYPE svg PUBLIC "-//W3C//DTD SVG 1.1//EN" "http://www.w3.org/Graphics/SVG/1.1/DTD/svg11.dtd">
<svg version="1.1" id="Layer_1" xmlns="http://www.w3.org/2000/svg" xmlns:xlink="http://www.w3.org/1999/xlink" x="0px" y="0px"
	 width="606.896px" height="527.974px" viewBox="0 0 606.896 527.974" enable-background="new 0 0 606.896 527.974"
	 xml:space="preserve">
<g>
	<g opacity="0.5">
		<path fill="#E5F2FB" d="M499.649,150.535c-6.232-33.5-18.915-55.133-39.96-81.939C425.022,24.442,359.296,8.008,307.934,30.648
			c-24.777,10.915-46.689,29.905-73.541,33.392c-15.936,2.074-31.979-1.604-47.958-3.297c-36.492-3.877-74.611,3.026-105.666,22.575
			c-31.063,19.549-59.191,45.059-59.191,88.669v8.389c3.66,36.835,21.334,53.149,32.857,80.916
			c11.623,28.039,9.674,59.645,15.382,89.458c11.098,57.987,53.593,108.953,108.636,130.296
			c42.26,16.388,89.049,15.782,134.237,12.248c28.533-2.227,57.434-5.644,83.903-16.569c26.473-10.916,50.568-30.293,61.457-56.772
			c13.797-33.526,4.641-71.684,8.08-107.775c2.338-24.56,10.563-48.158,19.903-70.986c5.59-13.625,11.66-27.349,13.208-42.008
			C500.52,187.088,501.879,162.502,499.649,150.535z"/>
	</g>
	<g>
		<path fill="#FDBA24" d="M331.835,414.971l-20.78-98.729l-105.571-21.365c0,0-72.199,35.056-72.75,35.323
			c-1.166,0.566-2.467,3.397-3.196,4.402c-2.987,4.111-5.794,4.848-9.018,7.92c-3.927,3.74-5.567,9.857-7.132,14.864
			c-4.171,13.343-6.92,27.53-7.618,41.317c-0.419,8.289-3.265,17.675-0.142,25.732c2.304,5.945,9.005,12.982,12.959,18.216
			c3.363,4.452,7.813,7.938,12.539,10.845c2.321,1.428,3.518,2.893,5.58,4.563c1.946,1.576,4.48,2.214,6.476,3.737
			c3.029,2.311,4.722,5.575,8.39,7.287c8.276,3.863,16.25,8.94,24.735,12.214c5.645,2.179,11.544,2.891,17.274,4.544
			c6.091,1.758,12.052,3.599,18.298,4.813c3.02,0.587,6.407,0.566,9.446,1.08c5.875,0.996,11.203,1.721,17.157,1.974
			c4.699,0.201,9.149,1.058,14.028,1.058c8.089,0,16.162,0.377,24.246,0.372c8.477-0.007,16.96,0.089,25.438,0
			c11.69-0.125,33.88,1.116,33.291-15.621C334.715,457.602,327.927,437.192,331.835,414.971z"/>
		<g>
			<g>
				<g>
					<path fill="#E89F23" d="M233.736,301.541c0,0,6.785,11.909,26.621,13.015c19.836,1.109,21.882,6.405,29.904-1.497
						c8.021-7.902,11.926-25.655,0-45.141c-11.925-19.488-41.209-16.27-59.077-9.764
						C213.315,264.662,233.736,301.541,233.736,301.541z"/>
					<path fill="#2D2212" d="M260.357,294.671c0,0,3.43-20.278,17.982-38.325c0,0,1.358,16.928,7.21,27.314
						C291.402,294.046,271.734,301.865,260.357,294.671z"/>
					<g>
						<path fill="#9F6928" d="M242.671,288.344c-1.76,2.004-3.287,3.654-4.467,5.522c-0.607,0.919-1.113,1.882-1.539,2.935
							c-0.492,1.045-0.754,2.184-1.237,3.474c-0.617-1.184-0.923-2.564-0.782-3.936c0.101-1.375,0.577-2.744,1.343-3.896
							c0.751-1.166,1.753-2.146,2.893-2.861C240.031,288.886,241.303,288.375,242.671,288.344z"/>
						<path fill="#9F6928" d="M248.323,293.044c-0.419,1.313-0.773,2.485-1.073,3.665c-0.304,1.169-0.568,2.311-0.773,3.469
							c-0.179,1.16-0.399,2.325-0.511,3.54c-0.175,1.218-0.242,2.459-0.515,3.833c-0.802-1.125-1.309-2.409-1.554-3.749
							c-0.282-1.34-0.23-2.737-0.01-4.095c0.242-1.36,0.752-2.673,1.479-3.841C246.107,294.716,247.056,293.656,248.323,293.044z"/>
						<path fill="#9F6928" d="M255.981,297.248c0.241,2.507,0.016,4.687-0.162,6.867l-0.297,3.238l-0.226,3.452
							c-0.948-0.859-1.501-2.051-1.836-3.254c-0.304-1.213-0.367-2.459-0.265-3.674c0.111-1.215,0.404-2.397,0.844-3.521
							C254.503,299.24,255.078,298.159,255.981,297.248z"/>
						<path fill="#9F6928" d="M264.916,298.918c0.733,1.008,1.144,2.104,1.464,3.216c0.3,1.114,0.462,2.258,0.49,3.408
							c0.022,1.153-0.093,2.315-0.378,3.457c-0.312,1.133-0.764,2.265-1.576,3.206c-0.259-1.218-0.378-2.295-0.486-3.381
							c-0.108-1.082-0.177-2.15-0.191-3.226c-0.024-1.079-0.003-2.161,0.087-3.266C264.43,301.225,264.566,300.108,264.916,298.918z
							"/>
						<path fill="#9F6928" d="M274.306,300.275c0.908,0.818,1.45,1.868,1.862,2.932c0.394,1.074,0.617,2.2,0.681,3.333
							c0.088,2.253-0.315,4.569-1.723,6.519c-0.37-1.159-0.499-2.228-0.648-3.278c-0.111-1.051-0.219-2.074-0.256-3.099
							c-0.057-1.024-0.085-2.047-0.083-3.097C274.152,302.528,274.18,301.469,274.306,300.275z"/>
						<path fill="#9F6928" d="M281.417,267.012c0.041-0.781,0.446-1.364,0.922-1.813c0.491-0.437,1.101-0.737,1.744-0.846
							c1.274-0.21,2.684,0.177,3.442,1.483c-0.671,0.398-1.186,0.573-1.662,0.761c-0.474,0.147-0.889,0.285-1.314,0.347
							c-0.426,0.067-0.85,0.116-1.342,0.125C282.706,267.075,282.176,267.064,281.417,267.012z"/>
						<path fill="#9F6928" d="M282.784,272.164c0.241-0.878,0.907-1.475,1.605-1.895c0.717-0.41,1.528-0.61,2.328-0.638
							c0.804-0.029,1.592,0.139,2.313,0.452c0.717,0.333,1.372,0.803,1.869,1.538c-0.845,0.312-1.546,0.406-2.219,0.503
							c-0.666,0.088-1.281,0.12-1.886,0.137c-0.604,0.022-1.197,0.007-1.83-0.01L282.784,272.164z"/>
						<path fill="#9F6928" d="M284.471,278.04c0.477-0.857,1.217-1.413,2.006-1.831c0.8-0.4,1.693-0.617,2.603-0.641
							c1.801-0.058,3.772,0.747,4.646,2.472c-0.985,0.104-1.73,0.053-2.478,0.107l-2.107,0.054c-0.693,0.016-1.403,0.019-2.16,0.011
							C286.214,278.191,285.427,278.17,284.471,278.04z"/>
						<path fill="#9F6928" d="M287.23,282.875c0.345-0.788,1.03-1.239,1.715-1.533c0.7-0.28,1.449-0.365,2.171-0.299
							c0.723,0.066,1.414,0.304,2.032,0.67c0.612,0.384,1.159,0.884,1.533,1.636c-0.809,0.264-1.461,0.315-2.085,0.359
							c-0.618,0.035-1.185,0.009-1.737-0.045c-0.553-0.053-1.09-0.149-1.663-0.273C288.613,283.258,288.03,283.092,287.23,282.875z"
							/>
					</g>
				</g>
				<g>
					<path fill="#FCCDBE" d="M260.357,294.671c0,0,5.105-28.201,28.08-47.725c0,0,40.846,28.202,75.487-3.255
						c0,0,16.776-12.654,16.776-44.472c0,0,2.188-45.555-1.823-57.125c-4.013-11.57-37.197-44.11-84.604-19.884
						c-47.409,24.223-66.736,135.583-65.276,143.175C228.996,265.385,253.428,301.541,260.357,294.671z"/>
				</g>
				<g>
					<path fill="#F79B86" d="M351.709,186.205c0,0,1.276-4.701-2.188-1.086c-3.466,3.617-9.483,11.028-10.395,15.186
						c-0.911,4.158,0.229,14.824,6.405,11.932c6.177-2.893,5.628-8.651,5.446-13.997
						C350.797,192.893,351.709,186.205,351.709,186.205z"/>
					<g>
						<path fill="#0D1937" d="M309.5,170.929c0,0-3.103-0.543-0.823-2.531c2.28-1.99,14.13-4.7,21.242-1.537
							c7.11,3.164-4.74,2.712-9.117,2.712C316.427,169.573,309.5,170.929,309.5,170.929z"/>
						<path fill="#0D1937" d="M377.989,179.351c0,0,2.066,0.04,1.119-2.094c-0.948-2.135-7.703-6.507-12.907-4.906
							c-5.201,1.602,2.312,3.184,5.048,3.916C373.984,176.999,377.989,179.351,377.989,179.351z"/>
					</g>
					<g>
						<path fill="#0D1937" d="M320.044,185.272c-0.716,3.421-2.231,6.001-3.386,5.764c-1.151-0.239-1.503-3.204-0.784-6.625
							c0.717-3.421,2.234-6.002,3.387-5.764C320.414,178.885,320.765,181.851,320.044,185.272z"/>
						<path fill="#0D1937" d="M371.647,193.006c-0.718,3.421-2.235,6-3.388,5.764c-1.15-0.237-1.504-3.204-0.784-6.625
							c0.717-3.422,2.233-6.002,3.387-5.764C372.015,186.619,372.367,189.584,371.647,193.006z"/>
					</g>
				</g>
				<g>
					<path fill="#0D1937" d="M144.027,349.626c0,0-23.712-11.779-37.334-32.493l0.001-42.287
						C133.865,208.491,234.43,64.217,306.671,61.829c87.521-2.892,88.98,57.85,88.98,57.85s2.916,36.516,10.939,43.748
						c0,0-6.928,2.892-25.161-1.447l-0.365-13.377l-5.469,12.654c0,0-30.269-1.085-57.622-16.27c0,0,6.931-16.993,7.661-27.116
						c0,0-14.223,26.393-19.327,27.838l-11.67-3.253c0,0-62.725,79.542-58.896,146.25c0,0,3.828,35.251,12.034,52.063
						C247.776,340.769,199.458,365.537,144.027,349.626z"/>
					<g>
						<path fill="#214082" d="M114.123,304.417c3.25-9.002,7.03-17.803,10.889-26.565c3.951-8.719,8.122-17.343,12.478-25.873
							c8.723-17.057,18.47-33.59,28.951-49.644c10.688-15.913,22.192-31.319,34.998-45.608c6.435-7.113,13.181-13.938,20.191-20.476
							c7.147-6.389,14.548-12.489,22.356-18.021c-7.448,6.009-14.652,12.281-21.471,18.96c-6.797,6.698-13.342,13.642-19.557,20.875
							c-6.135,7.298-12.212,14.647-17.903,22.301c-5.692,7.652-11.185,15.451-16.422,23.422
							c-5.286,7.939-10.375,16.011-15.264,24.207c-4.899,8.19-9.5,16.554-14.095,24.923c-4.558,8.389-8.916,16.89-13.1,25.479
							C121.93,286.958,117.923,295.638,114.123,304.417z"/>
						<path fill="#214082" d="M162.876,258.22c3.376-9.709,7.543-19.145,12.192-28.327c4.641-9.194,9.855-18.098,15.509-26.723
							c5.755-8.559,12.074-16.747,18.985-24.413c7.011-7.579,14.785-14.453,23.242-20.291c-3.784,3.498-7.821,6.638-11.282,10.433
							c-3.718,3.509-6.987,7.451-10.419,11.22l-4.825,5.947c-0.792,0.997-1.636,1.957-2.39,2.987l-2.27,3.083
							c-1.487,2.074-3.119,4.039-4.519,6.18l-4.332,6.315c-5.645,8.513-10.908,17.282-15.89,26.219
							c-2.476,4.478-4.903,8.987-7.222,13.556C167.259,248.939,165.064,253.571,162.876,258.22z"/>
						<path fill="#214082" d="M359.641,82.618c6.655,2.648,12.443,7.407,16.713,13.222c0.568,0.706,1.056,1.468,1.538,2.231
							c0.483,0.767,0.991,1.518,1.383,2.333l1.251,2.409l1.051,2.504c0.379,0.824,0.641,1.691,0.917,2.553
							c0.271,0.862,0.576,1.721,0.817,2.585c0.455,1.73,0.94,3.456,1.357,5.199c1.66,6.969,3.03,13.995,4.33,21.017
							c0.645,3.51,1.297,7.018,2.114,10.485c0.795,3.464,1.744,6.929,3.535,10.032c-2.051-2.951-3.152-6.45-4.159-9.873
							c-0.951-3.458-1.717-6.955-2.484-10.445c-1.505-6.991-2.86-13.997-4.611-20.904c-0.397-1.739-0.86-3.457-1.297-5.186
							c-0.228-0.857-0.515-1.687-0.769-2.532c-0.259-0.842-0.504-1.691-0.865-2.497c-1.192-3.327-2.985-6.392-4.93-9.327
							c-1.99-2.914-4.367-5.575-7.048-7.892C365.815,86.199,362.869,84.15,359.641,82.618z"/>
						<path fill="#214082" d="M339.232,82.545c-2.945,0.251-5.796,1.096-8.47,2.265c-2.668,1.174-5.235,2.614-7.481,4.474
							c-4.618,3.56-8.294,8.221-11.099,13.329c-2.896,5.083-4.681,10.695-6.784,16.225l-3.175,8.274l-1.688,4.1
							c-0.289,0.681-0.578,1.36-0.895,2.032l-0.253,0.499c-0.068,0.085-0.049,0.154-0.213,0.257
							c-0.148-0.048-0.066-0.154-0.081-0.183l0.029-0.139c0.087-0.363,0.201-0.712,0.317-1.064c-0.083,0.36-0.167,0.721-0.221,1.082
							l-0.016,0.134c-0.013,0.045,0.031,0.095-0.036,0.046c-0.024-0.014,0.062-0.13,0.085-0.201l0.205-0.509
							c0.265-0.687,0.511-1.384,0.752-2.08l1.408-4.196l2.825-8.392c0.463-1.402,0.929-2.801,1.418-4.194
							c0.477-1.395,0.951-2.792,1.518-4.175c0.561-1.379,1.036-2.794,1.671-4.143l1.981-4.015c2.964-5.17,6.749-9.998,11.641-13.493
							C327.483,84.96,333.291,82.596,339.232,82.545z"/>
						<path fill="#214082" d="M353.622,90.482c2.297,3.865,3.018,8.425,3.638,12.819c0.554,4.441,0.637,8.922,0.512,13.38
							c-0.037,2.231-0.229,4.454-0.359,6.68c-0.229,2.214-0.41,4.442-0.686,6.641l-0.771,6.617
							c-0.305,2.204-0.566,4.409-0.914,6.608c0.049-2.222,0.183-4.441,0.272-6.664l0.405-6.656l0.45-6.636
							c0.09-2.209,0.271-4.417,0.287-6.627c0.156-4.419,0.107-8.841-0.199-13.243c-0.189-2.197-0.395-4.4-0.815-6.565
							C355.058,94.667,354.572,92.494,353.622,90.482z"/>
						<path fill="#214082" d="M251.033,179.351c-4.466,7.643-8.448,15.521-12.195,23.482c-3.708,7.984-7.066,16.116-9.9,24.425
							c-2.852,8.298-5.145,16.783-6.717,25.412c-0.766,4.318-1.315,8.672-1.675,13.054c-0.369,4.386-0.356,8.789-0.235,13.219
							c-0.715-4.372-0.99-8.817-1.055-13.269c0.054-4.448,0.332-8.903,0.934-13.321c0.597-4.417,1.453-8.798,2.495-13.131
							c1.085-4.321,2.341-8.598,3.763-12.817c1.477-4.2,3.068-8.357,4.822-12.443c1.78-4.074,3.666-8.102,5.73-12.033
							C241.092,194.05,245.713,186.438,251.033,179.351z"/>
					</g>
				</g>
				<g>
					<path fill="#FCCDBE" d="M274.579,185.119c0,0-16.958-11.794-13.948-29.692c0,0,3.692-11.117,13.948-7.862
						c10.257,3.253,8.752,13.829,8.752,13.829L274.579,185.119z"/>
					<path fill="#B36457" d="M277.132,157.189c-1.107-0.896-2.29-1.655-3.404-1.831c-1.108-0.172-1.852,0.218-2.588,0.96
						c-0.73,0.757-1.35,1.815-1.934,2.897c-0.494,1.028-0.838,2.046-0.977,3.191c-0.127,1.134-0.109,2.313,0.043,3.508
						c0.178,1.193,0.48,2.384,0.884,3.569c0.445,1.157,0.964,2.318,1.686,3.373c0.695,1.081,1.569,2.06,2.796,2.823
						c-1.474,0.096-2.943-0.584-4.173-1.455c-1.211-0.916-2.263-2.057-3.086-3.348c-0.803-1.301-1.396-2.735-1.785-4.244
						c-0.355-1.519-0.458-3.12-0.281-4.728c0.2-1.603,0.804-3.223,1.673-4.589c0.864-1.255,1.826-2.512,3.287-3.467
						c0.38-0.227,0.802-0.412,1.199-0.597c0.452-0.128,0.903-0.268,1.371-0.293c0.957-0.049,1.886,0.182,2.62,0.614
						C275.896,154.494,276.72,155.805,277.132,157.189z"/>
				</g>
			</g>
			<g>
				<path fill="#FFFFFF" d="M296.187,255.894c0,0-21.332-3.525-22.429-15.456c-1.092-11.932,5.471-9.762,11.214-17.084
					c5.745-7.321,8.479-19.252,25.165-17.354c16.682,1.898,16.407,6.78,21.606,13.287c5.195,6.508,13.128,7.593,21.879,5.153
					c8.754-2.44,18.052-2.1,21.334,6.407c3.283,8.506-1.641,27.217-16.41,28.302c-14.77,1.084-43.215,5.966-49.505,2.983
					C302.751,259.148,296.187,255.894,296.187,255.894z"/>
				<g>
					<g>
						<path fill="#FDBA24" d="M153.964,278.944c0,0-14.496,6.472-16.411,25.474c-1.915,18.998,6.651,31.376,5.471,37.709
							c-1.182,6.331-4.924,26.844-3.83,33.353c1.094,6.509,6.018,24.134,16.958,27.116c10.939,2.983,21.881,8.136,27.076,18.981
							c5.197,10.848,14.222,23.051,20.514,25.219c6.291,2.17,30.359,27.117,33.367,28.473c3.008,1.356,25.983,16.271,65.642,0
							c39.658-16.269,11.214-43.657,36.104-66.708c24.889-23.048,2.825-30.007,2.825-50.255c0-20.246,1.823-27.116,1.823-27.116
							s-33.55-15.548-57.983-9.763c0,0-3.281-0.362-2.916,12.293c0.363,12.654-2.919,18.077-5.836,22.778
							c-2.916,4.7-2.552,12.293-2.552,12.293s-13.583-14.192-13.858-28.563c-0.274-14.372-24.615-25.76-28.716-34.438
							C227.537,297.113,189.793,260.232,153.964,278.944z"/>
						<g>
							<path fill="#C0852B" d="M284.137,322.145c-0.353,0.414-0.633,0.887-0.862,1.374c-0.48,0.976-0.74,2.021-0.982,3.062
								c-0.454,2.089-0.672,4.214-0.756,6.327c-0.183,4.151-0.525,8.193-1.605,12.011c-0.527,1.899-1.208,3.727-2.089,5.458
								c-0.868,1.763-1.953,3.322-3.122,5.145c-1.306,2.14-1.968,4.393-2.419,6.609c-0.016,0.079-0.026,0.155-0.039,0.232
								c-2.514-3.419-4.719-7.122-6.484-10.874c-1.267-2.798-2.262-5.706-2.682-8.637c-0.133-0.729-0.16-1.458-0.25-2.189
								l-0.121-1.284c-0.037-0.482-0.087-0.963-0.193-1.428c-0.342-1.887-1.007-3.654-1.845-5.264
								c-1.698-3.215-4.043-5.812-6.462-8.152c-2.418-2.363-5.041-4.405-7.667-6.382c-2.61-1.998-5.314-3.828-7.894-5.785
								c-1.295-0.973-2.583-1.95-3.788-3.022c-1.204-1.071-2.358-2.203-3.246-3.589c0.566,1.546,1.53,2.944,2.559,4.24
								c1.047,1.289,2.174,2.507,3.334,3.68c2.34,2.321,4.745,4.553,7.123,6.754c2.364,2.219,4.667,4.47,6.769,6.812
								c2.109,2.336,3.91,4.871,5.18,7.481c0.606,1.313,1.026,2.658,1.201,3.991c0.064,0.333,0.078,0.666,0.085,0.998l0.057,1.156
								c0.059,0.892,0.063,1.799,0.179,2.68c0.44,3.547,1.556,6.887,2.92,10.043c1.368,3.162,3.064,6.135,4.987,8.924
								c1.93,2.814,3.958,5.414,6.36,7.987l4.609,4.938l-0.265-6.804c-0.144-3.665,0.247-7.883,1.848-10.828
								c0.987-1.731,2.105-3.716,2.933-5.76c0.847-2.054,1.489-4.198,1.872-6.355c0.724-4.323,0.684-8.666,0.25-12.82
								c-0.177-2.046-0.269-4.095-0.187-6.134c0.063-1.013,0.162-2.031,0.408-3.009c0.122-0.489,0.292-0.963,0.535-1.404
								c0.244-0.424,0.601-0.848,1.125-0.932C284.973,321.367,284.48,321.744,284.137,322.145z"/>
							<path fill="#C0852B" d="M298.352,476.806l-2.344,0.768c-0.784,0.24-1.591,0.413-2.384,0.624l-4.76,1.237l-4.827,0.906
								c-6.441,1.067-12.972,1.562-19.428,1.071c-6.446-0.457-12.818-1.794-18.753-4.164c-1.485-0.592-2.934-1.254-4.363-1.962
								c-0.709-0.359-1.421-0.722-2.136-1.115l-1.181-0.622c-0.09-0.079-0.183-0.15-0.278-0.217l-0.144-0.095l-0.217-0.179
								c-2.349-1.975-4.747-4.342-7.103-6.595c-4.724-4.578-9.447-9.194-14.408-13.629c-2.509-2.212-4.976-4.412-7.857-6.455
								c-0.787-0.497-1.419-1.014-2.474-1.478l-1.202-0.564c-0.277-0.131-0.554-0.218-0.848-0.422
								c-1.16-0.639-2.325-1.623-3.43-2.65c-4.425-4.255-8.174-9.626-11.367-15.143c-0.792-1.391-1.556-2.796-2.268-4.222
								c-0.682-1.338-1.474-3.08-2.455-4.569c-1.916-3.047-4.359-5.762-7.142-7.964c-5.603-4.409-12.133-7.06-18.634-8.905
								l-1.224-0.344l-0.923-0.345c-0.635-0.166-1.205-0.551-1.799-0.866c-0.605-0.294-1.118-0.812-1.691-1.196
								c-0.533-0.466-1.041-0.983-1.558-1.481c-1.978-2.157-3.58-4.816-4.938-7.615c-1.351-2.813-2.437-5.802-3.307-8.846
								c-0.417-1.522-0.812-3.069-1.083-4.585c-0.219-1.306-0.222-2.879-0.19-4.443c0.102-3.163,0.451-6.406,0.82-9.64
								c0.372-3.238,0.82-6.479,1.306-9.72l0.76-4.858l0.401-2.428c0.126-0.836,0.301-1.513,0.361-2.657
								c0.073-2.049-0.349-3.788-0.778-5.449c-0.449-1.649-0.973-3.233-1.475-4.798c-2.047-6.223-3.738-12.454-4.104-18.906
								c-0.201-3.198-0.221-6.469,0.21-9.642c0.375-3.18,1.165-6.326,2.46-9.276c1.271-2.958,3.008-5.729,5.144-8.186
								c0.513-0.633,1.108-1.191,1.661-1.792c0.604-0.545,1.176-1.137,1.819-1.643c1.251-1.054,2.59-2.02,4.04-2.803
								c-5.994,2.787-10.93,7.809-13.978,13.807c-1.573,2.987-2.569,6.262-3.154,9.586c-0.636,3.332-0.799,6.687-0.773,10.059
								c0.06,6.751,1.594,13.427,3.381,19.781c0.443,1.591,0.868,3.163,1.242,4.701c0.359,1.526,0.618,3.057,0.524,4.3
								c-0.015,0.506-0.231,1.435-0.383,2.221l-0.479,2.435l-0.92,4.879c-1.165,6.53-2.292,13.036-2.687,19.847
								c-0.058,1.725-0.124,3.459,0.161,5.416c0.277,1.73,0.67,3.388,1.091,5.049c0.877,3.305,1.983,6.55,3.424,9.706
								c1.444,3.15,3.244,6.219,5.706,8.944c0.654,0.655,1.304,1.317,2.008,1.933c0.773,0.559,1.458,1.21,2.322,1.671
								c0.849,0.474,1.67,0.993,2.629,1.29l1.396,0.505l1.152,0.333c6.123,1.77,12.01,4.272,16.771,8.072
								c2.385,1.882,4.421,4.122,6.026,6.639c0.424,0.615,0.774,1.276,1.119,1.938c0.342,0.614,0.738,1.436,1.116,2.183
								c0.769,1.515,1.586,2.999,2.436,4.465c1.706,2.925,3.559,5.76,5.589,8.49c2.047,2.719,4.238,5.36,6.854,7.742
								c1.33,1.181,2.706,2.336,4.447,3.271c0.399,0.253,0.9,0.445,1.375,0.646c0.213,0.092,0.541,0.215,0.658,0.279l0.386,0.19
								c0.476,0.165,1.16,0.659,1.77,1.032c2.531,1.72,5.043,3.852,7.51,5.95c4.923,4.275,9.756,8.733,14.645,13.163
								c2.478,2.219,4.83,4.427,7.594,6.604l0.268,0.208l0.373,0.24l0.758,0.456l1.019,0.5c0.74,0.378,1.505,0.74,2.277,1.102
								c1.542,0.713,3.126,1.341,4.726,1.904c6.413,2.238,13.146,3.35,19.848,3.516c6.711,0.123,13.38-0.71,19.842-2.225
								c6.506-1.403,12.669-3.921,18.716-6.504L298.352,476.806z"/>
						</g>
					</g>
					<g>
						<path fill="#2D2212" d="M287.434,287.351c0,0,23.34-13.633,51.831-1.764c0,0,24.614,10.982,12.506,17.864
							c0,0-6.489,8.213-42.046,4.599C274.169,304.432,287.434,287.351,287.434,287.351z"/>
						<g>
							<path fill="#FCCDBE" d="M300.836,301.287c0,0,10.063-16.01,0-34.239c-10.063-18.229-18.078-14.515-17.428-23.074
								c0,0,0.376-5.21,9.267-1.117c8.892,4.093,18.555,14.514,28.764,8.56c10.212-5.955,24.982-18.05,32.822-16.189
								c0,0,4.559,2.048-5.651,8.56c0,0,16.044-13.225,19.875-8.752c3.828,4.472-18.963,16.01-28.991,27.917
								c-10.031,11.91-10.761,40.938-8.754,47.266C330.739,310.218,301.746,308.17,300.836,301.287z"/>
							<path fill="#B36457" d="M351.938,241.226c-1.973,2.014-4.238,3.642-6.58,5.138c-2.362,1.459-4.826,2.782-7.507,3.655
								c2.176-1.789,4.479-3.287,6.807-4.771C347.007,243.801,349.373,242.386,351.938,241.226z"/>
						</g>
						<g>
							<path fill="#E89F23" d="M287.434,287.351c0,0-6.564-1.217-7.11,18.556c-0.547,19.775,0,21.544,9.847,22.132
								c9.845,0.591,35.008,6.194,44.58,9.729c9.572,3.541,19.42-2.357,19.42-15.33s0.806-21.308,0.806-21.308
								s-18.401,14.343-49.869,2.043C282.223,294.229,287.434,287.351,287.434,287.351z"/>
							<g>
								<path fill="#9F6928" d="M290.067,296.275l-1.048,6.885c-0.329,2.263-0.588,4.512-0.801,6.757
									c-0.225,2.247-0.318,4.49-0.354,6.755c-0.051,2.275,0.134,4.526,0.212,6.921c-1.13-2.083-1.92-4.394-2.261-6.761
									c-0.356-2.362-0.472-4.78-0.219-7.154c0.221-2.379,0.704-4.722,1.43-6.982C287.757,300.44,288.704,298.239,290.067,296.275z
									"/>
								<path fill="#9F6928" d="M344.443,336.3l0.989-6.893c0.309-2.264,0.55-4.517,0.743-6.763
									c0.207-2.248,0.281-4.493,0.297-6.758c0.031-2.274-0.174-4.524-0.271-6.919c1.148,2.074,1.959,4.377,2.318,6.74
									c0.376,2.36,0.511,4.777,0.279,7.154c-0.2,2.378-0.663,4.727-1.368,6.994C346.719,332.117,345.79,334.326,344.443,336.3z"/>
								<path fill="#9F6928" d="M299.88,303.213c-1.014,3.836-1.655,7.441-1.95,11.139c-0.105,1.841-0.248,3.693-0.199,5.572
									c-0.015,1.887,0.119,3.776,0.08,5.795c-1.015-1.719-1.743-3.609-2.121-5.577c-0.444-1.959-0.52-3.992-0.383-6.003
									c0.146-2.013,0.631-3.998,1.36-5.874C297.404,306.403,298.413,304.606,299.88,303.213z"/>
								<path fill="#9F6928" d="M307.393,306.467c0.625,1.711,0.923,3.459,1.098,5.209c0.168,1.754,0.215,3.516,0.082,5.276
									c-0.127,1.757-0.391,3.514-0.869,5.235c-0.479,1.712-1.136,3.423-2.223,4.887c0.046-1.813,0.104-3.507,0.19-5.211
									c0.091-1.699,0.14-3.4,0.275-5.097c0.122-1.698,0.28-3.402,0.495-5.114C306.656,309.938,306.929,308.22,307.393,306.467z"/>
								<path fill="#9F6928" d="M318.828,309.935c0.271,1.729,0.282,3.42,0.204,5.095c-0.078,1.674-0.247,3.332-0.519,4.977
									c-0.262,1.644-0.635,3.271-1.091,4.882c-0.462,1.612-1.012,3.209-1.823,4.764c-0.27-1.731-0.284-3.422-0.206-5.096
									c0.082-1.673,0.246-3.333,0.521-4.977c0.27-1.643,0.639-3.27,1.097-4.882C317.473,313.086,318.022,311.491,318.828,309.935z
									"/>
								<path fill="#9F6928" d="M328.318,310.805c0.744,1.719,1.048,3.557,1.164,5.382c0.109,1.83,0.034,3.675-0.28,5.482
									c-0.3,1.808-0.79,3.587-1.502,5.279c-0.677,1.701-1.608,3.309-2.793,4.736c0.177-1.862,0.536-3.581,0.82-5.313l0.877-5.132
									C327.2,317.819,327.648,314.43,328.318,310.805z"/>
								<path fill="#9F6928" d="M338.165,310.805c0.763,1.951,0.965,4.027,1.063,6.052c0.078,2.035,0.005,4.065-0.223,6.072
									c-0.213,2.01-0.584,3.996-1.063,5.959c-0.483,1.962-1.092,3.9-1.966,5.781c-0.206-2.068-0.167-4.081-0.068-6.079
									s0.255-3.979,0.481-5.95c0.218-1.97,0.49-3.931,0.793-5.891C337.468,314.78,337.837,312.839,338.165,310.805z"/>
							</g>
						</g>
					</g>
				</g>
			</g>
		</g>
	</g>
</g>
<g>
	<g>
		<g>
			<path fill="#20489E" d="M451.139,440.366c0-3.087-2.501-5.586-5.584-5.586c-3.086,0-5.586,2.499-5.586,5.586
				c0,2.32,1.416,4.309,3.431,5.152c0.018,0.25,0.044,0.502,0.081,0.751c0.134,0.902,0.313,1.804,0.396,2.706l0.285,2.704
				l0.346,2.706c0.256,1.805,0.506,3.607,0.837,5.41h0.418c0.33-1.803,0.58-3.605,0.839-5.41l0.346-2.706l0.282-2.704
				c0.086-0.902,0.263-1.804,0.398-2.706c0.035-0.249,0.062-0.501,0.081-0.751C449.724,444.674,451.139,442.686,451.139,440.366z"/>
			<path fill="#20489E" d="M412.176,469.159c-2.416,0.09-4.304,2.123-4.212,4.541c0.09,2.418,2.122,4.302,4.54,4.212
				c1.819-0.068,3.337-1.237,3.938-2.84c0.196-0.022,0.392-0.05,0.587-0.086c0.702-0.133,1.403-0.299,2.108-0.393l2.113-0.3
				l2.108-0.351c1.404-0.254,2.812-0.505,4.214-0.815l-0.012-0.328c-1.423-0.208-2.842-0.351-4.264-0.498l-2.13-0.191l-2.129-0.142
				c-0.709-0.04-1.421-0.151-2.133-0.231c-0.195-0.023-0.395-0.036-0.591-0.042C415.594,470.142,413.993,469.09,412.176,469.159z"/>
			<path fill="#20489E" d="M441.006,509.869c-0.026,2.502,1.979,4.551,4.48,4.577c2.503,0.024,4.551-1.981,4.577-4.481
				c0.02-1.883-1.11-3.508-2.737-4.209c-0.014-0.203-0.033-0.405-0.06-0.61c-0.103-0.731-0.238-1.465-0.3-2.196l-0.206-2.196
				l-0.258-2.195c-0.193-1.465-0.379-2.93-0.633-4.395l-0.342-0.004c-0.282,1.461-0.502,2.921-0.723,4.381l-0.305,2.19l-0.249,2.189
				c-0.079,0.732-0.232,1.461-0.349,2.19c-0.033,0.205-0.055,0.408-0.072,0.61C442.191,506.387,441.026,507.987,441.006,509.869z"/>
			<path fill="#20489E" d="M415.843,497.248c-1.841,2.173-1.574,5.426,0.601,7.267c2.172,1.842,5.426,1.572,7.268-0.6
				c1.384-1.634,1.575-3.881,0.659-5.677c0.136-0.188,0.27-0.38,0.393-0.579c0.442-0.715,0.855-1.457,1.333-2.142l1.415-2.075
				l1.373-2.112c0.896-1.423,1.793-2.842,2.639-4.311l-0.296-0.249c-1.31,1.071-2.563,2.192-3.819,3.311l-1.856,1.698l-1.815,1.737
				c-0.598,0.585-1.262,1.113-1.896,1.669c-0.175,0.153-0.342,0.314-0.504,0.479C419.413,495.056,417.229,495.613,415.843,497.248z"
				/>
			<path fill="#20489E" d="M424.74,446.887c-2.027-2.427-5.639-2.75-8.067-0.722c-2.426,2.027-2.748,5.639-0.72,8.065
				c1.526,1.825,3.948,2.458,6.087,1.798c0.18,0.186,0.364,0.365,0.559,0.539c0.698,0.62,1.43,1.212,2.092,1.865l1.999,1.941
				l2.052,1.902c1.389,1.249,2.771,2.503,4.218,3.705l0.328-0.276c-0.926-1.637-1.914-3.218-2.897-4.807l-1.509-2.354l-1.555-2.313
				c-0.525-0.767-0.98-1.593-1.467-2.391c-0.134-0.223-0.278-0.437-0.429-0.646C426.459,451.208,426.265,448.711,424.74,446.887z"/>
			<path fill="#20489E" d="M479.72,479.487c2.621-0.257,4.539-2.591,4.281-5.215c-0.259-2.621-2.593-4.537-5.214-4.279
				c-1.974,0.193-3.546,1.564-4.093,3.345c-0.21,0.038-0.423,0.08-0.633,0.134c-0.756,0.189-1.507,0.415-2.267,0.563l-2.275,0.468
				l-2.272,0.519c-1.509,0.368-3.024,0.731-4.526,1.165l0.032,0.354c1.562,0.132,3.116,0.194,4.669,0.26l2.33,0.069l2.323,0.014
				c0.773-0.003,1.555,0.073,2.334,0.112c0.213,0.012,0.432,0.013,0.645,0.006C475.938,478.643,477.747,479.681,479.72,479.487z"/>
			<path fill="#20489E" d="M472.331,452.916c1.676-2.233,1.218-5.402-1.016-7.074c-2.233-1.673-5.402-1.218-7.075,1.017
				c-1.26,1.681-1.314,3.891-0.312,5.594c-0.122,0.192-0.238,0.388-0.348,0.589c-0.393,0.727-0.754,1.477-1.181,2.176l-1.261,2.113
				l-1.218,2.147c-0.793,1.446-1.588,2.89-2.328,4.375l0.305,0.227c1.218-1.128,2.376-2.298,3.541-3.465l1.719-1.772l1.671-1.806
				c0.552-0.609,1.169-1.165,1.756-1.744c0.162-0.162,0.318-0.33,0.467-0.502C468.968,455.272,471.072,454.598,472.331,452.916z"/>
			<path fill="#20489E" d="M467.415,504.081c1.884,1.991,5.021,2.082,7.012,0.202c1.993-1.879,2.083-5.019,0.202-7.011
				c-1.415-1.497-3.539-1.918-5.354-1.236c-0.164-0.15-0.333-0.297-0.513-0.436c-0.635-0.5-1.301-0.974-1.902-1.505l-1.835-1.573
				l-1.87-1.536c-1.267-1.009-2.525-2.02-3.841-2.983l-0.268,0.254c0.885,1.369,1.822,2.684,2.757,4.006l1.424,1.957l1.467,1.92
				c0.493,0.634,0.931,1.324,1.393,1.988c0.127,0.185,0.265,0.362,0.405,0.535C465.705,500.436,466.003,502.583,467.415,504.081z"/>
		</g>
		<g>
			<circle fill="#20489E" cx="445.555" cy="476.806" r="24.541"/>
			<g>
				<circle fill="#3965B0" cx="431.489" cy="479.768" r="4.999"/>
				<circle fill="#3965B0" cx="451.399" cy="487.932" r="3.771"/>
				<circle fill="#3965B0" cx="451.558" cy="466.204" r="8.563"/>
			</g>
		</g>
	</g>
	<g>
		<g>
			<path fill="#20489E" d="M572.476,416.368c0-2.121-1.717-3.839-3.837-3.839c-2.119,0-3.837,1.718-3.837,3.839
				c0,1.593,0.973,2.96,2.356,3.54c0.014,0.172,0.031,0.344,0.055,0.516c0.095,0.619,0.217,1.239,0.276,1.858l0.192,1.859
				l0.239,1.858c0.175,1.239,0.348,2.479,0.573,3.718h0.289c0.228-1.239,0.401-2.479,0.576-3.718l0.236-1.858l0.195-1.859
				c0.057-0.619,0.182-1.239,0.273-1.858c0.026-0.172,0.044-0.344,0.057-0.516C571.503,419.328,572.476,417.96,572.476,416.368z"/>
			<path fill="#20489E" d="M545.705,436.15c-1.66,0.062-2.956,1.459-2.893,3.121c0.063,1.66,1.458,2.955,3.118,2.894
				c1.25-0.047,2.293-0.851,2.706-1.952c0.134-0.015,0.27-0.034,0.403-0.059c0.484-0.091,0.964-0.204,1.449-0.269l1.45-0.208
				l1.447-0.24c0.968-0.175,1.934-0.345,2.899-0.561l-0.011-0.226c-0.977-0.142-1.953-0.238-2.931-0.342l-1.462-0.131l-1.463-0.098
				c-0.488-0.027-0.977-0.105-1.465-0.159c-0.136-0.017-0.27-0.023-0.405-0.028C548.053,436.826,546.955,436.103,545.705,436.15z"/>
			<path fill="#20489E" d="M565.514,464.122c-0.018,1.718,1.362,3.126,3.079,3.144c1.719,0.019,3.127-1.361,3.145-3.079
				c0.014-1.293-0.764-2.408-1.881-2.891c-0.009-0.14-0.022-0.279-0.042-0.419c-0.067-0.503-0.162-1.008-0.206-1.51l-0.14-1.509
				l-0.18-1.509c-0.131-1.007-0.259-2.013-0.434-3.021l-0.234-0.001c-0.194,1.002-0.344,2.005-0.497,3.009l-0.208,1.505
				l-0.173,1.505c-0.053,0.503-0.155,1.005-0.238,1.506c-0.022,0.14-0.037,0.279-0.049,0.418
				C566.328,461.728,565.529,462.829,565.514,464.122z"/>
			<path fill="#20489E" d="M548.226,455.45c-1.266,1.492-1.08,3.729,0.411,4.992c1.494,1.266,3.729,1.08,4.995-0.412
				c0.95-1.123,1.082-2.666,0.451-3.9c0.095-0.128,0.187-0.261,0.27-0.396c0.305-0.492,0.589-1.002,0.918-1.472l0.972-1.427
				l0.941-1.45c0.618-0.979,1.235-1.953,1.813-2.963l-0.201-0.172c-0.9,0.737-1.761,1.508-2.624,2.274l-1.278,1.168l-1.246,1.195
				c-0.409,0.4-0.867,0.764-1.301,1.145c-0.12,0.105-0.236,0.216-0.348,0.331C550.678,453.945,549.176,454.326,548.226,455.45z"/>
			<path fill="#20489E" d="M554.34,420.848c-1.396-1.668-3.876-1.891-5.543-0.496c-1.669,1.394-1.89,3.873-0.497,5.542
				c1.049,1.254,2.713,1.688,4.183,1.234c0.123,0.128,0.25,0.252,0.383,0.37c0.482,0.427,0.985,0.834,1.437,1.283l1.378,1.333
				l1.408,1.307c0.952,0.859,1.902,1.721,2.896,2.546l0.229-0.188c-0.638-1.125-1.316-2.213-1.993-3.304l-1.036-1.617l-1.068-1.59
				c-0.361-0.527-0.675-1.094-1.007-1.644c-0.093-0.15-0.193-0.299-0.296-0.44C555.52,423.817,555.386,422.102,554.34,420.848z"/>
			<path fill="#20489E" d="M592.113,443.247c1.803-0.177,3.118-1.782,2.943-3.582c-0.18-1.801-1.782-3.118-3.583-2.941
				c-1.355,0.133-2.437,1.074-2.813,2.299c-0.145,0.026-0.291,0.055-0.434,0.091c-0.519,0.132-1.036,0.286-1.557,0.388l-1.566,0.319
				l-1.559,0.357c-1.038,0.254-2.078,0.503-3.112,0.799l0.024,0.246c1.073,0.091,2.14,0.133,3.208,0.178l1.599,0.048l1.597,0.01
				c0.532-0.003,1.068,0.05,1.603,0.077c0.149,0.007,0.298,0.008,0.444,0.004C589.517,442.667,590.758,443.379,592.113,443.247z"/>
			<path fill="#20489E" d="M587.04,424.99c1.147-1.534,0.834-3.712-0.703-4.86c-1.533-1.149-3.712-0.838-4.859,0.7
				c-0.865,1.154-0.902,2.671-0.212,3.843c-0.086,0.131-0.167,0.264-0.241,0.404c-0.268,0.499-0.515,1.014-0.811,1.493l-0.867,1.453
				l-0.834,1.476c-0.545,0.993-1.095,1.984-1.601,3.005l0.208,0.157c0.836-0.775,1.636-1.58,2.433-2.381l1.183-1.219l1.147-1.242
				c0.379-0.416,0.804-0.799,1.206-1.199c0.112-0.109,0.22-0.225,0.32-0.344C584.728,426.608,586.173,426.145,587.04,424.99z"/>
			<path fill="#20489E" d="M583.661,460.145c1.292,1.367,3.448,1.431,4.817,0.138c1.366-1.291,1.43-3.447,0.138-4.816
				c-0.97-1.029-2.433-1.319-3.681-0.849c-0.114-0.104-0.228-0.205-0.351-0.3c-0.438-0.345-0.894-0.669-1.31-1.033l-1.257-1.083
				l-1.288-1.055c-0.869-0.692-1.733-1.389-2.636-2.051l-0.187,0.178c0.608,0.937,1.253,1.843,1.895,2.749l0.98,1.346l1.005,1.318
				c0.342,0.437,0.64,0.911,0.957,1.368c0.088,0.126,0.182,0.248,0.28,0.366C582.482,457.64,582.688,459.115,583.661,460.145z"/>
		</g>
		<g>
			<circle fill="#20489E" cx="568.64" cy="441.404" r="16.86"/>
			<g>
				<circle fill="#3965B0" cx="558.976" cy="443.44" r="3.434"/>
				<circle fill="#3965B0" cx="572.656" cy="449.049" r="2.589"/>
				<circle fill="#3965B0" cx="572.764" cy="434.121" r="5.884"/>
			</g>
		</g>
	</g>
	<g>
		<g>
			<path fill="#20489E" d="M531.294,249.502c2.249-5.858-0.677-12.431-6.536-14.679c-5.858-2.249-12.432,0.678-14.679,6.536
				c-1.692,4.408-0.453,9.219,2.759,12.29c-0.148,0.488-0.282,0.983-0.396,1.486c-0.399,1.812-0.721,3.653-1.214,5.428l-1.437,5.344
				l-1.313,5.39c-0.828,3.612-1.669,7.22-2.354,10.887l0.798,0.307c1.942-3.185,3.731-6.428,5.533-9.666l2.63-4.886l2.508-4.932
				c0.818-1.652,1.813-3.235,2.729-4.85c0.254-0.447,0.483-0.905,0.7-1.367C525.465,256.657,529.604,253.91,531.294,249.502z"/>
			<path fill="#20489E" d="M436.301,275.789c-4.658-1.589-9.721,0.897-11.311,5.556c-1.59,4.656,0.897,9.72,5.556,11.31
				c3.503,1.195,7.234,0.082,9.547-2.525c0.388,0.103,0.78,0.193,1.176,0.266c1.431,0.261,2.885,0.456,4.29,0.792l4.231,0.967
				l4.261,0.874c2.855,0.541,5.707,1.093,8.602,1.523l0.215-0.633c-2.552-1.43-5.146-2.735-7.734-4.053l-3.909-1.916l-3.939-1.821
				c-1.318-0.593-2.586-1.327-3.878-1.995c-0.359-0.185-0.725-0.354-1.093-0.51C442.077,280.146,439.804,276.984,436.301,275.789z"
				/>
			<path fill="#20489E" d="M461.385,374.127c-1.872,4.73,0.444,10.085,5.174,11.958c4.732,1.873,10.085-0.444,11.957-5.177
				c1.41-3.559,0.446-7.469-2.131-9.986c0.122-0.396,0.236-0.796,0.331-1.202c0.341-1.465,0.617-2.956,1.031-4.391l1.211-4.321
				l1.112-4.36c0.7-2.921,1.412-5.84,1.999-8.807l-0.642-0.253c-1.603,2.563-3.081,5.178-4.57,7.789l-2.174,3.94l-2.076,3.978
				c-0.679,1.33-1.498,2.605-2.251,3.906c-0.211,0.361-0.403,0.731-0.58,1.105C466.174,368.376,462.793,370.568,461.385,374.127z"/>
			<path fill="#20489E" d="M422.789,331.812c-5.08,2.784-6.941,9.159-4.156,14.241c2.786,5.079,9.16,6.941,14.243,4.158
				c3.82-2.097,5.817-6.224,5.389-10.302c0.396-0.257,0.786-0.525,1.165-0.813c1.362-1.036,2.689-2.143,4.097-3.097l4.198-2.909
				l4.146-3.011c2.739-2.051,5.485-4.091,8.154-6.264l-0.376-0.69c-3.27,1.082-6.465,2.3-9.668,3.505l-4.77,1.872l-4.711,1.976
				c-1.561,0.673-3.205,1.195-4.813,1.788c-0.447,0.164-0.883,0.347-1.314,0.544C431.167,330.252,426.612,329.717,422.789,331.812z"
				/>
			<path fill="#20489E" d="M476.4,242.646c-2.085-6.087-8.709-9.333-14.795-7.25c-6.087,2.083-9.333,8.707-7.25,14.794
				c1.567,4.578,5.704,7.548,10.25,7.853c0.206,0.482,0.425,0.958,0.668,1.429c0.878,1.687,1.835,3.347,2.612,5.068l2.385,5.147
				l2.51,5.105c1.726,3.387,3.438,6.777,5.308,10.112l0.828-0.283c-0.564-3.782-1.29-7.51-2.004-11.244l-1.145-5.571l-1.269-5.532
				c-0.439-1.835-0.698-3.736-1.042-5.606c-0.095-0.519-0.213-1.031-0.346-1.538C476.519,252.105,477.968,247.224,476.4,242.646z"/>
			<path fill="#20489E" d="M557.062,344.643c5.168,1.423,10.509-1.614,11.932-6.783c1.424-5.167-1.613-10.509-6.783-11.93
				c-3.888-1.071-7.87,0.384-10.214,3.371c-0.429-0.087-0.86-0.158-1.298-0.212c-1.572-0.189-3.165-0.307-4.715-0.581l-4.662-0.771
				l-4.693-0.668c-3.14-0.401-6.275-0.815-9.451-1.092l-0.19,0.701c2.866,1.388,5.772,2.637,8.677,3.899l4.373,1.825l4.403,1.721
				c1.47,0.558,2.899,1.271,4.347,1.914c0.402,0.179,0.813,0.337,1.224,0.482C550.494,340.284,553.175,343.574,557.062,344.643z"/>
			<path fill="#20489E" d="M562.396,288.791c4.809-3.024,6.252-9.375,3.228-14.18c-3.026-4.807-9.374-6.251-14.181-3.227
				c-3.615,2.276-5.328,6.432-4.667,10.399c-0.372,0.275-0.737,0.56-1.09,0.865c-1.272,1.094-2.505,2.254-3.826,3.272l-3.939,3.093
				l-3.876,3.191c-2.558,2.169-5.124,4.327-7.609,6.611l0.412,0.653c3.134-1.252,6.19-2.631,9.252-4.001l4.555-2.114l4.493-2.212
				c1.489-0.752,3.068-1.359,4.604-2.032c0.429-0.188,0.845-0.396,1.252-0.612C554.293,290.81,558.78,291.067,562.396,288.791z"/>
			<path fill="#20489E" d="M515.766,382.387c2.118,5.152,8.015,7.614,13.168,5.493c5.152-2.118,7.613-8.015,5.496-13.167
				c-1.597-3.877-5.328-6.229-9.273-6.252c-0.202-0.407-0.416-0.809-0.653-1.201c-0.843-1.412-1.76-2.799-2.52-4.245l-2.335-4.326
				l-2.435-4.283c-1.667-2.837-3.324-5.678-5.115-8.464l-0.701,0.288c0.688,3.241,1.509,6.427,2.316,9.616l1.283,4.756l1.385,4.715
				c0.477,1.563,0.801,3.192,1.195,4.792c0.109,0.444,0.238,0.882,0.381,1.313C515.173,374.213,514.172,378.51,515.766,382.387z"/>
		</g>
		<g>
			<circle fill="#20489E" cx="494.123" cy="314.646" r="49.926"/>
			<g>
				<circle fill="#3965B0" cx="465.25" cy="310.018" r="10.17"/>
				<path fill="#3965B0" d="M504.276,342.787c-1.52,3.956-5.956,5.931-9.911,4.414c-3.955-1.519-5.933-5.956-4.415-9.911
					c1.518-3.956,5.959-5.933,9.913-4.414C503.816,334.394,505.794,338.833,504.276,342.787z"/>
				<circle fill="#3965B0" cx="513.254" cy="298.886" r="17.423"/>
			</g>
		</g>
	</g>
</g>
</svg>
