<?xml version="1.0" encoding="utf-8"?>
<!-- Generator: Adobe Illustrator 16.0.0, SVG Export Plug-In . SVG Version: 6.00 Build 0)  -->
<!DOCTYPE svg PUBLIC "-//W3C//DTD SVG 1.1//EN" "http://www.w3.org/Graphics/SVG/1.1/DTD/svg11.dtd">
<svg version="1.1" id="Layer_1" xmlns="http://www.w3.org/2000/svg" xmlns:xlink="http://www.w3.org/1999/xlink" x="0px" y="0px"
	 width="717.538px" height="886px" viewBox="44.538 44.548 717.538 886" enable-background="new 44.538 44.548 717.538 886"
	 xml:space="preserve">
<g>
	<path fill="#0B1838" d="M356.223,87.067c0,0,30.514,7.627,31.531,43.225c1.021,35.598,1.021,34.581,10.681,49.328
		c9.66,14.746,1.016,25.427-4.578,47.292c-5.589,21.863,4.07,28.984,22.883,41.189c18.82,12.205,15.389,25.426,15.389,25.426
		s32.924,15.258,19.189,61.023c-13.73,45.766-52.379,68.143-157.64,86.449c-105.267,18.305-191.208-10.682-181.549-44.242
		c9.667-33.563,6.104-44.748-15.25-38.648c-21.356,6.104-54.923-14.236-30.514-72.717c24.413-58.48,49.325-55.43,53.396-70.688
		c4.07-15.254-28.475-52.886,8.14-93.058c37.624-46.276,92.038-33.055,92.038-33.055S286.049,5.703,356.223,87.067L356.223,87.067z"
		/>
	<path fill="#EBECEC" d="M292.482,887.254c80.04,0,145.31,8.207,145.806,18.328c0.486,10.123-63.999,18.332-144.039,18.332
		c-80.038,0-145.317-8.209-145.805-18.332C147.957,895.459,212.445,887.254,292.482,887.254L292.482,887.254z"/>
	<polygon fill="#0D0B42" points="309.286,861.336 315.805,908.631 322.1,908.631 320.074,866.574 	"/>
	<polygon fill="#0D0B42" points="314.985,902.721 315.805,908.631 322.1,908.631 321.814,902.721 	"/>
	<path fill="#D6824B" d="M274.827,662.322c-0.94,4.77-21.542,156.922-19.17,176.164C263.918,849.869,266,861.111,266,872.268
		l-2.1,36.217l-44.691,0.514c-10.3,0.113-9.662-24.141-6.342-30.389c8.898-16.566,16.712-26.295,13.5-53.203
		c-3.729-31.215-11.061-131.051-9.163-162.621C219.24,628.656,274.827,662.322,274.827,662.322L274.827,662.322z"/>
	<path fill="#C7733B" d="M274.827,662.322c-0.44,2.197-5.045,35.697-9.654,73.064c-17.122-1.74-32.851-4.855-46.506-8.373
		c-1.453-26.615-2.242-51.219-1.461-64.229C219.24,628.656,274.827,662.322,274.827,662.322L274.827,662.322z"/>
	<path fill="#171454" d="M255.656,838.486C263.917,849.869,266,861.111,266,872.268l-2.101,36.217l-44.69,0.514
		c-10.3,0.113-9.662-24.141-6.342-30.389c3.631-6.76,7.08-12.379,9.676-18.49c-0.38,0.938-6.343,16.049-2.29,20.264
		c10.219,3.828,23.59,1.383,23.59,1.383C253.642,873.354,257.485,859.42,255.656,838.486L255.656,838.486z M222.55,860.084
		l0.008-0.012v-0.002L222.55,860.084L222.55,860.084z"/>
	<path fill="#0D0B42" d="M264.237,902.721l-0.336,5.764l-44.691,0.514c-3.385,0.037-5.587-2.557-6.903-6.275L264.237,902.721
		L264.237,902.721z"/>
	<path fill="#171454" d="M265.926,868.879c0.048,1.129,0.073,2.26,0.073,3.389c-0.703,12.072-1.401,24.146-2.101,36.217
		c-1.206,0.211-3.815-0.152-5.01,0.061c-0.66-2.135,0.104-3.689-0.552-5.824c5.075-3.223,4.907-22.01,7.356-33.018
		C265.771,869.43,265.848,869.152,265.926,868.879L265.926,868.879z"/>
	<path fill="#D6824B" d="M350.617,687.002c0,0-10.063,59.027-8.463,92.229c1.607,33.205,1.35,47.037,7.002,59.029
		c5.645,11.99,22.08,35.664,34.381,42.119c10.942,4.525,18.382,10.576,19.368,17.162c0.857,5.734-1.996,9.889-7.67,10.703
		l-38.558,0.385c-14.055,0-9.088-18.426-30.885-31.604c-10.688-6.463-21.26-10.4-14.637-25.191
		c4.678-10.436,9.973-12.949,5.571-34.41c-4.826-23.518-16.726-51.564-19.105-72.316c-2.385-20.754-5.131-48.883,4.394-61.795
		C311.536,670.398,350.617,687.002,350.617,687.002L350.617,687.002z"/>
	<path fill="#C7733B" d="M350.617,687.002c0,0-3.553,20.826-6.102,44.697c-16.354,3.426-32.411,4.943-47.803,5.123
		c-1.979-19.42-3.001-42.252,5.303-53.512C311.536,670.398,350.617,687.002,350.617,687.002L350.617,687.002z"/>
	<path fill="#171454" d="M383.537,880.381c10.942,4.525,18.382,10.576,19.368,17.16c0.857,5.736-1.996,9.891-7.67,10.705
		l-38.558,0.385c-14.055,0-9.088-18.426-30.885-31.605c-11.456-5.541-21.26-10.4-14.637-25.189c1.909-4.262,3.924-7.201,5.333-10.65
		c10.115,3.932,14.949,12.896,15.242,23.104c0,0,30.543,23.9,33.512,24.596C368.223,889.574,381.787,889.582,383.537,880.381
		L383.537,880.381z"/>
	<path fill="#0D0B42" d="M402.548,902.721c-1.018,2.971-3.543,4.982-7.313,5.523l-38.558,0.387c-4.992,0-7.584-2.326-9.822-5.91
		H402.548L402.548,902.721z"/>
	<path fill="#162477" d="M238.578,485.582c0,0-30.554,34.697-34.666,92.805c-4.109,58.104,8.757,133.734,8.757,133.734
		s17.445,7.844,64.555,9.227c47.097,1.383,77.314-3.229,77.314-3.229s24.727-108.838,17.795-156.797
		c-6.926-47.959-31.398-76.199-31.398-76.199S250.819,470.473,238.578,485.582L238.578,485.582z"/>
	<path fill="#D6824B" d="M165.265,425.336c-13.271,32.004-18.67,71.424-14.53,146.828c0,0-14.357,24.646-16.515,35.564
		c-1.501,7.588,1.358,10.799,4.391,4.99c1.284-2.459,3.241-8.992,5.276-11.813c-1.048,3.545-5.537,20.357-0.896,21.561
		c4.647,1.203,3.276-6.006,9.605-19.428c-2.63,9.484-5.022,21.51-0.656,23.199c4.364,1.688,5.762-16.482,7.985-20.766
		c-0.629,5.598-0.621,19.541,4.407,18.377c5.019-1.162,3.751-14.971,5.815-19.658l6.628-13.115c1.259,0.77,6,9.283,7.752,10.016
		c1.698,0.711,3.655-0.154,3.742-5.541c0.062-8.852-9.581-21.01-9.581-21.01c-8.718-49.297,14.694-135.902,53.509-183.322
		c4.799-5.869,17.073-26.771,6.152-35.164c-6.291-3.885-0.638-13.564-7.127-11.254C202.268,355.115,172.199,408.596,165.265,425.336
		L165.265,425.336z"/>
	<path fill="#E0E8FF" d="M142.482,564.953l38.104-1.447c0.311-31.895,17.432-130.369,51.615-172.289
		c4.799-5.867,17.083-26.768,6.152-35.162c-6.291-3.885-0.638-13.566-7.127-11.254C159.445,366.088,137.697,504.744,142.482,564.953
		L142.482,564.953z"/>
	<polygon fill="#BA662F" points="270.85,297.387 302.654,302.936 305.336,334.529 288.046,338.076 269.946,337.607 	"/>
	<path fill="#C7733B" d="M386.332,434.146c26.038,17.631,47.813,31.457,110.724,46.262c11.121,17.305,18.072,20.922,29.438,21.947
		c8.805,0.797,10.469-2.318,16.221-6.668c7.166-5.398,16.346-13.396,2.631-26.252c2.1,0.002,5.242-0.455,8.947-1.574
		c13.254-4.002,11.984-12.523,7.318-12.236c-5.201,0.322-8.678,3.639-30.693,4.553c-48.881-4.553-124.703-49.172-159.47-98.186
		c-4.299-6.066-20.881-23.104-31.66-14.951C314.717,370.371,367.666,421.504,386.332,434.146L386.332,434.146z"/>
	<path fill="#E0E8FF" d="M381.127,436.926c24.548,16.627,51.245,39.262,106.362,53.137c3.818-7.563,12.115-29.891,15.521-39.127
		c-44.479-14.988-100.205-51.145-129.681-87.494c-6.994-8.637-31.416-30.887-41.561-21.295
		C306.699,365.473,362.457,424.285,381.127,436.926L381.127,436.926z"/>
	<path opacity="0.9" fill="#FFBB22" enable-background="new    " d="M226.056,350.99c0,0,10.659-8.232,24.802-12.912
		c6.863-2.256,25.003-0.045,41-0.783c16.687-0.771,31.113-4.449,31.173-4.484c12.133,0.617,29.543,34.195,36.875,58.512
		c8.646,22.441,4.346,35.674-14.666,49.064c-1.539,14.91-3.074,29.824-4.617,44.734c0,0-13.832,10.145-45.188,11.988
		c-31.362,1.846-57.186-11.529-57.186-11.529S212.427,369.369,226.056,350.99L226.056,350.99z"/>
	<path fill="#FFBB22" d="M359.322,389.469l0.582,1.854c8.648,22.443,4.346,35.674-14.664,49.064
		c-1.539,14.912-3.074,29.824-4.619,44.734c0,0-13.832,10.146-45.187,11.988c-31.363,1.846-57.186-11.527-57.186-11.527
		s-8.413-37.854-13.095-73.77c0,0,33.44,30.717,89.417,24.215C370.52,429.529,360.365,398.289,359.322,389.469L359.322,389.469z"/>
	<path fill="#FFBB22" d="M270.255,323.805c3.941,7.119,11.702,11.793,21.602,13.492c5.537-3.563,10.408-8.344,12.443-14.898
		c2.563,1.041,10.404,2.482,18.895,9.643c-2.664,8.352-6.848,15.602-11.97,20.578c-6.455-5.107-12.908-10.217-19.367-15.322
		c-5.648,7.268-9.11,12.92-14.755,20.189c-11.946-4.949-20.791-11.506-26.245-19.408
		C255.079,332.363,260.813,328.902,270.255,323.805L270.255,323.805z"/>
	<path fill="#162477" d="M482.569,520.473c-2.609,1.461-5.912,0.531-7.375-2.078c-1.461-2.604-0.529-5.908,2.074-7.369
		l269.254-148.352c5.713-3.146,7.666,1.398,2.789,4.209L482.569,520.473L482.569,520.473z"/>
	<path fill="#D6824B" d="M515.183,488.094c0,0-7.006,0.166-4.857,6.748c5.459,17.416,46.561,9.678,42.182-12.512
		c-2.643-13.375-18.713-16.521-17.281-6.082c-5.402-2.336-11.258-1.313-10.854,5.943C518.231,478.857,514.3,484.32,515.183,488.094
		L515.183,488.094z"/>
	<path fill="#E3E9FA" d="M248.007,339.678c11.788,49.584,22.481,78.869,24.956,121.357c-6.467,94.584-12.927,189.166-19.39,283.748
		c-8.767,0.367-56.237-5.861-76.705-14.143l36.934-307.719c-2.38-18.297-13.396-23.434-15.786-41.729
		C200.743,365.221,222.707,342.842,248.007,339.678L248.007,339.678z"/>
	<path fill="#F1F3FB" d="M247.683,337.746c9.24,37.34,22.435,73.309,25.279,123.291l-25.585-50.258l8.576-16.084l-34.873-46.578
		C230.251,342.283,237.296,337.965,247.683,337.746L247.683,337.746z"/>
	<path fill="#E3E9FA" d="M328.74,334.344c-2.477,42.49-4.941,84.979-7.42,127.469c6.463,94.584,12.922,189.166,19.385,283.748
		c8.766,0.367,38.887-4.352,59.353-12.633l-24.673-298.18c2.379-18.297,1.318-43.568,3.699-61.865
		C376.367,365.902,354.037,337.51,328.74,334.344L328.74,334.344z"/>
	<path fill="#F1F3FB" d="M324.607,331.387l-3.275,130.242l18.807-57.719l-8.564-16.084l19.867-47.625
		C342.52,334.723,331.145,331.793,324.607,331.387L324.607,331.387z"/>
	<path opacity="0.8" fill="#1E3F82" enable-background="new    " d="M388.732,154.548c0.984,12.245,3.063,14.935,9.702,25.07
		c9.658,14.747,1.016,25.426-4.578,47.293c-5.589,21.863,4.07,28.982,22.883,41.189c18.82,12.205,15.389,25.426,15.389,25.426
		s32.924,15.258,19.189,61.021c-4.246,14.158-10.879,26.072-21.127,36.324c19.426-48.537-21.195-84.305-43.077-88.959
		c-23.896-5.086-33.508-38.984-33.508-38.984l22.037-95.515C375.643,167.415,380.846,161.749,388.732,154.548L388.732,154.548z"/>
	<g>
		<g>
			<path id="SVGID_1_" fill="#D6824B" d="M180.77,261.158c-24.344,0.729-29.905-33.152-10.271-39.113
				c-16.979-54.4,15.54-112.892,85.967-125.495c48.739-8.722,103.956,13.094,119.176,70.864
				c10.219,38.781,11.42,77.779-2.096,103.972C340.609,335.221,207.538,329.104,180.77,261.158L180.77,261.158z"/>
		</g>
		<g>
			<g>
				<defs>
					<path id="SVGID_2_" d="M180.77,261.158c-24.344,0.729-29.905-33.152-10.271-39.113c-16.979-54.4,15.54-112.892,85.967-125.495
						c48.739-8.722,103.956,13.094,119.176,70.864c10.219,38.781,11.42,77.779-2.096,103.972
						C340.609,335.221,207.538,329.104,180.77,261.158L180.77,261.158z"/>
				</defs>
				<clipPath id="SVGID_3_">
					<use xlink:href="#SVGID_2_"  overflow="visible"/>
				</clipPath>
				<path clip-path="url(#SVGID_3_)" fill="#D6824B" d="M243.407,239.174c15.203,11.029,21.213,28.664,13.404,39.381
					c-7.813,10.713-26.481,10.443-41.686-0.586c-15.203-11.029-21.213-28.664-13.4-39.379
					C209.539,227.875,228.204,228.145,243.407,239.174L243.407,239.174z"/>
			</g>
		</g>
		<g>
			<g>
				<defs>
					<path id="SVGID_4_" d="M180.77,261.158c-24.344,0.729-29.905-33.152-10.271-39.113c-16.979-54.4,15.54-112.892,85.967-125.495
						c48.739-8.722,103.956,13.094,119.176,70.864c10.219,38.781,11.42,77.779-2.096,103.972
						C340.609,335.221,207.538,329.104,180.77,261.158L180.77,261.158z"/>
				</defs>
				<clipPath id="SVGID_5_">
					<use xlink:href="#SVGID_4_"  overflow="visible"/>
				</clipPath>
				<path clip-path="url(#SVGID_5_)" fill="#D6814B" d="M242.911,239.207c14.871,10.783,20.757,28.023,13.121,38.504
					c-7.633,10.477-25.884,10.215-40.759-0.568s-20.757-28.023-13.12-38.502C209.785,228.162,228.044,228.426,242.911,239.207
					L242.911,239.207z"/>
			</g>
		</g>
		<g>
			<g>
				<defs>
					<path id="SVGID_6_" d="M180.77,261.158c-24.344,0.729-29.905-33.152-10.271-39.113c-16.979-54.4,15.54-112.892,85.967-125.495
						c48.739-8.722,103.956,13.094,119.176,70.864c10.219,38.781,11.42,77.779-2.096,103.972
						C340.609,335.221,207.538,329.104,180.77,261.158L180.77,261.158z"/>
				</defs>
				<clipPath id="SVGID_7_">
					<use xlink:href="#SVGID_6_"  overflow="visible"/>
				</clipPath>
				<path clip-path="url(#SVGID_7_)" fill="#D6804B" d="M242.419,239.244c14.535,10.535,20.291,27.383,12.832,37.623
					c-7.459,10.242-25.297,9.984-39.84-0.551c-14.535-10.537-20.291-27.383-12.832-37.625
					C210.039,228.453,227.88,228.707,242.419,239.244L242.419,239.244z"/>
			</g>
		</g>
		<g>
			<g>
				<defs>
					<path id="SVGID_8_" d="M180.77,261.158c-24.344,0.729-29.905-33.152-10.271-39.113c-16.979-54.4,15.54-112.892,85.967-125.495
						c48.739-8.722,103.956,13.094,119.176,70.864c10.219,38.781,11.42,77.779-2.096,103.972
						C340.609,335.221,207.538,329.104,180.77,261.158L180.77,261.158z"/>
				</defs>
				<clipPath id="SVGID_9_">
					<use xlink:href="#SVGID_8_"  overflow="visible"/>
				</clipPath>
				<path clip-path="url(#SVGID_9_)" fill="#D67F4B" d="M241.927,239.277c14.198,10.291,19.825,26.746,12.547,36.748
					c-7.277,10.002-24.71,9.756-38.917-0.531c-14.203-10.291-19.834-26.746-12.547-36.748
					C210.289,228.742,227.716,228.988,241.927,239.277L241.927,239.277z"/>
			</g>
		</g>
		<g>
			<g>
				<defs>
					<path id="SVGID_10_" d="M180.77,261.158c-24.344,0.729-29.905-33.152-10.271-39.113c-16.979-54.4,15.54-112.892,85.967-125.495
						c48.739-8.722,103.956,13.094,119.176,70.864c10.219,38.781,11.42,77.779-2.096,103.972
						C340.609,335.221,207.538,329.104,180.77,261.158L180.77,261.158z"/>
				</defs>
				<clipPath id="SVGID_11_">
					<use xlink:href="#SVGID_10_"  overflow="visible"/>
				</clipPath>
				<path clip-path="url(#SVGID_11_)" fill="#D67E4A" d="M241.427,239.313c13.871,10.045,19.373,26.107,12.263,35.871
					c-7.097,9.764-24.114,9.525-37.985-0.516c-13.875-10.043-19.373-26.107-12.272-35.871
					C210.539,229.031,227.552,229.27,241.427,239.313L241.427,239.313z"/>
			</g>
		</g>
		<g>
			<g>
				<defs>
					<path id="SVGID_12_" d="M180.77,261.158c-24.344,0.729-29.905-33.152-10.271-39.113c-16.979-54.4,15.54-112.892,85.967-125.495
						c48.739-8.722,103.956,13.094,119.176,70.864c10.219,38.781,11.42,77.779-2.096,103.972
						C340.609,335.221,207.538,329.104,180.77,261.158L180.77,261.158z"/>
				</defs>
				<clipPath id="SVGID_13_">
					<use xlink:href="#SVGID_12_"  overflow="visible"/>
				</clipPath>
				<path clip-path="url(#SVGID_13_)" fill="#D57D4A" d="M240.932,239.348c13.539,9.797,18.915,25.467,11.986,34.992
					c-6.929,9.527-23.538,9.297-37.068-0.498c-13.539-9.797-18.916-25.465-11.985-34.992
					C210.789,229.322,227.393,229.555,240.932,239.348L240.932,239.348z"/>
			</g>
		</g>
		<g>
			<g>
				<defs>
					<path id="SVGID_14_" d="M180.77,261.158c-24.344,0.729-29.905-33.152-10.271-39.113c-16.979-54.4,15.54-112.892,85.967-125.495
						c48.739-8.722,103.956,13.094,119.176,70.864c10.219,38.781,11.42,77.779-2.096,103.972
						C340.609,335.221,207.538,329.104,180.77,261.158L180.77,261.158z"/>
				</defs>
				<clipPath id="SVGID_15_">
					<use xlink:href="#SVGID_14_"  overflow="visible"/>
				</clipPath>
				<path clip-path="url(#SVGID_15_)" fill="#D57C4A" d="M240.435,239.383c13.202,9.551,18.455,24.828,11.702,34.117
					c-6.752,9.289-22.938,9.064-36.148-0.484c-13.203-9.549-18.445-24.826-11.702-34.115
					C211.04,229.611,227.233,229.836,240.435,239.383L240.435,239.383z"/>
			</g>
		</g>
		<g>
			<g>
				<defs>
					<path id="SVGID_16_" d="M180.77,261.158c-24.344,0.729-29.905-33.152-10.271-39.113c-16.979-54.4,15.54-112.892,85.967-125.495
						c48.739-8.722,103.956,13.094,119.176,70.864c10.219,38.781,11.42,77.779-2.096,103.972
						C340.609,335.221,207.538,329.104,180.77,261.158L180.77,261.158z"/>
				</defs>
				<clipPath id="SVGID_17_">
					<use xlink:href="#SVGID_16_"  overflow="visible"/>
				</clipPath>
				<path clip-path="url(#SVGID_17_)" fill="#D57C4A" d="M239.935,239.418c12.875,9.303,17.997,24.186,11.427,33.236
					c-6.58,9.053-22.353,8.836-35.228-0.467c-12.874-9.301-17.988-24.186-11.421-33.236
					C211.297,229.898,227.065,230.117,239.935,239.418L239.935,239.418z"/>
			</g>
		</g>
		<g>
			<g>
				<defs>
					<path id="SVGID_18_" d="M180.77,261.158c-24.344,0.729-29.905-33.152-10.271-39.113c-16.979-54.4,15.54-112.892,85.967-125.495
						c48.739-8.722,103.956,13.094,119.176,70.864c10.219,38.781,11.42,77.779-2.096,103.972
						C340.609,335.221,207.538,329.104,180.77,261.158L180.77,261.158z"/>
				</defs>
				<clipPath id="SVGID_19_">
					<use xlink:href="#SVGID_18_"  overflow="visible"/>
				</clipPath>
				<path clip-path="url(#SVGID_19_)" fill="#D57B4A" d="M239.445,239.453c12.538,9.057,17.53,23.547,11.133,32.359
					c-6.398,8.814-21.757,8.607-34.295-0.451c-12.539-9.055-17.54-23.545-11.139-32.357
					C211.543,230.191,226.906,230.4,239.445,239.453L239.445,239.453z"/>
			</g>
		</g>
		<g>
			<g>
				<defs>
					<path id="SVGID_20_" d="M180.77,261.158c-24.344,0.729-29.905-33.152-10.271-39.113c-16.979-54.4,15.54-112.892,85.967-125.495
						c48.739-8.722,103.956,13.094,119.176,70.864c10.219,38.781,11.42,77.779-2.096,103.972
						C340.609,335.221,207.538,329.104,180.77,261.158L180.77,261.158z"/>
				</defs>
				<clipPath id="SVGID_21_">
					<use xlink:href="#SVGID_20_"  overflow="visible"/>
				</clipPath>
				<path clip-path="url(#SVGID_21_)" fill="#D57A4A" d="M238.948,239.488c12.207,8.811,17.07,22.906,10.853,31.484
					c-6.226,8.576-21.17,8.375-33.381-0.434c-12.207-8.811-17.07-22.908-10.852-31.484
					C211.789,230.479,226.743,230.68,238.948,239.488L238.948,239.488z"/>
			</g>
		</g>
		<g>
			<g>
				<defs>
					<path id="SVGID_22_" d="M180.77,261.158c-24.344,0.729-29.905-33.152-10.271-39.113c-16.979-54.4,15.54-112.892,85.967-125.495
						c48.739-8.722,103.956,13.094,119.176,70.864c10.219,38.781,11.42,77.779-2.096,103.972
						C340.609,335.221,207.538,329.104,180.77,261.158L180.77,261.158z"/>
				</defs>
				<clipPath id="SVGID_23_">
					<use xlink:href="#SVGID_22_"  overflow="visible"/>
				</clipPath>
				<path clip-path="url(#SVGID_23_)" fill="#D5794A" d="M238.453,239.523c11.874,8.563,16.617,22.268,10.567,30.605
					c-6.041,8.34-20.58,8.146-32.455-0.416s-16.612-22.268-10.571-30.607C212.043,230.77,226.578,230.963,238.453,239.523
					L238.453,239.523z"/>
			</g>
		</g>
		<g>
			<g>
				<defs>
					<path id="SVGID_24_" d="M180.77,261.158c-24.344,0.729-29.905-33.152-10.271-39.113c-16.979-54.4,15.54-112.892,85.967-125.495
						c48.739-8.722,103.956,13.094,119.176,70.864c10.219,38.781,11.42,77.779-2.096,103.972
						C340.609,335.221,207.538,329.104,180.77,261.158L180.77,261.158z"/>
				</defs>
				<clipPath id="SVGID_25_">
					<use xlink:href="#SVGID_24_"  overflow="visible"/>
				</clipPath>
				<path clip-path="url(#SVGID_25_)" fill="#D57849" d="M237.957,239.557c11.542,8.318,16.146,21.629,10.283,29.73
					c-5.869,8.102-19.989,7.916-31.532-0.398c-11.542-8.314-16.152-21.627-10.283-29.73
					C212.293,231.057,226.415,231.244,237.957,239.557L237.957,239.557z"/>
			</g>
		</g>
		<g>
			<g>
				<defs>
					<path id="SVGID_26_" d="M180.77,261.158c-24.344,0.729-29.905-33.152-10.271-39.113c-16.979-54.4,15.54-112.892,85.967-125.495
						c48.739-8.722,103.956,13.094,119.176,70.864c10.219,38.781,11.42,77.779-2.096,103.972
						C340.609,335.221,207.538,329.104,180.77,261.158L180.77,261.158z"/>
				</defs>
				<clipPath id="SVGID_27_">
					<use xlink:href="#SVGID_26_"  overflow="visible"/>
				</clipPath>
				<path clip-path="url(#SVGID_27_)" fill="#D57749" d="M237.46,239.594c11.21,8.07,15.695,20.988,9.999,28.852
					c-5.692,7.861-19.398,7.684-30.609-0.383c-11.206-8.068-15.686-20.988-9.994-28.852
					C212.547,231.346,226.254,231.523,237.46,239.594L237.46,239.594z"/>
			</g>
		</g>
		<g>
			<g>
				<defs>
					<path id="SVGID_28_" d="M180.77,261.158c-24.344,0.729-29.905-33.152-10.271-39.113c-16.979-54.4,15.54-112.892,85.967-125.495
						c48.739-8.722,103.956,13.094,119.176,70.864c10.219,38.781,11.42,77.779-2.096,103.972
						C340.609,335.221,207.538,329.104,180.77,261.158L180.77,261.158z"/>
				</defs>
				<clipPath id="SVGID_29_">
					<use xlink:href="#SVGID_28_"  overflow="visible"/>
				</clipPath>
				<path clip-path="url(#SVGID_29_)" fill="#D47649" d="M236.968,239.629c10.874,7.822,15.229,20.35,9.719,27.975
					c-5.519,7.625-18.816,7.457-29.69-0.367c-10.874-7.822-15.229-20.35-9.718-27.975
					C212.793,231.637,226.095,231.809,236.968,239.629L236.968,239.629z"/>
			</g>
		</g>
		<g>
			<g>
				<defs>
					<path id="SVGID_30_" d="M180.77,261.158c-24.344,0.729-29.905-33.152-10.271-39.113c-16.979-54.4,15.54-112.892,85.967-125.495
						c48.739-8.722,103.956,13.094,119.176,70.864c10.219,38.781,11.42,77.779-2.096,103.972
						C340.609,335.221,207.538,329.104,180.77,261.158L180.77,261.158z"/>
				</defs>
				<clipPath id="SVGID_31_">
					<use xlink:href="#SVGID_30_"  overflow="visible"/>
				</clipPath>
				<path clip-path="url(#SVGID_31_)" fill="#D47549" d="M236.469,239.664c10.546,7.574,14.772,19.709,9.435,27.096
					c-5.339,7.389-18.223,7.227-28.765-0.348c-10.542-7.576-14.775-19.711-9.429-27.098
					C213.047,231.926,225.926,232.09,236.469,239.664L236.469,239.664z"/>
			</g>
		</g>
		<g>
			<g>
				<defs>
					<path id="SVGID_32_" d="M180.77,261.158c-24.344,0.729-29.905-33.152-10.271-39.113c-16.979-54.4,15.54-112.892,85.967-125.495
						c48.739-8.722,103.956,13.094,119.176,70.864c10.219,38.781,11.42,77.779-2.096,103.972
						C340.609,335.221,207.538,329.104,180.77,261.158L180.77,261.158z"/>
				</defs>
				<clipPath id="SVGID_33_">
					<use xlink:href="#SVGID_32_"  overflow="visible"/>
				</clipPath>
				<path clip-path="url(#SVGID_33_)" fill="#D47449" d="M235.972,239.697c10.214,7.33,14.312,19.07,9.154,26.221
					c-5.165,7.15-17.635,6.996-27.836-0.33c-10.215-7.33-14.319-19.072-9.158-26.223
					C213.297,232.215,225.767,232.371,235.972,239.697L235.972,239.697z"/>
			</g>
		</g>
		<g>
			<g>
				<defs>
					<path id="SVGID_34_" d="M180.77,261.158c-24.344,0.729-29.905-33.152-10.271-39.113c-16.979-54.4,15.54-112.892,85.967-125.495
						c48.739-8.722,103.956,13.094,119.176,70.864c10.219,38.781,11.42,77.779-2.096,103.972
						C340.609,335.221,207.538,329.104,180.77,261.158L180.77,261.158z"/>
				</defs>
				<clipPath id="SVGID_35_">
					<use xlink:href="#SVGID_34_"  overflow="visible"/>
				</clipPath>
				<path clip-path="url(#SVGID_35_)" fill="#D47349" d="M235.477,239.732c9.883,7.082,13.854,18.434,8.869,25.344
					c-4.988,6.912-17.044,6.768-26.918-0.314c-9.882-7.084-13.854-18.432-8.865-25.344
					C213.547,232.506,225.603,232.652,235.477,239.732L235.477,239.732z"/>
			</g>
		</g>
		<g>
			<g>
				<defs>
					<path id="SVGID_36_" d="M180.77,261.158c-24.344,0.729-29.905-33.152-10.271-39.113c-16.979-54.4,15.54-112.892,85.967-125.495
						c48.739-8.722,103.956,13.094,119.176,70.864c10.219,38.781,11.42,77.779-2.096,103.972
						C340.609,335.221,207.538,329.104,180.77,261.158L180.77,261.158z"/>
				</defs>
				<clipPath id="SVGID_37_">
					<use xlink:href="#SVGID_36_"  overflow="visible"/>
				</clipPath>
				<path clip-path="url(#SVGID_37_)" fill="#D47249" d="M234.985,239.77c9.547,6.834,13.39,17.789,8.581,24.465
					c-4.808,6.676-16.452,6.535-25.994-0.297c-9.542-6.838-13.393-17.793-8.585-24.467
					C213.797,232.795,225.439,232.934,234.985,239.77L234.985,239.77z"/>
			</g>
		</g>
		<g>
			<g>
				<defs>
					<path id="SVGID_38_" d="M180.77,261.158c-24.344,0.729-29.905-33.152-10.271-39.113c-16.979-54.4,15.54-112.892,85.967-125.495
						c48.739-8.722,103.956,13.094,119.176,70.864c10.219,38.781,11.42,77.779-2.096,103.972
						C340.609,335.221,207.538,329.104,180.77,261.158L180.77,261.158z"/>
				</defs>
				<clipPath id="SVGID_39_">
					<use xlink:href="#SVGID_38_"  overflow="visible"/>
				</clipPath>
				<path clip-path="url(#SVGID_39_)" fill="#D47148" d="M234.495,239.805c9.202,6.588,12.927,17.15,8.292,23.588
					c-4.63,6.439-15.854,6.307-25.063-0.283c-9.21-6.588-12.936-17.148-8.304-23.586
					C214.048,233.084,225.276,233.217,234.495,239.805L234.495,239.805z"/>
			</g>
		</g>
		<g>
			<g>
				<defs>
					<path id="SVGID_40_" d="M180.77,261.158c-24.344,0.729-29.905-33.152-10.271-39.113c-16.979-54.4,15.54-112.892,85.967-125.495
						c48.739-8.722,103.956,13.094,119.176,70.864c10.219,38.781,11.42,77.779-2.096,103.972
						C340.609,335.221,207.538,329.104,180.77,261.158L180.77,261.158z"/>
				</defs>
				<clipPath id="SVGID_41_">
					<use xlink:href="#SVGID_40_"  overflow="visible"/>
				</clipPath>
				<path clip-path="url(#SVGID_41_)" fill="#D47048" d="M233.994,239.838c8.874,6.344,12.47,16.514,8.011,22.711
					c-4.458,6.199-15.268,6.076-24.146-0.266c-8.877-6.342-12.469-16.51-8.011-22.709
					C214.307,233.375,225.117,233.498,233.994,239.838L233.994,239.838z"/>
			</g>
		</g>
		<g>
			<g>
				<defs>
					<path id="SVGID_42_" d="M180.77,261.158c-24.344,0.729-29.905-33.152-10.271-39.113c-16.979-54.4,15.54-112.892,85.967-125.495
						c48.739-8.722,103.956,13.094,119.176,70.864c10.219,38.781,11.42,77.779-2.096,103.972
						C340.609,335.221,207.538,329.104,180.77,261.158L180.77,261.158z"/>
				</defs>
				<clipPath id="SVGID_43_">
					<use xlink:href="#SVGID_42_"  overflow="visible"/>
				</clipPath>
				<path clip-path="url(#SVGID_43_)" fill="#D46F48" d="M233.499,239.875c8.542,6.094,12.008,15.871,7.73,21.834
					c-4.276,5.959-14.681,5.846-23.23-0.25c-8.537-6.096-12.004-15.873-7.728-21.834S224.957,233.779,233.499,239.875
					L233.499,239.875z"/>
			</g>
		</g>
		<g>
			<g>
				<defs>
					<path id="SVGID_44_" d="M180.77,261.158c-24.344,0.729-29.905-33.152-10.271-39.113c-16.979-54.4,15.54-112.892,85.967-125.495
						c48.739-8.722,103.956,13.094,119.176,70.864c10.219,38.781,11.42,77.779-2.096,103.972
						C340.609,335.221,207.538,329.104,180.77,261.158L180.77,261.158z"/>
				</defs>
				<clipPath id="SVGID_45_">
					<use xlink:href="#SVGID_44_"  overflow="visible"/>
				</clipPath>
				<path clip-path="url(#SVGID_45_)" fill="#D36F48" d="M233.002,239.908c8.209,5.85,11.551,15.232,7.442,20.955
					c-4.097,5.727-14.087,5.617-22.297-0.229c-8.214-5.848-11.551-15.23-7.449-20.957
					C214.807,233.955,224.792,234.063,233.002,239.908L233.002,239.908z"/>
			</g>
		</g>
		<g>
			<g>
				<defs>
					<path id="SVGID_46_" d="M180.77,261.158c-24.344,0.729-29.905-33.152-10.271-39.113c-16.979-54.4,15.54-112.892,85.967-125.495
						c48.739-8.722,103.956,13.094,119.176,70.864c10.219,38.781,11.42,77.779-2.096,103.972
						C340.609,335.221,207.538,329.104,180.77,261.158L180.77,261.158z"/>
				</defs>
				<clipPath id="SVGID_47_">
					<use xlink:href="#SVGID_46_"  overflow="visible"/>
				</clipPath>
				<path clip-path="url(#SVGID_47_)" fill="#D36E48" d="M232.511,239.943c7.873,5.602,11.089,14.592,7.157,20.08
					c-3.924,5.486-13.504,5.387-21.377-0.215c-7.877-5.602-11.089-14.594-7.166-20.08
					C215.052,234.242,224.629,234.344,232.511,239.943L232.511,239.943z"/>
			</g>
		</g>
		<g>
			<g>
				<defs>
					<path id="SVGID_48_" d="M180.77,261.158c-24.344,0.729-29.905-33.152-10.271-39.113c-16.979-54.4,15.54-112.892,85.967-125.495
						c48.739-8.722,103.956,13.094,119.176,70.864c10.219,38.781,11.42,77.779-2.096,103.972
						C340.609,335.221,207.538,329.104,180.77,261.158L180.77,261.158z"/>
				</defs>
				<clipPath id="SVGID_49_">
					<use xlink:href="#SVGID_48_"  overflow="visible"/>
				</clipPath>
				<path clip-path="url(#SVGID_49_)" fill="#D36D48" d="M232.01,239.979c7.545,5.355,10.633,13.953,6.881,19.203
					c-3.75,5.248-12.909,5.154-20.455-0.197c-7.545-5.355-10.632-13.955-6.881-19.205
					C215.298,234.531,224.465,234.625,232.01,239.979L232.01,239.979z"/>
			</g>
		</g>
		<g>
			<g>
				<defs>
					<path id="SVGID_50_" d="M180.77,261.158c-24.344,0.729-29.905-33.152-10.271-39.113c-16.979-54.4,15.54-112.892,85.967-125.495
						c48.739-8.722,103.956,13.094,119.176,70.864c10.219,38.781,11.42,77.779-2.096,103.972
						C340.609,335.221,207.538,329.104,180.77,261.158L180.77,261.158z"/>
				</defs>
				<clipPath id="SVGID_51_">
					<use xlink:href="#SVGID_50_"  overflow="visible"/>
				</clipPath>
				<path clip-path="url(#SVGID_51_)" fill="#D36C47" d="M231.515,240.012c7.213,5.109,10.171,13.316,6.602,18.328
					c-3.579,5.008-12.323,4.924-19.537-0.184c-7.213-5.107-10.171-13.313-6.597-18.324
					C215.557,234.822,224.301,234.908,231.515,240.012L231.515,240.012z"/>
			</g>
		</g>
		<g>
			<g>
				<defs>
					<path id="SVGID_52_" d="M180.77,261.158c-24.344,0.729-29.905-33.152-10.271-39.113c-16.979-54.4,15.54-112.892,85.967-125.495
						c48.739-8.722,103.956,13.094,119.176,70.864c10.219,38.781,11.42,77.779-2.096,103.972
						C340.609,335.221,207.538,329.104,180.77,261.158L180.77,261.158z"/>
				</defs>
				<clipPath id="SVGID_53_">
					<use xlink:href="#SVGID_52_"  overflow="visible"/>
				</clipPath>
				<path clip-path="url(#SVGID_53_)" fill="#D36B47" d="M231.019,240.049c6.882,4.861,9.709,12.674,6.313,17.447
					c-3.397,4.773-11.729,4.697-18.609-0.164c-6.877-4.859-9.71-12.672-6.312-17.447
					C215.807,235.113,224.146,235.188,231.019,240.049L231.019,240.049z"/>
			</g>
		</g>
		<g>
			<g>
				<defs>
					<path id="SVGID_54_" d="M180.77,261.158c-24.344,0.729-29.905-33.152-10.271-39.113c-16.979-54.4,15.54-112.892,85.967-125.495
						c48.739-8.722,103.956,13.094,119.176,70.864c10.219,38.781,11.42,77.779-2.096,103.972
						C340.609,335.221,207.538,329.104,180.77,261.158L180.77,261.158z"/>
				</defs>
				<clipPath id="SVGID_55_">
					<use xlink:href="#SVGID_54_"  overflow="visible"/>
				</clipPath>
				<path clip-path="url(#SVGID_55_)" fill="#D36A47" d="M230.519,240.084c6.555,4.611,9.253,12.031,6.036,16.568
					c-3.216,4.537-11.141,4.467-17.687-0.146c-6.545-4.615-9.253-12.033-6.027-16.57C216.057,235.4,223.977,235.471,230.519,240.084
					L230.519,240.084z"/>
			</g>
		</g>
		<g>
			<g>
				<defs>
					<path id="SVGID_56_" d="M180.77,261.158c-24.344,0.729-29.905-33.152-10.271-39.113c-16.979-54.4,15.54-112.892,85.967-125.495
						c48.739-8.722,103.956,13.094,119.176,70.864c10.219,38.781,11.42,77.779-2.096,103.972
						C340.609,335.221,207.538,329.104,180.77,261.158L180.77,261.158z"/>
				</defs>
				<clipPath id="SVGID_57_">
					<use xlink:href="#SVGID_56_"  overflow="visible"/>
				</clipPath>
				<path clip-path="url(#SVGID_57_)" fill="#D36947" d="M230.028,240.119c6.217,4.367,8.795,11.395,5.748,15.691
					c-3.04,4.299-10.552,4.236-16.765-0.129c-6.213-4.369-8.792-11.395-5.747-15.695
					C216.307,235.689,223.819,235.754,230.028,240.119L230.028,240.119z"/>
			</g>
		</g>
		<g>
			<g>
				<defs>
					<path id="SVGID_58_" d="M180.77,261.158c-24.344,0.729-29.905-33.152-10.271-39.113c-16.979-54.4,15.54-112.892,85.967-125.495
						c48.739-8.722,103.956,13.094,119.176,70.864c10.219,38.781,11.42,77.779-2.096,103.972
						C340.609,335.221,207.538,329.104,180.77,261.158L180.77,261.158z"/>
				</defs>
				<clipPath id="SVGID_59_">
					<use xlink:href="#SVGID_58_"  overflow="visible"/>
				</clipPath>
				<path clip-path="url(#SVGID_59_)" fill="#D36847" d="M229.532,240.154c5.886,4.121,8.325,10.752,5.463,14.814
					c-2.867,4.061-9.96,4.006-15.842-0.113c-5.881-4.121-8.33-10.756-5.458-14.816C216.557,235.979,223.655,236.033,229.532,240.154
					L229.532,240.154z"/>
			</g>
		</g>
		<g>
			<g>
				<defs>
					<path id="SVGID_60_" d="M180.77,261.158c-24.344,0.729-29.905-33.152-10.271-39.113c-16.979-54.4,15.54-112.892,85.967-125.495
						c48.739-8.722,103.956,13.094,119.176,70.864c10.219,38.781,11.42,77.779-2.096,103.972
						C340.609,335.221,207.538,329.104,180.77,261.158L180.77,261.158z"/>
				</defs>
				<clipPath id="SVGID_61_">
					<use xlink:href="#SVGID_60_"  overflow="visible"/>
				</clipPath>
				<path clip-path="url(#SVGID_61_)" fill="#D26747" d="M229.036,240.188c5.554,3.875,7.869,10.117,5.183,13.939
					c-2.69,3.822-9.374,3.777-14.919-0.098c-5.553-3.875-7.873-10.115-5.183-13.938S223.492,236.316,229.036,240.188
					L229.036,240.188z"/>
			</g>
		</g>
		<g>
			<g>
				<defs>
					<path id="SVGID_62_" d="M180.77,261.158c-24.344,0.729-29.905-33.152-10.271-39.113c-16.979-54.4,15.54-112.892,85.967-125.495
						c48.739-8.722,103.956,13.094,119.176,70.864c10.219,38.781,11.42,77.779-2.096,103.972
						C340.609,335.221,207.538,329.104,180.77,261.158L180.77,261.158z"/>
				</defs>
				<clipPath id="SVGID_63_">
					<use xlink:href="#SVGID_62_"  overflow="visible"/>
				</clipPath>
				<path clip-path="url(#SVGID_63_)" fill="#D26647" d="M228.54,240.223c5.213,3.629,7.412,9.477,4.902,13.061
					c-2.518,3.586-8.786,3.547-14.004-0.08c-5.213-3.627-7.407-9.477-4.894-13.061S223.327,236.598,228.54,240.223L228.54,240.223z"
					/>
			</g>
		</g>
		<g>
			<g>
				<defs>
					<path id="SVGID_64_" d="M180.77,261.158c-24.344,0.729-29.905-33.152-10.271-39.113c-16.979-54.4,15.54-112.892,85.967-125.495
						c48.739-8.722,103.956,13.094,119.176,70.864c10.219,38.781,11.42,77.779-2.096,103.972
						C340.609,335.221,207.538,329.104,180.77,261.158L180.77,261.158z"/>
				</defs>
				<clipPath id="SVGID_65_">
					<use xlink:href="#SVGID_64_"  overflow="visible"/>
				</clipPath>
				<path clip-path="url(#SVGID_65_)" fill="#D26546" d="M228.044,240.26c4.881,3.381,6.951,8.836,4.613,12.186
					c-2.337,3.346-8.192,3.314-13.073-0.066c-4.881-3.379-6.942-8.834-4.613-12.184C217.307,236.848,223.164,236.879,228.044,240.26
					L228.044,240.26z"/>
			</g>
		</g>
		<g>
			<g>
				<defs>
					<path id="SVGID_66_" d="M180.77,261.158c-24.344,0.729-29.905-33.152-10.271-39.113c-16.979-54.4,15.54-112.892,85.967-125.495
						c48.739-8.722,103.956,13.094,119.176,70.864c10.219,38.781,11.42,77.779-2.096,103.972
						C340.609,335.221,207.538,329.104,180.77,261.158L180.77,261.158z"/>
				</defs>
				<clipPath id="SVGID_67_">
					<use xlink:href="#SVGID_66_"  overflow="visible"/>
				</clipPath>
				<path clip-path="url(#SVGID_67_)" fill="#D26446" d="M227.552,240.295c4.544,3.133,6.484,8.193,4.329,11.305
					c-2.165,3.109-7.605,3.086-12.15-0.047c-4.549-3.133-6.492-8.195-4.328-11.305C217.562,237.139,223.007,237.162,227.552,240.295
					L227.552,240.295z"/>
			</g>
		</g>
		<g>
			<g>
				<defs>
					<path id="SVGID_68_" d="M180.77,261.158c-24.344,0.729-29.905-33.152-10.271-39.113c-16.979-54.4,15.54-112.892,85.967-125.495
						c48.739-8.722,103.956,13.094,119.176,70.864c10.219,38.781,11.42,77.779-2.096,103.972
						C340.609,335.221,207.538,329.104,180.77,261.158L180.77,261.158z"/>
				</defs>
				<clipPath id="SVGID_69_">
					<use xlink:href="#SVGID_68_"  overflow="visible"/>
				</clipPath>
				<path clip-path="url(#SVGID_69_)" fill="#D26346" d="M227.052,240.33c4.217,2.887,6.032,7.557,4.049,10.428
					c-1.982,2.871-7.015,2.855-11.223-0.031c-4.217-2.887-6.032-7.557-4.053-10.426C217.817,237.428,222.839,237.443,227.052,240.33
					L227.052,240.33z"/>
			</g>
		</g>
		<g>
			<g>
				<defs>
					<path id="SVGID_70_" d="M180.77,261.158c-24.344,0.729-29.905-33.152-10.271-39.113c-16.979-54.4,15.54-112.892,85.967-125.495
						c48.739-8.722,103.956,13.094,119.176,70.864c10.219,38.781,11.42,77.779-2.096,103.972
						C340.609,335.221,207.538,329.104,180.77,261.158L180.77,261.158z"/>
				</defs>
				<clipPath id="SVGID_71_">
					<use xlink:href="#SVGID_70_"  overflow="visible"/>
				</clipPath>
				<path clip-path="url(#SVGID_71_)" fill="#D26246" d="M226.56,240.363c3.881,2.641,5.567,6.918,3.761,9.553
					c-1.807,2.633-6.425,2.625-10.306-0.014c-3.881-2.641-5.565-6.918-3.76-9.551C218.062,237.717,222.68,237.725,226.56,240.363
					L226.56,240.363z"/>
			</g>
		</g>
		<g>
			<g>
				<defs>
					<path id="SVGID_72_" d="M180.77,261.158c-24.344,0.729-29.905-33.152-10.271-39.113c-16.979-54.4,15.54-112.892,85.967-125.495
						c48.739-8.722,103.956,13.094,119.176,70.864c10.219,38.781,11.42,77.779-2.096,103.972
						C340.609,335.221,207.538,329.104,180.77,261.158L180.77,261.158z"/>
				</defs>
				<clipPath id="SVGID_73_">
					<use xlink:href="#SVGID_72_"  overflow="visible"/>
				</clipPath>
				<path clip-path="url(#SVGID_73_)" fill="#D26246" d="M226.06,240.4c3.554,2.393,5.114,6.277,3.484,8.674
					c-1.634,2.396-5.83,2.396-9.382,0.004c-3.553-2.395-5.109-6.277-3.476-8.676C218.308,238.006,222.516,238.008,226.06,240.4
					L226.06,240.4z"/>
			</g>
		</g>
		<g>
			<g>
				<defs>
					<path id="SVGID_74_" d="M180.77,261.158c-24.344,0.729-29.905-33.152-10.271-39.113c-16.979-54.4,15.54-112.892,85.967-125.495
						c48.739-8.722,103.956,13.094,119.176,70.864c10.219,38.781,11.42,77.779-2.096,103.972
						C340.609,335.221,207.538,329.104,180.77,261.158L180.77,261.158z"/>
				</defs>
				<clipPath id="SVGID_75_">
					<use xlink:href="#SVGID_74_"  overflow="visible"/>
				</clipPath>
				<path clip-path="url(#SVGID_75_)" fill="#D26146" d="M225.569,240.436c3.217,2.145,4.647,5.635,3.19,7.797
					c-1.458,2.158-5.234,2.166-8.452,0.02c-3.216-2.146-4.647-5.639-3.199-7.797C218.562,238.295,222.352,238.289,225.569,240.436
					L225.569,240.436z"/>
			</g>
		</g>
		<g>
			<g>
				<defs>
					<path id="SVGID_76_" d="M180.77,261.158c-24.344,0.729-29.905-33.152-10.271-39.113c-16.979-54.4,15.54-112.892,85.967-125.495
						c48.739-8.722,103.956,13.094,119.176,70.864c10.219,38.781,11.42,77.779-2.096,103.972
						C340.609,335.221,207.538,329.104,180.77,261.158L180.77,261.158z"/>
				</defs>
				<clipPath id="SVGID_77_">
					<use xlink:href="#SVGID_76_"  overflow="visible"/>
				</clipPath>
				<path clip-path="url(#SVGID_77_)" fill="#D16046" d="M225.078,240.471c2.88,1.898,4.182,4.996,2.905,6.918
					c-1.275,1.922-4.651,1.936-7.535,0.037c-2.885-1.902-4.183-4.998-2.911-6.92C218.812,238.586,222.188,238.572,225.078,240.471
					L225.078,240.471z"/>
			</g>
		</g>
		<g>
			<g>
				<defs>
					<path id="SVGID_78_" d="M180.77,261.158c-24.344,0.729-29.905-33.152-10.271-39.113c-16.979-54.4,15.54-112.892,85.967-125.495
						c48.739-8.722,103.956,13.094,119.176,70.864c10.219,38.781,11.42,77.779-2.096,103.972
						C340.609,335.221,207.538,329.104,180.77,261.158L180.77,261.158z"/>
				</defs>
				<clipPath id="SVGID_79_">
					<use xlink:href="#SVGID_78_"  overflow="visible"/>
				</clipPath>
				<path clip-path="url(#SVGID_79_)" fill="#D15F45" d="M224.578,240.504c2.553,1.652,3.726,4.357,2.622,6.043
					c-1.096,1.684-4.058,1.705-6.605,0.053c-2.553-1.652-3.733-4.357-2.63-6.043C219.067,238.873,222.026,238.854,224.578,240.504
					L224.578,240.504z"/>
			</g>
		</g>
		<g>
			<g>
				<defs>
					<path id="SVGID_80_" d="M180.77,261.158c-24.344,0.729-29.905-33.152-10.271-39.113c-16.979-54.4,15.54-112.892,85.967-125.495
						c48.739-8.722,103.956,13.094,119.176,70.864c10.219,38.781,11.42,77.779-2.096,103.972
						C340.609,335.221,207.538,329.104,180.77,261.158L180.77,261.158z"/>
				</defs>
				<clipPath id="SVGID_81_">
					<use xlink:href="#SVGID_80_"  overflow="visible"/>
				</clipPath>
				<path clip-path="url(#SVGID_81_)" fill="#D15E45" d="M224.082,240.541c2.221,1.406,3.271,3.717,2.341,5.164
					c-0.923,1.445-3.471,1.477-5.688,0.07c-2.221-1.406-3.27-3.721-2.346-5.166C219.317,239.164,221.87,239.133,224.082,240.541
					L224.082,240.541z"/>
			</g>
		</g>
		<g>
			<g>
				<defs>
					<path id="SVGID_82_" d="M180.77,261.158c-24.344,0.729-29.905-33.152-10.271-39.113c-16.979-54.4,15.54-112.892,85.967-125.495
						c48.739-8.722,103.956,13.094,119.176,70.864c10.219,38.781,11.42,77.779-2.096,103.972
						C340.609,335.221,207.538,329.104,180.77,261.158L180.77,261.158z"/>
				</defs>
				<clipPath id="SVGID_83_">
					<use xlink:href="#SVGID_82_"  overflow="visible"/>
				</clipPath>
				<path clip-path="url(#SVGID_83_)" fill="#D15D45" d="M223.585,240.574c1.889,1.16,2.811,3.08,2.062,4.287
					c-0.745,1.207-2.889,1.248-4.769,0.086c-1.884-1.158-2.807-3.08-2.061-4.285C219.567,239.453,221.702,239.416,223.585,240.574
					L223.585,240.574z"/>
			</g>
		</g>
		<g>
			<g>
				<defs>
					<path id="SVGID_84_" d="M180.77,261.158c-24.344,0.729-29.905-33.152-10.271-39.113c-16.979-54.4,15.54-112.892,85.967-125.495
						c48.739-8.722,103.956,13.094,119.176,70.864c10.219,38.781,11.42,77.779-2.096,103.972
						C340.609,335.221,207.538,329.104,180.77,261.158L180.77,261.158z"/>
				</defs>
				<clipPath id="SVGID_85_">
					<use xlink:href="#SVGID_84_"  overflow="visible"/>
				</clipPath>
				<path clip-path="url(#SVGID_85_)" fill="#D15C45" d="M223.094,240.609c1.552,0.914,2.346,2.439,1.776,3.412
					c-0.573,0.969-2.294,1.016-3.847,0.102c-1.552-0.912-2.35-2.439-1.775-3.41C219.817,239.744,221.542,239.697,223.094,240.609
					L223.094,240.609z"/>
			</g>
		</g>
		<g>
			<g>
				<defs>
					<path id="SVGID_86_" d="M180.77,261.158c-24.344,0.729-29.905-33.152-10.271-39.113c-16.979-54.4,15.54-112.892,85.967-125.495
						c48.739-8.722,103.956,13.094,119.176,70.864c10.219,38.781,11.42,77.779-2.096,103.972
						C340.609,335.221,207.538,329.104,180.77,261.158L180.77,261.158z"/>
				</defs>
				<clipPath id="SVGID_87_">
					<use xlink:href="#SVGID_86_"  overflow="visible"/>
				</clipPath>
				<path clip-path="url(#SVGID_87_)" fill="#D6824B" d="M354.158,231.711c-12.717,7.521-20.408,23.574-17.166,35.857
					c3.252,12.285,16.199,16.131,28.924,8.613c12.711-7.52,20.4-23.576,17.16-35.859
					C379.824,228.039,366.873,224.191,354.158,231.711L354.158,231.711z"/>
			</g>
		</g>
		<g>
			<g>
				<defs>
					<path id="SVGID_88_" d="M180.77,261.158c-24.344,0.729-29.905-33.152-10.271-39.113c-16.979-54.4,15.54-112.892,85.967-125.495
						c48.739-8.722,103.956,13.094,119.176,70.864c10.219,38.781,11.42,77.779-2.096,103.972
						C340.609,335.221,207.538,329.104,180.77,261.158L180.77,261.158z"/>
				</defs>
				<clipPath id="SVGID_89_">
					<use xlink:href="#SVGID_88_"  overflow="visible"/>
				</clipPath>
				<path clip-path="url(#SVGID_89_)" fill="#D6814B" d="M354.49,231.855c-12.436,7.35-19.955,23.049-16.787,35.057
					c3.17,12.01,15.834,15.775,28.271,8.424c12.436-7.352,19.959-23.045,16.791-35.055
					C379.592,228.271,366.932,224.506,354.49,231.855L354.49,231.855z"/>
			</g>
		</g>
		<g>
			<g>
				<defs>
					<path id="SVGID_90_" d="M180.77,261.158c-24.344,0.729-29.905-33.152-10.271-39.113c-16.979-54.4,15.54-112.892,85.967-125.495
						c48.739-8.722,103.956,13.094,119.176,70.864c10.219,38.781,11.42,77.779-2.096,103.972
						C340.609,335.221,207.538,329.104,180.77,261.158L180.77,261.158z"/>
				</defs>
				<clipPath id="SVGID_91_">
					<use xlink:href="#SVGID_90_"  overflow="visible"/>
				</clipPath>
				<path clip-path="url(#SVGID_91_)" fill="#D6804B" d="M354.834,232c-12.164,7.18-19.52,22.516-16.428,34.254
					c3.1,11.736,15.479,15.418,27.635,8.236c12.162-7.18,19.518-22.518,16.422-34.254S366.984,224.82,354.834,232L354.834,232z"/>
			</g>
		</g>
		<g>
			<g>
				<defs>
					<path id="SVGID_92_" d="M180.77,261.158c-24.344,0.729-29.905-33.152-10.271-39.113c-16.979-54.4,15.54-112.892,85.967-125.495
						c48.739-8.722,103.956,13.094,119.176,70.864c10.219,38.781,11.42,77.779-2.096,103.972
						C340.609,335.221,207.538,329.104,180.77,261.158L180.77,261.158z"/>
				</defs>
				<clipPath id="SVGID_93_">
					<use xlink:href="#SVGID_92_"  overflow="visible"/>
				</clipPath>
				<path clip-path="url(#SVGID_93_)" fill="#D67F4B" d="M355.162,232.141c-11.875,7.014-19.066,21.99-16.043,33.455
					c3.021,11.463,15.111,15.061,26.986,8.053c11.883-7.014,19.07-21.992,16.049-33.455
					C379.135,228.73,367.045,225.133,355.162,232.141L355.162,232.141z"/>
			</g>
		</g>
		<g>
			<g>
				<defs>
					<path id="SVGID_94_" d="M180.77,261.158c-24.344,0.729-29.905-33.152-10.271-39.113c-16.979-54.4,15.54-112.892,85.967-125.495
						c48.739-8.722,103.956,13.094,119.176,70.864c10.219,38.781,11.42,77.779-2.096,103.972
						C340.609,335.221,207.538,329.104,180.77,261.158L180.77,261.158z"/>
				</defs>
				<clipPath id="SVGID_95_">
					<use xlink:href="#SVGID_94_"  overflow="visible"/>
				</clipPath>
				<path clip-path="url(#SVGID_95_)" fill="#D67E4A" d="M355.498,232.285c-11.6,6.842-18.623,21.461-15.668,32.65
					c2.939,11.191,14.746,14.705,26.344,7.863c11.598-6.84,18.623-21.459,15.678-32.648
					C378.898,228.961,367.096,225.445,355.498,232.285L355.498,232.285z"/>
			</g>
		</g>
		<g>
			<g>
				<defs>
					<path id="SVGID_96_" d="M180.77,261.158c-24.344,0.729-29.905-33.152-10.271-39.113c-16.979-54.4,15.54-112.892,85.967-125.495
						c48.739-8.722,103.956,13.094,119.176,70.864c10.219,38.781,11.42,77.779-2.096,103.972
						C340.609,335.221,207.538,329.104,180.77,261.158L180.77,261.158z"/>
				</defs>
				<clipPath id="SVGID_97_">
					<use xlink:href="#SVGID_96_"  overflow="visible"/>
				</clipPath>
				<path clip-path="url(#SVGID_97_)" fill="#D57D4A" d="M355.834,232.43c-11.318,6.67-18.178,20.932-15.297,31.848
					c2.867,10.918,14.383,14.35,25.701,7.678s18.182-20.932,15.303-31.848C378.67,229.193,367.156,225.758,355.834,232.43
					L355.834,232.43z"/>
			</g>
		</g>
		<g>
			<g>
				<defs>
					<path id="SVGID_98_" d="M180.77,261.158c-24.344,0.729-29.905-33.152-10.271-39.113c-16.979-54.4,15.54-112.892,85.967-125.495
						c48.739-8.722,103.956,13.094,119.176,70.864c10.219,38.781,11.42,77.779-2.096,103.972
						C340.609,335.221,207.538,329.104,180.77,261.158L180.77,261.158z"/>
				</defs>
				<clipPath id="SVGID_99_">
					<use xlink:href="#SVGID_98_"  overflow="visible"/>
				</clipPath>
				<path clip-path="url(#SVGID_99_)" fill="#D57C4A" d="M356.17,232.572c-11.037,6.502-17.729,20.404-14.936,31.047
					c2.803,10.645,14.031,13.992,25.078,7.492c11.033-6.502,17.725-20.402,14.922-31.047
					C378.436,229.42,367.209,226.072,356.17,232.572L356.17,232.572z"/>
			</g>
		</g>
		<g>
			<g>
				<defs>
					<path id="SVGID_100_" d="M180.77,261.158c-24.344,0.729-29.905-33.152-10.271-39.113
						c-16.979-54.4,15.54-112.892,85.967-125.495c48.739-8.722,103.956,13.094,119.176,70.864
						c10.219,38.781,11.42,77.779-2.096,103.972C340.609,335.221,207.538,329.104,180.77,261.158L180.77,261.158z"/>
				</defs>
				<clipPath id="SVGID_101_">
					<use xlink:href="#SVGID_100_"  overflow="visible"/>
				</clipPath>
				<path clip-path="url(#SVGID_101_)" fill="#D57C4A" d="M356.502,232.717c-10.758,6.332-17.281,19.875-14.555,30.244
					c2.729,10.373,13.668,13.635,24.424,7.305c10.764-6.332,17.287-19.873,14.563-30.246
					C378.213,229.65,367.264,226.389,356.502,232.717L356.502,232.717z"/>
			</g>
		</g>
		<g>
			<g>
				<defs>
					<path id="SVGID_102_" d="M180.77,261.158c-24.344,0.729-29.905-33.152-10.271-39.113
						c-16.979-54.4,15.54-112.892,85.967-125.495c48.739-8.722,103.956,13.094,119.176,70.864
						c10.219,38.781,11.42,77.779-2.096,103.972C340.609,335.221,207.538,329.104,180.77,261.158L180.77,261.158z"/>
				</defs>
				<clipPath id="SVGID_103_">
					<use xlink:href="#SVGID_102_"  overflow="visible"/>
				</clipPath>
				<path clip-path="url(#SVGID_103_)" fill="#D57B4A" d="M356.84,232.863c-10.479,6.16-16.838,19.344-14.186,29.439
					c2.65,10.096,13.309,13.279,23.781,7.117c10.482-6.16,16.848-19.344,14.189-29.441
					C377.971,229.881,367.32,226.701,356.84,232.863L356.84,232.863z"/>
			</g>
		</g>
		<g>
			<g>
				<defs>
					<path id="SVGID_104_" d="M180.77,261.158c-24.344,0.729-29.905-33.152-10.271-39.113
						c-16.979-54.4,15.54-112.892,85.967-125.495c48.739-8.722,103.956,13.094,119.176,70.864
						c10.219,38.781,11.42,77.779-2.096,103.972C340.609,335.221,207.538,329.104,180.77,261.158L180.77,261.158z"/>
				</defs>
				<clipPath id="SVGID_105_">
					<use xlink:href="#SVGID_104_"  overflow="visible"/>
				</clipPath>
				<path clip-path="url(#SVGID_105_)" fill="#D57A4A" d="M357.172,233.006c-10.193,5.992-16.389,18.814-13.811,28.639
					c2.572,9.824,12.943,12.92,23.148,6.93c10.197-5.992,16.385-18.814,13.813-28.641
					C377.742,230.111,367.377,227.014,357.172,233.006L357.172,233.006z"/>
			</g>
		</g>
		<g>
			<g>
				<defs>
					<path id="SVGID_106_" d="M180.77,261.158c-24.344,0.729-29.905-33.152-10.271-39.113
						c-16.979-54.4,15.54-112.892,85.967-125.495c48.739-8.722,103.956,13.094,119.176,70.864
						c10.219,38.781,11.42,77.779-2.096,103.972C340.609,335.221,207.538,329.104,180.77,261.158L180.77,261.158z"/>
				</defs>
				<clipPath id="SVGID_107_">
					<use xlink:href="#SVGID_106_"  overflow="visible"/>
				</clipPath>
				<path clip-path="url(#SVGID_107_)" fill="#D5794A" d="M357.516,233.148c-9.926,5.822-15.945,18.285-13.443,27.836
					c2.502,9.553,12.576,12.566,22.5,6.746c9.922-5.826,15.943-18.287,13.443-27.838
					C377.51,230.342,367.432,227.328,357.516,233.148L357.516,233.148z"/>
			</g>
		</g>
		<g>
			<g>
				<defs>
					<path id="SVGID_108_" d="M180.77,261.158c-24.344,0.729-29.905-33.152-10.271-39.113
						c-16.979-54.4,15.54-112.892,85.967-125.495c48.739-8.722,103.956,13.094,119.176,70.864
						c10.219,38.781,11.42,77.779-2.096,103.972C340.609,335.221,207.538,329.104,180.77,261.158L180.77,261.158z"/>
				</defs>
				<clipPath id="SVGID_109_">
					<use xlink:href="#SVGID_108_"  overflow="visible"/>
				</clipPath>
				<path clip-path="url(#SVGID_109_)" fill="#D57849" d="M357.844,233.291c-9.641,5.654-15.496,17.758-13.064,27.037
					c2.424,9.275,12.219,12.205,21.859,6.559c9.643-5.656,15.498-17.76,13.07-27.037
					C377.281,230.57,367.488,227.641,357.844,233.291L357.844,233.291z"/>
			</g>
		</g>
		<g>
			<g>
				<defs>
					<path id="SVGID_110_" d="M180.77,261.158c-24.344,0.729-29.905-33.152-10.271-39.113
						c-16.979-54.4,15.54-112.892,85.967-125.495c48.739-8.722,103.956,13.094,119.176,70.864
						c10.219,38.781,11.42,77.779-2.096,103.972C340.609,335.221,207.538,329.104,180.77,261.158L180.77,261.158z"/>
				</defs>
				<clipPath id="SVGID_111_">
					<use xlink:href="#SVGID_110_"  overflow="visible"/>
				</clipPath>
				<path clip-path="url(#SVGID_111_)" fill="#D57749" d="M358.18,233.436c-9.355,5.484-15.047,17.23-12.703,26.234
					c2.359,9.004,11.867,11.85,21.223,6.369c9.365-5.484,15.057-17.229,12.703-26.232
					C377.047,230.801,367.545,227.953,358.18,233.436L358.18,233.436z"/>
			</g>
		</g>
		<g>
			<g>
				<defs>
					<path id="SVGID_112_" d="M180.77,261.158c-24.344,0.729-29.905-33.152-10.271-39.113
						c-16.979-54.4,15.54-112.892,85.967-125.495c48.739-8.722,103.956,13.094,119.176,70.864
						c10.219,38.781,11.42,77.779-2.096,103.972C340.609,335.221,207.538,329.104,180.77,261.158L180.77,261.158z"/>
				</defs>
				<clipPath id="SVGID_113_">
					<use xlink:href="#SVGID_112_"  overflow="visible"/>
				</clipPath>
				<path clip-path="url(#SVGID_113_)" fill="#D47649" d="M358.516,233.58c-9.08,5.313-14.607,16.697-12.328,25.43
					c2.281,8.73,11.5,11.498,20.58,6.184c9.086-5.313,14.609-16.701,12.328-25.432C376.818,231.029,367.602,228.268,358.516,233.58
					L358.516,233.58z"/>
			</g>
		</g>
		<g>
			<g>
				<defs>
					<path id="SVGID_114_" d="M180.77,261.158c-24.344,0.729-29.905-33.152-10.271-39.113
						c-16.979-54.4,15.54-112.892,85.967-125.495c48.739-8.722,103.956,13.094,119.176,70.864
						c10.219,38.781,11.42,77.779-2.096,103.972C340.609,335.221,207.538,329.104,180.77,261.158L180.77,261.158z"/>
				</defs>
				<clipPath id="SVGID_115_">
					<use xlink:href="#SVGID_114_"  overflow="visible"/>
				</clipPath>
				<path clip-path="url(#SVGID_115_)" fill="#D47549" d="M358.854,233.723c-8.805,5.143-14.162,16.17-11.957,24.629
					c2.203,8.457,11.137,11.139,19.941,5.994c8.805-5.141,14.16-16.168,11.957-24.627
					C376.586,231.262,367.656,228.582,358.854,233.723L358.854,233.723z"/>
			</g>
		</g>
		<g>
			<g>
				<defs>
					<path id="SVGID_116_" d="M180.77,261.158c-24.344,0.729-29.905-33.152-10.271-39.113
						c-16.979-54.4,15.54-112.892,85.967-125.495c48.739-8.722,103.956,13.094,119.176,70.864
						c10.219,38.781,11.42,77.779-2.096,103.972C340.609,335.221,207.538,329.104,180.77,261.158L180.77,261.158z"/>
				</defs>
				<clipPath id="SVGID_117_">
					<use xlink:href="#SVGID_116_"  overflow="visible"/>
				</clipPath>
				<path clip-path="url(#SVGID_117_)" fill="#D47449" d="M359.189,233.867c-8.527,4.975-13.717,15.639-11.586,23.826
					c2.125,8.186,10.775,10.781,19.295,5.809c8.529-4.973,13.721-15.643,11.59-23.826
					C376.359,231.49,367.713,228.896,359.189,233.867L359.189,233.867z"/>
			</g>
		</g>
		<g>
			<g>
				<defs>
					<path id="SVGID_118_" d="M180.77,261.158c-24.344,0.729-29.905-33.152-10.271-39.113
						c-16.979-54.4,15.54-112.892,85.967-125.495c48.739-8.722,103.956,13.094,119.176,70.864
						c10.219,38.781,11.42,77.779-2.096,103.972C340.609,335.221,207.538,329.104,180.77,261.158L180.77,261.158z"/>
				</defs>
				<clipPath id="SVGID_119_">
					<use xlink:href="#SVGID_118_"  overflow="visible"/>
				</clipPath>
				<path clip-path="url(#SVGID_119_)" fill="#D47349" d="M359.521,234.01c-8.248,4.805-13.268,15.113-11.207,23.027
					c2.055,7.91,10.41,10.424,18.656,5.621c8.25-4.805,13.27-15.111,11.207-23.025C376.125,231.721,367.77,229.209,359.521,234.01
					L359.521,234.01z"/>
			</g>
		</g>
		<g>
			<g>
				<defs>
					<path id="SVGID_120_" d="M180.77,261.158c-24.344,0.729-29.905-33.152-10.271-39.113
						c-16.979-54.4,15.54-112.892,85.967-125.495c48.739-8.722,103.956,13.094,119.176,70.864
						c10.219,38.781,11.42,77.779-2.096,103.972C340.609,335.221,207.538,329.104,180.77,261.158L180.77,261.158z"/>
				</defs>
				<clipPath id="SVGID_121_">
					<use xlink:href="#SVGID_120_"  overflow="visible"/>
				</clipPath>
				<path clip-path="url(#SVGID_121_)" fill="#D47249" d="M359.857,234.154c-7.963,4.637-12.818,14.584-10.836,22.225
					c1.984,7.637,10.057,10.066,18.016,5.434c7.969-4.635,12.822-14.584,10.84-22.223
					C375.893,231.949,367.82,229.521,359.857,234.154L359.857,234.154z"/>
			</g>
		</g>
		<g>
			<g>
				<defs>
					<path id="SVGID_122_" d="M180.77,261.158c-24.344,0.729-29.905-33.152-10.271-39.113
						c-16.979-54.4,15.54-112.892,85.967-125.495c48.739-8.722,103.956,13.094,119.176,70.864
						c10.219,38.781,11.42,77.779-2.096,103.972C340.609,335.221,207.538,329.104,180.77,261.158L180.77,261.158z"/>
				</defs>
				<clipPath id="SVGID_123_">
					<use xlink:href="#SVGID_122_"  overflow="visible"/>
				</clipPath>
				<path clip-path="url(#SVGID_123_)" fill="#D47148" d="M360.197,234.299c-7.688,4.463-12.379,14.055-10.477,21.42
					c1.914,7.363,9.697,9.711,17.379,5.248c7.689-4.461,12.379-14.051,10.465-21.418
					C375.66,232.182,367.881,229.836,360.197,234.299L360.197,234.299z"/>
			</g>
		</g>
		<g>
			<g>
				<defs>
					<path id="SVGID_124_" d="M180.77,261.158c-24.344,0.729-29.905-33.152-10.271-39.113
						c-16.979-54.4,15.54-112.892,85.967-125.495c48.739-8.722,103.956,13.094,119.176,70.864
						c10.219,38.781,11.42,77.779-2.096,103.972C340.609,335.221,207.538,329.104,180.77,261.158L180.77,261.158z"/>
				</defs>
				<clipPath id="SVGID_125_">
					<use xlink:href="#SVGID_124_"  overflow="visible"/>
				</clipPath>
				<path clip-path="url(#SVGID_125_)" fill="#D47048" d="M360.533,234.443c-7.412,4.293-11.936,13.525-10.104,20.617
					c1.834,7.092,9.326,9.355,16.738,5.061c7.404-4.291,11.926-13.523,10.094-20.617
					C375.436,232.408,367.934,230.148,360.533,234.443L360.533,234.443z"/>
			</g>
		</g>
		<g>
			<g>
				<defs>
					<path id="SVGID_126_" d="M180.77,261.158c-24.344,0.729-29.905-33.152-10.271-39.113
						c-16.979-54.4,15.54-112.892,85.967-125.495c48.739-8.722,103.956,13.094,119.176,70.864
						c10.219,38.781,11.42,77.779-2.096,103.972C340.609,335.221,207.538,329.104,180.77,261.158L180.77,261.158z"/>
				</defs>
				<clipPath id="SVGID_127_">
					<use xlink:href="#SVGID_126_"  overflow="visible"/>
				</clipPath>
				<path clip-path="url(#SVGID_127_)" fill="#D46F48" d="M360.861,234.588c-7.123,4.123-11.482,12.996-9.723,19.814
					c1.764,6.816,8.973,8.996,16.094,4.873c7.125-4.125,11.488-12.998,9.729-19.814
					C375.203,232.641,367.988,230.463,360.861,234.588L360.861,234.588z"/>
			</g>
		</g>
		<g>
			<g>
				<defs>
					<path id="SVGID_128_" d="M180.77,261.158c-24.344,0.729-29.905-33.152-10.271-39.113
						c-16.979-54.4,15.54-112.892,85.967-125.495c48.739-8.722,103.956,13.094,119.176,70.864
						c10.219,38.781,11.42,77.779-2.096,103.972C340.609,335.221,207.538,329.104,180.77,261.158L180.77,261.158z"/>
				</defs>
				<clipPath id="SVGID_129_">
					<use xlink:href="#SVGID_128_"  overflow="visible"/>
				</clipPath>
				<path clip-path="url(#SVGID_129_)" fill="#D36F48" d="M361.199,234.73c-6.848,3.955-11.031,12.467-9.354,19.014
					c1.686,6.545,8.609,8.641,15.453,4.688c6.842-3.955,11.037-12.467,9.352-19.014S368.045,230.777,361.199,234.73L361.199,234.73z
					"/>
			</g>
		</g>
		<g>
			<g>
				<defs>
					<path id="SVGID_130_" d="M180.77,261.158c-24.344,0.729-29.905-33.152-10.271-39.113
						c-16.979-54.4,15.54-112.892,85.967-125.495c48.739-8.722,103.956,13.094,119.176,70.864
						c10.219,38.781,11.42,77.779-2.096,103.972C340.609,335.221,207.538,329.104,180.77,261.158L180.77,261.158z"/>
				</defs>
				<clipPath id="SVGID_131_">
					<use xlink:href="#SVGID_130_"  overflow="visible"/>
				</clipPath>
				<path clip-path="url(#SVGID_131_)" fill="#D36E48" d="M361.535,234.873c-6.568,3.787-10.592,11.939-8.979,18.213
					c1.607,6.271,8.244,8.283,14.813,4.5c6.564-3.787,10.59-11.939,8.979-18.211C374.736,233.102,368.102,231.092,361.535,234.873
					L361.535,234.873z"/>
			</g>
		</g>
		<g>
			<g>
				<defs>
					<path id="SVGID_132_" d="M180.77,261.158c-24.344,0.729-29.905-33.152-10.271-39.113
						c-16.979-54.4,15.54-112.892,85.967-125.495c48.739-8.722,103.956,13.094,119.176,70.864
						c10.219,38.781,11.42,77.779-2.096,103.972C340.609,335.221,207.538,329.104,180.77,261.158L180.77,261.158z"/>
				</defs>
				<clipPath id="SVGID_133_">
					<use xlink:href="#SVGID_132_"  overflow="visible"/>
				</clipPath>
				<path clip-path="url(#SVGID_133_)" fill="#D36D48" d="M361.871,235.018c-6.287,3.615-10.143,11.41-8.607,17.408
					c1.537,6,7.883,7.928,14.168,4.314c6.291-3.615,10.15-11.408,8.615-17.408C374.504,233.332,368.158,231.402,361.871,235.018
					L361.871,235.018z"/>
			</g>
		</g>
		<g>
			<g>
				<defs>
					<path id="SVGID_134_" d="M180.77,261.158c-24.344,0.729-29.905-33.152-10.271-39.113
						c-16.979-54.4,15.54-112.892,85.967-125.495c48.739-8.722,103.956,13.094,119.176,70.864
						c10.219,38.781,11.42,77.779-2.096,103.972C340.609,335.221,207.538,329.104,180.77,261.158L180.77,261.158z"/>
				</defs>
				<clipPath id="SVGID_135_">
					<use xlink:href="#SVGID_134_"  overflow="visible"/>
				</clipPath>
				<path clip-path="url(#SVGID_135_)" fill="#D36C47" d="M362.207,235.162c-6.01,3.443-9.701,10.881-8.236,16.605
					c1.467,5.729,7.52,7.572,13.531,4.125c6.006-3.443,9.693-10.879,8.234-16.604C374.271,233.563,368.213,231.719,362.207,235.162
					L362.207,235.162z"/>
			</g>
		</g>
		<g>
			<g>
				<defs>
					<path id="SVGID_136_" d="M180.77,261.158c-24.344,0.729-29.905-33.152-10.271-39.113
						c-16.979-54.4,15.54-112.892,85.967-125.495c48.739-8.722,103.956,13.094,119.176,70.864
						c10.219,38.781,11.42,77.779-2.096,103.972C340.609,335.221,207.538,329.104,180.77,261.158L180.77,261.158z"/>
				</defs>
				<clipPath id="SVGID_137_">
					<use xlink:href="#SVGID_136_"  overflow="visible"/>
				</clipPath>
				<path clip-path="url(#SVGID_137_)" fill="#D36B47" d="M362.539,235.305c-5.727,3.275-9.248,10.35-7.865,15.805
					c1.393,5.453,7.162,7.215,12.896,3.939c5.727-3.273,9.248-10.352,7.865-15.805C374.039,233.793,368.27,232.031,362.539,235.305
					L362.539,235.305z"/>
			</g>
		</g>
		<g>
			<g>
				<defs>
					<path id="SVGID_138_" d="M180.77,261.158c-24.344,0.729-29.905-33.152-10.271-39.113
						c-16.979-54.4,15.54-112.892,85.967-125.495c48.739-8.722,103.956,13.094,119.176,70.864
						c10.219,38.781,11.42,77.779-2.096,103.972C340.609,335.221,207.538,329.104,180.77,261.158L180.77,261.158z"/>
				</defs>
				<clipPath id="SVGID_139_">
					<use xlink:href="#SVGID_138_"  overflow="visible"/>
				</clipPath>
				<path clip-path="url(#SVGID_139_)" fill="#D36A47" d="M362.871,235.449c-5.441,3.105-8.805,9.822-7.484,15.002
					c1.311,5.18,6.803,6.857,12.244,3.754c5.451-3.105,8.814-9.822,7.494-15.002C373.809,234.021,368.322,232.346,362.871,235.449
					L362.871,235.449z"/>
			</g>
		</g>
		<g>
			<g>
				<defs>
					<path id="SVGID_140_" d="M180.77,261.158c-24.344,0.729-29.905-33.152-10.271-39.113
						c-16.979-54.4,15.54-112.892,85.967-125.495c48.739-8.722,103.956,13.094,119.176,70.864
						c10.219,38.781,11.42,77.779-2.096,103.972C340.609,335.221,207.538,329.104,180.77,261.158L180.77,261.158z"/>
				</defs>
				<clipPath id="SVGID_141_">
					<use xlink:href="#SVGID_140_"  overflow="visible"/>
				</clipPath>
				<path clip-path="url(#SVGID_141_)" fill="#D36947" d="M363.217,235.594c-5.174,2.934-8.365,9.293-7.123,14.199
					c1.238,4.908,6.438,6.5,11.604,3.564c5.17-2.934,8.359-9.293,7.123-14.199C373.576,234.252,368.381,232.658,363.217,235.594
					L363.217,235.594z"/>
			</g>
		</g>
		<g>
			<g>
				<defs>
					<path id="SVGID_142_" d="M180.77,261.158c-24.344,0.729-29.905-33.152-10.271-39.113
						c-16.979-54.4,15.54-112.892,85.967-125.495c48.739-8.722,103.956,13.094,119.176,70.864
						c10.219,38.781,11.42,77.779-2.096,103.972C340.609,335.221,207.538,329.104,180.77,261.158L180.77,261.158z"/>
				</defs>
				<clipPath id="SVGID_143_">
					<use xlink:href="#SVGID_142_"  overflow="visible"/>
				</clipPath>
				<path clip-path="url(#SVGID_143_)" fill="#D36847" d="M363.549,235.738c-4.885,2.766-7.92,8.762-6.748,13.398
					c1.164,4.633,6.07,6.141,10.969,3.375c4.887-2.764,7.908-8.76,6.744-13.396C373.35,234.482,368.434,232.971,363.549,235.738
					L363.549,235.738z"/>
			</g>
		</g>
		<g>
			<g>
				<defs>
					<path id="SVGID_144_" d="M180.77,261.158c-24.344,0.729-29.905-33.152-10.271-39.113
						c-16.979-54.4,15.54-112.892,85.967-125.495c48.739-8.722,103.956,13.094,119.176,70.864
						c10.219,38.781,11.42,77.779-2.096,103.972C340.609,335.221,207.538,329.104,180.77,261.158L180.77,261.158z"/>
				</defs>
				<clipPath id="SVGID_145_">
					<use xlink:href="#SVGID_144_"  overflow="visible"/>
				</clipPath>
				<path clip-path="url(#SVGID_145_)" fill="#D26747" d="M363.881,235.881c-4.605,2.596-7.469,8.234-6.373,12.594
					c1.09,4.361,5.717,5.789,10.322,3.195c4.611-2.6,7.467-8.238,6.377-12.598C373.115,234.713,368.494,233.287,363.881,235.881
					L363.881,235.881z"/>
			</g>
		</g>
		<g>
			<g>
				<defs>
					<path id="SVGID_146_" d="M180.77,261.158c-24.344,0.729-29.905-33.152-10.271-39.113
						c-16.979-54.4,15.54-112.892,85.967-125.495c48.739-8.722,103.956,13.094,119.176,70.864
						c10.219,38.781,11.42,77.779-2.096,103.972C340.609,335.221,207.538,329.104,180.77,261.158L180.77,261.158z"/>
				</defs>
				<clipPath id="SVGID_147_">
					<use xlink:href="#SVGID_146_"  overflow="visible"/>
				</clipPath>
				<path clip-path="url(#SVGID_147_)" fill="#D26647" d="M364.217,236.023c-4.33,2.426-7.02,7.707-6.002,11.795
					c1.018,4.086,5.354,5.432,9.684,3.004c4.328-2.426,7.02-7.709,6.002-11.793C372.883,234.941,368.545,233.598,364.217,236.023
					L364.217,236.023z"/>
			</g>
		</g>
		<g>
			<g>
				<defs>
					<path id="SVGID_148_" d="M180.77,261.158c-24.344,0.729-29.905-33.152-10.271-39.113
						c-16.979-54.4,15.54-112.892,85.967-125.495c48.739-8.722,103.956,13.094,119.176,70.864
						c10.219,38.781,11.42,77.779-2.096,103.972C340.609,335.221,207.538,329.104,180.77,261.158L180.77,261.158z"/>
				</defs>
				<clipPath id="SVGID_149_">
					<use xlink:href="#SVGID_148_"  overflow="visible"/>
				</clipPath>
				<path clip-path="url(#SVGID_149_)" fill="#D26546" d="M364.553,236.168c-4.053,2.256-6.576,7.176-5.631,10.994
					c0.939,3.813,4.992,5.07,9.045,2.816c4.053-2.258,6.572-7.178,5.627-10.992C372.654,235.174,368.605,233.912,364.553,236.168
					L364.553,236.168z"/>
			</g>
		</g>
		<g>
			<g>
				<defs>
					<path id="SVGID_150_" d="M180.77,261.158c-24.344,0.729-29.905-33.152-10.271-39.113
						c-16.979-54.4,15.54-112.892,85.967-125.495c48.739-8.722,103.956,13.094,119.176,70.864
						c10.219,38.781,11.42,77.779-2.096,103.972C340.609,335.221,207.538,329.104,180.77,261.158L180.77,261.158z"/>
				</defs>
				<clipPath id="SVGID_151_">
					<use xlink:href="#SVGID_150_"  overflow="visible"/>
				</clipPath>
				<path clip-path="url(#SVGID_151_)" fill="#D26446" d="M364.885,236.311c-3.771,2.086-6.119,6.648-5.256,10.189
					s4.631,4.719,8.402,2.633c3.773-2.088,6.127-6.648,5.256-10.189C372.426,235.4,368.658,234.227,364.885,236.311L364.885,236.311
					z"/>
			</g>
		</g>
		<g>
			<g>
				<defs>
					<path id="SVGID_152_" d="M180.77,261.158c-24.344,0.729-29.905-33.152-10.271-39.113
						c-16.979-54.4,15.54-112.892,85.967-125.495c48.739-8.722,103.956,13.094,119.176,70.864
						c10.219,38.781,11.42,77.779-2.096,103.972C340.609,335.221,207.538,329.104,180.77,261.158L180.77,261.158z"/>
				</defs>
				<clipPath id="SVGID_153_">
					<use xlink:href="#SVGID_152_"  overflow="visible"/>
				</clipPath>
				<path clip-path="url(#SVGID_153_)" fill="#D26346" d="M365.221,236.457c-3.488,1.916-5.678,6.115-4.885,9.387
					c0.793,3.268,4.271,4.359,7.762,2.445c3.492-1.918,5.684-6.121,4.889-9.389C372.191,235.631,368.713,234.541,365.221,236.457
					L365.221,236.457z"/>
			</g>
		</g>
		<g>
			<g>
				<defs>
					<path id="SVGID_154_" d="M180.77,261.158c-24.344,0.729-29.905-33.152-10.271-39.113
						c-16.979-54.4,15.54-112.892,85.967-125.495c48.739-8.722,103.956,13.094,119.176,70.864
						c10.219,38.781,11.42,77.779-2.096,103.972C340.609,335.221,207.538,329.104,180.77,261.158L180.77,261.158z"/>
				</defs>
				<clipPath id="SVGID_155_">
					<use xlink:href="#SVGID_154_"  overflow="visible"/>
				</clipPath>
				<path clip-path="url(#SVGID_155_)" fill="#D26246" d="M365.553,236.598c-3.207,1.748-5.225,5.59-4.51,8.586
					c0.725,2.994,3.906,4.006,7.123,2.258c3.207-1.748,5.229-5.592,4.514-8.584C371.959,235.863,368.77,234.854,365.553,236.598
					L365.553,236.598z"/>
			</g>
		</g>
		<g>
			<g>
				<defs>
					<path id="SVGID_156_" d="M180.77,261.158c-24.344,0.729-29.905-33.152-10.271-39.113
						c-16.979-54.4,15.54-112.892,85.967-125.495c48.739-8.722,103.956,13.094,119.176,70.864
						c10.219,38.781,11.42,77.779-2.096,103.972C340.609,335.221,207.538,329.104,180.77,261.158L180.77,261.158z"/>
				</defs>
				<clipPath id="SVGID_157_">
					<use xlink:href="#SVGID_156_"  overflow="visible"/>
				</clipPath>
				<path clip-path="url(#SVGID_157_)" fill="#D26246" d="M365.898,236.744c-2.938,1.576-4.795,5.061-4.146,7.779
					c0.645,2.723,3.547,3.648,6.479,2.072c2.938-1.578,4.781-5.061,4.145-7.783C371.727,236.092,368.826,235.168,365.898,236.744
					L365.898,236.744z"/>
			</g>
		</g>
		<g>
			<g>
				<defs>
					<path id="SVGID_158_" d="M180.77,261.158c-24.344,0.729-29.905-33.152-10.271-39.113
						c-16.979-54.4,15.54-112.892,85.967-125.495c48.739-8.722,103.956,13.094,119.176,70.864
						c10.219,38.781,11.42,77.779-2.096,103.972C340.609,335.221,207.538,329.104,180.77,261.158L180.77,261.158z"/>
				</defs>
				<clipPath id="SVGID_159_">
					<use xlink:href="#SVGID_158_"  overflow="visible"/>
				</clipPath>
				<path clip-path="url(#SVGID_159_)" fill="#D26146" d="M366.23,236.887c-2.652,1.408-4.348,4.531-3.771,6.98
					c0.568,2.449,3.186,3.291,5.838,1.885c2.656-1.406,4.346-4.531,3.771-6.982C371.504,236.32,368.881,235.48,366.23,236.887
					L366.23,236.887z"/>
			</g>
		</g>
		<g>
			<g>
				<defs>
					<path id="SVGID_160_" d="M180.77,261.158c-24.344,0.729-29.905-33.152-10.271-39.113
						c-16.979-54.4,15.54-112.892,85.967-125.495c48.739-8.722,103.956,13.094,119.176,70.864
						c10.219,38.781,11.42,77.779-2.096,103.972C340.609,335.221,207.538,329.104,180.77,261.158L180.77,261.158z"/>
				</defs>
				<clipPath id="SVGID_161_">
					<use xlink:href="#SVGID_160_"  overflow="visible"/>
				</clipPath>
				<path clip-path="url(#SVGID_161_)" fill="#D16046" d="M366.563,237.031c-2.373,1.236-3.898,4.004-3.396,6.178
					c0.496,2.176,2.828,2.934,5.199,1.697c2.371-1.238,3.893-4.004,3.396-6.18C371.27,236.551,368.938,235.793,366.563,237.031
					L366.563,237.031z"/>
			</g>
		</g>
		<g>
			<g>
				<defs>
					<path id="SVGID_162_" d="M180.77,261.158c-24.344,0.729-29.905-33.152-10.271-39.113
						c-16.979-54.4,15.54-112.892,85.967-125.495c48.739-8.722,103.956,13.094,119.176,70.864
						c10.219,38.781,11.42,77.779-2.096,103.972C340.609,335.221,207.538,329.104,180.77,261.158L180.77,261.158z"/>
				</defs>
				<clipPath id="SVGID_163_">
					<use xlink:href="#SVGID_162_"  overflow="visible"/>
				</clipPath>
				<path clip-path="url(#SVGID_163_)" fill="#D15F45" d="M366.898,237.176c-2.092,1.066-3.449,3.473-3.025,5.373
					c0.422,1.902,2.461,2.58,4.557,1.512c2.092-1.066,3.445-3.475,3.021-5.375C371.033,236.783,368.994,236.107,366.898,237.176
					L366.898,237.176z"/>
			</g>
		</g>
		<g>
			<g>
				<defs>
					<path id="SVGID_164_" d="M180.77,261.158c-24.344,0.729-29.905-33.152-10.271-39.113
						c-16.979-54.4,15.54-112.892,85.967-125.495c48.739-8.722,103.956,13.094,119.176,70.864
						c10.219,38.781,11.42,77.779-2.096,103.972C340.609,335.221,207.538,329.104,180.77,261.158L180.77,261.158z"/>
				</defs>
				<clipPath id="SVGID_165_">
					<use xlink:href="#SVGID_164_"  overflow="visible"/>
				</clipPath>
				<path clip-path="url(#SVGID_165_)" fill="#D15E45" d="M367.234,237.316c-1.814,0.898-3.002,2.947-2.654,4.576
					c0.348,1.627,2.104,2.219,3.914,1.322c1.814-0.896,3.01-2.945,2.656-4.574C370.805,237.012,369.051,236.422,367.234,237.316
					L367.234,237.316z"/>
			</g>
		</g>
		<g>
			<g>
				<defs>
					<path id="SVGID_166_" d="M180.77,261.158c-24.344,0.729-29.905-33.152-10.271-39.113
						c-16.979-54.4,15.54-112.892,85.967-125.495c48.739-8.722,103.956,13.094,119.176,70.864
						c10.219,38.781,11.42,77.779-2.096,103.972C340.609,335.221,207.538,329.104,180.77,261.158L180.77,261.158z"/>
				</defs>
				<clipPath id="SVGID_167_">
					<use xlink:href="#SVGID_166_"  overflow="visible"/>
				</clipPath>
				<path clip-path="url(#SVGID_167_)" fill="#D15D45" d="M367.57,237.461c-1.535,0.729-2.561,2.416-2.285,3.771
					s1.742,1.863,3.275,1.135c1.531-0.725,2.559-2.416,2.277-3.77C370.572,237.242,369.105,236.736,367.57,237.461L367.57,237.461z"
					/>
			</g>
		</g>
		<g>
			<g>
				<defs>
					<path id="SVGID_168_" d="M180.77,261.158c-24.344,0.729-29.905-33.152-10.271-39.113
						c-16.979-54.4,15.54-112.892,85.967-125.495c48.739-8.722,103.956,13.094,119.176,70.864
						c10.219,38.781,11.42,77.779-2.096,103.972C340.609,335.221,207.538,329.104,180.77,261.158L180.77,261.158z"/>
				</defs>
				<clipPath id="SVGID_169_">
					<use xlink:href="#SVGID_168_"  overflow="visible"/>
				</clipPath>
				<path clip-path="url(#SVGID_169_)" fill="#D15C45" d="M367.906,237.605c-1.26,0.557-2.111,1.885-1.914,2.969
					c0.207,1.082,1.381,1.506,2.635,0.949c1.254-0.559,2.107-1.889,1.918-2.969C370.34,237.471,369.162,237.049,367.906,237.605
					L367.906,237.605z"/>
			</g>
		</g>
	</g>
	<path fill="#C7733B" d="M158.617,239.188c0.009-7.537,3.819-14.695,11.883-17.143c-16.98-54.4,15.548-112.892,85.971-125.495
		c48.735-8.722,103.952,13.092,119.172,70.864l0.311,1.183c-9.521-15.45-26.479-15.178-39.547-14.015
		c-17.17,1.524-16.406-9.154-16.406-9.154l-7.054-25.173c0,0-11.254,7.247-3.622,19.262c7.627,12.013-3.626,23.837-29.371,19.452
		c-25.745-4.386-54.35-23.839-54.35-23.839s0,6.485-2.479,17.544c-2.479,11.061-12.393,25.936-21.93,28.033
		c-9.534,2.098-7.248,11.251-5.148,20.597c2.1,9.344-9.343,24.027-21.55,25.172C165.581,227.311,160.634,235.066,158.617,239.188
		L158.617,239.188z"/>
	<path fill="#C7733B" d="M180.77,261.158c-6.32,1.307-11.25-2.369-14.78-5.096c7.036,1.854,11.528,3.268,18.729-1.99
		c20.266,64.744,136.107,73.797,177.341,33.168C316.998,333.564,205.08,322.848,180.77,261.158L180.77,261.158z"/>
	<path fill="#BA662F" d="M242.786,193.766c11.313,0,20.484,8.59,20.484,19.188c0,10.6-9.171,19.188-20.484,19.188
		c-11.311,0-20.489-8.59-20.489-19.188S231.475,193.766,242.786,193.766L242.786,193.766z"/>
	<path fill="#FEFEFE" d="M244.985,195.721c11.317,0,20.488,8.59,20.488,19.189c0,10.598-9.171,19.188-20.488,19.188
		c-11.314,0-20.485-8.59-20.485-19.188C224.5,204.311,233.67,195.721,244.985,195.721L244.985,195.721z"/>
	<path fill="#401B0F" d="M247.015,200.145c7.603,0,13.771,6.168,13.771,13.773c0,7.607-6.17,13.773-13.771,13.773
		c-7.609,0-13.78-6.166-13.78-13.773C233.235,206.313,239.406,200.145,247.015,200.145L247.015,200.145z"/>
	<path fill="#401B0F" d="M262.279,207.59c2.423,2.193,4.101,4.742,1.755-1.129c-5.118-12.832-21.542-13.695-31.988-6.902
		c-1.604,1.043-3.234,2.102-5.501,2.846c-3.674,1.211-5.472,0.16-6.58-0.629c-4.967-3.684-2.268,13.682,12.797,5.463
		C240.415,203.063,248.817,195.404,262.279,207.59L262.279,207.59z"/>
	<path fill="#FEFEFE" d="M240.008,206.807c2.143,0,3.868,1.732,3.868,3.869s-1.726,3.871-3.868,3.871s-3.868-1.732-3.868-3.871
		C236.141,208.539,237.866,206.807,240.008,206.807L240.008,206.807z"/>
	<path fill="#BA662F" d="M350.639,190.262c10.576,0,19.156,8.59,19.156,19.188c0,10.6-8.58,19.189-19.156,19.189
		c-10.58,0-19.156-8.59-19.156-19.189C331.482,198.852,340.059,190.262,350.639,190.262L350.639,190.262z"/>
	<path fill="#FEFEFE" d="M348.926,192.949c10.582,0,19.162,8.592,19.162,19.189s-8.58,19.189-19.162,19.189
		c-10.58,0-19.152-8.592-19.152-19.189C329.775,201.541,338.346,192.949,348.926,192.949L348.926,192.949z"/>
	<path fill="#401B0F" d="M346.582,198.074c7.025,0,12.723,6.168,12.723,13.775s-5.695,13.773-12.723,13.773
		c-7.029,0-12.73-6.166-12.73-13.773C333.854,204.242,339.553,198.074,346.582,198.074L346.582,198.074z"/>
	<path fill="#FEFEFE" d="M339.838,204.203c2.131,0,3.869,1.732,3.869,3.869s-1.738,3.867-3.869,3.867
		c-2.139,0-3.871-1.73-3.871-3.867C335.965,205.936,337.699,204.203,339.838,204.203L339.838,204.203z"/>
	<path fill="#BA662F" d="M318.668,238.594c-0.484,15.314-24.448,15.076-25.915,4.004c2.786,0.885,6.104,2.281,11.313,1.961
		C308.543,244.277,314.834,242.711,318.668,238.594L318.668,238.594z"/>
	<path fill="#C7733B" d="M174.354,243.303c0,0-2.857-5.047,1.958-6.191c2.501-0.592,3.977,1.598,4.777,3.807
		c0.733,2.043,0.897,4.105,0.759,4.018c0,0-0.681-0.959-1.646-1.939C178.408,241.176,175.626,239.281,174.354,243.303
		L174.354,243.303z"/>
	<path fill="#8F2F23" d="M277.038,271.123c18.312,7.295,36.387,2.725,50.839-2.291c5.787-2.004,1.953,7.854,0.807,10.396
		c-5.873,13.037-22.649,20.408-36.649,17.955c-11.741-2.055-19.674-10.877-22.56-18.461
		C266.181,270.039,266.28,266.836,277.038,271.123L277.038,271.123z"/>
	<path fill="#B13B32" d="M316.77,292.201c-7.355,4.48-16.526,6.42-24.735,4.982c-11.085-1.939-18.786-9.916-22.033-17.186
		C279.896,276.232,315.129,275.973,316.77,292.201L316.77,292.201z"/>
	<path fill="#FEFEFE" d="M277.957,271.475c17.161,5.889,33.864,2.338,47.502-1.82c-0.105,9.006-11.724,13.559-24.729,14.426
		C289.339,284.842,280.439,281.455,277.957,271.475L277.957,271.475z"/>
	<path fill="#F2F2F2" d="M277.957,271.475c17.161,5.889,33.864,2.338,47.502-1.82c-0.012,1.092-0.195,2.117-0.521,3.078
		c-19.817,6.822-36.141,4.666-45.868,1.941C278.612,273.691,278.241,272.631,277.957,271.475L277.957,271.475z"/>
	<path fill="#401B0F" d="M224.357,185.481c8.176-5.509,21.469-7.684,28.022-7.334c10.891,0.585,9.344-9.319,1.146-11.417
		c-9.196-2.349-29.389,6.015-35.727,13.263C213.875,184.489,216.022,191.096,224.357,185.481L224.357,185.481z"/>
	<path fill="#401B0F" d="M332.844,205.42c-2.307,2.193-3.896,4.744-1.672-1.127c4.877-12.832,20.299-14.271,30.238-7.48
		c1.529,1.043,3.285,2.678,5.441,3.426c3.496,1.207,5.207,0.158,6.256-0.633c4.73-3.682,2.168,13.684-12.168,5.465
		C353.652,200.895,345.658,193.236,332.844,205.42L332.844,205.42z"/>
	<path opacity="0.8" fill="#1E3F82" enable-background="new    " d="M113.534,410.557c-2.226-4.428-2.765-9.068-1.405-13.799
		c9.667-33.563,6.104-44.748-15.25-38.648c-21.356,6.104-54.923-14.236-30.514-72.717c23.495-56.283,47.455-55.576,52.853-69.041
		c34.593-13.605,60.153-33.027,56.294-14.107c-1.005,4.902,10.236,6.293,2.336,18.229c-33.407,11.191-46.014,59.564-28.215,71.771
		c17.798,12.205,21.33,43.822-6.615,72.719C128.366,380.111,117.344,396.006,113.534,410.557L113.534,410.557z"/>
	<path fill="#0B1838" d="M356.223,87.067c0,0,30.514,7.627,31.531,43.225c0.721,25.312,0.932,32.111,4.468,39.229
		c-5.032,9.397-11.688,9.515-16.579-2.105c-9.941-23.642-25.143-17.55-40.4-16.024c-15.256,1.527-24.406-14.746-24.406-14.746
		s11.185,18.308-17.298,18.308c-28.47,0-69.66-25.428-69.66-25.428s-1.018,10.171-5.087,23.395
		c-4.063,13.22-11.693,20.849-23.9,25.425s-3.048,11.697-5.083,27.46c-2.036,15.764-19.308,16.242-19.308,16.242
		c-28.207-1.617-113.45,96.289-44.772,111.389c17.55,3.863,1.187,31.543-10.659,60.426c-2.646,4.391-3.535,7.703-3.664,8.184
		c-0.009-1.746,0.216-3.508,0.725-5.285c9.667-33.563,6.104-44.748-15.25-38.648c-21.356,6.104-54.923-14.236-30.514-72.719
		c24.413-58.479,49.325-55.43,53.396-70.686s-28.475-52.887,8.14-93.06c37.625-46.275,92.038-33.055,92.038-33.055
		S286.049,5.703,356.223,87.067L356.223,87.067z"/>
	<path opacity="0.8" fill="#1E3F82" enable-background="new    " d="M379.428,103.689c4.527,6.365,7.994,14.996,8.326,26.602
		l0.047,1.766c-3.182,9.944-8.32,19.663-16.475,27.313c-6.266-9.027-13.953-10.288-22.15-9.685
		c12.6-4.668,22.006-10.74,25.238-18.113C378.543,122.155,379.721,112.473,379.428,103.689L379.428,103.689z M220.675,146.233
		c-0.539,2.107-1.165,4.349-1.884,6.686c-4.063,13.22-11.693,20.849-23.9,25.425c-1.54,0.577-2.729,1.196-3.661,1.864
		c-5.644-2.703-16.396-4.722-36.874-2.145c-19.467,2.45-34.468-5.396-44.01-16.256c0.319-8.855,2.604-18.287,8.412-27.992
		c3.152,9.635,11.677,19.13,32.924,19.623C188.643,154.296,203.178,140.071,220.675,146.233L220.675,146.233z"/>
	<path fill="#401B0F" d="M366.699,183.476c-8.023-5.108-21.082-6.632-27.518-5.963c-10.691,1.121-9.174-8.862-1.121-11.361
		c9.029-2.799,28.863,4.575,35.08,11.513C377,181.97,374.883,188.68,366.699,183.476L366.699,183.476z"/>
	<path fill="#BDEFFC" d="M173.147,222.178c6.355,5.008,13.553,9.678,19.412,8.965c1.195-0.141,2.294,0.697,2.438,1.873
		c0.15,1.176-0.711,2.25-1.91,2.393c-6.597,0.799-16.01-4.975-23.62-11.209L173.147,222.178L173.147,222.178z"/>
	<path fill="#BDEFFC" d="M180.779,261.158c11.831,14.389,23.503,34.291,41.827,39.451c1.16,0.322,1.842,1.514,1.514,2.654
		c-0.336,1.139-1.543,1.799-2.708,1.475c-12.789-3.568-30.782-21.076-46.403-43.668C176.933,261.484,178.11,261.393,180.779,261.158
		L180.779,261.158z"/>
	<path fill="#97DBF1" d="M192.12,228.723c3.993,25.982,8.563,47.135,12.563,73.117c56.707,35.77,192.734,25.504,182.053-78.451
		c-33.031,19.277-62.715,12.814-84.988,14.299C273.249,239.594,245.408,246.906,192.12,228.723L192.12,228.723z"/>
	<path fill="#85CBE1" d="M192.12,228.723c3.993,25.982,5.065,45.699,9.063,71.682c3.226,1.779,6.545,3.41,9.938,4.908
		c-2.515-33.563-8.317-59.314-12.741-74.533C196.405,230.371,194.158,229.135,192.12,228.723L192.12,228.723z"/>
	<path fill="#8CD0E4" d="M249.322,317.623c32.954,5.357,68.522,6.338,101.346-15.459c-6.035-25.373-22.609-40.857-45.074-43.971
		C283.134,255.082,253.793,306.139,249.322,317.623L249.322,317.623z"/>
</g>
</svg>
