<?xml version="1.0" encoding="utf-8"?>
<!-- Generator: Adobe Illustrator 16.0.0, SVG Export Plug-In . SVG Version: 6.00 Build 0)  -->
<!DOCTYPE svg PUBLIC "-//W3C//DTD SVG 1.1//EN" "http://www.w3.org/Graphics/SVG/1.1/DTD/svg11.dtd">
<svg version="1.1" id="Layer_1" xmlns="http://www.w3.org/2000/svg" xmlns:xlink="http://www.w3.org/1999/xlink" x="0px" y="0px"
	 width="77px" height="77.5px" viewBox="0 0 77 77.5" enable-background="new 0 0 77 77.5" xml:space="preserve">
<g>
	<g>
		<path fill="#FDBA24" d="M44.357,8.519c0-2.674-2.166-4.84-4.835-4.84c-2.678,0-4.841,2.166-4.841,4.84
			c0,2.01,1.227,3.735,2.97,4.464c0.018,0.216,0.043,0.433,0.07,0.65c0.119,0.782,0.275,1.563,0.348,2.345l0.246,2.345l0.298,2.341
			c0.222,1.563,0.438,3.125,0.726,4.69h0.364c0.286-1.564,0.502-3.127,0.724-4.69l0.297-2.341l0.247-2.345
			c0.073-0.782,0.229-1.563,0.347-2.345c0.033-0.217,0.053-0.434,0.068-0.65C43.128,12.253,44.357,10.528,44.357,8.519z"/>
		<path fill="#FDBA24" d="M10.6,33.467c-2.094,0.078-3.733,1.839-3.65,3.935c0.078,2.095,1.839,3.728,3.932,3.65
			c1.577-0.059,2.893-1.073,3.413-2.462c0.167-0.018,0.34-0.042,0.509-0.073c0.609-0.116,1.214-0.258,1.829-0.34l1.829-0.262
			l1.826-0.302c1.218-0.221,2.438-0.436,3.652-0.708l-0.011-0.286c-1.23-0.178-2.462-0.3-3.694-0.43l-1.847-0.165l-1.841-0.123
			c-0.618-0.035-1.231-0.135-1.85-0.201c-0.172-0.021-0.34-0.03-0.511-0.037C13.558,34.317,12.176,33.407,10.6,33.467z"/>
		<path fill="#FDBA24" d="M35.58,68.739c-0.025,2.166,1.714,3.941,3.879,3.966c2.168,0.022,3.944-1.717,3.964-3.883
			c0.022-1.631-0.962-3.039-2.37-3.646C41.043,65,41.028,64.824,41,64.649c-0.083-0.635-0.204-1.271-0.257-1.906l-0.181-1.902
			l-0.224-1.901c-0.164-1.27-0.328-2.538-0.549-3.809l-0.294-0.001c-0.245,1.263-0.433,2.528-0.625,3.794l-0.262,1.898l-0.222,1.897
			c-0.065,0.635-0.196,1.267-0.297,1.897c-0.029,0.178-0.049,0.353-0.063,0.529C36.603,65.722,35.598,67.109,35.58,68.739z"/>
		<path fill="#FDBA24" d="M13.774,57.805c-1.596,1.881-1.363,4.702,0.52,6.295c1.883,1.596,4.703,1.363,6.297-0.52
			c1.199-1.416,1.368-3.361,0.573-4.919c0.12-0.161,0.234-0.329,0.34-0.502c0.38-0.618,0.74-1.262,1.155-1.854l1.227-1.8
			l1.186-1.828c0.78-1.234,1.559-2.464,2.289-3.734l-0.253-0.218c-1.138,0.929-2.223,1.901-3.31,2.868l-1.613,1.474l-1.57,1.505
			c-0.516,0.507-1.094,0.964-1.641,1.444c-0.151,0.134-0.299,0.272-0.438,0.419C16.869,55.906,14.972,56.387,13.774,57.805z"/>
		<path fill="#FDBA24" d="M21.483,14.169c-1.754-2.103-4.885-2.382-6.99-0.625c-2.103,1.757-2.38,4.886-0.625,6.988
			c1.322,1.582,3.42,2.129,5.274,1.558c0.156,0.161,0.315,0.317,0.483,0.466c0.609,0.538,1.244,1.052,1.813,1.62l1.735,1.681
			l1.775,1.647c1.203,1.084,2.402,2.17,3.653,3.209l0.287-0.237c-0.801-1.419-1.657-2.791-2.511-4.166l-1.308-2.04l-1.345-2.005
			c-0.458-0.665-0.852-1.379-1.272-2.073c-0.116-0.188-0.242-0.376-0.373-0.557C22.974,17.913,22.805,15.751,21.483,14.169z"/>
		<path fill="#FDBA24" d="M69.121,42.415c2.274-0.223,3.933-2.247,3.711-4.517c-0.228-2.271-2.247-3.932-4.517-3.709
			c-1.71,0.167-3.075,1.354-3.549,2.899c-0.184,0.033-0.367,0.069-0.549,0.115c-0.655,0.165-1.305,0.36-1.962,0.489l-1.973,0.404
			l-1.97,0.449c-1.31,0.323-2.616,0.635-3.924,1.009l0.033,0.31c1.35,0.114,2.697,0.167,4.042,0.224l2.018,0.059l2.015,0.011
			c0.673-0.001,1.351,0.063,2.021,0.098c0.188,0.008,0.378,0.01,0.562,0.004C65.848,41.685,67.414,42.583,69.121,42.415z"/>
		<path fill="#FDBA24" d="M62.719,19.394c1.451-1.936,1.059-4.682-0.881-6.129c-1.938-1.451-4.683-1.056-6.131,0.881
			c-1.088,1.456-1.139,3.37-0.267,4.846c-0.106,0.165-0.21,0.333-0.303,0.51c-0.34,0.628-0.649,1.277-1.022,1.884l-1.093,1.832
			l-1.056,1.861c-0.688,1.253-1.378,2.502-2.015,3.789l0.262,0.199c1.053-0.979,2.061-1.993,3.067-3.004l1.488-1.536l1.448-1.565
			c0.479-0.526,1.016-1.009,1.524-1.511c0.139-0.14,0.274-0.285,0.403-0.433C59.808,21.433,61.628,20.85,62.719,19.394z"/>
		<path fill="#FDBA24" d="M58.46,63.726c1.63,1.725,4.35,1.804,6.077,0.174c1.724-1.628,1.804-4.349,0.172-6.073
			c-1.222-1.298-3.065-1.664-4.64-1.071c-0.144-0.132-0.287-0.258-0.443-0.377c-0.552-0.434-1.123-0.844-1.647-1.304l-1.587-1.366
			l-1.627-1.33c-1.096-0.873-2.184-1.75-3.319-2.585l-0.239,0.224c0.769,1.183,1.582,2.323,2.391,3.467l1.236,1.696l1.267,1.664
			c0.429,0.55,0.807,1.147,1.209,1.724c0.111,0.16,0.229,0.313,0.351,0.461C56.977,60.566,57.238,62.425,58.46,63.726z"/>
	</g>
	<g>
		<circle fill="#FDBA24" cx="39.519" cy="40.092" r="21.263"/>
		<g>
			<circle fill="#E89F23" cx="27.334" cy="42.659" r="4.332"/>
			<circle fill="#E89F23" cx="44.584" cy="49.733" r="3.268"/>
			<circle fill="#E89F23" cx="44.718" cy="30.907" r="7.42"/>
		</g>
	</g>
</g>
</svg>
