<?xml version="1.0" encoding="utf-8"?>
<!-- Generator: Adobe Illustrator 16.0.0, SVG Export Plug-In . SVG Version: 6.00 Build 0)  -->
<!DOCTYPE svg PUBLIC "-//W3C//DTD SVG 1.1//EN" "http://www.w3.org/Graphics/SVG/1.1/DTD/svg11.dtd">
<svg version="1.1" id="Layer_1" xmlns="http://www.w3.org/2000/svg" xmlns:xlink="http://www.w3.org/1999/xlink" x="0px" y="0px"
	 width="65px" height="66.5px" viewBox="0 0 65 66.5" enable-background="new 0 0 65 66.5" xml:space="preserve">
<g>
	<g>
		<g>
			<path fill="#06AFCD" d="M32.366,58.745c-0.243-0.165-0.389-0.449-0.363-0.764l0.483-5.275c0.042-0.457,0.451-0.792,0.904-0.751
				c0.458,0.036,0.794,0.444,0.752,0.901l-0.483,5.276c-0.042,0.457-0.447,0.795-0.904,0.752
				C32.612,58.872,32.479,58.823,32.366,58.745z"/>
		</g>
		<g>
			<path fill="#06AFCD" d="M32.563,59.738c-1.854-0.075-3.325-0.856-3.29-1.751c0.036-0.891,1.565-1.556,3.416-1.481
				c1.851,0.071,3.322,0.856,3.287,1.747C35.94,59.145,34.414,59.809,32.563,59.738z"/>
		</g>
	</g>
	<g>
		<circle fill="#06AFCD" cx="32.551" cy="35.159" r="19.769"/>
	</g>
	<g>
		<circle fill="#0E9399" cx="31.461" cy="21.773" r="3.591"/>
	</g>
	<g>
		<circle fill="#0E9399" cx="35.646" cy="32.085" r="2.823"/>
	</g>
	<g>
		<path fill="#0E9399" d="M42.741,37.87c2.589,0,4.687,2.101,4.687,4.69c0,2.59-2.098,4.689-4.687,4.689
			c-2.593,0-4.689-2.1-4.689-4.689C38.051,39.971,40.147,37.87,42.741,37.87z"/>
	</g>
	<g>
		<path fill="#0E9399" d="M21.774,24.808c1.683,0,3.047,1.362,3.047,3.045c0,1.682-1.365,3.044-3.047,3.044
			c-1.679,0-3.042-1.363-3.042-3.044C18.731,26.17,20.095,24.808,21.774,24.808z"/>
	</g>
	<g>
		<circle fill="#0E9399" cx="45.976" cy="30.73" r="2.315"/>
	</g>
	<g>
		<circle fill="#0E9399" cx="31.783" cy="49.399" r="3.154"/>
	</g>
	<g>
		<g>
			<path fill="#06AFCD" d="M45.956,24.844c-0.087-0.06-0.169-0.138-0.23-0.234c-0.25-0.384-0.143-0.899,0.243-1.15l4.44-2.894
				c0.382-0.25,0.897-0.145,1.147,0.242c0.249,0.383,0.143,0.899-0.243,1.149l-4.44,2.895
				C46.584,25.042,46.225,25.027,45.956,24.844z"/>
		</g>
		<g>
			<path fill="#06AFCD" d="M52.36,20.435c1.092,1.496,1.39,3.135,0.671,3.661c-0.724,0.525-2.191-0.26-3.283-1.756
				c-1.089-1.496-1.391-3.135-0.668-3.661C49.8,18.153,51.271,18.939,52.36,20.435z"/>
		</g>
	</g>
	<g>
		<g>
			<path fill="#06AFCD" d="M49.505,37.974c-0.224-0.153-0.39-0.391-0.447-0.676c-0.113-0.576,0.262-1.136,0.839-1.248l6.654-1.305
				c0.58-0.112,1.138,0.265,1.251,0.838c0.114,0.575-0.263,1.136-0.84,1.248l-6.656,1.304
				C50.017,38.194,49.731,38.128,49.505,37.974z"/>
		</g>
		<g>
			
				<ellipse transform="matrix(0.9699 -0.2433 0.2433 0.9699 -7.057 14.934)" fill="#06AFCD" cx="56.927" cy="36.035" rx="2.068" ry="4.291"/>
		</g>
	</g>
	<g>
		<g>
			<path fill="#06AFCD" d="M34.612,18.24c-0.424-0.289-0.6-0.845-0.396-1.337l2.719-6.469c0.233-0.559,0.879-0.823,1.439-0.587
				c0.565,0.227,0.824,0.879,0.587,1.44l-2.716,6.47c-0.237,0.559-0.878,0.823-1.439,0.588C34.739,18.316,34.674,18.28,34.612,18.24
				z"/>
		</g>
		<g>
			
				<ellipse transform="matrix(0.3386 -0.9409 0.9409 0.3386 14.5144 42.9005)" fill="#06AFCD" cx="37.772" cy="11.126" rx="2.507" ry="4.44"/>
		</g>
	</g>
	<g>
		<g>
			<path fill="#06AFCD" d="M46.167,57.326c-0.084-0.059-0.162-0.126-0.233-0.207l-5.238-5.932c-0.453-0.512-0.405-1.297,0.107-1.753
				c0.516-0.451,1.303-0.397,1.754,0.11l5.241,5.931c0.451,0.516,0.405,1.3-0.11,1.753C47.253,57.611,46.627,57.638,46.167,57.326z"
				/>
		</g>
		<g>
			<path fill="#06AFCD" d="M48.419,58.321c-1.974,1.935-4.333,2.732-5.267,1.779c-0.933-0.949-0.087-3.293,1.886-5.228
				c1.973-1.937,4.333-2.735,5.267-1.783C51.238,54.043,50.393,56.383,48.419,58.321z"/>
		</g>
	</g>
	<g>
		<g>
			<path fill="#06AFCD" d="M8.191,33.354c-0.272-0.187-0.421-0.526-0.343-0.87c0.101-0.448,0.543-0.73,0.992-0.629l5.173,1.155
				c0.449,0.101,0.729,0.544,0.628,0.992c-0.099,0.449-0.544,0.73-0.992,0.629l-5.172-1.156C8.372,33.453,8.276,33.411,8.191,33.354
				z"/>
		</g>
		<g>
			
				<ellipse transform="matrix(-0.986 -0.1668 0.1668 -0.986 11.7024 65.8399)" fill="#06AFCD" cx="8.616" cy="32.428" rx="1.617" ry="3.352"/>
		</g>
	</g>
	<g>
		<g>
			<path fill="#06AFCD" d="M24.455,19.753c-0.084-0.058-0.162-0.132-0.22-0.222l-4.438-6.565c-0.258-0.38-0.159-0.898,0.222-1.153
				c0.38-0.258,0.898-0.153,1.154,0.222l4.437,6.565c0.259,0.38,0.158,0.897-0.221,1.153C25.096,19.95,24.727,19.939,24.455,19.753z
				"/>
		</g>
		<g>
			<path fill="#06AFCD" d="M19.215,10.29c2.21-1.667,4.653-2.155,5.457-1.09c0.807,1.065-0.334,3.282-2.544,4.95
				c-2.21,1.667-4.653,2.156-5.457,1.09C15.866,14.174,17.006,11.958,19.215,10.29z"/>
		</g>
	</g>
	<g>
		<g>
			<path fill="#06AFCD" d="M14.162,51.709c-0.084-0.058-0.163-0.126-0.227-0.204c-0.396-0.47-0.337-1.17,0.131-1.562l6.058-5.108
				c0.464-0.392,1.165-0.327,1.561,0.135c0.394,0.468,0.333,1.167-0.133,1.561l-6.056,5.107
				C15.111,51.966,14.563,51.981,14.162,51.709z"/>
		</g>
		<g>
			
				<ellipse transform="matrix(-0.7298 0.6836 -0.6836 -0.7298 60.6314 78.5766)" fill="#06AFCD" cx="14.788" cy="51.27" rx="2.417" ry="5.014"/>
		</g>
	</g>
	<g>
		<circle fill="#0E9399" cx="22.183" cy="42.037" r="3.692"/>
	</g>
</g>
</svg>
