<?xml version="1.0" encoding="utf-8"?>
<!-- Generator: Adobe Illustrator 16.0.0, SVG Export Plug-In . SVG Version: 6.00 Build 0)  -->
<!DOCTYPE svg PUBLIC "-//W3C//DTD SVG 1.1//EN" "http://www.w3.org/Graphics/SVG/1.1/DTD/svg11.dtd">
<svg version="1.1" id="Layer_1" xmlns="http://www.w3.org/2000/svg" xmlns:xlink="http://www.w3.org/1999/xlink" x="0px" y="0px"
	 width="65px" height="66.5px" viewBox="0 0 65 66.5" enable-background="new 0 0 65 66.5" xml:space="preserve">
<g>
	<path fill="#EA514C" d="M33.16,15.909c10.85,0,19.648,8.795,19.648,19.646c0,10.848-8.798,19.644-19.648,19.644
		c-10.846,0-19.644-8.796-19.644-19.644C13.516,24.704,22.313,15.909,33.16,15.909z"/>
	<circle fill="#D34242" cx="29.54" cy="22.71" r="3.569"/>
	<circle fill="#D34242" cx="35.593" cy="31.965" r="2.804"/>
	<path fill="#D34242" d="M44.51,36.163c2.574,0,4.663,2.087,4.663,4.661c0,2.572-2.089,4.66-4.663,4.66
		c-2.57,0-4.66-2.087-4.66-4.66C39.85,38.25,41.939,36.163,44.51,36.163z"/>
	<path fill="#D34242" d="M21.256,27.463c1.672,0,3.03,1.354,3.03,3.026c0,1.673-1.358,3.027-3.03,3.027
		c-1.669,0-3.027-1.354-3.027-3.027C18.229,28.817,19.587,27.463,21.256,27.463z"/>
	<circle fill="#D34242" cx="45.407" cy="28.669" r="2.3"/>
	<circle fill="#D34242" cx="35.133" cy="49.587" r="3.132"/>
	<g>
		
			<line fill="none" stroke="#EA514C" stroke-width="0.8912" stroke-linecap="round" stroke-linejoin="round" stroke-miterlimit="10" x1="44.582" y1="22.173" x2="48.358" y2="18.502"/>
		<path fill="#EA514C" d="M49.665,17.413c1.347,1.249,1.951,2.792,1.351,3.443c-0.604,0.649-2.187,0.163-3.537-1.086
			c-1.351-1.25-1.955-2.791-1.351-3.443S48.314,16.162,49.665,17.413z"/>
	</g>
	<g>
		
			<line fill="none" stroke="#EA514C" stroke-width="0.8912" stroke-linecap="round" stroke-linejoin="round" stroke-miterlimit="10" x1="37.276" y1="52.593" x2="37.812" y2="57.832"/>
		
			<ellipse transform="matrix(0.1534 0.9882 -0.9882 0.1534 89.0888 11.8392)" fill="#EA514C" cx="37.635" cy="57.914" rx="1.604" ry="3.331"/>
	</g>
	<g>
		
			<line fill="none" stroke="#EA514C" stroke-width="1.1408" stroke-linecap="round" stroke-linejoin="round" stroke-miterlimit="10" x1="50.649" y1="34.084" x2="56.888" y2="31.539"/>
		<path fill="#EA514C" d="M58.973,30.888c1.003,2.132,0.981,4.252-0.047,4.735c-1.028,0.481-2.672-0.854-3.675-2.987
			c-0.999-2.132-0.981-4.25,0.047-4.733C56.326,27.419,57.97,28.755,58.973,30.888z"/>
	</g>
	<g>
		
			<line fill="none" stroke="#EA514C" stroke-width="1.1802" stroke-linecap="round" stroke-linejoin="round" stroke-miterlimit="10" x1="32.367" y1="17.655" x2="33.779" y2="10.828"/>
		<path fill="#EA514C" d="M34.047,8.641c2.408,0.37,4.192,1.771,3.982,3.132c-0.207,1.359-2.328,2.163-4.739,1.794
			c-2.407-0.368-4.192-1.769-3.982-3.13C29.514,9.075,31.636,8.271,34.047,8.641z"/>
	</g>
	<g>
		
			<line fill="none" stroke="#EA514C" stroke-width="1.3314" stroke-linecap="round" stroke-linejoin="round" stroke-miterlimit="10" x1="44.919" y1="48.648" x2="51.16" y2="53.432"/>
		<path fill="#EA514C" d="M53.028,55.137c-1.557,2.267-3.704,3.495-4.797,2.746c-1.09-0.752-0.713-3.195,0.84-5.462
			c1.557-2.266,3.703-3.493,4.797-2.744C54.962,50.427,54.585,52.87,53.028,55.137z"/>
	</g>
	<g>
		
			<line fill="none" stroke="#EA514C" stroke-width="0.8912" stroke-linecap="round" stroke-linejoin="round" stroke-miterlimit="10" x1="14.649" y1="37.83" x2="9.385" y2="37.69"/>
		<path fill="#EA514C" d="M7.702,37.505c-0.047-1.839,0.634-3.349,1.521-3.372c0.887-0.023,1.644,1.45,1.691,3.289
			c0.047,1.839-0.634,3.349-1.521,3.371C8.509,40.814,7.752,39.345,7.702,37.505z"/>
	</g>
	<g>
		
			<line fill="none" stroke="#EA514C" stroke-width="0.8912" stroke-linecap="round" stroke-linejoin="round" stroke-miterlimit="10" x1="22.643" y1="21.319" x2="17.064" y2="15.766"/>
		<path fill="#EA514C" d="M15.398,13.852c1.839-2.049,4.127-2.992,5.116-2.109c0.985,0.885,0.297,3.264-1.539,5.313
			c-1.835,2.051-4.127,2.994-5.112,2.109C12.875,18.28,13.563,15.903,15.398,13.852z"/>
	</g>
	<g>
		
			<line fill="none" stroke="#EA514C" stroke-width="1.1883" stroke-linecap="round" stroke-linejoin="round" stroke-miterlimit="10" x1="23.754" y1="48.055" x2="18.823" y2="54.195"/>
		<path fill="#EA514C" d="M17.506,56.621c-2.234-1.611-3.414-3.787-2.64-4.864c0.779-1.077,3.215-0.643,5.449,0.965
			c2.23,1.611,3.414,3.787,2.636,4.862C22.176,58.661,19.736,58.229,17.506,56.621z"/>
	</g>
	<circle fill="#D34242" cx="24.366" cy="44.245" r="3.669"/>
</g>
</svg>
