<?xml version="1.0" encoding="utf-8"?>
<!-- Generator: Adobe Illustrator 16.0.0, SVG Export Plug-In . SVG Version: 6.00 Build 0)  -->
<!DOCTYPE svg PUBLIC "-//W3C//DTD SVG 1.1//EN" "http://www.w3.org/Graphics/SVG/1.1/DTD/svg11.dtd">
<svg version="1.1" id="Layer_1" xmlns="http://www.w3.org/2000/svg" xmlns:xlink="http://www.w3.org/1999/xlink" x="0px" y="0px"
	 width="136.5px" height="108.5px" viewBox="0 0 136.5 108.5" enable-background="new 0 0 136.5 108.5" xml:space="preserve">
<g>
	<path fill="#46A8DF" d="M117.899,73.502l-0.089,0.041c-0.44-1.123-0.877-2.247-1.329-3.355
		c-4.363-11.062-8.853-22.044-13.471-32.988c-0.397-0.979-0.812-1.945-1.225-2.925c7.825-0.309,15.648-0.604,23.472-0.886
		c2.178,13.232,4.728,27.391,6.155,40.704C126.908,73.901,122.404,73.708,117.899,73.502z"/>
	<path fill="#7D53A2" d="M103.239,82.652c-2.139,0.026-4.262-0.923-5.705-2.518l0.09-0.077c-0.993-1.803-0.776-4.153,0.304-5.92
		c1.077-1.752,2.917-2.94,4.886-3.494c1.673-0.456,3.411-0.485,5.134-0.277c0.168,0.077,0.323,0.184,0.465,0.3
		c1.919,1.447,2.577,4.361,1.822,6.727c-0.887,2.745-3.407,4.861-6.226,5.204C103.753,82.638,103.495,82.652,103.239,82.652z"/>
	<path fill="#FFC33F" d="M28.432,75.975c0.117-0.131,0.245-0.247,0.375-0.365c2.686-2.537,5.36-5.089,8.047-7.626
		c7.732-2.542,14.833-7.058,20.449-13.021c0.297-0.327,0.618-0.654,1.028-0.812c0.721-0.275,1.507,0.076,2.213,0.403
		c4.533,2.164,9.312,3.91,14.291,4.492c4.828,0.557,9.859-0.05,14.181-2.301l-0.025-0.053c0.155-0.092,0.308-0.195,0.438-0.34
		c0.539-0.575,0.578-1.478,0.512-2.273c-0.47-5.277-4.09-9.755-5.021-14.967c-0.298-1.672-0.351-3.5-1.342-4.884
		c-0.658-0.927-1.651-1.527-2.655-2.035c-0.32-0.17-0.643-0.327-0.979-0.482l0.989-2.157c4.97,2.347,9.928,4.693,14.884,7.039
		l-0.013,0.065c2.381,0.416,4.789,0.583,7.207,0.542c4.618,10.943,9.107,21.926,13.471,32.988c-2.691,0.159-5.381,0.318-8.069,0.479
		c-0.142-0.116-0.297-0.223-0.465-0.3c-1.723-0.208-3.461-0.179-5.134,0.277c-1.969,0.554-3.809,1.742-4.886,3.494
		c-1.08,1.767-1.297,4.117-0.304,5.92l-0.09,0.077c-0.117-0.116-0.221-0.246-0.311-0.377c-0.27-0.172-0.63-0.184-0.912-0.038
		c-0.219,0.104-0.399,0.299-0.604,0.444c-0.785,0.524-1.816,0.133-2.678-0.259c-1.855-0.834-3.758-1.602-5.769-1.875
		c-2.006-0.272-4.143-0.01-5.865,1.078c-2.123,1.348-3.383,3.947-3.199,6.482c-0.077-0.065-0.154-0.118-0.232-0.157
		c-2.381-1.524-5.483-1.952-8.018-0.749c-1.608,0.773-2.881,2.226-3.473,3.897c-0.088-0.015-0.165-0.026-0.256-0.039
		c-2.251-0.312-4.633,0.58-6.124,2.332c-0.579,0.679-1.042,1.503-1.194,2.392c-0.079,0.419-0.079,0.837-0.024,1.255
		c-3.038,1.152-6.383,1.403-9.562,0.712l0.038-0.166c4.514-4.318,8.459-9.247,11.696-14.618c-4.745,3.518-9.555,7.063-14.983,9.316
		c-0.901,0.38-1.826,0.721-2.766,0.957c-0.916,0.249-1.853,0.421-2.805,0.433c-1.454,0.029-2.948-0.324-4.184-1.08
		c4.667-4.434,9.091-9.114,13.281-14.019c2.17-2.55,4.317-5.202,5.705-8.264c-6.583,5.77-13.579,11.003-20.91,15.7
		c-0.078,0.013-0.143,0.013-0.22,0.026c-2.624,0.187-5.328-1.392-6.438-3.834c-0.296-0.679-0.49-1.45-0.299-2.182
		C27.584,76.904,27.982,76.419,28.432,75.975z"/>
	<path fill="#46A8DF" d="M31.556,33.982C27.31,46.045,23.073,58.108,18.827,70.17c-0.271,0.798-0.552,1.583-0.834,2.378
		C13.823,72.487,7.4,72.207,3.218,72.004C7,57.132,10.64,42.235,14.15,27.297c4.66,1.459,12.653,2.796,18.33,4.058
		C32.174,32.23,31.863,33.106,31.556,33.982z"/>
	<path fill="#7D53A2" d="M89.464,93.248c-2.637-0.259-5.16-1.355-7.325-2.919c-1.569-1.136-2.986-2.571-3.878-4.281
		c-0.025-0.157-0.038-0.313-0.064-0.457c-0.184-2.535,1.076-5.135,3.199-6.482c1.723-1.088,3.859-1.351,5.865-1.078
		c2.011,0.273,3.913,1.041,5.769,1.875c0.861,0.392,1.893,0.783,2.678,0.259c0.205-0.146,0.386-0.341,0.604-0.444
		c0.282-0.146,0.643-0.134,0.912,0.038c0.09,0.131,0.193,0.261,0.311,0.377c1.443,1.595,3.566,2.544,5.705,2.518
		c-0.513,3.03-2.133,5.84-4.485,7.79c-2.403,1.988-5.545,3.037-8.633,2.87C89.903,93.301,89.685,93.286,89.464,93.248z"/>
	<path fill="#7D53A2" d="M62.196,43.971c-8.446,8.004-16.893,16.009-25.342,24.013c-2.687,2.537-5.361,5.089-8.047,7.626
		c-0.129,0.118-0.258,0.234-0.375,0.365c-0.256-0.17-0.488-0.365-0.733-0.561c-2.652-2.114-5.588-3.861-8.707-5.179l-0.166-0.065
		c4.247-12.062,8.483-24.125,12.729-36.188c5.109-0.372,10.167-1.422,15.015-3.099c3.551-1.232,7-2.79,10.266-4.675
		c0.746-0.419,1.519-0.876,2.368-0.943c0.682-0.067,1.351,0.128,2.008,0.324c3.873,1.146,7.725,2.317,11.573,3.516
		c2.42,0.768,4.854,1.536,7.157,2.605c0.336,0.156,0.658,0.312,0.979,0.482c1.004,0.508,1.997,1.108,2.655,2.035
		c0.991,1.384,1.044,3.212,1.342,4.884c0.932,5.212,4.552,9.69,5.021,14.967c0.066,0.796,0.027,1.698-0.512,2.273
		c-0.13,0.145-0.282,0.248-0.438,0.34c-0.527,0.302-1.198,0.354-1.815,0.342C80.974,56.95,74.984,52.841,72.6,47.017
		c-0.168-0.392-0.336-0.823-0.711-1.032c-0.296-0.156-0.643-0.13-0.978-0.117C67.912,46.029,64.86,45.366,62.196,43.971z"/>
	<path fill="#F99E1C" d="M88.991,56.693l0.025,0.053c-4.321,2.251-9.353,2.857-14.181,2.301c-4.979-0.582-9.758-2.328-14.291-4.492
		c-0.707-0.327-1.492-0.679-2.213-0.403c-0.411,0.157-0.731,0.484-1.028,0.812c-5.616,5.963-12.717,10.479-20.449,13.021
		c8.449-8.004,16.896-16.009,25.342-24.013c2.665,1.396,5.716,2.058,8.715,1.898c0.335-0.013,0.682-0.039,0.978,0.117
		c0.375,0.208,0.543,0.64,0.711,1.032c2.385,5.824,8.374,9.933,14.576,10.018C87.793,57.047,88.464,56.995,88.991,56.693z"/>
	<path fill="#7D53A2" d="M66.474,88.582c0.592-1.672,1.864-3.124,3.473-3.897c2.534-1.203,5.637-0.775,8.018,0.749
		c0.078,0.21,0.182,0.418,0.297,0.614c0.892,1.71,2.309,3.146,3.878,4.281c2.165,1.563,4.688,2.66,7.325,2.919
		c-0.68,2.38-2.646,4.235-4.898,5.192c-2.34,0.969-4.952,1.061-7.448,0.751c-0.091-0.012-0.182-0.026-0.271-0.038
		c-2.754-0.39-5.497-1.303-7.609-3.142c-1.737-1.527-2.965-3.76-3.082-6.072C66.205,89.483,66.309,89.026,66.474,88.582z"/>
	<path fill="#FFC33F" d="M80.933,29.554l-0.989,2.157c-2.304-1.069-4.737-1.838-7.157-2.605c-3.849-1.199-7.7-2.37-11.573-3.516
		c-0.657-0.195-1.326-0.391-2.008-0.324c-0.85,0.066-1.622,0.523-2.368,0.943c-3.266,1.885-6.714,3.443-10.266,4.675l-0.038-0.131
		c-2.65,0.383-5.431-0.438-7.479-2.187c-1.031-0.899-1.908-2.466-1.099-3.578c0.4-0.549,1.095-0.772,1.738-0.956
		c3.82-1.088,7.847-1.641,11.333-3.566c1.402-0.784,2.766-1.805,4.363-1.989c1.633-0.185,3.229,0.531,4.724,1.249
		C67.053,22.996,73.993,26.282,80.933,29.554z"/>
	<path fill="#7D53A2" d="M66.154,89.939c0.117,2.313,1.345,4.545,3.082,6.072c2.112,1.839,4.855,2.752,7.609,3.142
		c-2.276,2.3-5.583,3.521-8.786,3.196c-3.205-0.31-6.231-2.148-8.024-4.878c-0.578-0.887-1.043-1.904-1.159-2.95
		c-0.055-0.418-0.055-0.836,0.024-1.255c0.152-0.889,0.615-1.713,1.194-2.392c1.491-1.752,3.872-2.644,6.124-2.332
		C66.154,89.012,66.128,89.483,66.154,89.939z"/>
	<path fill="#F99E1C" d="M46.065,89.766c5.428-2.254,10.238-5.799,14.983-9.316c-3.237,5.371-7.182,10.3-11.696,14.618l-0.038,0.166
		c-0.064-0.009-0.142-0.023-0.207-0.036c-1.3-0.299-2.601-0.768-3.682-1.577c-0.979-0.718-1.777-1.735-2.125-2.897
		C44.24,90.486,45.165,90.146,46.065,89.766z"/>
	<path fill="#F99E1C" d="M34.387,83.493c7.331-4.697,14.326-9.931,20.91-15.7c-1.388,3.062-3.535,5.714-5.705,8.264
		c-4.19,4.904-8.614,9.585-13.281,14.019c-0.386-0.261-0.759-0.546-1.083-0.885c-1.354-1.384-1.908-3.631-1.047-5.368l-0.013-0.303
		C34.244,83.506,34.31,83.506,34.387,83.493z"/>
	<ellipse fill="#623996" cx="55.07" cy="35.915" rx="2.946" ry="2.99"/>
	<path fill="#623996" d="M42.983,42.333c-0.768,0.783-2.016,0.784-2.786,0.003c-0.77-0.78-0.772-2.047-0.005-2.829
		c0.771-0.783,2.019-0.784,2.788-0.003C43.75,40.284,43.753,41.551,42.983,42.333z"/>
	<ellipse fill="#623996" cx="51.015" cy="44.732" rx="2.603" ry="2.642"/>
	<ellipse transform="matrix(1 -0.0011 0.0011 1 -0.0414 0.0849)" fill="#623996" cx="76.97" cy="37.599" rx="5.089" ry="5.167"/>
	<ellipse fill="#623996" cx="82.66" cy="49.807" rx="3.124" ry="3.171"/>
	<ellipse fill="#623996" cx="67.61" cy="41.25" rx="1.503" ry="1.526"/>
	<ellipse transform="matrix(1 -0.0011 0.0011 1 -0.0222 0.074)" fill="#623996" cx="70.138" cy="21.049" rx="5.322" ry="5.402"/>
	<ellipse fill="#623996" cx="57.52" cy="15.937" rx="2.471" ry="2.507"/>
	<ellipse fill="#623996" cx="68.045" cy="11.773" rx="3.239" ry="3.288"/>
	<ellipse fill="#623996" cx="66.993" cy="58.102" rx="3.18" ry="3.23"/>
	<ellipse fill="#623996" cx="77.295" cy="63.846" rx="2.486" ry="2.524"/>
	<ellipse fill="#623996" cx="71.231" cy="72.777" rx="4.222" ry="4.286"/>
</g>
</svg>
