<?xml version="1.0" encoding="utf-8"?>
<!-- Generator: Adobe Illustrator 16.0.0, SVG Export Plug-In . SVG Version: 6.00 Build 0)  -->
<!DOCTYPE svg PUBLIC "-//W3C//DTD SVG 1.1//EN" "http://www.w3.org/Graphics/SVG/1.1/DTD/svg11.dtd">
<svg version="1.1" id="Layer_1" xmlns="http://www.w3.org/2000/svg" xmlns:xlink="http://www.w3.org/1999/xlink" x="0px" y="0px"
	 width="136.5px" height="108.5px" viewBox="0 0 136.5 108.5" enable-background="new 0 0 136.5 108.5" xml:space="preserve">
<g>
	<path fill="#FFC33F" d="M119.919,35.589l-0.494-0.066c-0.109,0.207-0.219,0.412-0.328,0.621c-1.829-1.41-2.375-3.975-2.134-6.261
		c0.15-1.35,0.508-2.657,0.864-3.968c1.127,1.67,2.739,3.019,4.612,3.815c0.116,0.043,0.234,0.089,0.366,0.141
		C121.29,31.432,120.275,33.45,119.919,35.589z"/>
	<path fill="#FEEB8D" d="M119.919,35.589c0.356-2.139,1.371-4.157,2.887-5.718c2.32,0.912,5.14,1.345,6.274,3.533
		c0.366,0.705,0.494,1.497,0.469,2.275c-0.132,3.615-3.802,6.452-7.417,6.389c-3.617-0.063-6.894-2.467-8.822-5.515
		c-2.41,1.419-4.753,2.948-7.015,4.591l-1.34,0.032c-0.633-0.337-1.391-0.474-2.12-0.489c-0.983-0.044-1.982,0.079-2.965,0.002
		c0.621-0.573,1.24-1.145,1.593-1.911c0.346-0.751,0.332-1.727-0.253-2.318c-0.484-0.484-1.242-0.587-1.932-0.58
		c-1.263,0.019-2.546,0.344-3.674,0.946c0.753-1.224,1.531-2.594,1.41-4c4.489-2.118,8.848-4.589,12.996-7.33
		c-1.586-2.266-2.053-5.283-1.204-7.917c0.271-0.847,0.664-1.659,1.306-2.271c0.893-0.888,2.212-1.281,3.479-1.211
		c1.658,0.103,3.246,0.997,4.19,2.378c1.301,1.904,1.258,4.42,0.787,6.675c-0.209,0.931-0.469,1.85-0.742,2.765
		c-0.356,1.311-0.714,2.618-0.864,3.968c-0.241,2.286,0.305,4.851,2.134,6.261c0.109-0.209,0.219-0.414,0.328-0.621L119.919,35.589z
		"/>
	<path fill="#F99E1C" d="M39.882,37.004l0.043,0.218c-2.785,0.501-5.472,1.548-7.804,3.151c-2.018,1.381-3.815,3.181-4.789,5.417
		c-0.985,2.229-1.049,4.946,0.207,7.037c0.999,1.711,2.757,2.853,4.543,3.711c5.396,2.591,11.792,3.066,17.516,1.283
		c4.732-1.479,9.375-5.121,9.706-10.079c0.318-4.732-3.599-8.955-8.102-10.44C47.572,36.103,43.67,36.313,39.882,37.004z
		 M27.114,62.458l-0.021,0.007c-0.526,0.127-1.033,0.353-1.486,0.678c-0.009,0.014-0.029,0.021-0.029,0.021
		c-0.041,0.012-0.078,0.046-0.127,0.072c-1.39,0.729-2.617,1.647-3.242,3.026c-0.478,1.069-0.532,2.275-0.566,3.438
		c-0.062,1.75-0.052,3.695,1.14,4.976c0.592,0.614,1.376,0.994,2.173,1.293c1.998,0.721,4.241,1.01,6.279,0.361
		c2.036-0.65,3.797-2.346,4.166-4.443c0.382-2.318-0.903-4.587-2.375-6.404c-1.151-1.42-2.555-2.799-4.354-3.099
		C28.149,62.301,27.626,62.323,27.114,62.458z M104.009,45.294l0.007,0.021c-2.819,0.465-5.403,2.148-7.369,4.262
		c-2.253,2.423-3.813,5.405-5.304,8.354c-1.444,2.832-2.835,5.692-4.309,8.509c-1.659,1.733-3.418,3.357-5.189,4.941
		c-5.438,4.844-11.191,9.451-17.642,12.843c-6.464,3.383-13.714,5.524-20.997,5.16c-10.229-0.496-19.832-5.968-26.583-13.667
		c-1.625-1.863-3.124-3.927-4.041-6.192c-0.637-2.558-0.896-5.199-0.737-7.865c0.432-6.912,3.706-13.43,8.254-18.658
		c6.329-7.263,15.391-12.322,24.997-12.916c8.55-0.498,16.874,2.428,25.263,4.134c8.243,1.684,17.527,1.961,24.38-2.857
		c0.08-0.048,0.178-0.068,0.262-0.091c0.547-0.137,1.206-0.05,1.579,0.378c0.226,0.241,0.351,0.573,0.405,0.9
		c0.019,0.098,0.022,0.189,0.029,0.277c0.121,1.406-0.657,2.776-1.41,4c1.128-0.603,2.411-0.928,3.674-0.946
		c0.689-0.007,1.447,0.096,1.932,0.58c0.585,0.592,0.599,1.567,0.253,2.318c-0.353,0.767-0.972,1.338-1.593,1.911
		c0.982,0.077,1.981-0.046,2.965-0.002c0.729,0.016,1.487,0.152,2.12,0.489c0.221,0.113,0.426,0.259,0.616,0.432
		c0.732,0.65,1.054,1.843,0.496,2.66C105.615,44.926,104.837,45.131,104.009,45.294z M47.765,70.445
		c1.27-1.567,0.721-4.026-0.653-5.494c-0.974-1.063-2.384-1.793-3.804-1.643c-0.078,0.012-0.168,0.016-0.253,0.043
		c-0.805,0.155-1.547,0.626-2.022,1.29c-0.505,0.421-0.915,0.929-1.145,1.529c-0.4,1.056-0.191,2.296,0.428,3.258
		c0.612,0.941,1.606,1.627,2.678,2C44.621,71.988,46.669,71.786,47.765,70.445z"/>
	<path fill="#F37321" d="M87.034,66.439c-3.19,6.158-6.648,12.192-11.105,17.484c-6.516,7.712-15.609,13.864-25.686,14.385
		c-8.452,0.446-16.743-3.114-23.455-8.288c-6.705-5.153-12.238-12.42-14.206-20.496c0.917,2.266,2.416,4.329,4.041,6.192
		c6.75,7.699,16.354,13.171,26.583,13.667c7.283,0.364,14.533-1.777,20.997-5.16c6.45-3.392,12.204-7.999,17.642-12.843
		C83.616,69.797,85.375,68.173,87.034,66.439z"/>
	<path fill="#7D53A2" d="M41.033,64.642c0.592-0.517,1.317-0.924,2.022-1.29c0.084-0.027,0.175-0.031,0.253-0.043
		c1.419-0.15,2.83,0.58,3.804,1.643c1.374,1.468,1.922,3.927,0.653,5.494c-1.096,1.341-3.144,1.543-4.771,0.983
		c-1.072-0.373-2.066-1.059-2.678-2c-0.619-0.962-0.828-2.202-0.428-3.258C40.119,65.57,40.528,65.063,41.033,64.642z"/>
	<path fill="#7D53A2" d="M39.925,37.222l-0.043-0.218c3.788-0.691,7.69-0.901,11.321,0.298c4.502,1.485,8.42,5.708,8.102,10.44
		c-0.33,4.958-4.973,8.6-9.706,10.079c-5.724,1.783-12.12,1.308-17.516-1.283c-1.786-0.858-3.545-2-4.543-3.711
		c-1.256-2.091-1.192-4.808-0.207-7.037c0.974-2.236,2.771-4.036,4.789-5.417C34.454,38.77,37.141,37.723,39.925,37.222z"/>
	<path fill="#7D53A2" d="M25.451,63.235c0.05-0.026,0.086-0.061,0.127-0.072c0,0,0.02-0.007,0.029-0.021
		c0.492-0.234,0.985-0.467,1.486-0.678l0.021-0.007c0.512-0.135,1.035-0.157,1.556-0.075c1.799,0.3,3.203,1.679,4.354,3.099
		c1.472,1.817,2.757,4.086,2.375,6.404c-0.368,2.098-2.129,3.793-4.166,4.443c-2.039,0.648-4.282,0.359-6.279-0.361
		c-0.796-0.299-1.581-0.679-2.173-1.293c-1.192-1.28-1.201-3.226-1.14-4.976c0.034-1.162,0.088-2.368,0.566-3.438
		C22.834,64.883,24.061,63.964,25.451,63.235z"/>
	<g>
		<circle fill="#623996" cx="19.084" cy="50.387" r="0.002"/>
		<path fill="#623996" d="M23.626,50.772c0.193-0.846,0.155-1.815-0.162-2.628c-0.373-0.962-0.985-1.699-1.852-2.259
			c-1.479-0.955-3.629-0.905-5.028,0.164c-0.835,0.639-1.429,1.483-1.707,2.502c-0.129,0.479-0.15,0.965-0.093,1.445
			c0,0.011,0.002,0.024,0.002,0.036c0.002,0.019,0.002,0.036,0.004,0.055c0.014,0.462,0.098,0.922,0.275,1.35
			c0.755,1.813,2.614,3.037,4.607,2.779C21.583,53.97,23.187,52.687,23.626,50.772z"/>
		<polygon fill="#623996" points="19.128,50.432 19.128,50.434 19.128,50.434 		"/>
		<polygon fill="#623996" points="19.133,50.44 19.133,50.442 19.133,50.442 		"/>
	</g>
	<path fill="#623996" d="M56.254,27.63c-0.794-3.706-4.867-5.729-8.393-5.064c-0.18,0.032-0.334,0.109-0.503,0.157
		c-1.342,0.209-2.634,0.929-3.483,1.964c-1.149,1.405-1.572,3.162-1.258,4.941c0.658,3.754,4.507,6.161,8.2,5.631
		c1.881-0.271,3.533-1.143,4.618-2.732C56.399,31.108,56.609,29.279,56.254,27.63z"/>
	<path fill="#623996" d="M36.285,26.429c0.034-0.2,0.018-0.397-0.05-0.594c-0.054-0.2-0.15-0.373-0.291-0.521
		c-0.121-0.173-0.275-0.305-0.469-0.398l-0.394-0.144c-0.266-0.059-0.532-0.05-0.794,0.032c-0.121,0.055-0.241,0.109-0.364,0.164
		c-0.236,0.149-0.423,0.348-0.555,0.596l-0.066,0.123c-0.107,0.187-0.161,0.384-0.161,0.594c-0.034,0.2-0.019,0.398,0.05,0.594
		c0.055,0.2,0.15,0.373,0.293,0.519c0.118,0.173,0.273,0.308,0.466,0.4c0.132,0.05,0.262,0.096,0.394,0.146
		c0.267,0.057,0.533,0.046,0.794-0.031c0.12-0.058,0.241-0.112,0.364-0.167c0.237-0.147,0.423-0.348,0.555-0.596l0.066-0.123
		C36.23,26.836,36.285,26.639,36.285,26.429z"/>
	<path fill="#623996" d="M43.069,18.953c-1.772-0.939-3.233,1.813-1.458,2.753C43.383,22.644,44.844,19.891,43.069,18.953z"/>
	<path fill="#623996" d="M37.987,16.578c-1.772-0.938-3.233,1.815-1.458,2.755C38.301,20.271,39.762,17.518,37.987,16.578z"/>
	<path fill="#623996" d="M70.353,54.37c0.014-0.196,0.005-0.39-0.027-0.583c-0.048-0.313-0.096-0.616-0.221-0.907
		c-0.123-0.285-0.243-0.556-0.435-0.799c-0.31-0.394-0.575-0.635-0.994-0.917c-0.286-0.191-0.628-0.312-0.953-0.409
		c-0.316-0.096-0.664-0.123-0.989-0.128c-0.335-0.002-0.686,0.057-1.001,0.159c-0.319,0.104-0.642,0.251-0.908,0.458
		c-0.394,0.302-0.648,0.58-0.929,0.994c-0.19,0.284-0.315,0.623-0.409,0.95c-0.007,0.03-0.007,0.06-0.014,0.092
		c-0.113,0.339-0.188,0.691-0.214,1.053c-0.045,0.605,0.148,1.225,0.443,1.748c0.303,0.534,0.781,0.95,1.302,1.265
		c0.539,0.325,1.143,0.45,1.761,0.496c0.621,0.048,1.213-0.13,1.766-0.396c0.564-0.272,0.994-0.762,1.319-1.285
		C70.188,55.619,70.308,54.995,70.353,54.37z"/>
	<path fill="#623996" d="M73.179,48.65c0.034-0.2,0.018-0.398-0.051-0.594c-0.054-0.121-0.111-0.241-0.166-0.364
		c-0.147-0.236-0.346-0.424-0.596-0.556l-0.392-0.146c-0.269-0.057-0.532-0.045-0.794,0.034c-0.063,0.021-0.127,0.039-0.19,0.057
		c-0.201,0.055-0.374,0.153-0.52,0.294c-0.173,0.118-0.307,0.275-0.4,0.467c-0.106,0.187-0.161,0.387-0.161,0.596
		c-0.034,0.2-0.019,0.396,0.05,0.592c0.055,0.123,0.109,0.243,0.166,0.363c0.148,0.239,0.346,0.424,0.594,0.556
		c0.132,0.05,0.262,0.098,0.394,0.146c0.269,0.06,0.532,0.048,0.794-0.032l0.189-0.059c0.2-0.055,0.375-0.15,0.521-0.291
		c0.173-0.119,0.305-0.275,0.398-0.469C73.124,49.058,73.176,48.861,73.179,48.65z"/>
	<path fill="#623996" d="M66.883,46.639c0.058-0.269,0.048-0.534-0.034-0.796c-0.054-0.121-0.108-0.241-0.163-0.362
		c-0.148-0.238-0.349-0.423-0.597-0.555l-0.123-0.068c-0.187-0.106-0.384-0.159-0.594-0.161c-0.2-0.034-0.397-0.017-0.594,0.052
		c-0.2,0.053-0.373,0.15-0.519,0.291c-0.173,0.119-0.307,0.273-0.4,0.469l-0.146,0.392c-0.057,0.269-0.046,0.532,0.034,0.796
		c0.055,0.119,0.109,0.241,0.164,0.362c0.15,0.238,0.348,0.423,0.596,0.558l0.123,0.063c0.187,0.109,0.385,0.161,0.594,0.164
		c0.2,0.031,0.398,0.018,0.594-0.051c0.2-0.055,0.375-0.152,0.521-0.293c0.173-0.118,0.305-0.275,0.397-0.469
		C66.785,46.9,66.835,46.769,66.883,46.639z"/>
	<path fill="#623996" d="M71.618,41.668c-1.775-0.938-3.235,1.815-1.459,2.755C71.932,45.362,73.393,42.609,71.618,41.668z"/>
	<path fill="#623996" d="M56.795,71.518c0.034-0.2,0.018-0.398-0.05-0.594c-0.055-0.121-0.109-0.244-0.166-0.364
		c-0.148-0.236-0.346-0.423-0.594-0.556c-0.132-0.048-0.262-0.098-0.394-0.146c-0.266-0.057-0.532-0.045-0.794,0.034l-0.189,0.058
		c-0.2,0.054-0.375,0.152-0.521,0.293c-0.173,0.118-0.305,0.273-0.398,0.467c-0.109,0.187-0.162,0.384-0.164,0.594
		c-0.034,0.2-0.018,0.397,0.05,0.594c0.057,0.123,0.111,0.243,0.166,0.363c0.148,0.239,0.348,0.424,0.596,0.556l0.391,0.146
		c0.269,0.057,0.532,0.048,0.796-0.032c0.062-0.021,0.125-0.04,0.189-0.059c0.2-0.055,0.373-0.152,0.519-0.294
		c0.173-0.118,0.307-0.272,0.4-0.466C56.741,71.925,56.795,71.727,56.795,71.518z"/>
	<path fill="#623996" d="M62.604,71.79c0.057-0.269,0.048-0.532-0.034-0.794c-0.055-0.123-0.109-0.243-0.164-0.364
		c-0.147-0.238-0.348-0.423-0.596-0.555l-0.123-0.066c-0.187-0.106-0.384-0.161-0.594-0.161c-0.2-0.036-0.397-0.019-0.594,0.05
		c-0.2,0.053-0.373,0.15-0.519,0.291c-0.173,0.119-0.308,0.275-0.4,0.469c-0.048,0.13-0.096,0.262-0.144,0.392
		c-0.059,0.269-0.048,0.532,0.032,0.796c0.055,0.121,0.109,0.241,0.164,0.362c0.149,0.239,0.348,0.423,0.596,0.558l0.123,0.063
		c0.187,0.109,0.384,0.161,0.594,0.164c0.2,0.034,0.397,0.018,0.594-0.051c0.2-0.054,0.373-0.152,0.521-0.293
		c0.173-0.118,0.306-0.275,0.398-0.467L62.604,71.79z"/>
	<path fill="#623996" d="M60.902,78.129c0.036-0.2,0.018-0.398-0.051-0.594c-0.052-0.2-0.149-0.373-0.291-0.519
		c-0.118-0.173-0.275-0.308-0.469-0.4c-0.13-0.048-0.262-0.096-0.392-0.146c-0.268-0.057-0.534-0.045-0.796,0.034
		c-0.12,0.055-0.241,0.109-0.361,0.164c-0.239,0.15-0.424,0.349-0.558,0.597l-0.196,0.37c-0.106,0.187-0.161,0.385-0.161,0.594
		c-0.036,0.2-0.018,0.398,0.05,0.594c0.053,0.2,0.15,0.373,0.292,0.52c0.118,0.173,0.274,0.307,0.468,0.4
		c0.13,0.048,0.262,0.095,0.392,0.143c0.269,0.06,0.535,0.048,0.797-0.031c0.12-0.055,0.241-0.109,0.361-0.164
		c0.239-0.15,0.423-0.348,0.558-0.596l0.195-0.371C60.848,78.536,60.902,78.338,60.902,78.129z"/>
	<path fill="#623996" d="M53.947,79.544c-1.772-0.938-3.233,1.815-1.458,2.755C54.261,83.236,55.722,80.483,53.947,79.544z"/>
</g>
</svg>
