<svg id="diarrhea" enable-background="new 0 0 300 300" height="512" viewBox="0 0 300 300" width="512" xmlns="http://www.w3.org/2000/svg"><g><path d="m240.828 233.656c-1.023 0-2.047-.391-2.828-1.172l-11.312-11.312c-1.562-1.562-1.562-4.094 0-5.656s4.094-1.562 5.656 0l11.312 11.312c1.562 1.562 1.562 4.094 0 5.656-.781.782-1.804 1.172-2.828 1.172z" fill="#4c241d"/><path d="m229.516 233.656c-1.023 0-2.047-.391-2.828-1.172-1.562-1.562-1.562-4.094 0-5.656l11.312-11.312c1.562-1.562 4.094-1.562 5.656 0s1.562 4.094 0 5.656l-11.312 11.312c-.782.782-1.805 1.172-2.828 1.172z" fill="#4c241d"/><circle cx="149.172" cy="138" fill="#efefd2" r="86"/><g><path d="m155.371 159.151c6.423-11.24 9.801-23.96 9.801-36.906v-8.245l-16-32-8-8s-.302.452-.823 1.23c-9.821 14.666-14.387 32.25-12.912 49.951l.053.641c1.136 13.633-2.56 27.226-10.439 38.409l-.622.883c-3.76 5.639-4.516 12.104-2.992 17.916l37.464-16.056z" fill="#f96e43"/><path d="m113.438 187.029c-.602 0-1.203-.137-1.758-.406-1.047-.512-1.816-1.453-2.113-2.58-1.922-7.334-.664-14.846 3.535-21.148l.676-.965c7.328-10.398 10.781-23.102 9.73-35.775l-.055-.633c-1.543-18.494 3.277-37.143 13.57-52.516l.816-1.219c.664-.998 1.738-1.648 2.934-1.768 1.176-.119 2.379.303 3.227 1.152l8 8c.305.303.559.654.75 1.039l16 32c.277.555.422 1.168.422 1.789v8.246c0 13.617-3.57 27.064-10.328 38.891l-4.469 7.82c-.43.756-1.098 1.35-1.898 1.691l-37.465 16.057c-.504.218-1.039.325-1.574.325zm28.406-106.701c-8.027 13.287-11.719 28.967-10.422 44.521l.055.633c1.211 14.549-2.754 29.125-11.156 41.053l-.621.879c-1.973 2.965-2.996 6.367-3.004 9.867l31.398-13.457 3.805-6.656c6.066-10.619 9.273-22.695 9.273-34.922v-7.303l-15.289-30.574zm13.527 78.824h.039z" fill="#4c241d"/></g><g><path d="m179.374 180.786-30.202-10.786 1.73-3.027-37.464 16.056c2.122 8.095 8.7 14.913 18.027 16.386l37.707 6.585-23.322 49.976c-2.18 4.67 1.23 8.024 6.384 8.024h32.939l-22-12 26.48-39.426c7.838-11.401 2.75-27.134-10.279-31.788z" fill="#bd53b5"/><path d="m185.172 268h-32.938c-4.293 0-7.836-1.697-9.723-4.656-1.68-2.639-1.781-5.855-.285-9.059l21.113-45.244-32.562-5.688c-10.207-1.609-18.559-9.195-21.211-19.311-.5-1.916.477-3.91 2.297-4.689l37.465-16.057c1.57-.68 3.414-.273 4.559 1.014.855.959 1.184 2.248.934 3.461l25.898 9.248c7.391 2.639 13.012 8.434 15.426 15.9 2.414 7.465 1.25 15.455-3.195 21.92l-24.012 35.748 18.148 9.9c1.605.875 2.414 2.729 1.961 4.5-.449 1.773-2.047 3.013-3.875 3.013zm-66.711-82.771c2.535 5.457 7.52 9.27 13.629 10.234l37.77 6.598c1.227.213 2.285.986 2.859 2.09s.605 2.412.078 3.541l-23.32 49.977c-.109.232-.445 1.02-.215 1.379.242.383 1.238.953 2.973.953h17.25l-8.227-4.488c-.988-.539-1.703-1.469-1.973-2.561-.266-1.094-.062-2.248.566-3.182l26.48-39.426c3.051-4.439 3.844-9.879 2.199-14.963-1.641-5.084-5.469-9.029-10.5-10.826l-30.203-10.787c-.418-.15-.805-.365-1.145-.635z" fill="#4c241d"/></g><circle cx="87.172" cy="88" fill="#4c241d" r="4"/><circle cx="231.172" cy="128" fill="#4c241d" r="4"/><path d="m69.172 60c-7.719 0-14-6.281-14-14s6.281-14 14-14 14 6.281 14 14-6.281 14-14 14zm0-20c-3.309 0-6 2.691-6 6s2.691 6 6 6 6-2.691 6-6-2.692-6-6-6z" fill="#4c241d"/><g><path d="m166.81 85.185.425-30.26c-.168-9.951-9.389-18.252-19.431-18.082-10.042.17-18.047 8.375-17.878 18.326l.283 16.748c.132 7.787 6.637 13.977 14.495 13.791z" fill="#f4aeab"/><path d="m144.352 89.713c-4.73 0-9.195-1.791-12.609-5.07-3.488-3.348-5.453-7.842-5.535-12.656l-.281-16.752c-.203-12.139 9.578-22.184 21.812-22.391 5.66-.105 11.734 2.199 16.191 6.303 4.543 4.184 7.207 9.91 7.305 15.711l-.426 30.385c-.031 2.15-1.754 3.891-3.906 3.941l-22.105.523c-.15.004-.298.006-.446.006zm22.457-4.527h.039zm-18.704-44.344c-.078 0-.156 0-.234.002-7.82.131-14.078 6.527-13.945 14.256l.281 16.752c.047 2.666 1.137 5.16 3.074 7.021 1.973 1.893 4.406 2.879 7.328 2.838l18.254-.434.371-26.408c-.062-3.498-1.781-7.129-4.723-9.838-2.902-2.67-6.683-4.189-10.406-4.189z" fill="#4c241d"/></g><g><path d="m167.172 98v46l52 4.812v11.188h-58.032c-7.714 0-13.968-6.254-13.968-13.968v-48.032c0-5.523 4.477-10 10-10 5.523 0 10 4.477 10 10z" fill="#f4aeab"/><path d="m219.172 164h-58.031c-9.906 0-17.969-8.061-17.969-17.969v-48.031c0-7.719 6.281-14 14-14s14 6.281 14 14v42.354l48.367 4.477c2.059.189 3.633 1.916 3.633 3.982v11.187c0 2.209-1.789 4-4 4zm-62-72c-3.309 0-6 2.691-6 6v48.031c0 5.496 4.473 9.969 9.969 9.969h54.031v-3.541l-48.367-4.477c-2.059-.189-3.633-1.916-3.633-3.982v-46c0-3.309-2.692-6-6-6z" fill="#4c241d"/></g><g><path d="m59.172 196v28c0 6.627 5.373 12 12 12v28h40v-8c0-11.046 8.954-20 20-20 22.091 0 40-17.909 40-40z" fill="#fff"/><path d="m111.172 268h-40c-2.211 0-4-1.791-4-4v-24.506c-6.895-1.781-12-8.053-12-15.494v-28c0-2.209 1.789-4 4-4h112c2.211 0 4 1.791 4 4 0 24.262-19.738 44-44 44-8.824 0-16 7.178-16 16v8c0 2.209-1.789 4-4 4zm-36-8h32v-4c0-13.234 10.766-24 24-24 18.5 0 33.781-14.025 35.777-32h-103.777v24c0 4.412 3.59 8 8 8 2.211 0 4 1.791 4 4z" fill="#4c241d"/></g><g><path d="m59.172 136h32v60h-32z" fill="#fff"/><path d="m91.172 200h-32c-2.211 0-4-1.791-4-4v-60c0-2.209 1.789-4 4-4h32c2.211 0 4 1.791 4 4v60c0 2.209-1.789 4-4 4zm-28-8h24v-52h-24z" fill="#4c241d"/></g><g fill="#4c241d"><path d="m75.172 140c-2.211 0-4-1.791-4-4v-12c0-2.209 1.789-4 4-4s4 1.791 4 4v12c0 2.209-1.789 4-4 4z"/><path d="m79.172 124h-8c-2.211 0-4-1.791-4-4s1.789-4 4-4h8c2.211 0 4 1.791 4 4s-1.789 4-4 4z"/><path d="m215.172 76h-28c-2.211 0-4-1.791-4-4s1.789-4 4-4h28c2.211 0 4 1.791 4 4s-1.789 4-4 4z"/><path d="m187.176 64c-1.469 0-2.879-.809-3.582-2.211-.988-1.977-.188-4.379 1.789-5.367l24-12c1.973-.986 4.375-.188 5.367 1.789.988 1.977.188 4.379-1.789 5.367l-24 12c-.574.287-1.184.422-1.785.422z"/><path d="m211.168 100c-.602 0-1.211-.135-1.785-.422l-24-12c-1.977-.988-2.777-3.391-1.789-5.367.992-1.975 3.391-2.773 5.367-1.789l24 12c1.977.988 2.777 3.391 1.789 5.367-.703 1.402-2.113 2.211-3.582 2.211z"/></g></g></svg>