<svg id="Capa_1" enable-background="new 0 0 512.375 512.375" height="512" viewBox="0 0 512.375 512.375" width="512" xmlns="http://www.w3.org/2000/svg"><g><g><path d="m401.22 113.995v-18.677c0-19.925-8.899-38.809-24.267-51.491l-11.565-9.544-37.456-13.343-53.791-4.448-92.469 10.378-48.431 63.751-6.526 135.009h274.505v-25.703-85.902c0-.009 0-.02 0-.03z" fill="#9b8e99"/><path d="m373.737 409.845-54.31-29.954-8.675 8.513v11.202h-84.649v-20.872l-58.525 21.076-36.987 34.566 2.431 70.499h250.314c5.086 0 9.21-4.123 9.21-9.209v-53.96c.001-13.261-7.199-25.461-18.809-31.861z" fill="#f07281"/><path d="m139.929 219.597v-70.195c0-26.693 8.468-52.699 24.186-74.274l11.909-16.347c7.392-10.147 17.107-18.473 28.507-23.731 9.407-4.339 19.88-6.76 30.92-6.76h85.97c20.337 0 39.334 5.697 55.499 15.585.132-.186-.099.139.033-.047l-16.32-13.469c-18.138-14.315-41.039-22.859-65.938-22.859h-85.97c-22.082 0-41.891 9.686-55.446 25.026l-25.112 34.472c-9.724 13.349-14.963 29.438-14.963 45.953v85.857 26.823h26.726v-6.034z" fill="#8b8089"/><path d="m380.552 190.646h-13.768-49.882v53.074l49.882 2.263h13.768c15.281 0 27.668-12.388 27.668-27.668 0-15.282-12.387-27.669-27.668-27.669z" fill="#f6a96c"/><path d="m200.513 388.558-5.911 3.26-1.966-12.307-54.999 30.333c-11.61 6.4-18.81 18.6-18.81 31.86v53.412c0 5.389 4.369 9.758 9.759 9.758h16.573v-42.967c0-13.26 7.2-25.46 18.81-31.86l39.677-21.883z" fill="#eb5569"/><path d="m289.427 363.345-8.896-5.66-84.317 35.978-2.598 1.25c6.56 28.213 31.888 49.302 62.071 49.302 35.15 0 63.74-28.59 63.74-63.74v-.58z" fill="#eb5569"/><path d="m146.591 190.646h-13.768c-15.281 0-27.668 12.387-27.668 27.668 0 15.281 12.388 27.668 27.668 27.668h13.768 26.448v-55.337h-26.448z" fill="#f6a96c"/><path d="m231.156 304.894v91.297l25.475 18.003c18.198-.501 32.799-15.399 32.799-33.719v-31.537-44.044z" fill="#ffbd86"/><path d="m229.713 358.993-7.766 4.352-30 16.546v.584c0 6.664 1.032 13.089 2.937 19.131l.032-.018c1.187 3.763 2.728 7.449 4.558 10.878l30.239-16.759z" fill="#e53950"/><path d="m266.225 412.519c1.597-.523 3.145-1.157 4.626-1.903-11.021-5.551-18.586-16.958-18.586-30.141v-32.053-43.528h-30.32v43.528 32.053c0 18.636 15.107 33.743 33.743 33.743 1.543 0 3.054-.128 4.541-.331.012.001.024.004.037.006 2.05-.278 4.04-.745 5.956-1.373l.02.005c-.006-.003-.011-.004-.017-.006z" fill="#f6a96c"/><path d="m366.372 129.104v113.971c0 60.691-49.2 109.891-109.891 109.891-60.691 0-109.891-49.2-109.891-109.891v-109.724c0-2.225 1.861-4.005 4.083-3.89 36.469 1.883 70.202-8.267 101.453-29.321 1.911-1.287 4.493.011 4.598 2.312l.429 9.413c.1 2.202 2.151 3.814 4.306 3.353 12.163-2.6 23.197-7.714 33.218-15.081 1.831-1.346 4.436-.149 4.661 2.113l1.233 12.4c.189 1.896 1.829 3.333 3.732 3.23 19.708-1.072 39.055-5.409 58.091-12.565 1.925-.724 3.978.714 3.978 2.771z" fill="#ffbd86"/><g><path d="m185.612 236.109v-108.636c-11.359 1.922-23.001 2.604-34.938 1.988-2.222-.115-4.083 1.665-4.083 3.89v109.724c0 60.691 49.2 109.891 109.891 109.891 13.577 0 26.577-2.462 38.582-6.964-60.489-.237-109.452-49.349-109.452-109.893z" fill="#f6a96c"/></g><g fill="#fee45a"><path d="m460.178 9.077-41.34 31.702-7.219-13.695c-2.324-4.408-8.481-4.814-11.363-.748l-40.16 56.658c-.525.741.213 1.719 1.07 1.416l41.882-14.817 8.025 14.498c2.575 4.652 9.289 4.579 11.762-.128l38.734-73.715c.463-.883-.599-1.778-1.391-1.171z"/><path d="m52.197 9.077 41.34 31.702 7.219-13.695c2.324-4.408 8.481-4.814 11.363-.748l40.16 56.658c.525.741-.213 1.719-1.07 1.416l-41.882-14.817-8.025 14.498c-2.575 4.652-9.289 4.579-11.762-.128l-38.734-73.714c-.464-.884.599-1.779 1.391-1.172z"/></g></g><g><path d="m408.72 113.995c0-4.143-3.357-7.484-7.5-7.484s-7.5 3.372-7.5 7.515v71.688c-4.07-1.65-8.513-2.567-13.169-2.567h-6.679v-21.787c0-4.143-3.357-7.5-7.5-7.5s-7.5 3.357-7.5 7.5v81.714c0 56.459-45.933 102.392-102.392 102.392-56.458 0-102.391-45.933-102.391-102.392v-52.429-53.54c33.465.97 65.538-7.884 95.502-26.403l.257 5.635c.098 2.139 1.105 4.135 2.768 5.483 1.664 1.349 3.824 1.922 5.937 1.576 12.112-1.985 23.543-6.291 34.075-12.824l.815 8.201c.391 3.937 3.755 6.869 7.728 6.753 19.036-.671 38.418-4.361 57.7-10.977v14.849c0 4.143 3.357 7.5 7.5 7.5s7.5-3.357 7.5-7.5v-21.313c0-3.432-1.685-6.646-4.506-8.601-2.816-1.95-6.408-2.395-9.611-1.191-17.412 6.545-34.901 10.521-52.096 11.847l-.858-8.632c-.37-3.732-2.731-7.001-6.161-8.529-3.414-1.523-7.398-1.095-10.406 1.115-7.979 5.867-16.629 10.11-25.806 12.669l-.212-4.654c-.172-3.77-2.373-7.164-5.743-8.859-3.37-1.696-7.409-1.439-10.537.67-30.237 20.369-62.824 29.814-96.875 28.051-3.089-.149-6.168.974-8.421 3.112-2.256 2.143-3.55 5.155-3.55 8.268v49.795h-6.268c-4.257 0-8.34.761-12.12 2.153v-72.348c0-4.143-3.358-7.5-7.5-7.5s-7.5 3.357-7.5 7.5v82.996c-5.026 6.083-8.049 13.878-8.049 22.367 0 19.392 15.776 35.168 35.168 35.168h6.735c4.007 45.391 33.955 83.442 74.887 99.195v6.243l-80.431 44.356c-13.996 7.718-22.691 22.441-22.691 38.425v63.174c0 4.143 3.358 7.5 7.5 7.5s7.5-3.357 7.5-7.5v-63.174c0-10.52 5.722-20.21 14.935-25.29l44.143-24.344c1.642 9.984 5.392 19.513 11.101 28.02 1.447 2.156 3.818 3.321 6.234 3.321 1.437 0 2.89-.412 4.173-1.273 3.439-2.309 4.355-6.969 2.047-10.407-5.519-8.222-8.724-17.653-9.38-27.478l14.868-8.2v4.425c0 22.741 18.501 41.242 41.243 41.242s41.243-18.501 41.243-41.242v-4.425l14.859 8.194c-1.948 29.26-26.358 52.474-56.102 52.474-9.011 0-17.643-2.093-25.654-6.221-3.682-1.898-8.205-.45-10.102 3.231-1.897 3.683-.45 8.205 3.232 10.103 10.157 5.233 21.099 7.887 32.524 7.887 35.336 0 64.731-25.864 70.284-59.652l44.146 24.346c9.211 5.08 14.934 14.771 14.934 25.29v63.174c0 4.143 3.357 7.5 7.5 7.5s7.5-3.357 7.5-7.5v-63.174c0-15.983-8.694-30.707-22.69-38.425l-80.428-44.357v-5.638c41.746-15.37 72.417-53.822 76.476-99.8h7.146c19.393 0 35.169-15.776 35.169-35.168 0-7.881-2.605-15.164-7-21.034v-83.285zm-296.066 104.319c0-11.121 9.047-20.169 20.168-20.169h6.268v40.337h-6.268c-11.121 0-20.168-9.046-20.168-20.168zm143.033 188.403c-14.47 0-26.243-11.772-26.243-26.242v-17.151c0-.017 0-.034 0-.051v-5.954c8.683 2.055 17.735 3.148 27.037 3.148 8.737 0 17.251-.967 25.449-2.787v5.596.043 17.156c0 14.469-11.772 26.242-26.243 26.242zm124.865-168.235h-6.268v-40.337h6.268c11.121 0 20.169 9.048 20.169 20.169s-9.048 20.168-20.169 20.168z"/><path d="m148.312 38.146c1.427 1.261 3.199 1.88 4.963 1.88 2.075 0 4.141-.856 5.623-2.534 12.632-14.294 30.793-22.492 49.827-22.492h85.97c22.485 0 43.679 7.347 61.291 21.245 3.253 2.566 7.967 2.01 10.534-1.241 2.565-3.252 2.01-7.968-1.241-10.534-20.286-16.008-44.693-24.47-70.584-24.47h-85.97c-23.332 0-45.59 10.045-61.066 27.561-2.743 3.103-2.451 7.842.653 10.585z"/><path d="m250.07 254.323.192-.324c1.506-2.55 3.969-2.818 4.949-2.778.986.014 3.435.325 4.87 2.915 1.369 2.472 3.929 3.867 6.567 3.867 1.229 0 2.476-.303 3.627-.94 3.623-2.007 4.934-6.57 2.927-10.194-3.634-6.562-10.281-10.542-17.781-10.646-7.505-.083-14.256 3.688-18.069 10.141l-.188.318c-2.11 3.564-.932 8.165 2.633 10.275 3.563 2.108 8.163.931 10.273-2.634z"/><path d="m225.421 312.394h65.01c4.143 0 7.5-3.357 7.5-7.5s-3.357-7.5-7.5-7.5h-65.01c-4.142 0-7.5 3.357-7.5 7.5s3.358 7.5 7.5 7.5z"/><path d="m185.925 227.279c1.472 1.981 3.734 3.027 6.026 3.027 1.555 0 3.124-.481 4.467-1.479l8.242-6.124 8.242 6.124c1.344.998 2.912 1.479 4.467 1.479 2.292 0 4.554-1.046 6.026-3.027 2.471-3.324 1.778-8.022-1.547-10.493l-4.613-3.427 4.613-3.427c3.325-2.471 4.018-7.169 1.547-10.493-2.471-3.325-7.168-4.017-10.493-1.548l-8.242 6.124-8.242-6.124c-3.325-2.469-8.023-1.778-10.493 1.548-2.471 3.324-1.778 8.022 1.547 10.493l4.613 3.427-4.613 3.427c-3.325 2.471-4.018 7.169-1.547 10.493z"/><path d="m191.937 181.419c.531 0 1.07-.057 1.61-.175l27.044-5.915c4.046-.886 6.609-4.883 5.724-8.93-.885-4.046-4.882-6.607-8.929-5.725l-27.044 5.915c-4.046.886-6.609 4.883-5.724 8.93.767 3.507 3.871 5.9 7.319 5.9z"/><path d="m326.45 199.438c-2.472-3.323-7.167-4.018-10.494-1.546l-8.241 6.123-8.241-6.123c-3.327-2.472-8.022-1.777-10.494 1.546-2.47 3.325-1.777 8.023 1.547 10.494l4.613 3.427-4.613 3.427c-3.324 2.471-4.017 7.169-1.547 10.494 1.473 1.98 3.734 3.026 6.026 3.026 1.555 0 3.123-.481 4.468-1.48l8.241-6.123 8.241 6.123c1.345.999 2.913 1.48 4.468 1.48 2.292 0 4.554-1.046 6.026-3.026 2.47-3.325 1.777-8.023-1.547-10.494l-4.613-3.427 4.613-3.427c3.324-2.471 4.017-7.169 1.547-10.494z"/><path d="m322.033 166.59-27.044-5.915c-4.05-.888-8.044 1.678-8.93 5.725-.885 4.047 1.678 8.044 5.725 8.93l27.044 5.915c.54.118 1.079.175 1.609.175 3.448 0 6.553-2.393 7.32-5.899.885-4.048-1.677-8.045-5.724-8.931z"/><path d="m170.384 471.731c-4.142 0-7.5 3.357-7.5 7.5v25.644c0 4.143 3.358 7.5 7.5 7.5s7.5-3.357 7.5-7.5v-25.644c0-4.142-3.358-7.5-7.5-7.5z"/><path d="m340.991 471.731c-4.143 0-7.5 3.357-7.5 7.5v25.644c0 4.143 3.357 7.5 7.5 7.5s7.5-3.357 7.5-7.5v-25.644c0-4.142-3.357-7.5-7.5-7.5z"/><path d="m429.473 87.452 38.732-73.712c1.858-3.533 1.024-7.798-2.027-10.371-3.053-2.571-7.397-2.673-10.565-.243l-34.286 26.293-3.074-5.832c-2.317-4.394-6.659-7.211-11.615-7.537-4.945-.338-9.629 1.897-12.502 5.95l-40.159 56.658c-2.134 3.01-2.073 7.012.15 9.956 2.224 2.943 6.055 4.098 9.541 2.867l35.893-12.699 4.95 8.941c2.503 4.522 7.246 7.314 12.406 7.314.052 0 .104 0 .155-.001 5.221-.056 9.972-2.962 12.401-7.584zm-12.574-8.319-7.291-13.171c-1.353-2.443-3.898-3.869-6.563-3.869-.833 0-1.678.14-2.501.431l-22.351 7.907 27.41-38.671 6.599 12.518c1.031 1.954 2.871 3.355 5.029 3.828 2.159.472 4.416-.029 6.17-1.375l17.627-13.518z"/><path d="m107.864 87.724 4.95-8.941 35.889 12.696c3.48 1.237 7.314.086 9.54-2.858 2.228-2.943 2.291-6.946.155-9.963l-40.159-56.658c-2.872-4.053-7.547-6.28-12.502-5.95-4.957.326-9.298 3.145-11.614 7.538l-3.074 5.831-34.288-26.293c-3.169-2.43-7.512-2.329-10.565.243-3.052 2.573-3.886 6.838-2.029 10.367l19.537 37.182c1.927 3.668 6.461 5.08 10.128 3.151 3.667-1.927 5.077-6.462 3.15-10.128l-5.637-10.729 17.628 13.518c1.753 1.346 4.009 1.845 6.169 1.375 2.159-.473 3.999-1.874 5.029-3.829l6.599-12.517 27.41 38.671-22.352-7.907c-3.457-1.223-7.289.231-9.063 3.438l-7.292 13.172-3.624-6.896c-1.927-3.667-6.46-5.075-10.128-3.149-3.667 1.927-5.077 6.461-3.15 10.128l4.329 8.236c2.428 4.622 7.179 7.528 12.399 7.585.052.001.104.001.157.001 5.161 0 9.905-2.792 12.408-7.314z"/><path d="m73.273 134.536c-1.151-2.043-3.192-3.431-5.517-3.749-2.323-.319-4.663.47-6.321 2.127l-4.072 4.072-7.67-16.588c-1.739-3.761-6.196-5.398-9.956-3.66-3.759 1.738-5.398 6.196-3.66 9.955l12.182 26.344c1.029 2.226 3.08 3.807 5.494 4.236 2.412.431 4.884-.348 6.617-2.08l4.685-4.685 9.551 16.953c1.377 2.445 3.921 3.82 6.541 3.819 1.247 0 2.511-.312 3.674-.967 3.609-2.033 4.886-6.606 2.853-10.216z"/><path d="m472.638 116.738c-3.761-1.736-8.218-.101-9.956 3.659l-7.671 16.589-4.072-4.072c-1.658-1.658-3.995-2.45-6.322-2.127-2.323.318-4.364 1.706-5.516 3.75l-14.4 25.563c-2.033 3.608-.756 8.182 2.854 10.215 1.163.656 2.427.967 3.674.967 2.62 0 5.164-1.375 6.541-3.82l9.551-16.952 4.684 4.685c1.733 1.732 4.199 2.513 6.618 2.08 2.413-.43 4.464-2.011 5.493-4.235l12.183-26.344c1.737-3.761.098-8.218-3.661-9.958z"/></g></g></svg>