<svg id="Layer_1" enable-background="new 0 0 256 256" height="512" viewBox="0 0 256 256" width="512" xmlns="http://www.w3.org/2000/svg"><g><path d="m161.383 110.485-8.501-29.681h-96.756l-8.501 29.681s-12.623 38.703 1.913 60.479c.926 1.388 2.411 2.171 3.96 2.171h37.127 27.758 37.127c1.548 0 3.033-.783 3.96-2.171 14.536-21.776 1.913-60.479 1.913-60.479z" fill="#87828e"/><path d="m159.475 170.961c-.93 1.39-2.42 2.17-3.96 2.17h-15c1.54 0 3.03-.78 3.96-2.17 14.53-21.77 1.91-60.48 1.91-60.48l-8.5-29.68h15l8.5 29.68s12.62 38.71-1.91 60.48z" fill="#796e84"/><path d="m68.495 173.131h-15c-1.54 0-3.03-.78-3.96-2.17-14.53-21.77-1.91-60.48-1.91-60.48l8.5-29.68h15l-8.5 29.68s-12.62 38.71 1.91 60.48c.93 1.391 2.42 2.17 3.96 2.17z" fill="#a4a4a5"/><path d="m104.505 148.56c-25.605 0-46.554-20.949-46.554-46.554v-41.62c0-3.462 2.833-6.295 6.295-6.295h80.516c3.462 0 6.295 2.833 6.295 6.295v41.62c.001 25.605-20.948 46.554-46.552 46.554z" fill="#ffbb98"/><path d="m151.055 60.381v41.62c0 25.61-20.95 46.56-46.55 46.56-2.55 0-5.06-.21-7.5-.61 22.07-3.61 39.05-22.89 39.05-45.95v-41.62c0-3.46-2.83-6.29-6.29-6.29h15c3.46 0 6.29 2.83 6.29 6.29z" fill="#ffaa80"/><path d="m112.005 147.951c-2.44.4-4.95.61-7.5.61-25.6 0-46.55-20.95-46.55-46.56v-41.62c0-3.46 2.83-6.29 6.29-6.29h15c-3.46 0-6.29 2.83-6.29 6.29v41.62c0 23.061 16.98 42.34 39.05 45.95z" fill="#ffcaa6"/><path d="m114.838 5.668h-8.587-3.25-8.829c-26.512 0-48.004 21.492-48.004 48.004v22.125c0 2.748 2.223 4.981 4.971 5.004 40.648.333 48.405-19.037 52.417-35.521 3.955 16.512 11.072 35.302 54.251 35.451 2.773.01 5.036-2.23 5.036-5.003v-22.056c-.001-26.512-21.493-48.004-48.005-48.004z" fill="#87828e"/><path d="m162.845 53.671v22.06c0 2.77-2.27 5.01-5.04 5-4.56-.01-8.72-.24-12.51-.65 1.52-.86 2.55-2.49 2.55-4.35v-22.06c0-26.51-21.49-48-48.01-48h15c26.52 0 48.01 21.49 48.01 48z" fill="#796e84"/><path d="m61.165 53.671v22.13c0 1.88 1.05 3.52 2.59 4.38-3.81.44-8 .66-12.62.62-2.74-.02-4.97-2.26-4.97-5v-22.13c0-26.51 21.49-48 48.01-48h15c-26.52 0-48.01 21.49-48.01 48z" fill="#a4a4a5"/><g><path d="m109.041 136.038h-9.072c-4.576 0-8.286-3.71-8.286-8.286v-10.928c0-7.081 5.741-12.822 12.822-12.822 7.081 0 12.822 5.741 12.822 12.822v10.928c0 4.576-3.71 8.286-8.286 8.286z" fill="#ff4a73"/><path d="m205.78 88.189c-12.902-1.312-23.982 7.612-26.121 19.63-2.86-2.56-6.635-4.118-10.775-4.118-8.929 0-16.167 7.238-16.167 16.167h-36.17c-4.464 0-8.083 3.619-8.083 8.083 0 4.464 3.619 8.083 8.083 8.083h86.721c13.756 0 24.807-11.578 23.939-25.521-.72-11.576-9.887-21.15-21.427-22.324z" fill="#44c7b6"/><path d="m110.125 135.971c-.35.05-.71.07-1.08.07h-9.08c-4.57 0-8.28-3.71-8.28-8.29v-10.93c0-7.08 5.74-12.82 12.82-12.82 2.02 0 3.93.47 5.62 1.31-4.26 2.07-7.19 6.45-7.19 11.51v10.93c0 4.21 3.13 7.681 7.19 8.22z" fill="#f973a3"/><g fill="#4bdbc3"><path d="m123.465 127.952c0 2.23.9 4.25 2.37 5.72 1.46 1.46 3.48 2.36 5.71 2.36h-15c-2.23 0-4.25-.9-5.71-2.36-1.47-1.47-2.37-3.49-2.37-5.72 0-4.46 3.62-8.08 8.08-8.08h15c-4.46 0-8.08 3.62-8.08 8.08z"/><path d="m168.885 103.702c2.71 0 5.26.67 7.49 1.85-5.15 2.7-8.66 8.1-8.66 14.32h-15c0-8.931 7.24-16.17 16.17-16.17z"/><path d="m210.765 89.261c-8.27 2.72-14.55 9.83-16.11 18.56-2.86-2.56-6.63-4.12-10.77-4.12-1.1 0-2.18.11-3.22.32 3.56-10.04 13.61-17 25.12-15.83 1.72.181 3.39.54 4.98 1.07z"/></g></g><path d="m89.505 146.055h30v34.28h-30z" fill="#ffbb98"/><path d="m89.505 146.052h15v34.28h-15z" fill="#ffcaa6"/><path d="m180.265 239.365v.97c0 5.523-4.477 10-10 10h-131.52c-5.523 0-10-4.477-10-10v-.97c0-24.04 11.19-45.47 28.65-59.34 1.18-.94 2.38-1.84 3.61-2.7 12.31-8.65 27.3-13.73 43.49-13.73h.02c16.19 0 31.18 5.08 43.49 13.73 1.23.86 2.44 1.76 3.61 2.7 2.26 1.79 4.42 3.72 6.46 5.76 13.71 13.71 22.19 32.65 22.19 53.58z" fill="#ffe2e2"/><path d="m180.265 239.361v.97c0 5.53-4.48 10-10 10h-15c5.52 0 10-4.47 10-10v-.97c0-20.93-8.48-39.87-22.19-53.58-2.04-2.04-4.2-3.97-6.46-5.76-1.17-.94-2.38-1.84-3.61-2.7-10.39-7.3-22.68-12.06-36-13.36 2.46-.25 4.96-.37 7.49-.37h.02c16.19 0 31.18 5.08 43.49 13.73 1.23.86 2.44 1.76 3.61 2.7 2.26 1.79 4.42 3.72 6.46 5.76 13.71 13.71 22.19 32.65 22.19 53.58z" fill="#ffcfcf"/><path d="m112.005 163.961c-13.32 1.3-25.61 6.06-36 13.36-1.23.86-2.43 1.76-3.61 2.7-17.46 13.87-28.65 35.3-28.65 59.34v.97c0 5.53 4.48 10 10 10h-15c-5.52 0-10-4.47-10-10v-.97c0-24.04 11.19-45.47 28.65-59.34 1.18-.94 2.38-1.84 3.61-2.7 12.31-8.65 27.3-13.73 43.49-13.73h.02c2.53 0 5.03.12 7.49.37z" fill="#ffefee"/><g fill="#5f266d"><path d="m127.962 30.087c6.691 3.268 11.717 9.244 13.786 16.396 1.475 5.097 9.162 2.885 7.686-2.225-2.697-9.318-9.244-17.104-17.962-21.361-1.984-.968-4.379-.146-5.35 1.84-.969 1.985-.146 4.381 1.84 5.35z"/><path d="m142.79 58.687v3.394c0 2.209 1.791 4 4 4s4-1.791 4-4v-3.394c0-2.209-1.791-4-4-4s-4 1.791-4 4z"/><path d="m154.4 177.131h1.114c2.908 0 5.632-1.475 7.287-3.949 2.944-4.412 5.037-9.646 6.288-15.647 10.749-.033 20.247-.029 21.887.06.197.03.396.045.593.045 1.423 0 2.801-.761 3.523-2.101 1.05-1.944.325-4.37-1.619-5.42-.941-.507-1.281-.69-23.248-.607.239-3.002.293-6.168.183-9.476h32.858c7.693 0 15.128-3.217 20.398-8.824 5.344-5.688 8.02-13.126 7.533-20.945-.839-13.489-11.592-24.691-25.014-26.057-12.564-1.276-24.271 6.071-28.857 17.344-4.377-2.021-9.534-2.498-14.589-.875l-4.572-15.962c4.901-.182 8.675-4.191 8.675-8.986v-22.059c0-28.675-23.329-52.004-52.004-52.004h-20.665c-28.675 0-52.004 23.329-52.004 52.004v22.125c0 4.83 3.859 8.798 8.656 8.987l-7.025 24.53c-.801 2.484-12.843 41.016 2.412 63.871 1.654 2.471 4.377 3.945 7.285 3.945h1.115c-18.983 15.227-29.865 37.884-29.865 62.229v.971c0 7.72 6.28 14 14 14h131.52c7.72 0 14-6.28 14-14 0-23.129-8.892-42.911-23.361-57.378-2.072-2.069-4.265-4.028-6.504-5.821zm7.762-27.583c-4.439.023-9.523.053-15.363.09-2.209.014-3.988 1.816-3.975 4.025.014 2.2 1.802 3.975 3.999 3.975h.026c4.176-.026 9.046-.052 13.999-.073-1.058 4.305-2.624 8.063-4.699 11.172-.165.247-.403.395-.636.395h-13.158c-5.967-3.229-12.294-5.654-18.852-7.255v-13.051c5.188-2.116 9.942-5.069 14.191-8.79h24.708c.118 3.344.037 6.521-.24 9.512zm6.722-41.847c7.434 0 7.927 5.333 12.079 3.899 1.371-.474 2.379-1.651 2.634-3.08 1.82-10.225 11.374-17.411 21.779-16.352 9.57.974 17.239 8.967 17.838 18.594.348 5.593-1.563 10.909-5.379 14.971-3.819 4.064-8.993 6.303-14.568 6.303-12.63 0-80.451 0-86.721 0-2.251 0-4.083-1.832-4.083-4.084 0-2.251 1.832-4.083 4.083-4.083h3.165c4.246 0 5.563 0 5.453 0h27.552c2.209 0 4-1.791 4-4 0-6.709 5.459-12.168 12.168-12.168zm-78.083 34.576c-17.254-5.911-28.846-22.097-28.846-40.275v-17.612c13.818-1.229 24.293-5.217 31.826-12.088 4.541-4.143 7.575-8.979 9.737-13.928 5.424 12.593 16.291 23.565 43.536 25.896v17.731c0 4.76-.795 9.412-2.347 13.867h-23.429c-.231-4.127-1.932-7.982-4.886-10.936-3.18-3.181-7.401-4.932-11.888-4.932-9.274 0-16.82 7.546-16.82 16.82v10.93c0 6.776 5.509 12.29 12.28 12.29 16.117 0 9.96-.006 23.537-.006-1.708.858-3.471 1.615-5.298 2.243-8.807 3.032-18.587 3.032-27.402 0zm24.704 9.059v9.021c-3.624-.499-7.298-.765-11.01-.765-3.704 0-7.372.266-10.99.764v-9.019c3.597.808 7.278 1.225 11 1.225 3.722-.001 7.403-.418 11-1.226zm-10.314-19.294h-5.227c-2.36 0-4.28-1.925-4.28-4.29v-10.93c0-4.863 3.957-8.82 8.82-8.82 2.35 0 4.562.919 6.231 2.588 1.55 1.551 2.444 3.573 2.565 5.735-5.089 1.423-8.837 6.091-8.837 11.628.001 1.436.266 2.809.728 4.089zm-55.024-56.245v-22.125c0-24.264 19.74-44.004 44.004-44.004h20.667c24.264 0 44.004 19.74 44.004 44.004v22.057c0 .546-.448 1.003-1.018 1.003-.001 0-.002 0-.004 0-2.366-.008-4.608-.074-6.745-.188-.007 0-.013-.002-.02-.002-.003 0-.005.001-.008.001-33.436-1.797-39.778-16.23-43.601-32.193-.431-1.797-2.035-3.065-3.883-3.068-.002 0-.005 0-.007 0-1.844 0-3.45 1.262-3.887 3.054-3.861 15.869-11.137 32.787-48.498 32.467-.554-.006-1.004-.457-1.004-1.006zm3.328 93.334c-.233 0-.471-.147-.633-.391-13.27-19.881-1.553-56.651-1.434-57.019.015-.046.029-.093.042-.139l2.502-8.735c.339 20.29 12.812 38.353 31.533 45.974v13.052c-6.559 1.602-12.887 4.028-18.855 7.257h-13.155zm116.769 77.201h-131.519c-3.309 0-6-2.691-6-6v-.971c0-22.02 9.892-42.506 27.141-56.21 12.385-9.859 27.898-15.56 44.629-15.56 38.273 0 71.75 30.41 71.75 72.74-.001 3.309-2.692 6.001-6.001 6.001z"/><ellipse cx="81.579" cy="89.326" rx="6.237" ry="6.237" transform="matrix(.999 -.045 .045 .999 -3.964 3.788)"/><ellipse cx="127.43" cy="89.326" rx="6.237" ry="6.237" transform="matrix(.999 -.045 .045 .999 -3.917 5.866)"/><path d="m220.005 145.866c-5.97 0-10.827 4.857-10.827 10.827 0 2.209 1.791 4 4 4s4-1.791 4-4c0-1.559 1.269-2.827 2.827-2.827s2.827 1.269 2.827 2.827v5.481c0 1.559-1.269 2.827-2.827 2.827h-37.057c-2.209 0-4 1.791-4 4s1.791 4 4 4h37.057c5.97 0 10.827-4.857 10.827-10.827v-5.481c0-5.97-4.858-10.827-10.827-10.827z"/><circle cx="104.505" cy="199.085" r="6.25"/><circle cx="104.505" cy="225.335" r="6.25"/></g></g></svg>