<svg height="512" viewBox="0 0 512 512" width="512" xmlns="http://www.w3.org/2000/svg"><g id="filled_outline" data-name="filled outline"><path d="m190.24 301.4-22.24-24.15 13.84-10.957a16.4 16.4 0 0 0 4.686-19.787 16.4 16.4 0 0 0 -22.507-7.584l-12.019 6.328v-24l-24 2.75 16-48-24-88h120v69.25l32 32 32 2.75v21.25l8 56 32.576 18.688-88.576 72.062-57.576-57.576a6.385 6.385 0 0 1 -8.184-1.024z" fill="#f5d3bd"/><path d="m240 141.25-40-48a70.292 70.292 0 0 1 -46.7 52.9l-9.3 3.1-64 8v-26.081a78.893 78.893 0 0 1 29.609-61.606l5.344-4.275a78.9 78.9 0 0 1 93.047-4.038l42.422-4.713a69.861 69.861 0 0 1 52.44 15.763 69.866 69.866 0 0 1 25.138 53.672 166.382 166.382 0 0 1 -17.566 74.409l-6.434 12.869h-10l-22-24-32-31z" fill="#6e3f0d"/><path d="m208 197.252a8.015 8.015 0 0 1 -2.531-.412l-24-8a8 8 0 0 1 -1.908-14.246l24-16a8 8 0 0 1 8.876 13.312l-10.39 6.927 8.482 2.827a8 8 0 0 1 -2.529 15.592z" fill="#6e3f0d"/><path d="m413.241 315.172-37.241-11.172-32-16-88 72-57.576-57.576-38.424 25.576-37.241 11.172c-25.379 7.614-42.759 22.973-42.759 49.47v67.358h80s216 0 216-.314v.314h80v-83.358a60 60 0 0 0 -42.759-57.47z" fill="#0094f6"/><path d="m80 408h80v48h-80z" fill="#f5d3bd"/><path d="m376 408h80v47.686h-80z" fill="#f5d3bd"/><g fill="#8ed2ff"><path d="m61.673 280.177a8 8 0 0 1 -.458-15.987l23.959-1.4a8 8 0 1 1 .931 15.973l-23.959 1.4c-.158.01-.316.014-.473.014z"/><path d="m71.075 311.92a8 8 0 0 1 -3.914-14.982l15.983-8.945a8 8 0 0 1 7.814 13.962l-15.982 8.945a7.958 7.958 0 0 1 -3.901 1.02z"/><path d="m84.252 255.057a7.964 7.964 0 0 1 -3.151-.651l-16.439-7.054a8 8 0 0 1 6.311-14.7l16.438 7.048a8 8 0 0 1 -3.159 15.354z"/></g><path d="m112 264h16v16h-16z" fill="#fbb540"/><path d="m136 288h16v16h-16z" fill="#fbb540"/><path d="m104 304h16v16h-16z" fill="#fbb540"/><path d="m272 165.25h8a24 24 0 0 1 24 24 24 24 0 0 1 -24 24h-8a0 0 0 0 1 0 0v-48a0 0 0 0 1 0 0z" fill="#f5d3bd"/><path d="m256 232v24l-57.576 46.424 9.576 9.576 60-48v-32z" fill="#e8c8b3"/><path d="m144 408.157h16v47.686h-16z" fill="#e8c8b3"/><path d="m376 408h16v47.686h-16z" fill="#e8c8b3"/><path d="m208 197.252a8 8 0 0 0 2.529-15.592l-8.482-2.827 10.39-6.927a8 8 0 0 0 -8.876-13.312l-24 16a8 8 0 0 0 1.908 14.246l24 8a8.015 8.015 0 0 0 2.531.412z"/><path d="m80 464h376a8 8 0 0 0 8-8v-83.358a68 68 0 0 0 -48.46-65.133l-36.452-10.935-59.737-32.436-7.078-49.546 5.317-10.632a175.274 175.274 0 0 0 18.41-77.987 77.863 77.863 0 0 0 -86.462-77.387l-39.6 4.4a86.579 86.579 0 0 0 -99.98 6.056l-5.345 4.274a86.475 86.475 0 0 0 -32.613 67.853v26.081a8 8 0 0 0 8.992 7.938l50.06-6.257 4.593 16.838-15.235 45.7a8 8 0 0 0 8.5 10.478l15.09-1.728v15.031a8 8 0 0 0 11.314 7.281l12.972-5.905a7.59 7.59 0 0 1 8.143 12.62l-13.7 11.983a8 8 0 0 0 -.617 11.44l19.295 21.424-24.855 16.588-36.1 10.829c-31.695 9.511-48.452 29.267-48.452 57.132v67.358a8 8 0 0 0 8 8zm8-48h64v32h-64zm360 31.687h-64v-31.687h64zm-360-316.518a70.551 70.551 0 0 1 26.606-55.359l5.345-4.275a70.647 70.647 0 0 1 83.611-3.629 8.025 8.025 0 0 0 5.322 1.295l42.422-4.713a61.862 61.862 0 0 1 68.694 61.485 159.228 159.228 0 0 1 -9.432 53.8 32.057 32.057 0 0 0 -30.568-22.523h-8a8 8 0 0 0 -8 8v4.687l-16-16v-12.687a8 8 0 0 0 -1.854-5.121l-40-48a8 8 0 0 0 -13.991 3.552 62.43 62.43 0 0 1 -41.384 46.879l-8.549 2.849-54.222 6.779zm92.548 145.731 6.417-5.614a23.59 23.59 0 0 0 -25.309-39.223l-1.656.754v-11.567a8 8 0 0 0 -8.911-7.948l-11.53 1.321 12.031-36.093a8 8 0 0 0 .128-4.635l-4.7-17.219 8.81-2.936a78.5 78.5 0 0 0 47.455-44.05l28.717 34.456v13.1a8 8 0 0 0 2.343 5.657l32 32a8 8 0 0 0 13.657-5.653v-16a16 16 0 0 1 10.665 27.928 7.771 7.771 0 0 0 -.6.6l-.778.862a7.995 7.995 0 0 0 7.017 13.281l7.78 54.461a8 8 0 0 0 4.1 5.9l22.546 12.242-74.192 60.7-46.924-46.924 55.528-35.225a31.844 31.844 0 0 0 14.858-27.021 8 8 0 1 0 -16 0 15.922 15.922 0 0 1 -7.429 13.51l-61.571 39.436zm-55.49 69.934 37.206-11.162c.018 0 35.1-22.993 35.1-22.993l52.977 52.977a8 8 0 0 0 10.722.534l84.851-69.423 26.249 14.253c.277.151 38.777 11.813 38.777 11.813a51.682 51.682 0 0 1 37.06 49.809v27.358h-72a8 8 0 0 0 -8 8v40h-200v-40a8 8 0 0 0 -8-8h-72v-11.358c0-20.651 12.122-34.327 37.058-41.807z"/><path d="m53.694 272.643a8 8 0 0 0 7.979 7.534c.157 0 .315 0 .473-.014l23.959-1.4a8 8 0 1 0 -.931-15.973l-23.959 1.4a8 8 0 0 0 -7.521 8.453z"/><path d="m71.075 311.92a7.958 7.958 0 0 0 3.9-1.021l15.982-8.944a8 8 0 0 0 -7.814-13.962l-15.983 8.945a8 8 0 0 0 3.914 14.982z"/><path d="m64.662 247.352 16.438 7.054a8 8 0 0 0 6.31-14.7l-16.438-7.055a8 8 0 0 0 -6.311 14.7z"/><path d="m112 264h16v16h-16z"/><path d="m136 288h16v16h-16z"/><path d="m104 304h16v16h-16z"/></g></svg>